%TF.GenerationSoftware,KiCad,Pcbnew,7.0.1*%
%TF.CreationDate,2024-11-26T18:11:55-05:00*%
%TF.ProjectId,tfg53,74666735-332e-46b6-9963-61645f706362,rev?*%
%TF.SameCoordinates,Original*%
%TF.FileFunction,Copper,L1,Top*%
%TF.FilePolarity,Positive*%
%FSLAX46Y46*%
G04 Gerber Fmt 4.6, Leading zero omitted, Abs format (unit mm)*
G04 Created by KiCad (PCBNEW 7.0.1) date 2024-11-26 18:11:55*
%MOMM*%
%LPD*%
G01*
G04 APERTURE LIST*
%TA.AperFunction,ComponentPad*%
%ADD10C,3.000000*%
%TD*%
%TA.AperFunction,ComponentPad*%
%ADD11C,0.800000*%
%TD*%
%TA.AperFunction,ComponentPad*%
%ADD12C,6.000000*%
%TD*%
%TA.AperFunction,ComponentPad*%
%ADD13R,2.600000X2.600000*%
%TD*%
%TA.AperFunction,ComponentPad*%
%ADD14C,2.600000*%
%TD*%
%TA.AperFunction,ComponentPad*%
%ADD15C,1.800000*%
%TD*%
%TA.AperFunction,ComponentPad*%
%ADD16R,2.000000X2.000000*%
%TD*%
%TA.AperFunction,ComponentPad*%
%ADD17C,2.000000*%
%TD*%
%TA.AperFunction,ComponentPad*%
%ADD18C,1.600000*%
%TD*%
%TA.AperFunction,ComponentPad*%
%ADD19O,1.600000X1.600000*%
%TD*%
%TA.AperFunction,ComponentPad*%
%ADD20R,1.850000X1.850000*%
%TD*%
%TA.AperFunction,ComponentPad*%
%ADD21C,1.850000*%
%TD*%
%TA.AperFunction,ComponentPad*%
%ADD22R,2.300000X2.000000*%
%TD*%
%TA.AperFunction,ComponentPad*%
%ADD23C,2.300000*%
%TD*%
%TA.AperFunction,ComponentPad*%
%ADD24C,2.500000*%
%TD*%
%TA.AperFunction,ComponentPad*%
%ADD25R,1.600000X1.600000*%
%TD*%
%TA.AperFunction,ComponentPad*%
%ADD26O,1.400000X1.750000*%
%TD*%
%TA.AperFunction,ComponentPad*%
%ADD27R,1.700000X1.700000*%
%TD*%
%TA.AperFunction,ComponentPad*%
%ADD28O,1.700000X1.700000*%
%TD*%
%TA.AperFunction,ComponentPad*%
%ADD29R,1.905000X2.000000*%
%TD*%
%TA.AperFunction,ComponentPad*%
%ADD30O,1.905000X2.000000*%
%TD*%
%TA.AperFunction,ComponentPad*%
%ADD31R,3.000000X3.000000*%
%TD*%
%TA.AperFunction,ComponentPad*%
%ADD32R,1.800000X1.800000*%
%TD*%
%TA.AperFunction,ViaPad*%
%ADD33C,0.800000*%
%TD*%
%TA.AperFunction,Conductor*%
%ADD34C,1.000000*%
%TD*%
%TA.AperFunction,Conductor*%
%ADD35C,0.508000*%
%TD*%
%TA.AperFunction,Conductor*%
%ADD36C,3.000000*%
%TD*%
%TA.AperFunction,Conductor*%
%ADD37C,2.000000*%
%TD*%
G04 APERTURE END LIST*
D10*
%TO.P,F1,1*%
%TO.N,Net-(J5-Pin_1)*%
X60000000Y-91741800D03*
%TO.P,F1,2*%
%TO.N,Net-(J6-Pin_1)*%
X60000000Y-69141800D03*
%TD*%
D11*
%TO.P,H4,1*%
%TO.N,N/C*%
X57750000Y-60000000D03*
X58409010Y-58409010D03*
X58409010Y-61590990D03*
X60000000Y-57750000D03*
D12*
X60000000Y-60000000D03*
D11*
X60000000Y-62250000D03*
X61590990Y-58409010D03*
X61590990Y-61590990D03*
X62250000Y-60000000D03*
%TD*%
%TO.P,H1,1*%
%TO.N,N/C*%
X57750000Y-130000000D03*
X58409010Y-128409010D03*
X58409010Y-131590990D03*
X60000000Y-127750000D03*
D12*
X60000000Y-130000000D03*
D11*
X60000000Y-132250000D03*
X61590990Y-128409010D03*
X61590990Y-131590990D03*
X62250000Y-130000000D03*
%TD*%
D13*
%TO.P,KBPC610,1,+*%
%TO.N,Net-(D1-+)*%
X121697200Y-96653200D03*
D14*
%TO.P,KBPC610,2*%
%TO.N,Net-(D1-Pad2)*%
X121697200Y-107053200D03*
%TO.P,KBPC610,3,-*%
%TO.N,Net-(D1--)*%
X132097200Y-107053200D03*
%TO.P,KBPC610,4*%
%TO.N,Net-(D1-Pad4)*%
X132097200Y-96653200D03*
%TD*%
D10*
%TO.P,INTEPT,1,Pin_1*%
%TO.N,Net-(J6-Pin_1)*%
X82956400Y-77894400D03*
%TD*%
D15*
%TO.P,OLED,1,GND*%
%TO.N,GND*%
X151810000Y-60000000D03*
%TO.P,OLED,2,VCC*%
%TO.N,3v3*%
X149270000Y-60000000D03*
%TO.P,OLED,3,SCL*%
%TO.N,SLC*%
X146730000Y-60000000D03*
%TO.P,OLED,4,SDA*%
%TO.N,SDA*%
X144190000Y-60000000D03*
%TD*%
D16*
%TO.P,U1,1,3V3*%
%TO.N,3v3*%
X181610000Y-60248800D03*
D17*
%TO.P,U1,2,GND*%
%TO.N,GND*%
X181610000Y-62788800D03*
%TO.P,U1,3,D15*%
%TO.N,unconnected-(U1-D15-Pad3)*%
X181610000Y-65328800D03*
%TO.P,U1,4,D2*%
%TO.N,unconnected-(U1-D2-Pad4)*%
X181610000Y-67868800D03*
%TO.P,U1,5,D4*%
%TO.N,GPIO 4*%
X181610000Y-70408800D03*
%TO.P,U1,6,RX2*%
%TO.N,unconnected-(U1-RX2-Pad6)*%
X181610000Y-72948800D03*
%TO.P,U1,7,TX2*%
%TO.N,unconnected-(U1-TX2-Pad7)*%
X181610000Y-75488800D03*
%TO.P,U1,8,D5*%
%TO.N,CS*%
X181610000Y-78028800D03*
%TO.P,U1,9,D18*%
%TO.N,SCK*%
X181610000Y-80568800D03*
%TO.P,U1,10,D19*%
%TO.N,GPIO 19*%
X181610000Y-83108800D03*
%TO.P,U1,11,D21*%
%TO.N,SDA*%
X181610000Y-85648800D03*
%TO.P,U1,12,RX0*%
%TO.N,unconnected-(U1-RX0-Pad12)*%
X181610000Y-88188800D03*
%TO.P,U1,13,TX0*%
%TO.N,unconnected-(U1-TX0-Pad13)*%
X181610000Y-90728800D03*
%TO.P,U1,14,D22*%
%TO.N,SLC*%
X181610000Y-93268800D03*
%TO.P,U1,15,D23*%
%TO.N,SO*%
X181610000Y-95808800D03*
%TO.P,U1,16,EN*%
%TO.N,unconnected-(U1-EN-Pad16)*%
X207010000Y-95808800D03*
%TO.P,U1,17,VP*%
%TO.N,unconnected-(U1-VP-Pad17)*%
X207010000Y-93268800D03*
%TO.P,U1,18,VN*%
%TO.N,unconnected-(U1-VN-Pad18)*%
X207010000Y-90728800D03*
%TO.P,U1,19,D34*%
%TO.N,unconnected-(U1-D34-Pad19)*%
X207010000Y-88188800D03*
%TO.P,U1,20,D35*%
%TO.N,SOUND*%
X207010000Y-85648800D03*
%TO.P,U1,21,D32*%
%TO.N,GPIO 32*%
X207010000Y-83108800D03*
%TO.P,U1,22,D33*%
%TO.N,GPIO 33*%
X207010000Y-80568800D03*
%TO.P,U1,23,D25*%
%TO.N,unconnected-(U1-D25-Pad23)*%
X207010000Y-78028800D03*
%TO.P,U1,24,D26*%
%TO.N,unconnected-(U1-D26-Pad24)*%
X207010000Y-75488800D03*
%TO.P,U1,25,D27*%
%TO.N,GPIO 27*%
X207010000Y-72948800D03*
%TO.P,U1,26,D14*%
%TO.N,unconnected-(U1-D14-Pad26)*%
X207010000Y-70408800D03*
%TO.P,U1,27,D12*%
%TO.N,unconnected-(U1-D12-Pad27)*%
X207010000Y-67868800D03*
%TO.P,U1,28,D13*%
%TO.N,unconnected-(U1-D13-Pad28)*%
X207010000Y-65328800D03*
%TO.P,U1,29,GND*%
%TO.N,GND*%
X207010000Y-62788800D03*
%TO.P,U1,30,VIN*%
%TO.N,+5V*%
X207010000Y-60248800D03*
%TD*%
D18*
%TO.P,47K,1*%
%TO.N,L*%
X101168200Y-88519000D03*
D19*
%TO.P,47K,2*%
%TO.N,Net-(D1-Pad4)*%
X111328200Y-88519000D03*
%TD*%
D10*
%TO.P,INL,1,Pin_1*%
%TO.N,L*%
X82956400Y-94894400D03*
%TD*%
D20*
%TO.P,BZ1,1*%
%TO.N,SOUND*%
X219710000Y-92500000D03*
D21*
%TO.P,BZ1,2*%
%TO.N,GND*%
X219710000Y-97500000D03*
%TD*%
D22*
%TO.P,HLK-PM01,1,AC/L*%
%TO.N,Net-(PS1-AC{slash}L)*%
X178829200Y-113200800D03*
D23*
%TO.P,HLK-PM01,2,AC/N*%
%TO.N,N*%
X178829200Y-118200800D03*
%TO.P,HLK-PM01,3,-Vout*%
%TO.N,GND*%
X208229200Y-108000800D03*
%TO.P,HLK-PM01,4,+Vout*%
%TO.N,+5V*%
X208229200Y-123400800D03*
%TD*%
D24*
%TO.P,KEY2,1,1*%
%TO.N,unconnected-(KEY2-Pad1)*%
X230250000Y-72500000D03*
%TO.P,KEY2,2,2*%
%TO.N,GPIO 33*%
X217750000Y-72500000D03*
%TO.P,KEY2,3,3*%
%TO.N,unconnected-(KEY2-Pad3)*%
X217750000Y-77500000D03*
%TO.P,KEY2,4,4*%
%TO.N,3v3*%
X230250000Y-77500000D03*
%TD*%
D10*
%TO.P,VIN,1,Pin_1*%
%TO.N,N*%
X60000000Y-116001800D03*
%TD*%
D24*
%TO.P,KEY1,1,1*%
%TO.N,unconnected-(KEY1-Pad1)*%
X230250000Y-112500000D03*
%TO.P,KEY1,2,2*%
%TO.N,GPIO 32*%
X217750000Y-112500000D03*
%TO.P,KEY1,3,3*%
%TO.N,unconnected-(KEY1-Pad3)*%
X217750000Y-117500000D03*
%TO.P,KEY1,4,4*%
%TO.N,3v3*%
X230250000Y-117500000D03*
%TD*%
D25*
%TO.P,PC817,1*%
%TO.N,Net-(D1-+)*%
X139913200Y-101798200D03*
D19*
%TO.P,PC817,2*%
%TO.N,Net-(D1--)*%
X139913200Y-104338200D03*
%TO.P,PC817,3*%
%TO.N,GPIO 19*%
X147533200Y-104338200D03*
%TO.P,PC817,4*%
%TO.N,3v3*%
X147533200Y-101798200D03*
%TD*%
D26*
%TO.P,MOC3010,1,1*%
%TO.N,Net-(R7-Pad1)*%
X145567400Y-87264400D03*
%TO.P,MOC3010,2,2*%
%TO.N,GND*%
X148107400Y-87264400D03*
%TO.P,MOC3010,3,NC*%
%TO.N,unconnected-(U4-NC-Pad3)*%
X150647400Y-87264400D03*
%TO.P,MOC3010,4,4*%
%TO.N,Net-(Q1-G)*%
X150647400Y-79664400D03*
%TO.P,MOC3010,5,DNC*%
%TO.N,unconnected-(U4-DNC-Pad5)*%
X148107400Y-79664400D03*
%TO.P,MOC3010,6,6*%
%TO.N,Net-(R6-Pad2)*%
X145567400Y-79664400D03*
%TD*%
D10*
%TO.P,F3,1*%
%TO.N,L*%
X130000000Y-130000000D03*
%TO.P,F3,2*%
%TO.N,Net-(PS1-AC{slash}L)*%
X152600000Y-130000000D03*
%TD*%
D18*
%TO.P,47K,1*%
%TO.N,Net-(D1-Pad2)*%
X112115600Y-117246400D03*
D19*
%TO.P,47K,2*%
%TO.N,N*%
X101955600Y-117246400D03*
%TD*%
D11*
%TO.P,H3,1*%
%TO.N,N/C*%
X227750000Y-60000000D03*
X228409010Y-58409010D03*
X228409010Y-61590990D03*
X230000000Y-57750000D03*
D12*
X230000000Y-60000000D03*
D11*
X230000000Y-62250000D03*
X231590990Y-58409010D03*
X231590990Y-61590990D03*
X232250000Y-60000000D03*
%TD*%
D18*
%TO.P,220,1*%
%TO.N,L*%
X123088400Y-77724000D03*
D19*
%TO.P,220,2*%
%TO.N,Net-(R6-Pad2)*%
X133248400Y-77724000D03*
%TD*%
D27*
%TO.P,TK,1,Pin_1*%
%TO.N,SO*%
X175000000Y-60000000D03*
D28*
%TO.P,TK,2,Pin_2*%
%TO.N,CS*%
X172460000Y-60000000D03*
%TO.P,TK,3,Pin_3*%
%TO.N,SCK*%
X169920000Y-60000000D03*
%TO.P,TK,4,Pin_4*%
%TO.N,3v3*%
X167380000Y-60000000D03*
%TO.P,TK,5,Pin_5*%
%TO.N,GND*%
X164840000Y-60000000D03*
%TD*%
D29*
%TO.P,BTA,1,A1*%
%TO.N,Net-(Q1-A1)*%
X125000000Y-60000000D03*
D30*
%TO.P,BTA,2,A2*%
%TO.N,L*%
X127540000Y-60000000D03*
%TO.P,BTA,3,G*%
%TO.N,Net-(Q1-G)*%
X130080000Y-60000000D03*
%TD*%
D18*
%TO.P,1K,1*%
%TO.N,GND*%
X164592000Y-90220800D03*
D19*
%TO.P,1K,2*%
%TO.N,GPIO 19*%
X174752000Y-90220800D03*
%TD*%
D11*
%TO.P,H2,1*%
%TO.N,N/C*%
X227750000Y-130000000D03*
X228409010Y-128409010D03*
X228409010Y-131590990D03*
X230000000Y-127750000D03*
D12*
X230000000Y-130000000D03*
D11*
X230000000Y-132250000D03*
X231590990Y-128409010D03*
X231590990Y-131590990D03*
X232250000Y-130000000D03*
%TD*%
D31*
%TO.P,Heater,1*%
%TO.N,Net-(Q1-A1)*%
X106883200Y-59944000D03*
D10*
%TO.P,Heater,2*%
%TO.N,N*%
X101803200Y-59944000D03*
%TD*%
%TO.P,VIL,1,Pin_1*%
%TO.N,Net-(J5-Pin_1)*%
X60000000Y-101650800D03*
%TD*%
D18*
%TO.P,1K,1*%
%TO.N,GPIO 33*%
X215000000Y-85000000D03*
D19*
%TO.P,1K,2*%
%TO.N,GND*%
X225160000Y-85000000D03*
%TD*%
D18*
%TO.P,1K,1*%
%TO.N,GPIO 32*%
X215000000Y-105000000D03*
D19*
%TO.P,1K,2*%
%TO.N,GND*%
X225160000Y-105000000D03*
%TD*%
D10*
%TO.P,INN,1,Pin_1*%
%TO.N,N*%
X82956400Y-111894400D03*
%TD*%
D32*
%TO.P,RV1,1,1*%
%TO.N,GND*%
X220000000Y-60000000D03*
D15*
%TO.P,RV1,2,2*%
%TO.N,GPIO 27*%
X217500000Y-60000000D03*
%TO.P,RV1,3,3*%
%TO.N,3v3*%
X215000000Y-60000000D03*
%TD*%
D18*
%TO.P,100,1*%
%TO.N,Net-(R7-Pad1)*%
X164617400Y-74701400D03*
D19*
%TO.P,100,2*%
%TO.N,GPIO 4*%
X174777400Y-74701400D03*
%TD*%
D33*
%TO.N,SDA*%
X160553400Y-70104000D03*
%TO.N,SO*%
X189788800Y-67335400D03*
%TD*%
D34*
%TO.N,Net-(Q1-G)*%
X136196200Y-66116200D02*
X130080000Y-60000000D01*
X146075400Y-66116200D02*
X136196200Y-66116200D01*
X150647400Y-70688200D02*
X146075400Y-66116200D01*
X150647400Y-79664400D02*
X150647400Y-70688200D01*
D35*
%TO.N,SDA*%
X160553400Y-70002400D02*
X160553400Y-70104000D01*
X156794200Y-66243200D02*
X160553400Y-70002400D01*
%TO.N,SO*%
X189788800Y-67335400D02*
X185146000Y-71978200D01*
X185146000Y-71978200D02*
X185146000Y-94127000D01*
X181610000Y-95808800D02*
X183464200Y-95808800D01*
X183464200Y-95808800D02*
X185146000Y-94127000D01*
%TO.N,SDA*%
X144190000Y-58171800D02*
X144190000Y-60000000D01*
X146939000Y-55422800D02*
X144190000Y-58171800D01*
X153085800Y-55422800D02*
X146939000Y-55422800D01*
X156794200Y-66243200D02*
X156794200Y-59131200D01*
X156794200Y-59131200D02*
X153085800Y-55422800D01*
%TO.N,SOUND*%
X210464400Y-85648800D02*
X207010000Y-85648800D01*
X219710000Y-92500000D02*
X217315600Y-92500000D01*
X217315600Y-92500000D02*
X210464400Y-85648800D01*
D34*
%TO.N,Net-(D1-+)*%
X139608400Y-101493400D02*
X126537400Y-101493400D01*
X139913200Y-101798200D02*
X139608400Y-101493400D01*
X126537400Y-101493400D02*
X121697200Y-96653200D01*
%TO.N,Net-(D1-Pad2)*%
X121697200Y-107664800D02*
X121697200Y-107053200D01*
%TO.N,Net-(D1--)*%
X137198200Y-107053200D02*
X139913200Y-104338200D01*
X132097200Y-107053200D02*
X137198200Y-107053200D01*
%TO.N,Net-(D1-Pad4)*%
X111328200Y-88519000D02*
X123963000Y-88519000D01*
X123963000Y-88519000D02*
X132097200Y-96653200D01*
D36*
%TO.N,Net-(J5-Pin_1)*%
X60000000Y-101650800D02*
X60000000Y-91741800D01*
%TO.N,Net-(J6-Pin_1)*%
X82956400Y-77894400D02*
X72372000Y-67310000D01*
X72372000Y-67310000D02*
X61831800Y-67310000D01*
X61831800Y-67310000D02*
X60000000Y-69141800D01*
%TO.N,L*%
X100126800Y-77724000D02*
X96201400Y-77724000D01*
D37*
X127540000Y-70503800D02*
X127540000Y-60000000D01*
D34*
X110871000Y-95554800D02*
X103860600Y-95554800D01*
X101168200Y-92862400D02*
X101168200Y-88519000D01*
D37*
X123088400Y-74955400D02*
X127540000Y-70503800D01*
X123088400Y-77724000D02*
X123088400Y-74955400D01*
D34*
X114630200Y-114630200D02*
X114630200Y-99314000D01*
X130000000Y-130000000D02*
X114630200Y-114630200D01*
X101168200Y-88519000D02*
X101168200Y-78765400D01*
X103860600Y-95554800D02*
X101168200Y-92862400D01*
X114630200Y-99314000D02*
X110871000Y-95554800D01*
D36*
X123088400Y-77724000D02*
X100126800Y-77724000D01*
D34*
X101168200Y-78765400D02*
X100126800Y-77724000D01*
D36*
X82956400Y-90969000D02*
X82956400Y-94894400D01*
X96201400Y-77724000D02*
X82956400Y-90969000D01*
%TO.N,N*%
X68554600Y-116001800D02*
X72720200Y-111836200D01*
X72720200Y-111836200D02*
X72778400Y-111894400D01*
D34*
X88308400Y-117246400D02*
X82956400Y-111894400D01*
D36*
X60000000Y-116001800D02*
X68554600Y-116001800D01*
X72778400Y-111894400D02*
X82956400Y-111894400D01*
D34*
X101955600Y-117246400D02*
X88308400Y-117246400D01*
D35*
%TO.N,CS*%
X171932600Y-76606400D02*
X171932600Y-60527400D01*
X181610000Y-78028800D02*
X173355000Y-78028800D01*
X171932600Y-60527400D02*
X172460000Y-60000000D01*
X173355000Y-78028800D02*
X171932600Y-76606400D01*
%TO.N,SCK*%
X172034200Y-80568800D02*
X181610000Y-80568800D01*
X169920000Y-60000000D02*
X169316400Y-60603600D01*
X169316400Y-77851000D02*
X172034200Y-80568800D01*
X169316400Y-60603600D02*
X169316400Y-77851000D01*
%TO.N,GPIO 32*%
X217750000Y-112500000D02*
X215409800Y-110159800D01*
X215409800Y-110159800D02*
X215392000Y-110159800D01*
X215392000Y-110159800D02*
X215000000Y-109767800D01*
X215000000Y-109767800D02*
X215000000Y-105000000D01*
%TO.N,GPIO 33*%
X215000000Y-85000000D02*
X215000000Y-83529600D01*
X217750000Y-72500000D02*
X215000000Y-75250000D01*
X215000000Y-75250000D02*
X215000000Y-85000000D01*
X212039200Y-80568800D02*
X207010000Y-80568800D01*
X215000000Y-83529600D02*
X212039200Y-80568800D01*
%TO.N,+5V*%
X205282800Y-60248800D02*
X207010000Y-60248800D01*
X203454000Y-118625600D02*
X203454000Y-62077600D01*
X203454000Y-62077600D02*
X205282800Y-60248800D01*
X208229200Y-123400800D02*
X203454000Y-118625600D01*
D34*
%TO.N,Net-(Q1-A1)*%
X106939200Y-60000000D02*
X106883200Y-59944000D01*
D37*
X125000000Y-60000000D02*
X106939200Y-60000000D01*
D34*
X124944000Y-59944000D02*
X125000000Y-60000000D01*
D35*
%TO.N,GPIO 19*%
X177546000Y-83108800D02*
X174752000Y-85902800D01*
X147838000Y-104033400D02*
X167238600Y-104033400D01*
X174777400Y-96494600D02*
X174752000Y-96469200D01*
X174752000Y-85902800D02*
X174752000Y-90220800D01*
X147533200Y-104338200D02*
X147838000Y-104033400D01*
X174752000Y-96469200D02*
X174752000Y-90220800D01*
X181610000Y-83108800D02*
X177546000Y-83108800D01*
X167238600Y-104033400D02*
X174777400Y-96494600D01*
D34*
%TO.N,Net-(R6-Pad2)*%
X143627000Y-77724000D02*
X145567400Y-79664400D01*
X133248400Y-77724000D02*
X143627000Y-77724000D01*
D35*
%TO.N,Net-(R7-Pad1)*%
X164617400Y-74701400D02*
X164617400Y-78917800D01*
X164617400Y-78917800D02*
X151638000Y-91897200D01*
X151638000Y-91897200D02*
X147167600Y-91897200D01*
X145567400Y-90398600D02*
X145567400Y-87264400D01*
X147116800Y-91948000D02*
X145567400Y-90398600D01*
X147167600Y-91897200D02*
X147116800Y-91948000D01*
%TO.N,GPIO 4*%
X174777400Y-74701400D02*
X174777400Y-73152000D01*
X174777400Y-73152000D02*
X177520600Y-70408800D01*
X177520600Y-70408800D02*
X181610000Y-70408800D01*
%TO.N,GPIO 27*%
X212191600Y-72948800D02*
X207010000Y-72948800D01*
X217500000Y-60000000D02*
X217500000Y-67640400D01*
X217500000Y-67640400D02*
X212191600Y-72948800D01*
D34*
%TO.N,Net-(PS1-AC{slash}L)*%
X185895600Y-113200800D02*
X178829200Y-113200800D01*
X191338200Y-118745000D02*
X191389000Y-118694200D01*
X191389000Y-118694200D02*
X185895600Y-113200800D01*
X191338200Y-126390400D02*
X191338200Y-118745000D01*
X152600000Y-130000000D02*
X187728600Y-130000000D01*
X187728600Y-130000000D02*
X191338200Y-126390400D01*
%TD*%
%TA.AperFunction,Conductor*%
%TO.N,GND*%
G36*
X233643731Y-55871135D02*
G01*
X233689097Y-55916331D01*
X233705865Y-55978133D01*
X233719228Y-59529466D01*
X233704387Y-59588759D01*
X233663025Y-59633758D01*
X233605190Y-59653532D01*
X233544936Y-59643276D01*
X233496900Y-59605481D01*
X233472756Y-59549331D01*
X233428706Y-59271211D01*
X233428705Y-59271206D01*
X233333742Y-58916801D01*
X233202255Y-58574264D01*
X233035682Y-58247348D01*
X233035679Y-58247343D01*
X232835853Y-57939636D01*
X232758883Y-57844587D01*
X232604949Y-57654494D01*
X232345506Y-57395051D01*
X232202936Y-57279600D01*
X232060363Y-57164146D01*
X231752656Y-56964320D01*
X231425735Y-56797744D01*
X231083200Y-56666258D01*
X230728788Y-56571293D01*
X230366406Y-56513897D01*
X230000000Y-56494696D01*
X229633593Y-56513897D01*
X229271211Y-56571293D01*
X228916799Y-56666258D01*
X228574264Y-56797744D01*
X228247343Y-56964320D01*
X227939636Y-57164146D01*
X227654490Y-57395054D01*
X227395054Y-57654490D01*
X227164146Y-57939636D01*
X226964320Y-58247343D01*
X226797744Y-58574264D01*
X226666258Y-58916799D01*
X226571293Y-59271211D01*
X226513897Y-59633593D01*
X226494696Y-59999999D01*
X226513897Y-60366406D01*
X226571293Y-60728788D01*
X226666258Y-61083200D01*
X226797744Y-61425735D01*
X226964320Y-61752656D01*
X227164146Y-62060363D01*
X227279600Y-62202936D01*
X227395051Y-62345506D01*
X227654494Y-62604949D01*
X227844587Y-62758883D01*
X227939636Y-62835853D01*
X228247343Y-63035679D01*
X228247348Y-63035682D01*
X228574264Y-63202255D01*
X228916801Y-63333742D01*
X229271206Y-63428705D01*
X229271209Y-63428705D01*
X229271211Y-63428706D01*
X229633593Y-63486102D01*
X229683373Y-63488710D01*
X230000000Y-63505304D01*
X230331645Y-63487923D01*
X230366406Y-63486102D01*
X230728788Y-63428706D01*
X230728788Y-63428705D01*
X230728794Y-63428705D01*
X231083199Y-63333742D01*
X231425736Y-63202255D01*
X231752652Y-63035682D01*
X232060366Y-62835851D01*
X232345506Y-62604949D01*
X232604949Y-62345506D01*
X232835851Y-62060366D01*
X233035682Y-61752652D01*
X233202255Y-61425736D01*
X233333742Y-61083199D01*
X233428705Y-60728794D01*
X233476211Y-60428849D01*
X233500261Y-60372824D01*
X233548106Y-60335032D01*
X233608180Y-60324612D01*
X233665958Y-60344084D01*
X233707471Y-60388739D01*
X233722683Y-60447781D01*
X233908132Y-109730819D01*
X233891723Y-109792934D01*
X233846432Y-109838500D01*
X233784419Y-109855286D01*
X216264315Y-109895643D01*
X216216708Y-109886259D01*
X216176348Y-109859324D01*
X215988566Y-109671542D01*
X215976783Y-109657908D01*
X215962338Y-109638505D01*
X215924165Y-109606474D01*
X215916189Y-109599165D01*
X215912241Y-109595217D01*
X215887786Y-109575880D01*
X215884991Y-109573603D01*
X215816122Y-109515815D01*
X215816835Y-109514965D01*
X215807313Y-109508088D01*
X215790819Y-109491594D01*
X215763939Y-109451366D01*
X215754500Y-109403913D01*
X215754500Y-106123862D01*
X215768511Y-106066605D01*
X215807378Y-106022286D01*
X215809048Y-106021116D01*
X215839139Y-106000047D01*
X216000047Y-105839139D01*
X216130568Y-105652734D01*
X216226739Y-105446496D01*
X216285635Y-105226692D01*
X216305468Y-105000000D01*
X216285635Y-104773308D01*
X216226739Y-104553504D01*
X216130568Y-104347266D01*
X216124219Y-104338199D01*
X216000046Y-104160859D01*
X215839140Y-103999953D01*
X215652735Y-103869432D01*
X215446497Y-103773261D01*
X215226689Y-103714364D01*
X215000000Y-103694531D01*
X214773310Y-103714364D01*
X214553502Y-103773261D01*
X214347264Y-103869432D01*
X214160859Y-103999953D01*
X213999953Y-104160859D01*
X213869432Y-104347264D01*
X213773261Y-104553502D01*
X213714364Y-104773310D01*
X213694531Y-105000000D01*
X213714364Y-105226689D01*
X213773261Y-105446497D01*
X213869432Y-105652735D01*
X213999953Y-105839140D01*
X214160858Y-106000045D01*
X214192622Y-106022286D01*
X214231489Y-106066605D01*
X214245500Y-106123862D01*
X214245500Y-109703800D01*
X214244191Y-109721770D01*
X214240685Y-109745706D01*
X214242441Y-109765777D01*
X214229766Y-109832150D01*
X214184172Y-109882022D01*
X214119199Y-109900584D01*
X209294360Y-109911698D01*
X204332783Y-109923127D01*
X204270665Y-109906610D01*
X204225160Y-109861210D01*
X204208500Y-109799128D01*
X204208500Y-99369982D01*
X204789500Y-99369982D01*
X204828604Y-99629415D01*
X204905937Y-99880123D01*
X205019772Y-100116504D01*
X205155766Y-100315970D01*
X205167571Y-100333285D01*
X205346015Y-100525601D01*
X205346019Y-100525605D01*
X205551143Y-100689186D01*
X205778357Y-100820368D01*
X206022584Y-100916220D01*
X206278370Y-100974602D01*
X206334408Y-100978801D01*
X206474501Y-100989300D01*
X206474506Y-100989300D01*
X206605494Y-100989300D01*
X206605499Y-100989300D01*
X206728078Y-100980113D01*
X206801630Y-100974602D01*
X207057416Y-100916220D01*
X207301643Y-100820368D01*
X207528857Y-100689186D01*
X207733981Y-100525605D01*
X207833273Y-100418592D01*
X207912428Y-100333285D01*
X207912429Y-100333282D01*
X207912433Y-100333279D01*
X208060228Y-100116504D01*
X208174063Y-99880123D01*
X208251396Y-99629415D01*
X208290500Y-99369982D01*
X208290500Y-99107618D01*
X208251396Y-98848185D01*
X208174063Y-98597477D01*
X208060228Y-98361096D01*
X207912433Y-98144321D01*
X207912432Y-98144320D01*
X207912428Y-98144314D01*
X207733984Y-97951998D01*
X207733983Y-97951997D01*
X207733981Y-97951995D01*
X207528857Y-97788414D01*
X207528856Y-97788413D01*
X207301641Y-97657231D01*
X207057418Y-97561380D01*
X207037795Y-97556901D01*
X207025917Y-97554190D01*
X206972627Y-97527288D01*
X206938083Y-97478602D01*
X206930291Y-97419416D01*
X206951057Y-97363448D01*
X206995570Y-97323670D01*
X207053511Y-97309300D01*
X207134335Y-97309300D01*
X207379614Y-97268371D01*
X207614810Y-97187628D01*
X207833509Y-97069274D01*
X208029744Y-96916538D01*
X208198164Y-96733585D01*
X208334173Y-96525407D01*
X208434063Y-96297681D01*
X208495108Y-96056621D01*
X208515643Y-95808800D01*
X208495108Y-95560979D01*
X208434063Y-95319919D01*
X208334173Y-95092193D01*
X208198164Y-94884015D01*
X208029744Y-94701062D01*
X207947719Y-94637219D01*
X207946992Y-94636653D01*
X207911754Y-94593260D01*
X207899154Y-94538800D01*
X207911754Y-94484340D01*
X207946992Y-94440947D01*
X207971256Y-94422060D01*
X208029744Y-94376538D01*
X208198164Y-94193585D01*
X208334173Y-93985407D01*
X208434063Y-93757681D01*
X208495108Y-93516621D01*
X208515643Y-93268800D01*
X208495108Y-93020979D01*
X208434063Y-92779919D01*
X208344016Y-92574633D01*
X208334174Y-92552195D01*
X208322671Y-92534588D01*
X208198164Y-92344015D01*
X208029744Y-92161062D01*
X208013437Y-92148370D01*
X207946992Y-92096653D01*
X207911754Y-92053260D01*
X207899154Y-91998800D01*
X207911754Y-91944340D01*
X207946992Y-91900947D01*
X207971256Y-91882060D01*
X208029744Y-91836538D01*
X208198164Y-91653585D01*
X208334173Y-91445407D01*
X208434063Y-91217681D01*
X208495108Y-90976621D01*
X208515643Y-90728800D01*
X208495108Y-90480979D01*
X208434063Y-90239919D01*
X208334173Y-90012193D01*
X208198164Y-89804015D01*
X208029744Y-89621062D01*
X207961655Y-89568066D01*
X207946992Y-89556653D01*
X207911754Y-89513260D01*
X207899154Y-89458800D01*
X207911754Y-89404340D01*
X207946992Y-89360947D01*
X207971256Y-89342060D01*
X208029744Y-89296538D01*
X208198164Y-89113585D01*
X208334173Y-88905407D01*
X208434063Y-88677681D01*
X208495108Y-88436621D01*
X208515643Y-88188800D01*
X208495108Y-87940979D01*
X208434063Y-87699919D01*
X208334173Y-87472193D01*
X208198164Y-87264015D01*
X208029744Y-87081062D01*
X208013437Y-87068370D01*
X207946992Y-87016653D01*
X207911754Y-86973260D01*
X207899154Y-86918800D01*
X207911754Y-86864340D01*
X207946992Y-86820947D01*
X207971256Y-86802060D01*
X208029744Y-86756538D01*
X208198164Y-86573585D01*
X208272712Y-86459479D01*
X208317504Y-86418245D01*
X208376522Y-86403300D01*
X210100514Y-86403300D01*
X210147967Y-86412739D01*
X210188195Y-86439619D01*
X216736834Y-92988258D01*
X216748615Y-93001890D01*
X216763060Y-93021293D01*
X216801234Y-93053325D01*
X216809208Y-93060632D01*
X216813159Y-93064583D01*
X216833567Y-93080720D01*
X216837611Y-93083917D01*
X216840405Y-93086193D01*
X216898173Y-93134667D01*
X216898175Y-93134668D01*
X216899107Y-93135450D01*
X216915701Y-93146022D01*
X216916807Y-93146538D01*
X216916809Y-93146539D01*
X216985184Y-93178422D01*
X216988375Y-93179968D01*
X217056882Y-93214373D01*
X217075473Y-93220834D01*
X217076660Y-93221079D01*
X217150538Y-93236333D01*
X217154011Y-93237103D01*
X217227412Y-93254500D01*
X217227414Y-93254500D01*
X217228595Y-93254780D01*
X217248174Y-93256781D01*
X217249391Y-93256745D01*
X217249394Y-93256746D01*
X217320269Y-93254683D01*
X217324796Y-93254552D01*
X217328402Y-93254500D01*
X218160501Y-93254500D01*
X218222501Y-93271113D01*
X218267888Y-93316500D01*
X218284501Y-93378500D01*
X218284501Y-93472872D01*
X218290909Y-93532483D01*
X218341204Y-93667331D01*
X218427454Y-93782546D01*
X218542669Y-93868796D01*
X218677517Y-93919091D01*
X218737127Y-93925500D01*
X220682872Y-93925499D01*
X220742483Y-93919091D01*
X220877331Y-93868796D01*
X220992546Y-93782546D01*
X221078796Y-93667331D01*
X221129091Y-93532483D01*
X221135500Y-93472873D01*
X221135499Y-91527128D01*
X221129091Y-91467517D01*
X221078796Y-91332669D01*
X220992546Y-91217454D01*
X220877331Y-91131204D01*
X220742483Y-91080909D01*
X220682873Y-91074500D01*
X220682869Y-91074500D01*
X218737130Y-91074500D01*
X218677515Y-91080909D01*
X218542669Y-91131204D01*
X218427454Y-91217454D01*
X218341204Y-91332668D01*
X218290909Y-91467516D01*
X218284500Y-91527131D01*
X218284500Y-91621500D01*
X218267887Y-91683500D01*
X218222500Y-91728887D01*
X218160500Y-91745500D01*
X217679486Y-91745500D01*
X217632033Y-91736061D01*
X217591805Y-91709181D01*
X211043166Y-85160542D01*
X211031383Y-85146908D01*
X211016938Y-85127505D01*
X210978765Y-85095474D01*
X210970789Y-85088165D01*
X210966839Y-85084215D01*
X210942386Y-85064879D01*
X210939592Y-85062604D01*
X210881827Y-85014133D01*
X210881825Y-85014132D01*
X210880892Y-85013349D01*
X210864298Y-85002776D01*
X210794842Y-84970389D01*
X210791597Y-84968818D01*
X210723122Y-84934429D01*
X210704525Y-84927965D01*
X210629486Y-84912470D01*
X210625969Y-84911690D01*
X210551405Y-84894019D01*
X210531825Y-84892018D01*
X210455204Y-84894248D01*
X210451598Y-84894300D01*
X208376522Y-84894300D01*
X208317504Y-84879355D01*
X208272713Y-84838121D01*
X208230370Y-84773310D01*
X208198164Y-84724015D01*
X208029744Y-84541062D01*
X208029743Y-84541061D01*
X207946991Y-84476652D01*
X207911753Y-84433259D01*
X207899154Y-84378798D01*
X207911754Y-84324338D01*
X207946988Y-84280949D01*
X208029744Y-84216538D01*
X208198164Y-84033585D01*
X208334173Y-83825407D01*
X208434063Y-83597681D01*
X208495108Y-83356621D01*
X208515643Y-83108800D01*
X208495108Y-82860979D01*
X208434063Y-82619919D01*
X208334173Y-82392193D01*
X208198164Y-82184015D01*
X208029744Y-82001062D01*
X208013437Y-81988370D01*
X207946992Y-81936653D01*
X207911754Y-81893260D01*
X207899154Y-81838800D01*
X207911754Y-81784340D01*
X207946992Y-81740947D01*
X207989224Y-81708076D01*
X208029744Y-81676538D01*
X208198164Y-81493585D01*
X208272712Y-81379479D01*
X208317504Y-81338245D01*
X208376522Y-81323300D01*
X211675314Y-81323300D01*
X211722767Y-81332739D01*
X211762995Y-81359619D01*
X214198977Y-83795601D01*
X214227818Y-83840871D01*
X214234824Y-83894089D01*
X214218683Y-83945282D01*
X214182420Y-83984857D01*
X214160857Y-83999955D01*
X213999953Y-84160859D01*
X213869432Y-84347264D01*
X213773261Y-84553502D01*
X213714364Y-84773310D01*
X213694531Y-84999999D01*
X213714364Y-85226689D01*
X213773261Y-85446497D01*
X213869432Y-85652735D01*
X213999953Y-85839140D01*
X214160859Y-86000046D01*
X214347264Y-86130567D01*
X214347265Y-86130567D01*
X214347266Y-86130568D01*
X214553504Y-86226739D01*
X214773308Y-86285635D01*
X215000000Y-86305468D01*
X215226692Y-86285635D01*
X215446496Y-86226739D01*
X215652734Y-86130568D01*
X215839139Y-86000047D01*
X216000047Y-85839139D01*
X216130568Y-85652734D01*
X216226739Y-85446496D01*
X216285635Y-85226692D01*
X216305468Y-85000000D01*
X216285635Y-84773308D01*
X216226739Y-84553504D01*
X216130568Y-84347266D01*
X216114515Y-84324340D01*
X216000046Y-84160859D01*
X215839141Y-83999954D01*
X215807378Y-83977714D01*
X215768511Y-83933395D01*
X215754500Y-83876138D01*
X215754500Y-83593600D01*
X215755809Y-83575630D01*
X215756298Y-83572288D01*
X215759315Y-83551694D01*
X215754972Y-83502052D01*
X215754500Y-83491245D01*
X215754500Y-77610170D01*
X215770348Y-77549514D01*
X215813842Y-77504362D01*
X215828302Y-77500000D01*
X215935264Y-77500000D01*
X215981817Y-77541601D01*
X216002153Y-77600904D01*
X216014197Y-77761627D01*
X216072580Y-78017418D01*
X216168431Y-78261641D01*
X216299613Y-78488856D01*
X216322600Y-78517681D01*
X216463195Y-78693981D01*
X216463197Y-78693983D01*
X216463198Y-78693984D01*
X216655514Y-78872428D01*
X216655520Y-78872432D01*
X216655521Y-78872433D01*
X216872296Y-79020228D01*
X217108677Y-79134063D01*
X217359385Y-79211396D01*
X217618818Y-79250500D01*
X217881182Y-79250500D01*
X218140615Y-79211396D01*
X218391323Y-79134063D01*
X218627704Y-79020228D01*
X218844479Y-78872433D01*
X218844482Y-78872429D01*
X218844485Y-78872428D01*
X218929792Y-78793273D01*
X219036805Y-78693981D01*
X219200386Y-78488857D01*
X219331568Y-78261643D01*
X219427420Y-78017416D01*
X219485802Y-77761630D01*
X219505408Y-77500000D01*
X219505408Y-77499999D01*
X228494591Y-77499999D01*
X228514197Y-77761627D01*
X228572580Y-78017418D01*
X228668431Y-78261641D01*
X228799613Y-78488856D01*
X228822600Y-78517681D01*
X228963195Y-78693981D01*
X228963197Y-78693983D01*
X228963198Y-78693984D01*
X229155514Y-78872428D01*
X229155520Y-78872432D01*
X229155521Y-78872433D01*
X229372296Y-79020228D01*
X229608677Y-79134063D01*
X229859385Y-79211396D01*
X230118818Y-79250500D01*
X230381182Y-79250500D01*
X230640615Y-79211396D01*
X230891323Y-79134063D01*
X231127704Y-79020228D01*
X231344479Y-78872433D01*
X231344482Y-78872429D01*
X231344485Y-78872428D01*
X231429792Y-78793273D01*
X231536805Y-78693981D01*
X231700386Y-78488857D01*
X231831568Y-78261643D01*
X231927420Y-78017416D01*
X231985802Y-77761630D01*
X232005408Y-77500000D01*
X231985802Y-77238370D01*
X231927420Y-76982584D01*
X231913581Y-76947324D01*
X231843330Y-76768326D01*
X231831568Y-76738357D01*
X231700386Y-76511143D01*
X231536805Y-76306019D01*
X231519505Y-76289967D01*
X231344485Y-76127571D01*
X231327170Y-76115766D01*
X231127704Y-75979772D01*
X230891323Y-75865937D01*
X230640615Y-75788604D01*
X230381182Y-75749500D01*
X230118818Y-75749500D01*
X229859385Y-75788604D01*
X229608677Y-75865937D01*
X229372296Y-75979772D01*
X229332554Y-76006868D01*
X229155514Y-76127571D01*
X228963198Y-76306015D01*
X228799613Y-76511143D01*
X228668431Y-76738358D01*
X228572580Y-76982581D01*
X228514197Y-77238372D01*
X228494591Y-77499999D01*
X219505408Y-77499999D01*
X219485802Y-77238370D01*
X219427420Y-76982584D01*
X219413581Y-76947324D01*
X219343330Y-76768326D01*
X219331568Y-76738357D01*
X219200386Y-76511143D01*
X219036805Y-76306019D01*
X219019505Y-76289967D01*
X218844485Y-76127571D01*
X218827170Y-76115766D01*
X218627704Y-75979772D01*
X218391323Y-75865937D01*
X218140615Y-75788604D01*
X217881182Y-75749500D01*
X217618818Y-75749500D01*
X217359385Y-75788604D01*
X217108677Y-75865937D01*
X216872296Y-75979772D01*
X216832554Y-76006868D01*
X216655514Y-76127571D01*
X216463198Y-76306015D01*
X216299613Y-76511143D01*
X216168431Y-76738358D01*
X216072580Y-76982581D01*
X216014197Y-77238372D01*
X216002153Y-77399096D01*
X215981817Y-77458399D01*
X215935264Y-77500000D01*
X215828302Y-77500000D01*
X215813842Y-77495638D01*
X215770348Y-77450486D01*
X215754500Y-77389830D01*
X215754500Y-75613886D01*
X215763939Y-75566433D01*
X215790819Y-75526205D01*
X216076045Y-75240979D01*
X217112617Y-74204405D01*
X217170448Y-74171734D01*
X217236844Y-74173596D01*
X217359385Y-74211396D01*
X217618818Y-74250500D01*
X217881182Y-74250500D01*
X218140615Y-74211396D01*
X218391323Y-74134063D01*
X218627704Y-74020228D01*
X218844479Y-73872433D01*
X218844482Y-73872429D01*
X218844485Y-73872428D01*
X218966215Y-73759479D01*
X219036805Y-73693981D01*
X219200386Y-73488857D01*
X219331568Y-73261643D01*
X219427420Y-73017416D01*
X219485802Y-72761630D01*
X219505408Y-72500000D01*
X219505408Y-72499999D01*
X228494591Y-72499999D01*
X228514197Y-72761627D01*
X228572580Y-73017418D01*
X228668431Y-73261641D01*
X228792110Y-73475861D01*
X228799614Y-73488857D01*
X228963195Y-73693981D01*
X228963197Y-73693983D01*
X228963198Y-73693984D01*
X229155514Y-73872428D01*
X229155520Y-73872432D01*
X229155521Y-73872433D01*
X229372296Y-74020228D01*
X229608677Y-74134063D01*
X229859385Y-74211396D01*
X230118818Y-74250500D01*
X230381182Y-74250500D01*
X230640615Y-74211396D01*
X230891323Y-74134063D01*
X231127704Y-74020228D01*
X231344479Y-73872433D01*
X231344482Y-73872429D01*
X231344485Y-73872428D01*
X231466215Y-73759479D01*
X231536805Y-73693981D01*
X231700386Y-73488857D01*
X231831568Y-73261643D01*
X231927420Y-73017416D01*
X231985802Y-72761630D01*
X232005408Y-72500000D01*
X231985802Y-72238370D01*
X231927420Y-71982584D01*
X231831568Y-71738357D01*
X231700386Y-71511143D01*
X231536805Y-71306019D01*
X231536801Y-71306015D01*
X231344485Y-71127571D01*
X231307890Y-71102621D01*
X231127704Y-70979772D01*
X230891323Y-70865937D01*
X230640615Y-70788604D01*
X230381182Y-70749500D01*
X230118818Y-70749500D01*
X229859385Y-70788604D01*
X229608677Y-70865937D01*
X229372296Y-70979772D01*
X229336027Y-71004500D01*
X229155514Y-71127571D01*
X228963198Y-71306015D01*
X228799613Y-71511143D01*
X228668431Y-71738358D01*
X228572580Y-71982581D01*
X228514197Y-72238372D01*
X228494591Y-72499999D01*
X219505408Y-72499999D01*
X219485802Y-72238370D01*
X219427420Y-71982584D01*
X219331568Y-71738357D01*
X219200386Y-71511143D01*
X219036805Y-71306019D01*
X219036801Y-71306015D01*
X218844485Y-71127571D01*
X218807890Y-71102621D01*
X218627704Y-70979772D01*
X218391323Y-70865937D01*
X218140615Y-70788604D01*
X217881182Y-70749500D01*
X217618818Y-70749500D01*
X217359385Y-70788604D01*
X217108677Y-70865937D01*
X216872296Y-70979772D01*
X216836027Y-71004500D01*
X216655514Y-71127571D01*
X216463198Y-71306015D01*
X216299613Y-71511143D01*
X216168431Y-71738358D01*
X216072580Y-71982581D01*
X216014197Y-72238372D01*
X215994591Y-72499999D01*
X216014197Y-72761627D01*
X216074608Y-73026302D01*
X216072871Y-73088223D01*
X216041398Y-73141576D01*
X214511741Y-74671233D01*
X214498112Y-74683012D01*
X214478708Y-74697458D01*
X214446676Y-74735632D01*
X214439379Y-74743596D01*
X214435414Y-74747561D01*
X214416089Y-74772001D01*
X214413814Y-74774794D01*
X214364554Y-74833500D01*
X214353972Y-74850112D01*
X214321581Y-74919571D01*
X214320011Y-74922813D01*
X214285632Y-74991269D01*
X214279164Y-75009878D01*
X214263671Y-75084911D01*
X214262891Y-75088430D01*
X214245219Y-75162996D01*
X214243218Y-75182574D01*
X214245448Y-75259196D01*
X214245500Y-75262802D01*
X214245500Y-81408714D01*
X214231985Y-81465009D01*
X214194385Y-81509032D01*
X214140898Y-81531187D01*
X214083182Y-81526645D01*
X214033819Y-81496395D01*
X212617966Y-80080542D01*
X212606183Y-80066908D01*
X212591738Y-80047505D01*
X212553565Y-80015474D01*
X212545589Y-80008165D01*
X212541639Y-80004215D01*
X212517186Y-79984879D01*
X212514392Y-79982604D01*
X212456627Y-79934133D01*
X212456625Y-79934132D01*
X212455692Y-79933349D01*
X212439098Y-79922776D01*
X212369642Y-79890389D01*
X212366397Y-79888818D01*
X212297922Y-79854429D01*
X212279325Y-79847965D01*
X212204286Y-79832470D01*
X212200769Y-79831690D01*
X212126205Y-79814019D01*
X212106625Y-79812018D01*
X212030004Y-79814248D01*
X212026398Y-79814300D01*
X208376522Y-79814300D01*
X208317504Y-79799355D01*
X208272713Y-79758121D01*
X208247825Y-79720028D01*
X208198164Y-79644015D01*
X208029744Y-79461062D01*
X208013437Y-79448370D01*
X207946992Y-79396653D01*
X207911754Y-79353260D01*
X207899154Y-79298800D01*
X207911754Y-79244340D01*
X207946992Y-79200947D01*
X207990849Y-79166811D01*
X208029744Y-79136538D01*
X208198164Y-78953585D01*
X208334173Y-78745407D01*
X208434063Y-78517681D01*
X208495108Y-78276621D01*
X208515643Y-78028800D01*
X208495108Y-77780979D01*
X208434063Y-77539919D01*
X208334173Y-77312193D01*
X208198164Y-77104015D01*
X208029744Y-76921062D01*
X207982515Y-76884302D01*
X207946992Y-76856653D01*
X207911754Y-76813260D01*
X207899154Y-76758800D01*
X207911754Y-76704340D01*
X207946992Y-76660947D01*
X207974748Y-76639343D01*
X208029744Y-76596538D01*
X208198164Y-76413585D01*
X208334173Y-76205407D01*
X208434063Y-75977681D01*
X208495108Y-75736621D01*
X208515643Y-75488800D01*
X208495108Y-75240979D01*
X208434063Y-74999919D01*
X208334173Y-74772193D01*
X208198164Y-74564015D01*
X208029744Y-74381062D01*
X208013437Y-74368370D01*
X207946992Y-74316653D01*
X207911754Y-74273260D01*
X207899154Y-74218800D01*
X207911754Y-74164340D01*
X207946992Y-74120947D01*
X207971256Y-74102060D01*
X208029744Y-74056538D01*
X208198164Y-73873585D01*
X208272712Y-73759479D01*
X208317504Y-73718245D01*
X208376522Y-73703300D01*
X212127600Y-73703300D01*
X212145570Y-73704609D01*
X212149323Y-73705158D01*
X212169506Y-73708115D01*
X212219147Y-73703772D01*
X212229955Y-73703300D01*
X212235543Y-73703300D01*
X212266503Y-73699681D01*
X212270041Y-73699319D01*
X212345212Y-73692743D01*
X212345217Y-73692741D01*
X212346432Y-73692635D01*
X212365627Y-73688380D01*
X212366779Y-73687960D01*
X212366784Y-73687960D01*
X212437674Y-73662157D01*
X212441034Y-73660990D01*
X212512636Y-73637264D01*
X212512641Y-73637260D01*
X212513802Y-73636876D01*
X212531502Y-73628307D01*
X212532519Y-73627637D01*
X212532524Y-73627636D01*
X212595567Y-73586171D01*
X212598559Y-73584265D01*
X212662754Y-73544670D01*
X212662754Y-73544669D01*
X212663793Y-73544029D01*
X212679044Y-73531605D01*
X212679881Y-73530717D01*
X212679885Y-73530715D01*
X212731671Y-73475823D01*
X212734116Y-73473306D01*
X217988264Y-68219158D01*
X218001883Y-68207388D01*
X218021294Y-68192939D01*
X218053334Y-68154754D01*
X218060620Y-68146802D01*
X218064583Y-68142841D01*
X218083927Y-68118374D01*
X218086161Y-68115632D01*
X218134667Y-68057827D01*
X218134668Y-68057824D01*
X218135449Y-68056894D01*
X218146018Y-68040304D01*
X218146534Y-68039197D01*
X218146539Y-68039191D01*
X218178445Y-67970766D01*
X218179958Y-67967641D01*
X218213824Y-67900211D01*
X218213824Y-67900209D01*
X218214374Y-67899115D01*
X218220830Y-67880542D01*
X218221077Y-67879343D01*
X218221079Y-67879340D01*
X218236344Y-67805406D01*
X218237093Y-67802029D01*
X218254500Y-67728588D01*
X218254500Y-67728586D01*
X218254780Y-67727405D01*
X218256780Y-67707828D01*
X218256744Y-67706609D01*
X218256745Y-67706607D01*
X218254552Y-67631239D01*
X218254500Y-67627633D01*
X218254500Y-61248085D01*
X218267100Y-61193625D01*
X218302338Y-61150232D01*
X218451780Y-61033916D01*
X218451779Y-61033916D01*
X218451784Y-61033913D01*
X218608979Y-60863153D01*
X218735924Y-60668849D01*
X218829157Y-60456300D01*
X218886134Y-60231305D01*
X218905300Y-60000000D01*
X218886134Y-59768695D01*
X218829157Y-59543700D01*
X218735924Y-59331151D01*
X218608979Y-59136847D01*
X218451784Y-58966087D01*
X218268626Y-58823530D01*
X218064503Y-58713064D01*
X218064499Y-58713062D01*
X218064498Y-58713062D01*
X217844984Y-58637702D01*
X217664044Y-58607509D01*
X217616049Y-58599500D01*
X217383951Y-58599500D01*
X217338164Y-58607140D01*
X217155015Y-58637702D01*
X216935501Y-58713062D01*
X216731372Y-58823531D01*
X216548215Y-58966087D01*
X216429955Y-59094553D01*
X216391021Y-59136847D01*
X216364638Y-59177230D01*
X216353809Y-59193805D01*
X216309017Y-59235038D01*
X216250000Y-59249983D01*
X216190983Y-59235038D01*
X216146191Y-59193805D01*
X216108979Y-59136847D01*
X215951784Y-58966087D01*
X215768626Y-58823530D01*
X215564503Y-58713064D01*
X215564499Y-58713062D01*
X215564498Y-58713062D01*
X215344984Y-58637702D01*
X215164044Y-58607509D01*
X215116049Y-58599500D01*
X214883951Y-58599500D01*
X214838164Y-58607140D01*
X214655015Y-58637702D01*
X214435501Y-58713062D01*
X214231372Y-58823531D01*
X214048215Y-58966087D01*
X213891020Y-59136848D01*
X213764076Y-59331150D01*
X213670844Y-59543696D01*
X213670842Y-59543700D01*
X213670843Y-59543700D01*
X213616089Y-59759919D01*
X213613865Y-59768700D01*
X213594699Y-60000000D01*
X213613865Y-60231299D01*
X213613865Y-60231301D01*
X213613866Y-60231305D01*
X213642426Y-60344084D01*
X213670844Y-60456303D01*
X213730000Y-60591163D01*
X213764076Y-60668849D01*
X213891021Y-60863153D01*
X214048216Y-61033913D01*
X214231374Y-61176470D01*
X214435497Y-61286936D01*
X214545258Y-61324617D01*
X214655015Y-61362297D01*
X214655017Y-61362297D01*
X214655019Y-61362298D01*
X214883951Y-61400500D01*
X215116048Y-61400500D01*
X215116049Y-61400500D01*
X215344981Y-61362298D01*
X215564503Y-61286936D01*
X215768626Y-61176470D01*
X215951784Y-61033913D01*
X216108979Y-60863153D01*
X216146192Y-60806193D01*
X216190982Y-60764961D01*
X216250000Y-60750016D01*
X216309018Y-60764961D01*
X216353807Y-60806193D01*
X216391021Y-60863153D01*
X216538519Y-61023379D01*
X216548219Y-61033916D01*
X216697662Y-61150232D01*
X216732900Y-61193625D01*
X216745500Y-61248085D01*
X216745500Y-67276514D01*
X216736061Y-67323967D01*
X216709181Y-67364195D01*
X211915395Y-72157981D01*
X211875167Y-72184861D01*
X211827714Y-72194300D01*
X208376522Y-72194300D01*
X208317504Y-72179355D01*
X208272713Y-72138121D01*
X208247825Y-72100028D01*
X208198164Y-72024015D01*
X208029744Y-71841062D01*
X207993833Y-71813111D01*
X207946992Y-71776653D01*
X207911754Y-71733260D01*
X207899154Y-71678800D01*
X207911754Y-71624340D01*
X207946992Y-71580947D01*
X207972911Y-71560773D01*
X208029744Y-71516538D01*
X208198164Y-71333585D01*
X208334173Y-71125407D01*
X208434063Y-70897681D01*
X208495108Y-70656621D01*
X208515643Y-70408800D01*
X208495108Y-70160979D01*
X208434063Y-69919919D01*
X208334173Y-69692193D01*
X208198164Y-69484015D01*
X208029744Y-69301062D01*
X207962620Y-69248817D01*
X207946992Y-69236653D01*
X207911754Y-69193260D01*
X207899154Y-69138800D01*
X207911754Y-69084340D01*
X207946992Y-69040947D01*
X207971256Y-69022060D01*
X208029744Y-68976538D01*
X208198164Y-68793585D01*
X208334173Y-68585407D01*
X208434063Y-68357681D01*
X208495108Y-68116621D01*
X208515643Y-67868800D01*
X208495108Y-67620979D01*
X208434063Y-67379919D01*
X208334173Y-67152193D01*
X208198164Y-66944015D01*
X208029744Y-66761062D01*
X207969734Y-66714354D01*
X207946992Y-66696653D01*
X207911754Y-66653260D01*
X207899154Y-66598800D01*
X207911754Y-66544340D01*
X207946992Y-66500947D01*
X207981285Y-66474255D01*
X208029744Y-66436538D01*
X208198164Y-66253585D01*
X208334173Y-66045407D01*
X208434063Y-65817681D01*
X208495108Y-65576621D01*
X208515643Y-65328800D01*
X208512493Y-65290791D01*
X208503503Y-65182291D01*
X208495108Y-65080979D01*
X208434063Y-64839919D01*
X208334173Y-64612193D01*
X208198164Y-64404015D01*
X208029744Y-64221062D01*
X208007612Y-64203836D01*
X207833514Y-64068329D01*
X207833510Y-64068326D01*
X207833509Y-64068326D01*
X207614810Y-63949972D01*
X207614806Y-63949970D01*
X207614805Y-63949970D01*
X207379615Y-63869229D01*
X207134335Y-63828300D01*
X206885665Y-63828300D01*
X206640384Y-63869229D01*
X206405194Y-63949970D01*
X206186485Y-64068329D01*
X205990259Y-64221059D01*
X205821837Y-64404014D01*
X205685825Y-64612195D01*
X205585938Y-64839917D01*
X205524891Y-65080983D01*
X205504356Y-65328799D01*
X205524891Y-65576616D01*
X205524891Y-65576619D01*
X205524892Y-65576621D01*
X205585937Y-65817681D01*
X205612972Y-65879314D01*
X205685825Y-66045404D01*
X205685827Y-66045407D01*
X205821836Y-66253585D01*
X205884512Y-66321669D01*
X205990256Y-66436538D01*
X206073008Y-66500947D01*
X206108246Y-66544340D01*
X206120845Y-66598800D01*
X206108246Y-66653260D01*
X206073008Y-66696653D01*
X205990256Y-66761061D01*
X205835215Y-66929480D01*
X205821836Y-66944015D01*
X205788203Y-66995495D01*
X205685825Y-67152195D01*
X205610480Y-67323967D01*
X205585937Y-67379919D01*
X205524892Y-67620979D01*
X205524891Y-67620983D01*
X205504356Y-67868800D01*
X205524891Y-68116616D01*
X205524891Y-68116619D01*
X205524892Y-68116621D01*
X205585937Y-68357681D01*
X205630960Y-68460323D01*
X205685825Y-68585404D01*
X205685827Y-68585407D01*
X205821836Y-68793585D01*
X205990256Y-68976538D01*
X206073008Y-69040947D01*
X206108246Y-69084340D01*
X206120845Y-69138800D01*
X206108246Y-69193260D01*
X206073008Y-69236653D01*
X205990256Y-69301061D01*
X205835215Y-69469480D01*
X205821836Y-69484015D01*
X205776499Y-69553407D01*
X205685825Y-69692195D01*
X205601543Y-69884341D01*
X205585937Y-69919919D01*
X205539321Y-70104000D01*
X205524891Y-70160983D01*
X205504356Y-70408799D01*
X205524891Y-70656616D01*
X205524891Y-70656619D01*
X205524892Y-70656621D01*
X205585937Y-70897681D01*
X205630960Y-71000323D01*
X205685825Y-71125404D01*
X205685827Y-71125407D01*
X205821836Y-71333585D01*
X205990256Y-71516538D01*
X206073008Y-71580947D01*
X206108245Y-71624338D01*
X206120845Y-71678798D01*
X206108246Y-71733258D01*
X206073009Y-71776651D01*
X205990257Y-71841060D01*
X205859979Y-71982581D01*
X205821836Y-72024015D01*
X205776499Y-72093407D01*
X205685825Y-72232195D01*
X205637623Y-72342086D01*
X205585937Y-72459919D01*
X205575787Y-72500000D01*
X205524891Y-72700983D01*
X205504356Y-72948799D01*
X205524891Y-73196616D01*
X205524891Y-73196619D01*
X205524892Y-73196621D01*
X205585937Y-73437681D01*
X205608385Y-73488857D01*
X205685825Y-73665404D01*
X205685827Y-73665407D01*
X205821836Y-73873585D01*
X205990256Y-74056538D01*
X206073008Y-74120947D01*
X206108245Y-74164338D01*
X206120845Y-74218798D01*
X206108246Y-74273258D01*
X206073009Y-74316651D01*
X205990257Y-74381060D01*
X205821837Y-74564014D01*
X205685825Y-74772195D01*
X205617443Y-74928092D01*
X205585937Y-74999919D01*
X205583415Y-75009878D01*
X205524891Y-75240983D01*
X205504356Y-75488800D01*
X205524891Y-75736616D01*
X205524891Y-75736619D01*
X205524892Y-75736621D01*
X205585937Y-75977681D01*
X205598740Y-76006868D01*
X205685825Y-76205404D01*
X205685827Y-76205407D01*
X205821836Y-76413585D01*
X205948736Y-76551435D01*
X205990256Y-76596538D01*
X206073008Y-76660947D01*
X206108246Y-76704340D01*
X206120845Y-76758800D01*
X206108246Y-76813260D01*
X206073008Y-76856653D01*
X205990256Y-76921061D01*
X205871725Y-77049821D01*
X205821836Y-77104015D01*
X205794122Y-77146435D01*
X205685825Y-77312195D01*
X205603447Y-77500000D01*
X205585937Y-77539919D01*
X205568147Y-77610170D01*
X205524891Y-77780983D01*
X205504356Y-78028799D01*
X205524891Y-78276616D01*
X205524891Y-78276619D01*
X205524892Y-78276621D01*
X205585937Y-78517681D01*
X205614204Y-78582123D01*
X205685825Y-78745404D01*
X205685827Y-78745407D01*
X205821836Y-78953585D01*
X205987977Y-79134062D01*
X205990256Y-79136538D01*
X206073008Y-79200947D01*
X206108246Y-79244340D01*
X206120845Y-79298800D01*
X206108246Y-79353260D01*
X206073008Y-79396653D01*
X205990256Y-79461061D01*
X205835215Y-79629481D01*
X205821836Y-79644015D01*
X205776499Y-79713407D01*
X205685825Y-79852195D01*
X205628623Y-79982604D01*
X205585937Y-80079919D01*
X205581907Y-80095835D01*
X205524891Y-80320983D01*
X205504356Y-80568800D01*
X205524891Y-80816616D01*
X205524891Y-80816619D01*
X205524892Y-80816621D01*
X205585937Y-81057681D01*
X205619142Y-81133380D01*
X205685825Y-81285404D01*
X205685827Y-81285407D01*
X205821836Y-81493585D01*
X205990255Y-81676537D01*
X205990256Y-81676538D01*
X206073008Y-81740947D01*
X206108246Y-81784340D01*
X206120845Y-81838800D01*
X206108246Y-81893260D01*
X206073008Y-81936653D01*
X205990256Y-82001061D01*
X205835215Y-82169481D01*
X205821836Y-82184015D01*
X205776499Y-82253407D01*
X205685825Y-82392195D01*
X205585938Y-82619917D01*
X205524891Y-82860983D01*
X205504356Y-83108800D01*
X205524891Y-83356616D01*
X205524891Y-83356619D01*
X205524892Y-83356621D01*
X205585937Y-83597681D01*
X205630960Y-83700323D01*
X205685825Y-83825404D01*
X205685827Y-83825407D01*
X205821836Y-84033585D01*
X205939000Y-84160859D01*
X205990256Y-84216538D01*
X206073008Y-84280947D01*
X206108246Y-84324340D01*
X206120845Y-84378800D01*
X206108246Y-84433260D01*
X206073008Y-84476653D01*
X205990256Y-84541061D01*
X205835215Y-84709480D01*
X205821836Y-84724015D01*
X205789631Y-84773308D01*
X205685825Y-84932195D01*
X205628623Y-85062604D01*
X205585937Y-85159919D01*
X205524892Y-85400979D01*
X205524891Y-85400983D01*
X205504356Y-85648799D01*
X205524891Y-85896616D01*
X205524891Y-85896619D01*
X205524892Y-85896621D01*
X205585937Y-86137681D01*
X205621709Y-86219233D01*
X205685825Y-86365404D01*
X205685827Y-86365407D01*
X205821836Y-86573585D01*
X205990256Y-86756538D01*
X206073008Y-86820947D01*
X206108245Y-86864338D01*
X206120845Y-86918798D01*
X206108246Y-86973258D01*
X206073009Y-87016651D01*
X205990257Y-87081060D01*
X205821837Y-87264014D01*
X205685825Y-87472195D01*
X205603036Y-87660937D01*
X205585937Y-87699919D01*
X205524892Y-87940979D01*
X205524891Y-87940983D01*
X205504356Y-88188800D01*
X205524891Y-88436616D01*
X205524891Y-88436619D01*
X205524892Y-88436621D01*
X205585937Y-88677681D01*
X205630960Y-88780323D01*
X205685825Y-88905404D01*
X205685827Y-88905407D01*
X205821836Y-89113585D01*
X205865935Y-89161489D01*
X205990256Y-89296538D01*
X206073008Y-89360947D01*
X206108246Y-89404340D01*
X206120845Y-89458800D01*
X206108246Y-89513260D01*
X206073008Y-89556653D01*
X205990256Y-89621061D01*
X205821837Y-89804014D01*
X205685825Y-90012195D01*
X205595780Y-90217478D01*
X205585937Y-90239919D01*
X205537411Y-90431543D01*
X205524891Y-90480983D01*
X205504356Y-90728799D01*
X205524891Y-90976616D01*
X205524891Y-90976619D01*
X205524892Y-90976621D01*
X205585937Y-91217681D01*
X205616521Y-91287405D01*
X205685825Y-91445404D01*
X205685827Y-91445407D01*
X205821836Y-91653585D01*
X205906450Y-91745500D01*
X205990256Y-91836538D01*
X206073008Y-91900947D01*
X206108246Y-91944340D01*
X206120845Y-91998800D01*
X206108246Y-92053260D01*
X206073008Y-92096653D01*
X205990256Y-92161061D01*
X205821837Y-92344014D01*
X205685825Y-92552195D01*
X205585938Y-92779917D01*
X205524891Y-93020983D01*
X205504356Y-93268799D01*
X205524891Y-93516616D01*
X205524891Y-93516619D01*
X205524892Y-93516621D01*
X205585937Y-93757681D01*
X205596844Y-93782546D01*
X205685825Y-93985404D01*
X205685827Y-93985407D01*
X205821836Y-94193585D01*
X205990256Y-94376538D01*
X206073008Y-94440947D01*
X206108245Y-94484338D01*
X206120845Y-94538798D01*
X206108246Y-94593258D01*
X206073009Y-94636651D01*
X205990257Y-94701060D01*
X205964187Y-94729380D01*
X205821836Y-94884015D01*
X205785244Y-94940024D01*
X205685825Y-95092195D01*
X205585938Y-95319917D01*
X205524891Y-95560983D01*
X205504356Y-95808800D01*
X205524891Y-96056616D01*
X205524891Y-96056619D01*
X205524892Y-96056621D01*
X205585937Y-96297681D01*
X205624020Y-96384502D01*
X205685825Y-96525404D01*
X205685827Y-96525407D01*
X205821836Y-96733585D01*
X205990256Y-96916538D01*
X205990259Y-96916540D01*
X206186485Y-97069270D01*
X206186487Y-97069271D01*
X206186491Y-97069274D01*
X206405190Y-97187628D01*
X206503062Y-97221227D01*
X206578189Y-97247019D01*
X206634507Y-97286530D01*
X206661096Y-97349980D01*
X206649773Y-97417838D01*
X206604022Y-97469216D01*
X206537926Y-97488300D01*
X206474501Y-97488300D01*
X206278372Y-97502997D01*
X206022581Y-97561380D01*
X205778358Y-97657231D01*
X205551143Y-97788413D01*
X205346015Y-97951998D01*
X205167571Y-98144314D01*
X205067070Y-98291722D01*
X205019772Y-98361096D01*
X204905937Y-98597477D01*
X204828604Y-98848185D01*
X204789500Y-99107618D01*
X204789500Y-99369982D01*
X204208500Y-99369982D01*
X204208500Y-62441486D01*
X204217939Y-62394033D01*
X204244819Y-62353805D01*
X204890254Y-61708370D01*
X205557066Y-61041557D01*
X205603272Y-61012381D01*
X205657536Y-61005902D01*
X205709316Y-61023379D01*
X205748554Y-61061418D01*
X205821836Y-61173585D01*
X205990256Y-61356538D01*
X206046675Y-61400451D01*
X206186485Y-61509270D01*
X206186487Y-61509271D01*
X206186491Y-61509274D01*
X206405190Y-61627628D01*
X206640386Y-61708371D01*
X206885665Y-61749300D01*
X207134335Y-61749300D01*
X207379614Y-61708371D01*
X207614810Y-61627628D01*
X207833509Y-61509274D01*
X208029744Y-61356538D01*
X208198164Y-61173585D01*
X208334173Y-60965407D01*
X208434063Y-60737681D01*
X208495108Y-60496621D01*
X208515643Y-60248800D01*
X208495108Y-60000979D01*
X208434063Y-59759919D01*
X208341690Y-59549331D01*
X208334174Y-59532195D01*
X208316382Y-59504962D01*
X208198164Y-59324015D01*
X208029744Y-59141062D01*
X207979722Y-59102128D01*
X207833514Y-58988329D01*
X207833510Y-58988326D01*
X207833509Y-58988326D01*
X207614810Y-58869972D01*
X207614806Y-58869970D01*
X207614805Y-58869970D01*
X207379615Y-58789229D01*
X207134335Y-58748300D01*
X206885665Y-58748300D01*
X206640384Y-58789229D01*
X206405194Y-58869970D01*
X206405190Y-58869971D01*
X206405190Y-58869972D01*
X206377177Y-58885132D01*
X206186485Y-58988329D01*
X205990259Y-59141059D01*
X205990256Y-59141061D01*
X205990256Y-59141062D01*
X205935144Y-59200930D01*
X205821835Y-59324016D01*
X205747287Y-59438121D01*
X205702496Y-59479355D01*
X205643478Y-59494300D01*
X205346800Y-59494300D01*
X205328830Y-59492991D01*
X205315438Y-59491029D01*
X205304894Y-59489485D01*
X205304893Y-59489485D01*
X205255252Y-59493828D01*
X205244445Y-59494300D01*
X205238858Y-59494300D01*
X205207912Y-59497916D01*
X205204330Y-59498282D01*
X205127976Y-59504962D01*
X205108762Y-59509222D01*
X205036726Y-59535440D01*
X205033324Y-59536622D01*
X204960614Y-59560717D01*
X204942889Y-59569297D01*
X204878882Y-59611395D01*
X204875842Y-59613331D01*
X204810623Y-59653558D01*
X204795347Y-59666002D01*
X204742761Y-59721738D01*
X204740250Y-59724323D01*
X202965741Y-61498833D01*
X202952112Y-61510612D01*
X202932708Y-61525058D01*
X202900676Y-61563232D01*
X202893379Y-61571196D01*
X202889414Y-61575161D01*
X202870089Y-61599601D01*
X202867814Y-61602394D01*
X202818554Y-61661100D01*
X202807972Y-61677712D01*
X202775581Y-61747171D01*
X202774011Y-61750413D01*
X202739632Y-61818869D01*
X202733164Y-61837478D01*
X202717671Y-61912511D01*
X202716891Y-61916030D01*
X202699219Y-61990596D01*
X202697218Y-62010174D01*
X202699448Y-62086796D01*
X202699500Y-62090402D01*
X202699500Y-94624800D01*
X202682887Y-94686800D01*
X202637500Y-94732187D01*
X202575500Y-94748800D01*
X185875096Y-94748800D01*
X185808470Y-94729380D01*
X185762713Y-94677203D01*
X185752157Y-94608613D01*
X185774598Y-94557612D01*
X185774157Y-94557391D01*
X185778521Y-94548696D01*
X185780106Y-94545094D01*
X185780667Y-94544427D01*
X185780669Y-94544422D01*
X185781456Y-94543484D01*
X185792020Y-94526902D01*
X185792535Y-94525796D01*
X185792539Y-94525792D01*
X185824423Y-94457413D01*
X185825976Y-94454206D01*
X185859824Y-94386811D01*
X185859824Y-94386807D01*
X185860375Y-94385712D01*
X185866830Y-94367142D01*
X185867077Y-94365943D01*
X185867079Y-94365940D01*
X185882344Y-94292006D01*
X185883093Y-94288629D01*
X185900500Y-94215188D01*
X185900500Y-94215186D01*
X185900780Y-94214005D01*
X185902780Y-94194428D01*
X185902744Y-94193209D01*
X185902745Y-94193207D01*
X185900552Y-94117839D01*
X185900500Y-94114233D01*
X185900500Y-72342086D01*
X185909939Y-72294633D01*
X185936819Y-72254405D01*
X186885209Y-71306015D01*
X189948755Y-68242467D01*
X189977266Y-68221177D01*
X190010646Y-68208862D01*
X190068603Y-68196544D01*
X190068604Y-68196543D01*
X190068606Y-68196543D01*
X190241530Y-68119551D01*
X190394670Y-68008289D01*
X190521333Y-67867616D01*
X190615979Y-67703684D01*
X190640098Y-67629453D01*
X190674474Y-67523656D01*
X190694260Y-67335400D01*
X190674474Y-67147144D01*
X190615979Y-66967116D01*
X190615979Y-66967115D01*
X190521333Y-66803183D01*
X190394670Y-66662510D01*
X190241530Y-66551248D01*
X190068602Y-66474255D01*
X189883448Y-66434900D01*
X189883446Y-66434900D01*
X189694154Y-66434900D01*
X189694152Y-66434900D01*
X189508997Y-66474255D01*
X189336069Y-66551248D01*
X189182929Y-66662510D01*
X189056266Y-66803183D01*
X188961620Y-66967115D01*
X188909002Y-67129059D01*
X188878752Y-67178422D01*
X184657741Y-71399433D01*
X184644112Y-71411212D01*
X184624708Y-71425658D01*
X184592676Y-71463832D01*
X184585379Y-71471796D01*
X184581414Y-71475761D01*
X184562089Y-71500201D01*
X184559814Y-71502994D01*
X184510554Y-71561700D01*
X184499972Y-71578312D01*
X184467581Y-71647771D01*
X184466011Y-71651013D01*
X184431632Y-71719469D01*
X184425164Y-71738078D01*
X184409671Y-71813111D01*
X184408891Y-71816630D01*
X184391219Y-71891196D01*
X184389218Y-71910774D01*
X184391448Y-71987396D01*
X184391500Y-71991002D01*
X184391500Y-93763114D01*
X184382061Y-93810567D01*
X184355181Y-93850795D01*
X183187995Y-95017981D01*
X183147767Y-95044861D01*
X183100314Y-95054300D01*
X182976522Y-95054300D01*
X182917504Y-95039355D01*
X182872713Y-94998121D01*
X182834756Y-94940024D01*
X182798164Y-94884015D01*
X182629744Y-94701062D01*
X182547719Y-94637219D01*
X182546992Y-94636653D01*
X182511754Y-94593260D01*
X182499154Y-94538800D01*
X182511754Y-94484340D01*
X182546992Y-94440947D01*
X182571256Y-94422060D01*
X182629744Y-94376538D01*
X182798164Y-94193585D01*
X182934173Y-93985407D01*
X183034063Y-93757681D01*
X183095108Y-93516621D01*
X183115643Y-93268800D01*
X183095108Y-93020979D01*
X183034063Y-92779919D01*
X182944016Y-92574633D01*
X182934174Y-92552195D01*
X182922671Y-92534588D01*
X182798164Y-92344015D01*
X182629744Y-92161062D01*
X182613437Y-92148370D01*
X182546992Y-92096653D01*
X182511754Y-92053260D01*
X182499154Y-91998800D01*
X182511754Y-91944340D01*
X182546992Y-91900947D01*
X182571256Y-91882060D01*
X182629744Y-91836538D01*
X182798164Y-91653585D01*
X182934173Y-91445407D01*
X183034063Y-91217681D01*
X183095108Y-90976621D01*
X183115643Y-90728800D01*
X183095108Y-90480979D01*
X183034063Y-90239919D01*
X182934173Y-90012193D01*
X182798164Y-89804015D01*
X182629744Y-89621062D01*
X182561655Y-89568066D01*
X182546992Y-89556653D01*
X182511754Y-89513260D01*
X182499154Y-89458800D01*
X182511754Y-89404340D01*
X182546992Y-89360947D01*
X182571256Y-89342060D01*
X182629744Y-89296538D01*
X182798164Y-89113585D01*
X182934173Y-88905407D01*
X183034063Y-88677681D01*
X183095108Y-88436621D01*
X183115643Y-88188800D01*
X183095108Y-87940979D01*
X183034063Y-87699919D01*
X182934173Y-87472193D01*
X182798164Y-87264015D01*
X182629744Y-87081062D01*
X182613437Y-87068370D01*
X182546992Y-87016653D01*
X182511754Y-86973260D01*
X182499154Y-86918800D01*
X182511754Y-86864340D01*
X182546992Y-86820947D01*
X182571256Y-86802060D01*
X182629744Y-86756538D01*
X182798164Y-86573585D01*
X182934173Y-86365407D01*
X183034063Y-86137681D01*
X183095108Y-85896621D01*
X183115643Y-85648800D01*
X183115161Y-85642989D01*
X183102101Y-85485373D01*
X183095108Y-85400979D01*
X183034063Y-85159919D01*
X182934173Y-84932193D01*
X182798164Y-84724015D01*
X182629744Y-84541062D01*
X182629743Y-84541061D01*
X182546991Y-84476652D01*
X182511753Y-84433259D01*
X182499154Y-84378798D01*
X182511754Y-84324338D01*
X182546988Y-84280949D01*
X182629744Y-84216538D01*
X182798164Y-84033585D01*
X182934173Y-83825407D01*
X183034063Y-83597681D01*
X183095108Y-83356621D01*
X183115643Y-83108800D01*
X183095108Y-82860979D01*
X183034063Y-82619919D01*
X182934173Y-82392193D01*
X182798164Y-82184015D01*
X182629744Y-82001062D01*
X182613437Y-81988370D01*
X182546992Y-81936653D01*
X182511754Y-81893260D01*
X182499154Y-81838800D01*
X182511754Y-81784340D01*
X182546992Y-81740947D01*
X182589224Y-81708076D01*
X182629744Y-81676538D01*
X182798164Y-81493585D01*
X182934173Y-81285407D01*
X183034063Y-81057681D01*
X183095108Y-80816621D01*
X183115643Y-80568800D01*
X183095108Y-80320979D01*
X183034063Y-80079919D01*
X182934173Y-79852193D01*
X182798164Y-79644015D01*
X182629744Y-79461062D01*
X182613437Y-79448370D01*
X182546992Y-79396653D01*
X182511754Y-79353260D01*
X182499154Y-79298800D01*
X182511754Y-79244340D01*
X182546992Y-79200947D01*
X182590849Y-79166811D01*
X182629744Y-79136538D01*
X182798164Y-78953585D01*
X182934173Y-78745407D01*
X183034063Y-78517681D01*
X183095108Y-78276621D01*
X183115643Y-78028800D01*
X183095108Y-77780979D01*
X183034063Y-77539919D01*
X182934173Y-77312193D01*
X182798164Y-77104015D01*
X182629744Y-76921062D01*
X182582515Y-76884302D01*
X182546992Y-76856653D01*
X182511754Y-76813260D01*
X182499154Y-76758800D01*
X182511754Y-76704340D01*
X182546992Y-76660947D01*
X182574748Y-76639343D01*
X182629744Y-76596538D01*
X182798164Y-76413585D01*
X182934173Y-76205407D01*
X183034063Y-75977681D01*
X183095108Y-75736621D01*
X183115643Y-75488800D01*
X183095108Y-75240979D01*
X183034063Y-74999919D01*
X182934173Y-74772193D01*
X182798164Y-74564015D01*
X182629744Y-74381062D01*
X182613437Y-74368370D01*
X182546992Y-74316653D01*
X182511754Y-74273260D01*
X182499154Y-74218800D01*
X182511754Y-74164340D01*
X182546992Y-74120947D01*
X182571256Y-74102060D01*
X182629744Y-74056538D01*
X182798164Y-73873585D01*
X182934173Y-73665407D01*
X183034063Y-73437681D01*
X183095108Y-73196621D01*
X183115643Y-72948800D01*
X183095108Y-72700979D01*
X183034063Y-72459919D01*
X182936883Y-72238372D01*
X182934174Y-72232195D01*
X182909416Y-72194300D01*
X182798164Y-72024015D01*
X182629744Y-71841062D01*
X182593833Y-71813111D01*
X182546992Y-71776653D01*
X182511754Y-71733260D01*
X182499154Y-71678800D01*
X182511754Y-71624340D01*
X182546992Y-71580947D01*
X182572911Y-71560773D01*
X182629744Y-71516538D01*
X182798164Y-71333585D01*
X182934173Y-71125407D01*
X183034063Y-70897681D01*
X183095108Y-70656621D01*
X183115643Y-70408800D01*
X183095108Y-70160979D01*
X183034063Y-69919919D01*
X182934173Y-69692193D01*
X182798164Y-69484015D01*
X182629744Y-69301062D01*
X182562620Y-69248817D01*
X182546992Y-69236653D01*
X182511754Y-69193260D01*
X182499154Y-69138800D01*
X182511754Y-69084340D01*
X182546992Y-69040947D01*
X182571256Y-69022060D01*
X182629744Y-68976538D01*
X182798164Y-68793585D01*
X182934173Y-68585407D01*
X183034063Y-68357681D01*
X183095108Y-68116621D01*
X183115643Y-67868800D01*
X183095108Y-67620979D01*
X183034063Y-67379919D01*
X182934173Y-67152193D01*
X182798164Y-66944015D01*
X182629744Y-66761062D01*
X182569734Y-66714354D01*
X182546992Y-66696653D01*
X182511754Y-66653260D01*
X182499154Y-66598800D01*
X182511754Y-66544340D01*
X182546992Y-66500947D01*
X182581285Y-66474255D01*
X182629744Y-66436538D01*
X182798164Y-66253585D01*
X182934173Y-66045407D01*
X183034063Y-65817681D01*
X183095108Y-65576621D01*
X183115643Y-65328800D01*
X183112493Y-65290791D01*
X183103503Y-65182291D01*
X183095108Y-65080979D01*
X183034063Y-64839919D01*
X182934173Y-64612193D01*
X182798164Y-64404015D01*
X182629744Y-64221062D01*
X182607612Y-64203836D01*
X182433514Y-64068329D01*
X182433510Y-64068326D01*
X182433509Y-64068326D01*
X182214810Y-63949972D01*
X182214806Y-63949970D01*
X182214805Y-63949970D01*
X181979615Y-63869229D01*
X181734335Y-63828300D01*
X181485665Y-63828300D01*
X181240384Y-63869229D01*
X181005194Y-63949970D01*
X180786485Y-64068329D01*
X180590259Y-64221059D01*
X180421837Y-64404014D01*
X180285825Y-64612195D01*
X180185938Y-64839917D01*
X180124891Y-65080983D01*
X180104356Y-65328799D01*
X180124891Y-65576616D01*
X180124891Y-65576619D01*
X180124892Y-65576621D01*
X180185937Y-65817681D01*
X180212972Y-65879314D01*
X180285825Y-66045404D01*
X180285827Y-66045407D01*
X180421836Y-66253585D01*
X180484512Y-66321669D01*
X180590256Y-66436538D01*
X180673008Y-66500947D01*
X180708246Y-66544340D01*
X180720845Y-66598800D01*
X180708246Y-66653260D01*
X180673008Y-66696653D01*
X180590256Y-66761061D01*
X180435215Y-66929480D01*
X180421836Y-66944015D01*
X180388203Y-66995495D01*
X180285825Y-67152195D01*
X180210480Y-67323967D01*
X180185937Y-67379919D01*
X180124892Y-67620979D01*
X180124891Y-67620983D01*
X180104356Y-67868800D01*
X180124891Y-68116616D01*
X180124891Y-68116619D01*
X180124892Y-68116621D01*
X180185937Y-68357681D01*
X180230960Y-68460323D01*
X180285825Y-68585404D01*
X180285827Y-68585407D01*
X180421836Y-68793585D01*
X180590256Y-68976538D01*
X180673008Y-69040947D01*
X180708246Y-69084340D01*
X180720845Y-69138800D01*
X180708246Y-69193260D01*
X180673008Y-69236653D01*
X180590256Y-69301061D01*
X180421835Y-69484016D01*
X180347287Y-69598121D01*
X180302496Y-69639355D01*
X180243478Y-69654300D01*
X177584600Y-69654300D01*
X177566630Y-69652991D01*
X177553238Y-69651029D01*
X177542694Y-69649485D01*
X177542693Y-69649485D01*
X177493052Y-69653828D01*
X177482245Y-69654300D01*
X177476658Y-69654300D01*
X177445712Y-69657916D01*
X177442130Y-69658282D01*
X177365776Y-69664962D01*
X177346559Y-69669223D01*
X177274560Y-69695428D01*
X177271157Y-69696611D01*
X177198414Y-69720716D01*
X177180685Y-69729300D01*
X177116652Y-69771414D01*
X177113612Y-69773350D01*
X177048423Y-69813559D01*
X177033143Y-69826006D01*
X176980544Y-69881756D01*
X176978033Y-69884341D01*
X174289141Y-72573233D01*
X174275512Y-72585012D01*
X174256108Y-72599458D01*
X174224076Y-72637632D01*
X174216779Y-72645596D01*
X174212814Y-72649561D01*
X174193489Y-72674001D01*
X174191214Y-72676794D01*
X174141954Y-72735500D01*
X174131372Y-72752112D01*
X174098981Y-72821571D01*
X174097411Y-72824813D01*
X174063032Y-72893269D01*
X174056564Y-72911878D01*
X174041071Y-72986911D01*
X174040291Y-72990430D01*
X174022619Y-73064996D01*
X174020618Y-73084574D01*
X174022848Y-73161196D01*
X174022900Y-73164802D01*
X174022900Y-73577538D01*
X174008889Y-73634795D01*
X173970022Y-73679114D01*
X173938258Y-73701354D01*
X173777353Y-73862259D01*
X173646832Y-74048664D01*
X173550661Y-74254902D01*
X173491764Y-74474710D01*
X173471931Y-74701400D01*
X173491764Y-74928089D01*
X173550661Y-75147897D01*
X173646832Y-75354135D01*
X173777353Y-75540540D01*
X173938259Y-75701446D01*
X174124664Y-75831967D01*
X174124665Y-75831967D01*
X174124666Y-75831968D01*
X174330904Y-75928139D01*
X174550708Y-75987035D01*
X174777400Y-76006868D01*
X175004092Y-75987035D01*
X175223896Y-75928139D01*
X175430134Y-75831968D01*
X175616539Y-75701447D01*
X175777447Y-75540539D01*
X175907968Y-75354134D01*
X176004139Y-75147896D01*
X176063035Y-74928092D01*
X176082868Y-74701400D01*
X176063035Y-74474708D01*
X176004139Y-74254904D01*
X175907968Y-74048666D01*
X175784569Y-73872433D01*
X175777446Y-73862259D01*
X175616541Y-73701354D01*
X175584778Y-73679114D01*
X175545911Y-73634795D01*
X175531900Y-73577538D01*
X175531900Y-73515886D01*
X175541339Y-73468433D01*
X175568219Y-73428205D01*
X177796805Y-71199619D01*
X177837033Y-71172739D01*
X177884486Y-71163300D01*
X180243478Y-71163300D01*
X180302496Y-71178245D01*
X180347287Y-71219479D01*
X180421836Y-71333585D01*
X180590256Y-71516538D01*
X180673008Y-71580947D01*
X180708245Y-71624338D01*
X180720845Y-71678798D01*
X180708246Y-71733258D01*
X180673009Y-71776651D01*
X180590257Y-71841060D01*
X180459979Y-71982581D01*
X180421836Y-72024015D01*
X180376499Y-72093407D01*
X180285825Y-72232195D01*
X180237623Y-72342086D01*
X180185937Y-72459919D01*
X180175787Y-72500000D01*
X180124891Y-72700983D01*
X180104356Y-72948799D01*
X180124891Y-73196616D01*
X180124891Y-73196619D01*
X180124892Y-73196621D01*
X180185937Y-73437681D01*
X180208385Y-73488857D01*
X180285825Y-73665404D01*
X180285827Y-73665407D01*
X180421836Y-73873585D01*
X180590256Y-74056538D01*
X180673008Y-74120947D01*
X180708245Y-74164338D01*
X180720845Y-74218798D01*
X180708246Y-74273258D01*
X180673009Y-74316651D01*
X180590257Y-74381060D01*
X180421837Y-74564014D01*
X180285825Y-74772195D01*
X180217443Y-74928092D01*
X180185937Y-74999919D01*
X180183415Y-75009878D01*
X180124891Y-75240983D01*
X180104356Y-75488800D01*
X180124891Y-75736616D01*
X180124891Y-75736619D01*
X180124892Y-75736621D01*
X180185937Y-75977681D01*
X180198740Y-76006868D01*
X180285825Y-76205404D01*
X180285827Y-76205407D01*
X180421836Y-76413585D01*
X180548736Y-76551435D01*
X180590256Y-76596538D01*
X180673008Y-76660947D01*
X180708246Y-76704340D01*
X180720845Y-76758800D01*
X180708246Y-76813260D01*
X180673008Y-76856653D01*
X180590256Y-76921061D01*
X180421835Y-77104016D01*
X180347287Y-77218121D01*
X180302496Y-77259355D01*
X180243478Y-77274300D01*
X173718886Y-77274300D01*
X173671433Y-77264861D01*
X173631205Y-77237981D01*
X172723419Y-76330195D01*
X172696539Y-76289967D01*
X172687100Y-76242514D01*
X172687100Y-61432438D01*
X172698718Y-61380033D01*
X172731394Y-61337448D01*
X172779007Y-61312663D01*
X172780412Y-61312286D01*
X172923663Y-61273903D01*
X173137830Y-61174035D01*
X173331401Y-61038495D01*
X173453329Y-60916566D01*
X173506072Y-60885273D01*
X173567365Y-60883084D01*
X173622209Y-60910537D01*
X173657189Y-60960916D01*
X173680487Y-61023379D01*
X173706204Y-61092331D01*
X173792454Y-61207546D01*
X173907669Y-61293796D01*
X174042517Y-61344091D01*
X174102127Y-61350500D01*
X175897872Y-61350499D01*
X175957483Y-61344091D01*
X176084628Y-61296669D01*
X180109500Y-61296669D01*
X180115909Y-61356284D01*
X180132401Y-61400500D01*
X180166204Y-61491131D01*
X180252454Y-61606346D01*
X180367669Y-61692596D01*
X180502517Y-61742891D01*
X180562127Y-61749300D01*
X182657872Y-61749299D01*
X182717483Y-61742891D01*
X182852331Y-61692596D01*
X182967546Y-61606346D01*
X183053796Y-61491131D01*
X183104091Y-61356283D01*
X183110500Y-61296673D01*
X183110499Y-59200928D01*
X183104091Y-59141317D01*
X183053796Y-59006469D01*
X182967546Y-58891254D01*
X182852331Y-58805004D01*
X182717483Y-58754709D01*
X182657873Y-58748300D01*
X182657869Y-58748300D01*
X180562130Y-58748300D01*
X180502515Y-58754709D01*
X180367669Y-58805004D01*
X180252454Y-58891254D01*
X180166204Y-59006468D01*
X180115909Y-59141316D01*
X180109500Y-59200930D01*
X180109500Y-61296669D01*
X176084628Y-61296669D01*
X176092331Y-61293796D01*
X176207546Y-61207546D01*
X176293796Y-61092331D01*
X176344091Y-60957483D01*
X176350500Y-60897873D01*
X176350499Y-59102128D01*
X176344091Y-59042517D01*
X176293796Y-58907669D01*
X176207546Y-58792454D01*
X176092331Y-58706204D01*
X175957483Y-58655909D01*
X175897873Y-58649500D01*
X175897869Y-58649500D01*
X174102130Y-58649500D01*
X174042515Y-58655909D01*
X173907669Y-58706204D01*
X173792454Y-58792454D01*
X173706204Y-58907669D01*
X173657189Y-59039083D01*
X173622209Y-59089462D01*
X173567365Y-59116915D01*
X173506072Y-59114726D01*
X173453326Y-59083430D01*
X173331404Y-58961508D01*
X173331401Y-58961505D01*
X173137830Y-58825965D01*
X172923663Y-58726097D01*
X172862501Y-58709709D01*
X172695407Y-58664936D01*
X172460000Y-58644340D01*
X172224592Y-58664936D01*
X171996336Y-58726097D01*
X171782170Y-58825965D01*
X171588598Y-58961505D01*
X171421505Y-59128598D01*
X171291575Y-59314159D01*
X171247257Y-59353025D01*
X171190000Y-59367036D01*
X171132743Y-59353025D01*
X171088425Y-59314159D01*
X171058349Y-59271206D01*
X170958495Y-59128599D01*
X170791401Y-58961505D01*
X170597830Y-58825965D01*
X170383663Y-58726097D01*
X170322501Y-58709709D01*
X170155407Y-58664936D01*
X169920000Y-58644340D01*
X169684592Y-58664936D01*
X169456336Y-58726097D01*
X169242170Y-58825965D01*
X169048598Y-58961505D01*
X168881505Y-59128598D01*
X168751575Y-59314159D01*
X168707257Y-59353025D01*
X168650000Y-59367036D01*
X168592743Y-59353025D01*
X168548425Y-59314159D01*
X168518349Y-59271206D01*
X168418495Y-59128599D01*
X168251401Y-58961505D01*
X168057830Y-58825965D01*
X167843663Y-58726097D01*
X167782501Y-58709709D01*
X167615407Y-58664936D01*
X167380000Y-58644340D01*
X167144592Y-58664936D01*
X166916336Y-58726097D01*
X166702170Y-58825965D01*
X166508598Y-58961505D01*
X166341505Y-59128598D01*
X166205965Y-59322170D01*
X166106097Y-59536336D01*
X166044936Y-59764592D01*
X166024340Y-60000000D01*
X166044936Y-60235407D01*
X166048525Y-60248800D01*
X166106097Y-60463663D01*
X166205965Y-60677830D01*
X166341505Y-60871401D01*
X166508599Y-61038495D01*
X166702170Y-61174035D01*
X166916337Y-61273903D01*
X167144592Y-61335063D01*
X167380000Y-61355659D01*
X167615408Y-61335063D01*
X167843663Y-61273903D01*
X168057830Y-61174035D01*
X168251401Y-61038495D01*
X168350219Y-60939676D01*
X168399582Y-60909427D01*
X168457298Y-60904885D01*
X168510785Y-60927040D01*
X168548385Y-60971063D01*
X168561900Y-61027358D01*
X168561900Y-77787000D01*
X168560591Y-77804970D01*
X168557085Y-77828906D01*
X168561428Y-77878548D01*
X168561900Y-77889355D01*
X168561900Y-77894940D01*
X168565516Y-77925885D01*
X168565882Y-77929469D01*
X168572562Y-78005819D01*
X168576823Y-78025039D01*
X168603021Y-78097020D01*
X168604204Y-78100424D01*
X168628316Y-78173187D01*
X168636896Y-78190908D01*
X168679013Y-78254946D01*
X168680950Y-78257986D01*
X168683206Y-78261643D01*
X168720530Y-78322154D01*
X168720531Y-78322155D01*
X168721172Y-78323194D01*
X168733602Y-78338453D01*
X168789337Y-78391035D01*
X168791925Y-78393549D01*
X171455434Y-81057058D01*
X171467215Y-81070690D01*
X171481661Y-81090094D01*
X171519834Y-81122125D01*
X171527808Y-81129432D01*
X171531759Y-81133383D01*
X171552167Y-81149520D01*
X171556211Y-81152717D01*
X171559005Y-81154993D01*
X171616773Y-81203467D01*
X171616775Y-81203468D01*
X171617707Y-81204250D01*
X171634301Y-81214822D01*
X171635407Y-81215338D01*
X171635409Y-81215339D01*
X171703784Y-81247222D01*
X171706975Y-81248768D01*
X171775482Y-81283173D01*
X171794073Y-81289634D01*
X171795260Y-81289879D01*
X171869138Y-81305133D01*
X171872611Y-81305903D01*
X171946012Y-81323300D01*
X171946014Y-81323300D01*
X171947195Y-81323580D01*
X171966774Y-81325581D01*
X171967991Y-81325545D01*
X171967994Y-81325546D01*
X172038869Y-81323483D01*
X172043396Y-81323352D01*
X172047002Y-81323300D01*
X180243478Y-81323300D01*
X180302496Y-81338245D01*
X180347287Y-81379479D01*
X180421836Y-81493585D01*
X180590255Y-81676537D01*
X180590256Y-81676538D01*
X180673008Y-81740947D01*
X180708246Y-81784340D01*
X180720845Y-81838800D01*
X180708246Y-81893260D01*
X180673008Y-81936653D01*
X180590256Y-82001061D01*
X180421835Y-82184016D01*
X180347287Y-82298121D01*
X180302496Y-82339355D01*
X180243478Y-82354300D01*
X177610000Y-82354300D01*
X177592030Y-82352991D01*
X177578638Y-82351029D01*
X177568094Y-82349485D01*
X177568093Y-82349485D01*
X177518452Y-82353828D01*
X177507645Y-82354300D01*
X177502058Y-82354300D01*
X177471112Y-82357916D01*
X177467530Y-82358282D01*
X177391176Y-82364962D01*
X177371959Y-82369223D01*
X177299960Y-82395428D01*
X177296557Y-82396611D01*
X177223813Y-82420717D01*
X177206083Y-82429300D01*
X177142061Y-82471408D01*
X177139020Y-82473345D01*
X177073824Y-82513558D01*
X177058544Y-82526004D01*
X177005961Y-82581738D01*
X177003450Y-82584323D01*
X174263741Y-85324033D01*
X174250112Y-85335812D01*
X174230708Y-85350258D01*
X174198676Y-85388432D01*
X174191379Y-85396396D01*
X174187414Y-85400361D01*
X174168089Y-85424801D01*
X174165814Y-85427594D01*
X174116554Y-85486300D01*
X174105972Y-85502912D01*
X174073581Y-85572371D01*
X174072011Y-85575613D01*
X174037632Y-85644069D01*
X174031164Y-85662678D01*
X174015671Y-85737711D01*
X174014891Y-85741230D01*
X173997219Y-85815796D01*
X173995218Y-85835374D01*
X173997448Y-85911996D01*
X173997500Y-85915602D01*
X173997500Y-89096938D01*
X173983489Y-89154195D01*
X173944622Y-89198514D01*
X173912858Y-89220754D01*
X173751953Y-89381659D01*
X173621432Y-89568064D01*
X173525261Y-89774302D01*
X173466364Y-89994110D01*
X173446531Y-90220799D01*
X173466364Y-90447489D01*
X173525261Y-90667297D01*
X173621432Y-90873535D01*
X173751953Y-91059940D01*
X173912858Y-91220845D01*
X173944622Y-91243086D01*
X173983489Y-91287405D01*
X173997500Y-91344662D01*
X173997500Y-96156114D01*
X173988061Y-96203567D01*
X173961181Y-96243795D01*
X166962395Y-103242581D01*
X166922167Y-103269461D01*
X166874714Y-103278900D01*
X148326813Y-103278900D01*
X148289526Y-103273161D01*
X148255690Y-103256475D01*
X148185933Y-103207631D01*
X148127925Y-103180582D01*
X148075749Y-103134825D01*
X148056329Y-103068200D01*
X148075749Y-103001575D01*
X148127925Y-102955818D01*
X148185934Y-102928768D01*
X148372339Y-102798247D01*
X148533247Y-102637339D01*
X148663768Y-102450934D01*
X148759939Y-102244696D01*
X148818835Y-102024892D01*
X148838668Y-101798200D01*
X148818835Y-101571508D01*
X148759939Y-101351704D01*
X148663768Y-101145466D01*
X148554420Y-100989300D01*
X148533246Y-100959059D01*
X148372340Y-100798153D01*
X148185935Y-100667632D01*
X147979697Y-100571461D01*
X147759889Y-100512564D01*
X147533200Y-100492731D01*
X147306510Y-100512564D01*
X147086702Y-100571461D01*
X146880464Y-100667632D01*
X146694059Y-100798153D01*
X146533153Y-100959059D01*
X146402632Y-101145464D01*
X146306461Y-101351702D01*
X146247564Y-101571510D01*
X146227731Y-101798199D01*
X146247564Y-102024889D01*
X146306461Y-102244697D01*
X146402632Y-102450935D01*
X146533153Y-102637340D01*
X146694059Y-102798246D01*
X146880463Y-102928766D01*
X146880466Y-102928768D01*
X146938475Y-102955818D01*
X146990650Y-103001575D01*
X147010069Y-103068200D01*
X146990650Y-103134825D01*
X146938475Y-103180582D01*
X146880463Y-103207633D01*
X146694059Y-103338153D01*
X146533153Y-103499059D01*
X146402632Y-103685464D01*
X146306461Y-103891702D01*
X146247564Y-104111510D01*
X146227731Y-104338199D01*
X146247564Y-104564889D01*
X146306461Y-104784697D01*
X146402632Y-104990935D01*
X146533153Y-105177340D01*
X146694059Y-105338246D01*
X146880464Y-105468767D01*
X146880465Y-105468767D01*
X146880466Y-105468768D01*
X147086704Y-105564939D01*
X147306508Y-105623835D01*
X147533200Y-105643668D01*
X147759892Y-105623835D01*
X147979696Y-105564939D01*
X148185934Y-105468768D01*
X148372339Y-105338247D01*
X148533247Y-105177339D01*
X148663768Y-104990934D01*
X148725059Y-104859493D01*
X148770816Y-104807319D01*
X148837441Y-104787900D01*
X167174600Y-104787900D01*
X167192570Y-104789209D01*
X167196323Y-104789758D01*
X167216506Y-104792715D01*
X167266147Y-104788372D01*
X167276955Y-104787900D01*
X167282543Y-104787900D01*
X167313503Y-104784281D01*
X167317041Y-104783919D01*
X167392212Y-104777343D01*
X167392217Y-104777341D01*
X167393432Y-104777235D01*
X167412627Y-104772980D01*
X167413779Y-104772560D01*
X167413784Y-104772560D01*
X167484674Y-104746757D01*
X167488034Y-104745590D01*
X167559636Y-104721864D01*
X167559641Y-104721860D01*
X167560802Y-104721476D01*
X167578502Y-104712907D01*
X167579519Y-104712237D01*
X167579524Y-104712236D01*
X167642567Y-104670771D01*
X167645559Y-104668865D01*
X167709754Y-104629270D01*
X167709754Y-104629269D01*
X167710793Y-104628629D01*
X167726044Y-104616205D01*
X167726881Y-104615317D01*
X167726885Y-104615315D01*
X167778671Y-104560423D01*
X167781116Y-104557906D01*
X175292860Y-97046162D01*
X175298053Y-97041262D01*
X175344867Y-96999603D01*
X175380800Y-96948283D01*
X175385083Y-96942529D01*
X175423939Y-96893391D01*
X175428728Y-96883118D01*
X175439536Y-96864398D01*
X175446032Y-96855123D01*
X175469158Y-96796910D01*
X175472002Y-96790319D01*
X175481974Y-96768932D01*
X175498479Y-96733540D01*
X175500770Y-96722442D01*
X175506973Y-96701726D01*
X175507150Y-96701278D01*
X175511152Y-96691208D01*
X175520228Y-96629240D01*
X175521475Y-96622167D01*
X175534146Y-96560807D01*
X175534102Y-96559314D01*
X175533816Y-96549491D01*
X175535072Y-96527904D01*
X175536715Y-96516694D01*
X175531255Y-96454294D01*
X175530836Y-96447103D01*
X175529015Y-96384504D01*
X175526084Y-96373567D01*
X175522331Y-96352289D01*
X175521343Y-96340988D01*
X175512794Y-96315188D01*
X175506500Y-96276185D01*
X175506500Y-91344662D01*
X175520511Y-91287405D01*
X175559378Y-91243086D01*
X175561048Y-91241916D01*
X175591139Y-91220847D01*
X175752047Y-91059939D01*
X175882568Y-90873534D01*
X175978739Y-90667296D01*
X176037635Y-90447492D01*
X176057468Y-90220800D01*
X176037635Y-89994108D01*
X175978739Y-89774304D01*
X175882568Y-89568066D01*
X175752047Y-89381661D01*
X175752046Y-89381659D01*
X175591141Y-89220754D01*
X175559378Y-89198514D01*
X175520511Y-89154195D01*
X175506500Y-89096938D01*
X175506500Y-86266686D01*
X175515939Y-86219233D01*
X175542819Y-86179005D01*
X177822205Y-83899619D01*
X177862433Y-83872739D01*
X177909886Y-83863300D01*
X180243478Y-83863300D01*
X180302496Y-83878245D01*
X180347287Y-83919479D01*
X180421836Y-84033585D01*
X180539000Y-84160859D01*
X180590256Y-84216538D01*
X180673008Y-84280947D01*
X180708246Y-84324340D01*
X180720845Y-84378800D01*
X180708246Y-84433260D01*
X180673008Y-84476653D01*
X180590256Y-84541061D01*
X180435215Y-84709480D01*
X180421836Y-84724015D01*
X180389631Y-84773308D01*
X180285825Y-84932195D01*
X180228623Y-85062604D01*
X180185937Y-85159919D01*
X180124892Y-85400979D01*
X180124891Y-85400983D01*
X180104356Y-85648799D01*
X180124891Y-85896616D01*
X180124891Y-85896619D01*
X180124892Y-85896621D01*
X180185937Y-86137681D01*
X180221709Y-86219233D01*
X180285825Y-86365404D01*
X180285827Y-86365407D01*
X180421836Y-86573585D01*
X180590256Y-86756538D01*
X180673008Y-86820947D01*
X180708245Y-86864338D01*
X180720845Y-86918798D01*
X180708246Y-86973258D01*
X180673009Y-87016651D01*
X180590257Y-87081060D01*
X180421837Y-87264014D01*
X180285825Y-87472195D01*
X180203036Y-87660937D01*
X180185937Y-87699919D01*
X180124892Y-87940979D01*
X180124891Y-87940983D01*
X180104356Y-88188800D01*
X180124891Y-88436616D01*
X180124891Y-88436619D01*
X180124892Y-88436621D01*
X180185937Y-88677681D01*
X180230960Y-88780323D01*
X180285825Y-88905404D01*
X180285827Y-88905407D01*
X180421836Y-89113585D01*
X180465935Y-89161489D01*
X180590256Y-89296538D01*
X180673008Y-89360947D01*
X180708246Y-89404340D01*
X180720845Y-89458800D01*
X180708246Y-89513260D01*
X180673008Y-89556653D01*
X180590256Y-89621061D01*
X180421837Y-89804014D01*
X180285825Y-90012195D01*
X180195780Y-90217478D01*
X180185937Y-90239919D01*
X180137411Y-90431543D01*
X180124891Y-90480983D01*
X180104356Y-90728799D01*
X180124891Y-90976616D01*
X180124891Y-90976619D01*
X180124892Y-90976621D01*
X180185937Y-91217681D01*
X180216521Y-91287405D01*
X180285825Y-91445404D01*
X180285827Y-91445407D01*
X180421836Y-91653585D01*
X180506450Y-91745500D01*
X180590256Y-91836538D01*
X180673008Y-91900947D01*
X180708246Y-91944340D01*
X180720845Y-91998800D01*
X180708246Y-92053260D01*
X180673008Y-92096653D01*
X180590256Y-92161061D01*
X180421837Y-92344014D01*
X180285825Y-92552195D01*
X180185938Y-92779917D01*
X180124891Y-93020983D01*
X180104356Y-93268799D01*
X180124891Y-93516616D01*
X180124891Y-93516619D01*
X180124892Y-93516621D01*
X180185937Y-93757681D01*
X180196844Y-93782546D01*
X180285825Y-93985404D01*
X180285827Y-93985407D01*
X180421836Y-94193585D01*
X180590256Y-94376538D01*
X180673008Y-94440947D01*
X180708245Y-94484338D01*
X180720845Y-94538798D01*
X180708246Y-94593258D01*
X180673009Y-94636651D01*
X180590257Y-94701060D01*
X180564187Y-94729380D01*
X180421836Y-94884015D01*
X180385244Y-94940024D01*
X180285825Y-95092195D01*
X180185938Y-95319917D01*
X180124891Y-95560983D01*
X180104356Y-95808800D01*
X180124891Y-96056616D01*
X180124891Y-96056619D01*
X180124892Y-96056621D01*
X180185937Y-96297681D01*
X180224020Y-96384502D01*
X180285825Y-96525404D01*
X180285827Y-96525407D01*
X180421836Y-96733585D01*
X180590256Y-96916538D01*
X180590259Y-96916540D01*
X180786485Y-97069270D01*
X180786487Y-97069271D01*
X180786491Y-97069274D01*
X181005190Y-97187628D01*
X181240386Y-97268371D01*
X181485665Y-97309300D01*
X181516489Y-97309300D01*
X181574430Y-97323670D01*
X181618943Y-97363448D01*
X181639709Y-97419416D01*
X181631917Y-97478602D01*
X181597373Y-97527288D01*
X181544082Y-97554190D01*
X181535024Y-97556258D01*
X181512581Y-97561380D01*
X181268358Y-97657231D01*
X181041143Y-97788413D01*
X180836015Y-97951998D01*
X180657571Y-98144314D01*
X180557070Y-98291722D01*
X180509772Y-98361096D01*
X180395937Y-98597477D01*
X180318604Y-98848185D01*
X180279500Y-99107618D01*
X180279500Y-99369982D01*
X180318604Y-99629415D01*
X180395937Y-99880123D01*
X180509772Y-100116504D01*
X180645766Y-100315970D01*
X180657571Y-100333285D01*
X180836015Y-100525601D01*
X180836019Y-100525605D01*
X181041143Y-100689186D01*
X181268357Y-100820368D01*
X181512584Y-100916220D01*
X181768370Y-100974602D01*
X181824408Y-100978801D01*
X181964501Y-100989300D01*
X181964506Y-100989300D01*
X182095494Y-100989300D01*
X182095499Y-100989300D01*
X182218078Y-100980113D01*
X182291630Y-100974602D01*
X182547416Y-100916220D01*
X182791643Y-100820368D01*
X183018857Y-100689186D01*
X183223981Y-100525605D01*
X183323273Y-100418592D01*
X183402428Y-100333285D01*
X183402429Y-100333282D01*
X183402433Y-100333279D01*
X183550228Y-100116504D01*
X183664063Y-99880123D01*
X183741396Y-99629415D01*
X183780500Y-99369982D01*
X183780500Y-99107618D01*
X183741396Y-98848185D01*
X183664063Y-98597477D01*
X183550228Y-98361096D01*
X183402433Y-98144321D01*
X183402432Y-98144320D01*
X183402428Y-98144314D01*
X183223984Y-97951998D01*
X183223983Y-97951997D01*
X183223981Y-97951995D01*
X183018857Y-97788414D01*
X183018856Y-97788413D01*
X182791641Y-97657231D01*
X182547418Y-97561380D01*
X182291627Y-97502997D01*
X182095499Y-97488300D01*
X182095494Y-97488300D01*
X182082074Y-97488300D01*
X182015978Y-97469216D01*
X181970227Y-97417838D01*
X181958904Y-97349980D01*
X181985493Y-97286530D01*
X182041811Y-97247019D01*
X182091222Y-97230055D01*
X182214810Y-97187628D01*
X182433509Y-97069274D01*
X182629744Y-96916538D01*
X182798164Y-96733585D01*
X182866330Y-96629249D01*
X182872713Y-96619479D01*
X182917504Y-96578245D01*
X182976522Y-96563300D01*
X183400200Y-96563300D01*
X183418170Y-96564609D01*
X183421923Y-96565158D01*
X183442106Y-96568115D01*
X183491747Y-96563772D01*
X183502555Y-96563300D01*
X183508143Y-96563300D01*
X183539103Y-96559681D01*
X183542641Y-96559319D01*
X183617812Y-96552743D01*
X183617817Y-96552741D01*
X183619032Y-96552635D01*
X183638227Y-96548380D01*
X183639379Y-96547960D01*
X183639384Y-96547960D01*
X183710274Y-96522157D01*
X183713634Y-96520990D01*
X183785236Y-96497264D01*
X183785241Y-96497260D01*
X183786402Y-96496876D01*
X183804102Y-96488307D01*
X183805119Y-96487637D01*
X183805124Y-96487636D01*
X183868167Y-96446171D01*
X183871159Y-96444265D01*
X183935354Y-96404670D01*
X183935354Y-96404669D01*
X183936393Y-96404029D01*
X183951644Y-96391605D01*
X183952481Y-96390717D01*
X183952485Y-96390715D01*
X184004271Y-96335823D01*
X184006715Y-96333307D01*
X185188318Y-95151705D01*
X185237682Y-95121455D01*
X185295398Y-95116913D01*
X185348885Y-95139068D01*
X185386485Y-95183091D01*
X185400000Y-95239386D01*
X185400000Y-101238800D01*
X202575500Y-101238800D01*
X202637500Y-101255413D01*
X202682887Y-101300800D01*
X202699500Y-101362800D01*
X202699500Y-109803175D01*
X202682935Y-109865093D01*
X202637665Y-109910467D01*
X202575787Y-109927174D01*
X183490237Y-109971137D01*
X145817814Y-110057915D01*
X145755945Y-110041542D01*
X145710481Y-109996500D01*
X145693531Y-109934789D01*
X145565689Y-91764142D01*
X145578886Y-91707600D01*
X145616378Y-91663262D01*
X145669944Y-91640854D01*
X145727838Y-91645287D01*
X145777367Y-91675591D01*
X146565220Y-92463444D01*
X146570155Y-92468674D01*
X146611797Y-92515467D01*
X146663110Y-92551396D01*
X146668875Y-92555689D01*
X146699411Y-92579834D01*
X146718008Y-92594538D01*
X146728280Y-92599328D01*
X146746998Y-92610135D01*
X146756276Y-92616632D01*
X146814456Y-92639745D01*
X146821081Y-92642602D01*
X146845449Y-92653965D01*
X146877860Y-92669079D01*
X146888954Y-92671369D01*
X146909662Y-92677568D01*
X146920192Y-92681752D01*
X146982181Y-92690832D01*
X146989254Y-92692079D01*
X147050593Y-92704745D01*
X147061920Y-92704415D01*
X147083488Y-92705671D01*
X147094706Y-92707315D01*
X147157114Y-92701855D01*
X147164285Y-92701436D01*
X147226895Y-92699615D01*
X147237828Y-92696685D01*
X147259111Y-92692931D01*
X147270412Y-92691943D01*
X147329915Y-92672224D01*
X147336735Y-92670182D01*
X147389954Y-92655923D01*
X147422038Y-92651700D01*
X151574000Y-92651700D01*
X151591970Y-92653009D01*
X151595723Y-92653558D01*
X151615906Y-92656515D01*
X151665547Y-92652172D01*
X151676355Y-92651700D01*
X151681943Y-92651700D01*
X151712903Y-92648081D01*
X151716441Y-92647719D01*
X151791612Y-92641143D01*
X151791617Y-92641141D01*
X151792832Y-92641035D01*
X151812027Y-92636780D01*
X151813179Y-92636360D01*
X151813184Y-92636360D01*
X151884074Y-92610557D01*
X151887434Y-92609390D01*
X151959036Y-92585664D01*
X151959041Y-92585660D01*
X151960202Y-92585276D01*
X151977902Y-92576707D01*
X151978919Y-92576037D01*
X151978924Y-92576036D01*
X152041967Y-92534571D01*
X152044959Y-92532665D01*
X152109154Y-92493070D01*
X152109154Y-92493069D01*
X152110193Y-92492429D01*
X152125444Y-92480005D01*
X152126281Y-92479117D01*
X152126285Y-92479115D01*
X152178071Y-92424223D01*
X152180516Y-92421706D01*
X165105664Y-79496558D01*
X165119283Y-79484788D01*
X165138694Y-79470339D01*
X165170734Y-79432154D01*
X165178020Y-79424202D01*
X165181983Y-79420241D01*
X165201327Y-79395774D01*
X165203561Y-79393032D01*
X165252067Y-79335227D01*
X165252068Y-79335224D01*
X165252849Y-79334294D01*
X165263420Y-79317702D01*
X165263936Y-79316593D01*
X165263939Y-79316591D01*
X165295839Y-79248179D01*
X165297364Y-79245028D01*
X165331224Y-79177611D01*
X165331224Y-79177609D01*
X165331776Y-79176511D01*
X165338232Y-79157935D01*
X165338477Y-79156744D01*
X165338480Y-79156740D01*
X165353743Y-79082812D01*
X165354508Y-79079363D01*
X165371900Y-79005988D01*
X165371900Y-79005986D01*
X165372181Y-79004800D01*
X165374181Y-78985223D01*
X165371952Y-78908604D01*
X165371900Y-78904998D01*
X165371900Y-75825262D01*
X165385911Y-75768005D01*
X165424778Y-75723686D01*
X165426448Y-75722516D01*
X165456539Y-75701447D01*
X165617447Y-75540539D01*
X165747968Y-75354134D01*
X165844139Y-75147896D01*
X165903035Y-74928092D01*
X165922868Y-74701400D01*
X165903035Y-74474708D01*
X165844139Y-74254904D01*
X165747968Y-74048666D01*
X165624569Y-73872433D01*
X165617446Y-73862259D01*
X165456540Y-73701353D01*
X165270135Y-73570832D01*
X165063897Y-73474661D01*
X164844089Y-73415764D01*
X164617399Y-73395931D01*
X164390710Y-73415764D01*
X164170902Y-73474661D01*
X163964664Y-73570832D01*
X163778259Y-73701353D01*
X163617353Y-73862259D01*
X163486832Y-74048664D01*
X163390661Y-74254902D01*
X163331764Y-74474710D01*
X163311931Y-74701400D01*
X163331764Y-74928089D01*
X163390661Y-75147897D01*
X163486832Y-75354135D01*
X163617353Y-75540540D01*
X163778258Y-75701445D01*
X163810022Y-75723686D01*
X163848889Y-75768005D01*
X163862900Y-75825262D01*
X163862900Y-78553914D01*
X163853461Y-78601367D01*
X163826581Y-78641595D01*
X151361795Y-91106381D01*
X151321567Y-91133261D01*
X151274114Y-91142700D01*
X147429886Y-91142700D01*
X147382433Y-91133261D01*
X147342205Y-91106381D01*
X146358219Y-90122395D01*
X146331339Y-90082167D01*
X146321900Y-90034714D01*
X146321900Y-88430806D01*
X146332466Y-88380720D01*
X146362362Y-88339169D01*
X146458380Y-88251637D01*
X146505832Y-88188800D01*
X146592458Y-88074089D01*
X146691629Y-87874928D01*
X146741424Y-87699919D01*
X146752515Y-87660937D01*
X146767900Y-87494904D01*
X149446900Y-87494904D01*
X149462284Y-87660937D01*
X149523169Y-87874926D01*
X149622341Y-88074088D01*
X149756419Y-88251637D01*
X149920837Y-88401524D01*
X150109995Y-88518645D01*
X150109997Y-88518645D01*
X150109999Y-88518647D01*
X150317460Y-88599018D01*
X150536157Y-88639900D01*
X150758641Y-88639900D01*
X150758643Y-88639900D01*
X150977340Y-88599018D01*
X151184801Y-88518647D01*
X151373962Y-88401524D01*
X151538381Y-88251636D01*
X151672458Y-88074089D01*
X151771629Y-87874928D01*
X151821424Y-87699919D01*
X151832515Y-87660937D01*
X151847900Y-87494904D01*
X151847900Y-87033896D01*
X151832515Y-86867862D01*
X151771630Y-86653873D01*
X151672458Y-86454711D01*
X151538380Y-86277162D01*
X151373962Y-86127275D01*
X151184804Y-86010154D01*
X151123574Y-85986433D01*
X150977340Y-85929782D01*
X150758643Y-85888900D01*
X150536157Y-85888900D01*
X150317459Y-85929782D01*
X150317460Y-85929782D01*
X150109995Y-86010154D01*
X149920837Y-86127275D01*
X149756419Y-86277162D01*
X149622341Y-86454711D01*
X149523169Y-86653873D01*
X149462284Y-86867862D01*
X149446900Y-87033896D01*
X149446900Y-87494904D01*
X146767900Y-87494904D01*
X146767900Y-87033896D01*
X146752515Y-86867862D01*
X146691630Y-86653873D01*
X146592458Y-86454711D01*
X146458380Y-86277162D01*
X146293962Y-86127275D01*
X146104804Y-86010154D01*
X146043574Y-85986433D01*
X145897340Y-85929782D01*
X145678643Y-85888900D01*
X145647484Y-85888900D01*
X145585736Y-85872432D01*
X145540389Y-85827403D01*
X145523487Y-85765772D01*
X145520920Y-85400983D01*
X145491116Y-81164771D01*
X145507436Y-81102404D01*
X145552861Y-81056659D01*
X145615113Y-81039900D01*
X145678641Y-81039900D01*
X145678643Y-81039900D01*
X145897340Y-80999018D01*
X146104801Y-80918647D01*
X146293962Y-80801524D01*
X146458381Y-80651636D01*
X146592458Y-80474089D01*
X146691629Y-80274928D01*
X146718134Y-80181774D01*
X146750533Y-80127220D01*
X146805675Y-80095835D01*
X146869125Y-80095835D01*
X146924267Y-80127220D01*
X146956666Y-80181774D01*
X146983169Y-80274926D01*
X147082341Y-80474088D01*
X147216419Y-80651637D01*
X147380837Y-80801524D01*
X147569995Y-80918645D01*
X147569997Y-80918645D01*
X147569999Y-80918647D01*
X147777460Y-80999018D01*
X147996157Y-81039900D01*
X148218641Y-81039900D01*
X148218643Y-81039900D01*
X148437340Y-80999018D01*
X148644801Y-80918647D01*
X148833962Y-80801524D01*
X148998381Y-80651636D01*
X149132458Y-80474089D01*
X149231629Y-80274928D01*
X149258134Y-80181774D01*
X149290533Y-80127220D01*
X149345675Y-80095835D01*
X149409125Y-80095835D01*
X149464267Y-80127220D01*
X149496666Y-80181774D01*
X149523169Y-80274926D01*
X149622341Y-80474088D01*
X149756419Y-80651637D01*
X149920837Y-80801524D01*
X150109995Y-80918645D01*
X150109997Y-80918645D01*
X150109999Y-80918647D01*
X150317460Y-80999018D01*
X150536157Y-81039900D01*
X150758641Y-81039900D01*
X150758643Y-81039900D01*
X150977340Y-80999018D01*
X151184801Y-80918647D01*
X151373962Y-80801524D01*
X151538381Y-80651636D01*
X151672458Y-80474089D01*
X151771629Y-80274928D01*
X151822586Y-80095835D01*
X151832515Y-80060937D01*
X151847900Y-79894904D01*
X151847900Y-79433896D01*
X151832515Y-79267862D01*
X151771630Y-79053874D01*
X151742256Y-78994884D01*
X151672458Y-78854711D01*
X151672455Y-78854707D01*
X151669949Y-78849674D01*
X151654328Y-78820036D01*
X151647900Y-78780631D01*
X151647900Y-70702438D01*
X151647940Y-70699296D01*
X151650156Y-70611839D01*
X151650155Y-70611838D01*
X151650156Y-70611836D01*
X151639745Y-70553754D01*
X151638442Y-70544463D01*
X151632474Y-70485762D01*
X151623364Y-70456728D01*
X151619623Y-70441486D01*
X151614257Y-70411543D01*
X151592376Y-70356765D01*
X151589216Y-70347889D01*
X151571761Y-70292257D01*
X151571559Y-70291612D01*
X151556795Y-70265012D01*
X151550060Y-70250831D01*
X151538777Y-70222583D01*
X151506317Y-70173331D01*
X151501436Y-70165274D01*
X151487383Y-70139956D01*
X151472809Y-70113698D01*
X151452982Y-70090603D01*
X151443546Y-70078088D01*
X151426802Y-70052681D01*
X151426800Y-70052679D01*
X151426799Y-70052677D01*
X151385093Y-70010972D01*
X151378687Y-70004060D01*
X151340264Y-69959302D01*
X151316204Y-69940678D01*
X151304426Y-69930305D01*
X146792967Y-65418847D01*
X146790812Y-65416638D01*
X146730459Y-65353147D01*
X146682040Y-65319446D01*
X146674518Y-65313775D01*
X146628805Y-65276500D01*
X146601840Y-65262415D01*
X146588419Y-65254284D01*
X146563449Y-65236905D01*
X146563448Y-65236904D01*
X146563446Y-65236903D01*
X146509245Y-65213643D01*
X146500736Y-65209602D01*
X146448453Y-65182292D01*
X146442526Y-65180596D01*
X146419198Y-65173921D01*
X146404420Y-65168659D01*
X146376458Y-65156660D01*
X146318672Y-65144783D01*
X146309528Y-65142538D01*
X146252821Y-65126313D01*
X146222475Y-65124002D01*
X146206934Y-65121822D01*
X146177142Y-65115700D01*
X146177141Y-65115700D01*
X146118158Y-65115700D01*
X146108744Y-65115342D01*
X146099598Y-65114645D01*
X146049924Y-65110863D01*
X146049923Y-65110863D01*
X146019749Y-65114706D01*
X146004083Y-65115700D01*
X145501331Y-65115700D01*
X145439583Y-65099232D01*
X145394236Y-65054203D01*
X145377334Y-64992572D01*
X145370831Y-64068329D01*
X145348280Y-60863061D01*
X145363871Y-60801992D01*
X145407477Y-60756473D01*
X145467827Y-60738275D01*
X145529327Y-60752099D01*
X145576084Y-60794373D01*
X145609751Y-60845903D01*
X145621021Y-60863153D01*
X145778216Y-61033913D01*
X145961374Y-61176470D01*
X146165497Y-61286936D01*
X146275258Y-61324617D01*
X146385015Y-61362297D01*
X146385017Y-61362297D01*
X146385019Y-61362298D01*
X146613951Y-61400500D01*
X146846048Y-61400500D01*
X146846049Y-61400500D01*
X147074981Y-61362298D01*
X147294503Y-61286936D01*
X147498626Y-61176470D01*
X147681784Y-61033913D01*
X147838979Y-60863153D01*
X147896191Y-60775582D01*
X147940982Y-60734349D01*
X148000000Y-60719404D01*
X148059018Y-60734349D01*
X148103808Y-60775582D01*
X148161021Y-60863153D01*
X148318216Y-61033913D01*
X148501374Y-61176470D01*
X148705497Y-61286936D01*
X148815258Y-61324617D01*
X148925015Y-61362297D01*
X148925017Y-61362297D01*
X148925019Y-61362298D01*
X149153951Y-61400500D01*
X149386048Y-61400500D01*
X149386049Y-61400500D01*
X149614981Y-61362298D01*
X149834503Y-61286936D01*
X150038626Y-61176470D01*
X150221784Y-61033913D01*
X150378979Y-60863153D01*
X150505924Y-60668849D01*
X150599157Y-60456300D01*
X150656134Y-60231305D01*
X150675300Y-60000000D01*
X150656134Y-59768695D01*
X150599157Y-59543700D01*
X150505924Y-59331151D01*
X150378979Y-59136847D01*
X150221784Y-58966087D01*
X150038626Y-58823530D01*
X149834503Y-58713064D01*
X149834499Y-58713062D01*
X149834498Y-58713062D01*
X149614984Y-58637702D01*
X149434044Y-58607509D01*
X149386049Y-58599500D01*
X149153951Y-58599500D01*
X149108164Y-58607140D01*
X148925015Y-58637702D01*
X148705501Y-58713062D01*
X148501372Y-58823531D01*
X148318215Y-58966087D01*
X148161018Y-59136849D01*
X148103808Y-59224417D01*
X148059017Y-59265650D01*
X148000000Y-59280595D01*
X147940983Y-59265650D01*
X147896192Y-59224417D01*
X147838981Y-59136849D01*
X147681784Y-58966087D01*
X147618461Y-58916801D01*
X147498626Y-58823530D01*
X147294503Y-58713064D01*
X147294499Y-58713062D01*
X147294498Y-58713062D01*
X147074984Y-58637702D01*
X146894044Y-58607509D01*
X146846049Y-58599500D01*
X146613951Y-58599500D01*
X146568164Y-58607140D01*
X146385015Y-58637702D01*
X146165501Y-58713062D01*
X145961372Y-58823531D01*
X145778215Y-58966087D01*
X145621018Y-59136850D01*
X145564081Y-59223998D01*
X145517633Y-59266111D01*
X145456521Y-59280119D01*
X145396368Y-59262441D01*
X145352553Y-59217596D01*
X145336277Y-59157053D01*
X145329205Y-58151847D01*
X145338474Y-58103932D01*
X145365515Y-58063307D01*
X147215204Y-56213619D01*
X147255433Y-56186739D01*
X147302886Y-56177300D01*
X152721914Y-56177300D01*
X152769367Y-56186739D01*
X152809595Y-56213619D01*
X156003381Y-59407405D01*
X156030261Y-59447633D01*
X156039700Y-59495086D01*
X156039700Y-66179200D01*
X156038391Y-66197170D01*
X156034885Y-66221106D01*
X156039228Y-66270748D01*
X156039700Y-66281555D01*
X156039700Y-66287140D01*
X156043316Y-66318085D01*
X156043682Y-66321669D01*
X156050362Y-66398019D01*
X156054623Y-66417239D01*
X156080821Y-66489220D01*
X156082004Y-66492624D01*
X156106116Y-66565387D01*
X156114696Y-66583108D01*
X156156813Y-66647146D01*
X156158750Y-66650186D01*
X156198330Y-66714354D01*
X156198331Y-66714355D01*
X156198972Y-66715394D01*
X156211402Y-66730653D01*
X156267137Y-66783235D01*
X156269725Y-66785749D01*
X159623932Y-70139956D01*
X159648171Y-70174253D01*
X159659572Y-70214675D01*
X159667726Y-70292257D01*
X159726220Y-70472284D01*
X159820866Y-70636216D01*
X159947529Y-70776889D01*
X160100669Y-70888151D01*
X160273597Y-70965144D01*
X160458752Y-71004500D01*
X160458754Y-71004500D01*
X160648046Y-71004500D01*
X160648048Y-71004500D01*
X160771483Y-70978262D01*
X160833203Y-70965144D01*
X161006130Y-70888151D01*
X161036705Y-70865937D01*
X161159270Y-70776889D01*
X161285933Y-70636216D01*
X161380579Y-70472284D01*
X161401206Y-70408800D01*
X161439074Y-70292256D01*
X161458860Y-70104000D01*
X161439074Y-69915744D01*
X161392807Y-69773350D01*
X161380579Y-69735715D01*
X161285933Y-69571783D01*
X161159270Y-69431111D01*
X161006130Y-69319849D01*
X160904086Y-69274415D01*
X160866841Y-69248817D01*
X157585019Y-65966995D01*
X157558139Y-65926767D01*
X157548700Y-65879314D01*
X157548700Y-59195200D01*
X157550009Y-59177230D01*
X157550498Y-59173888D01*
X157553515Y-59153294D01*
X157549172Y-59103652D01*
X157548700Y-59092845D01*
X157548700Y-59087262D01*
X157545081Y-59056298D01*
X157544715Y-59052709D01*
X157538037Y-58976373D01*
X157533779Y-58957167D01*
X157507560Y-58885132D01*
X157506375Y-58881722D01*
X157482280Y-58809004D01*
X157473704Y-58791293D01*
X157473037Y-58790279D01*
X157473036Y-58790276D01*
X157431552Y-58727203D01*
X157429681Y-58724265D01*
X157390071Y-58660047D01*
X157390070Y-58660046D01*
X157389430Y-58659008D01*
X157377000Y-58643749D01*
X157321261Y-58591163D01*
X157318673Y-58588649D01*
X154841566Y-56111542D01*
X154811320Y-56062193D01*
X154806769Y-56004491D01*
X154828904Y-55951010D01*
X154872901Y-55913402D01*
X154929169Y-55899862D01*
X233527600Y-55854600D01*
X233581866Y-55854600D01*
X233643731Y-55871135D01*
G37*
%TD.AperFunction*%
%TD*%
M02*
