%TF.GenerationSoftware,KiCad,Pcbnew,7.0.1*%
%TF.CreationDate,2024-11-26T18:11:55-05:00*%
%TF.ProjectId,tfg53,74666735-332e-46b6-9963-61645f706362,rev?*%
%TF.SameCoordinates,Original*%
%TF.FileFunction,Legend,Top*%
%TF.FilePolarity,Positive*%
%FSLAX46Y46*%
G04 Gerber Fmt 4.6, Leading zero omitted, Abs format (unit mm)*
G04 Created by KiCad (PCBNEW 7.0.1) date 2024-11-26 18:11:55*
%MOMM*%
%LPD*%
G01*
G04 APERTURE LIST*
%ADD10C,0.300000*%
%ADD11C,0.150000*%
%ADD12C,0.120000*%
%ADD13C,0.250000*%
%ADD14C,0.127000*%
%ADD15C,0.200000*%
%ADD16C,0.100000*%
G04 APERTURE END LIST*
D10*
G36*
X71987561Y-129102668D02*
G01*
X71966312Y-128813241D01*
X72945238Y-128813241D01*
X72960030Y-128840744D01*
X72970150Y-128868195D01*
X72978187Y-128896840D01*
X72982515Y-128926722D01*
X72983339Y-128947330D01*
X72981233Y-128979570D01*
X72974913Y-129008879D01*
X72962767Y-129038348D01*
X72949634Y-129058705D01*
X72928356Y-129079957D01*
X72902442Y-129094253D01*
X72871890Y-129101595D01*
X72852914Y-129102668D01*
X71987561Y-129102668D01*
G37*
G36*
X71996354Y-128813241D02*
G01*
X72016871Y-129102668D01*
X71034282Y-129102668D01*
X71020840Y-129076113D01*
X71009460Y-129047102D01*
X71008636Y-129044783D01*
X71001045Y-129015588D01*
X70996958Y-128985157D01*
X70996180Y-128964183D01*
X70997793Y-128934595D01*
X71003586Y-128904473D01*
X71015139Y-128875293D01*
X71029885Y-128853541D01*
X71053813Y-128832289D01*
X71083466Y-128818908D01*
X71115048Y-128813595D01*
X71126605Y-128813241D01*
X71996354Y-128813241D01*
G37*
G36*
X71819767Y-128989828D02*
G01*
X72159753Y-128989828D01*
X72159753Y-131358739D01*
X72130765Y-131367924D01*
X72099947Y-131375784D01*
X72094540Y-131377058D01*
X72064055Y-131383315D01*
X72033051Y-131386975D01*
X72004414Y-131388049D01*
X71971416Y-131386709D01*
X71941663Y-131382691D01*
X71911054Y-131374616D01*
X71881481Y-131360923D01*
X71865928Y-131349947D01*
X71845733Y-131328331D01*
X71831307Y-131301587D01*
X71822652Y-131269713D01*
X71819812Y-131237616D01*
X71819767Y-131232710D01*
X71819767Y-128989828D01*
G37*
G36*
X75085538Y-130530756D02*
G01*
X74749948Y-130530756D01*
X74749948Y-130144608D01*
X74749398Y-130113610D01*
X74747750Y-130083632D01*
X74743216Y-130040574D01*
X74736209Y-129999809D01*
X74726730Y-129961336D01*
X74714777Y-129925156D01*
X74700351Y-129891269D01*
X74683453Y-129859674D01*
X74664081Y-129830372D01*
X74642237Y-129803363D01*
X74617919Y-129778646D01*
X74609264Y-129770917D01*
X74582165Y-129749180D01*
X74553623Y-129729581D01*
X74523638Y-129712120D01*
X74492211Y-129696797D01*
X74459341Y-129683612D01*
X74425029Y-129672565D01*
X74389274Y-129663656D01*
X74352076Y-129656886D01*
X74313436Y-129652253D01*
X74273354Y-129649759D01*
X74245831Y-129649284D01*
X74215262Y-129649838D01*
X74185106Y-129651499D01*
X74155362Y-129654268D01*
X74126030Y-129658145D01*
X74097110Y-129663130D01*
X74059191Y-129671499D01*
X74022005Y-129681837D01*
X73985552Y-129694145D01*
X73949831Y-129708422D01*
X73941016Y-129712298D01*
X73906543Y-129728441D01*
X73873467Y-129745363D01*
X73841788Y-129763063D01*
X73811506Y-129781541D01*
X73782620Y-129800798D01*
X73755132Y-129820834D01*
X73729040Y-129841648D01*
X73704344Y-129863241D01*
X73641330Y-129589933D01*
X73667445Y-129572130D01*
X73695597Y-129554258D01*
X73725788Y-129536318D01*
X73758017Y-129518309D01*
X73792283Y-129500231D01*
X73819320Y-129486627D01*
X73847504Y-129472985D01*
X73876834Y-129459305D01*
X73907310Y-129445585D01*
X73938954Y-129432360D01*
X73971513Y-129420435D01*
X74004986Y-129409811D01*
X74039373Y-129400488D01*
X74074675Y-129392466D01*
X74110891Y-129385745D01*
X74148022Y-129380324D01*
X74186068Y-129376205D01*
X74225027Y-129373386D01*
X74264902Y-129371869D01*
X74291993Y-129371580D01*
X74335095Y-129372318D01*
X74377207Y-129374533D01*
X74418328Y-129378226D01*
X74458459Y-129383395D01*
X74497600Y-129390041D01*
X74535751Y-129398164D01*
X74572911Y-129407764D01*
X74609081Y-129418841D01*
X74644260Y-129431394D01*
X74678450Y-129445425D01*
X74711649Y-129460932D01*
X74743857Y-129477917D01*
X74775075Y-129496378D01*
X74805303Y-129516316D01*
X74834541Y-129537732D01*
X74862788Y-129560624D01*
X74889762Y-129585027D01*
X74914995Y-129610976D01*
X74938488Y-129638470D01*
X74960241Y-129667510D01*
X74980254Y-129698096D01*
X74998526Y-129730227D01*
X75015058Y-129763904D01*
X75029850Y-129799127D01*
X75042902Y-129835895D01*
X75054214Y-129874209D01*
X75063785Y-129914068D01*
X75071616Y-129955473D01*
X75077707Y-129998423D01*
X75082057Y-130042919D01*
X75084668Y-130088961D01*
X75085538Y-130136548D01*
X75085538Y-130530756D01*
G37*
G36*
X73409787Y-130258181D02*
G01*
X73746110Y-130258181D01*
X73746110Y-131358739D01*
X73717742Y-131367924D01*
X73688236Y-131375784D01*
X73683095Y-131377058D01*
X73653342Y-131383315D01*
X73621512Y-131386975D01*
X73590771Y-131388049D01*
X73559018Y-131386786D01*
X73525749Y-131382123D01*
X73496547Y-131374024D01*
X73468154Y-131360560D01*
X73455949Y-131352145D01*
X73433635Y-131328472D01*
X73419930Y-131301590D01*
X73411996Y-131269212D01*
X73409787Y-131236374D01*
X73409787Y-130258181D01*
G37*
G36*
X74749948Y-130261845D02*
G01*
X75085538Y-130266241D01*
X75085538Y-131358739D01*
X75056915Y-131367924D01*
X75028493Y-131375154D01*
X75020325Y-131377058D01*
X74989840Y-131383315D01*
X74958836Y-131386975D01*
X74930199Y-131388049D01*
X74897278Y-131386786D01*
X74867757Y-131383000D01*
X74837614Y-131375391D01*
X74808831Y-131362488D01*
X74793912Y-131352145D01*
X74772660Y-131328472D01*
X74759608Y-131301590D01*
X74752052Y-131269212D01*
X74749948Y-131236374D01*
X74749948Y-130261845D01*
G37*
G36*
X73746110Y-130421580D02*
G01*
X73409787Y-130421580D01*
X73409787Y-128645446D01*
X73438775Y-128635690D01*
X73469594Y-128627671D01*
X73475000Y-128626395D01*
X73506005Y-128620554D01*
X73535543Y-128617349D01*
X73566369Y-128616147D01*
X73569522Y-128616137D01*
X73601199Y-128617399D01*
X73634182Y-128622062D01*
X73662888Y-128630161D01*
X73690457Y-128643625D01*
X73702146Y-128652040D01*
X73723398Y-128675359D01*
X73736450Y-128702024D01*
X73744006Y-128734275D01*
X73746110Y-128767079D01*
X73746110Y-130421580D01*
G37*
G36*
X75835852Y-130610624D02*
G01*
X75818999Y-130346109D01*
X77087352Y-130173917D01*
X77083084Y-130131362D01*
X77076602Y-130090249D01*
X77067903Y-130050579D01*
X77056990Y-130012351D01*
X77043861Y-129975566D01*
X77028516Y-129940223D01*
X77010957Y-129906323D01*
X76991181Y-129873865D01*
X76969191Y-129842850D01*
X76944985Y-129813278D01*
X76927617Y-129794364D01*
X76899998Y-129767651D01*
X76870447Y-129743565D01*
X76838964Y-129722107D01*
X76805549Y-129703277D01*
X76770202Y-129687074D01*
X76732923Y-129673498D01*
X76693712Y-129662550D01*
X76652569Y-129654230D01*
X76609494Y-129648537D01*
X76579704Y-129646201D01*
X76549056Y-129645033D01*
X76533409Y-129644887D01*
X76501158Y-129645617D01*
X76469616Y-129647807D01*
X76438784Y-129651456D01*
X76408662Y-129656565D01*
X76379250Y-129663134D01*
X76350548Y-129671163D01*
X76322555Y-129680651D01*
X76295272Y-129691599D01*
X76268700Y-129704007D01*
X76242837Y-129717874D01*
X76217683Y-129733201D01*
X76193240Y-129749988D01*
X76169507Y-129768235D01*
X76146483Y-129787941D01*
X76124169Y-129809107D01*
X76102565Y-129831733D01*
X76081980Y-129855721D01*
X76062723Y-129880975D01*
X76044794Y-129907493D01*
X76028193Y-129935277D01*
X76012920Y-129964326D01*
X75998975Y-129994639D01*
X75986359Y-130026218D01*
X75975070Y-130059062D01*
X75965110Y-130093171D01*
X75956477Y-130128546D01*
X75949173Y-130165185D01*
X75943196Y-130203089D01*
X75938548Y-130242259D01*
X75935228Y-130282693D01*
X75933236Y-130324393D01*
X75932572Y-130367358D01*
X75932572Y-130459682D01*
X75936868Y-130501001D01*
X75942429Y-130541060D01*
X75949256Y-130579860D01*
X75957347Y-130617401D01*
X75966704Y-130653683D01*
X75977326Y-130688705D01*
X75989212Y-130722468D01*
X76002364Y-130754971D01*
X76016781Y-130786215D01*
X76032463Y-130816200D01*
X76049411Y-130844925D01*
X76067623Y-130872391D01*
X76087100Y-130898597D01*
X76107843Y-130923545D01*
X76129850Y-130947232D01*
X76153123Y-130969661D01*
X76177578Y-130990778D01*
X76203132Y-131010533D01*
X76229785Y-131028926D01*
X76257537Y-131045956D01*
X76286388Y-131061624D01*
X76316338Y-131075929D01*
X76347388Y-131088872D01*
X76379536Y-131100453D01*
X76412784Y-131110671D01*
X76447130Y-131119527D01*
X76482576Y-131127020D01*
X76519121Y-131133151D01*
X76556765Y-131137919D01*
X76595508Y-131141325D01*
X76635350Y-131143369D01*
X76676291Y-131144050D01*
X76708974Y-131143535D01*
X76741078Y-131141989D01*
X76772601Y-131139413D01*
X76803546Y-131135807D01*
X76833910Y-131131170D01*
X76863695Y-131125503D01*
X76892901Y-131118805D01*
X76921526Y-131111077D01*
X76949573Y-131102319D01*
X76986066Y-131089038D01*
X76995028Y-131085432D01*
X77029833Y-131070640D01*
X77062806Y-131055573D01*
X77093947Y-131040232D01*
X77123256Y-131024615D01*
X77150733Y-131008724D01*
X77176379Y-130992558D01*
X77205859Y-130971965D01*
X77222174Y-130959402D01*
X77246633Y-130976758D01*
X77270275Y-130998082D01*
X77290196Y-131021552D01*
X77295447Y-131029012D01*
X77309744Y-131054815D01*
X77318745Y-131082764D01*
X77322452Y-131112860D01*
X77322558Y-131119137D01*
X77319389Y-131148727D01*
X77309884Y-131177595D01*
X77294042Y-131205742D01*
X77271862Y-131233168D01*
X77248539Y-131255472D01*
X77232432Y-131268614D01*
X77202819Y-131289476D01*
X77177042Y-131305212D01*
X77149410Y-131320102D01*
X77119923Y-131334144D01*
X77088582Y-131347339D01*
X77055386Y-131359686D01*
X77020335Y-131371187D01*
X76992830Y-131379256D01*
X76955083Y-131389216D01*
X76926037Y-131395815D01*
X76896359Y-131401667D01*
X76866050Y-131406772D01*
X76835110Y-131411130D01*
X76803539Y-131414740D01*
X76771337Y-131417604D01*
X76738504Y-131419721D01*
X76705039Y-131421090D01*
X76670944Y-131421713D01*
X76659439Y-131421754D01*
X76619293Y-131421296D01*
X76579823Y-131419922D01*
X76541029Y-131417633D01*
X76502909Y-131414427D01*
X76465466Y-131410305D01*
X76428698Y-131405268D01*
X76392605Y-131399314D01*
X76357188Y-131392445D01*
X76322446Y-131384660D01*
X76288380Y-131375959D01*
X76254990Y-131366342D01*
X76222274Y-131355809D01*
X76190235Y-131344360D01*
X76158870Y-131331995D01*
X76128182Y-131318714D01*
X76098169Y-131304518D01*
X76069008Y-131289322D01*
X76040695Y-131273228D01*
X76013229Y-131256235D01*
X75986611Y-131238343D01*
X75960839Y-131219553D01*
X75935915Y-131199863D01*
X75911838Y-131179275D01*
X75888608Y-131157789D01*
X75866226Y-131135403D01*
X75844690Y-131112119D01*
X75824002Y-131087936D01*
X75804161Y-131062855D01*
X75785167Y-131036874D01*
X75767021Y-131009995D01*
X75749722Y-130982217D01*
X75733270Y-130953541D01*
X75717742Y-130923925D01*
X75703216Y-130893514D01*
X75689692Y-130862307D01*
X75677170Y-130830305D01*
X75665650Y-130797507D01*
X75655131Y-130763913D01*
X75645614Y-130729523D01*
X75637099Y-130694338D01*
X75629586Y-130658357D01*
X75623074Y-130621580D01*
X75617564Y-130584008D01*
X75613056Y-130545640D01*
X75609550Y-130506476D01*
X75607046Y-130466517D01*
X75605543Y-130425761D01*
X75605042Y-130384211D01*
X75605311Y-130354466D01*
X75606118Y-130325134D01*
X75608338Y-130281909D01*
X75611768Y-130239611D01*
X75616410Y-130198241D01*
X75622261Y-130157797D01*
X75629324Y-130118282D01*
X75637597Y-130079693D01*
X75647081Y-130042032D01*
X75657776Y-130005298D01*
X75669681Y-129969492D01*
X75673919Y-129957763D01*
X75687447Y-129923225D01*
X75701928Y-129889679D01*
X75717363Y-129857125D01*
X75733751Y-129825562D01*
X75751091Y-129794992D01*
X75769385Y-129765413D01*
X75788632Y-129736826D01*
X75808832Y-129709230D01*
X75829986Y-129682627D01*
X75852092Y-129657015D01*
X75867359Y-129640491D01*
X75891002Y-129616577D01*
X75915496Y-129593745D01*
X75940839Y-129571995D01*
X75967033Y-129551327D01*
X75994077Y-129531741D01*
X76021970Y-129513237D01*
X76050714Y-129495814D01*
X76080308Y-129479474D01*
X76110752Y-129464215D01*
X76142046Y-129450039D01*
X76163381Y-129441189D01*
X76195925Y-129428749D01*
X76228983Y-129417533D01*
X76262557Y-129407540D01*
X76296646Y-129398771D01*
X76331251Y-129391225D01*
X76366370Y-129384903D01*
X76402005Y-129379805D01*
X76438155Y-129375930D01*
X76474820Y-129373279D01*
X76512000Y-129371852D01*
X76537073Y-129371580D01*
X76568889Y-129372006D01*
X76600225Y-129373286D01*
X76631080Y-129375418D01*
X76661454Y-129378403D01*
X76691347Y-129382241D01*
X76720759Y-129386933D01*
X76749690Y-129392477D01*
X76792186Y-129402392D01*
X76833599Y-129414227D01*
X76873931Y-129427980D01*
X76913180Y-129443653D01*
X76951348Y-129461245D01*
X76988434Y-129480756D01*
X77024375Y-129501987D01*
X77058836Y-129524737D01*
X77091815Y-129549007D01*
X77123313Y-129574797D01*
X77153330Y-129602107D01*
X77181865Y-129630937D01*
X77208920Y-129661287D01*
X77234493Y-129693156D01*
X77258585Y-129726545D01*
X77281196Y-129761454D01*
X77295447Y-129785571D01*
X77315351Y-129822618D01*
X77333297Y-129860670D01*
X77349285Y-129899727D01*
X77363316Y-129939788D01*
X77375389Y-129980853D01*
X77385504Y-130022924D01*
X77393661Y-130065999D01*
X77398012Y-130095274D01*
X77401492Y-130124995D01*
X77404103Y-130155163D01*
X77405843Y-130185777D01*
X77406713Y-130216838D01*
X77406822Y-130232536D01*
X77405328Y-130265328D01*
X77400845Y-130294463D01*
X77391839Y-130323830D01*
X77376567Y-130351296D01*
X77364323Y-130365160D01*
X77338164Y-130384982D01*
X77310435Y-130398514D01*
X77278493Y-130408200D01*
X77247087Y-130413520D01*
X75835852Y-130610624D01*
G37*
G36*
X78227478Y-129787769D02*
G01*
X78227478Y-130450889D01*
X77891888Y-130450889D01*
X77891888Y-129812682D01*
X77893124Y-129777829D01*
X77896834Y-129745809D01*
X77903016Y-129716623D01*
X77913355Y-129686154D01*
X77927059Y-129659542D01*
X77945081Y-129634928D01*
X77967731Y-129610455D01*
X77990829Y-129589589D01*
X78017328Y-129568827D01*
X78042007Y-129551603D01*
X78047226Y-129548167D01*
X78075769Y-129530685D01*
X78106806Y-129513775D01*
X78140340Y-129497437D01*
X78176370Y-129481672D01*
X78205030Y-129470224D01*
X78235094Y-129459098D01*
X78266562Y-129448294D01*
X78299434Y-129437811D01*
X78333710Y-129427651D01*
X78345447Y-129424336D01*
X78381260Y-129414908D01*
X78417807Y-129406407D01*
X78455088Y-129398834D01*
X78493103Y-129392188D01*
X78531853Y-129386469D01*
X78571336Y-129381678D01*
X78611554Y-129377814D01*
X78652506Y-129374877D01*
X78694192Y-129372868D01*
X78736612Y-129371786D01*
X78765300Y-129371580D01*
X78806027Y-129372238D01*
X78844126Y-129374213D01*
X78879597Y-129377504D01*
X78912441Y-129382113D01*
X78942658Y-129388037D01*
X78983056Y-129399393D01*
X79017542Y-129413712D01*
X79046116Y-129430992D01*
X79068779Y-129451235D01*
X79089799Y-129482834D01*
X79100309Y-129519700D01*
X79101623Y-129540107D01*
X79099768Y-129570607D01*
X79094204Y-129599458D01*
X79088434Y-129617776D01*
X79076983Y-129644781D01*
X79061676Y-129670346D01*
X79055461Y-129678593D01*
X79026467Y-129673169D01*
X78996212Y-129668410D01*
X78966009Y-129664277D01*
X78945552Y-129661740D01*
X78916345Y-129658314D01*
X78887068Y-129655730D01*
X78857721Y-129653986D01*
X78828304Y-129653085D01*
X78811462Y-129652947D01*
X78775729Y-129653302D01*
X78740794Y-129654364D01*
X78706658Y-129656135D01*
X78673320Y-129658615D01*
X78640781Y-129661802D01*
X78609040Y-129665699D01*
X78578098Y-129670303D01*
X78547955Y-129675616D01*
X78518610Y-129681638D01*
X78490064Y-129688367D01*
X78471476Y-129693248D01*
X78435447Y-129703380D01*
X78400997Y-129713993D01*
X78368127Y-129725087D01*
X78336837Y-129736662D01*
X78307128Y-129748717D01*
X78278998Y-129761254D01*
X78252448Y-129774271D01*
X78227478Y-129787769D01*
G37*
G36*
X77891888Y-130258181D02*
G01*
X78227478Y-130308739D01*
X78227478Y-131358739D01*
X78199475Y-131367924D01*
X78169689Y-131375784D01*
X78164463Y-131377058D01*
X78134710Y-131383315D01*
X78102879Y-131386975D01*
X78072139Y-131388049D01*
X78040635Y-131386786D01*
X78007591Y-131382123D01*
X77978545Y-131374024D01*
X77950243Y-131360560D01*
X77938050Y-131352145D01*
X77915735Y-131328472D01*
X77902031Y-131301590D01*
X77894097Y-131269212D01*
X77891888Y-131236374D01*
X77891888Y-130258181D01*
G37*
G36*
X81041155Y-130022975D02*
G01*
X81041155Y-130505843D01*
X80704833Y-130505843D01*
X80704833Y-130047888D01*
X80703783Y-130010248D01*
X80700634Y-129974541D01*
X80695385Y-129940765D01*
X80688037Y-129908922D01*
X80678590Y-129879010D01*
X80667043Y-129851030D01*
X80653397Y-129824983D01*
X80631936Y-129793258D01*
X80606742Y-129764968D01*
X80585398Y-129746004D01*
X80554314Y-129723335D01*
X80520781Y-129703689D01*
X80494022Y-129690938D01*
X80465886Y-129679887D01*
X80436372Y-129670536D01*
X80405479Y-129662885D01*
X80373208Y-129656935D01*
X80339559Y-129652684D01*
X80304532Y-129650134D01*
X80268127Y-129649284D01*
X80235818Y-129649936D01*
X80203738Y-129651894D01*
X80171887Y-129655157D01*
X80140266Y-129659725D01*
X80108873Y-129665598D01*
X80077709Y-129672777D01*
X80046774Y-129681261D01*
X80016068Y-129691049D01*
X79986244Y-129701697D01*
X79957587Y-129712756D01*
X79930098Y-129724228D01*
X79897380Y-129739148D01*
X79866486Y-129754711D01*
X79837416Y-129770918D01*
X79810171Y-129787769D01*
X79810171Y-130505843D01*
X79474582Y-130505843D01*
X79474582Y-129804622D01*
X79475818Y-129773925D01*
X79480386Y-129740390D01*
X79488320Y-129709310D01*
X79499620Y-129680685D01*
X79509753Y-129661740D01*
X79527985Y-129636270D01*
X79551266Y-129611150D01*
X79575240Y-129589898D01*
X79602924Y-129568904D01*
X79628827Y-129551606D01*
X79634316Y-129548167D01*
X79663488Y-129530685D01*
X79694583Y-129513775D01*
X79727602Y-129497437D01*
X79762544Y-129481672D01*
X79790013Y-129470224D01*
X79818563Y-129459098D01*
X79848196Y-129448294D01*
X79878910Y-129437811D01*
X79910707Y-129427651D01*
X79921546Y-129424336D01*
X79954263Y-129414908D01*
X79987019Y-129406407D01*
X80019814Y-129398834D01*
X80052647Y-129392188D01*
X80085519Y-129386469D01*
X80118430Y-129381678D01*
X80151379Y-129377814D01*
X80184367Y-129374877D01*
X80217393Y-129372868D01*
X80250458Y-129371786D01*
X80272523Y-129371580D01*
X80312196Y-129372153D01*
X80350979Y-129373872D01*
X80388874Y-129376738D01*
X80425881Y-129380750D01*
X80461998Y-129385909D01*
X80497227Y-129392213D01*
X80531568Y-129399665D01*
X80565019Y-129408262D01*
X80597582Y-129418006D01*
X80629256Y-129428896D01*
X80649878Y-129436793D01*
X80679912Y-129449445D01*
X80708465Y-129462947D01*
X80735537Y-129477300D01*
X80761127Y-129492503D01*
X80792943Y-129514095D01*
X80822127Y-129537199D01*
X80848677Y-129561814D01*
X80872593Y-129587941D01*
X80893877Y-129615578D01*
X80914634Y-129636676D01*
X80934234Y-129659070D01*
X80936375Y-129661740D01*
X80954074Y-129687261D01*
X80968340Y-129713868D01*
X80969348Y-129715962D01*
X80983773Y-129743073D01*
X80997008Y-129773848D01*
X81007612Y-129803781D01*
X81017304Y-129836519D01*
X81019906Y-129846388D01*
X81027128Y-129876931D01*
X81032855Y-129908658D01*
X81037088Y-129941571D01*
X81039827Y-129975669D01*
X81040968Y-130004988D01*
X81041155Y-130022975D01*
G37*
G36*
X82271406Y-130031035D02*
G01*
X82271406Y-130505843D01*
X81935817Y-130505843D01*
X81935817Y-130047888D01*
X81934780Y-130010248D01*
X81931669Y-129974541D01*
X81926485Y-129940765D01*
X81919227Y-129908922D01*
X81909896Y-129879010D01*
X81898491Y-129851030D01*
X81885012Y-129824983D01*
X81863814Y-129793258D01*
X81838930Y-129764968D01*
X81817848Y-129746004D01*
X81787279Y-129723335D01*
X81754192Y-129703689D01*
X81727723Y-129690938D01*
X81699838Y-129679887D01*
X81670536Y-129670536D01*
X81639817Y-129662885D01*
X81607682Y-129656935D01*
X81574129Y-129652684D01*
X81539160Y-129650134D01*
X81502774Y-129649284D01*
X81466287Y-129650234D01*
X81430097Y-129653085D01*
X81394204Y-129657836D01*
X81358610Y-129664488D01*
X81323313Y-129673040D01*
X81288314Y-129683493D01*
X81253612Y-129695846D01*
X81219208Y-129710100D01*
X81185560Y-129726129D01*
X81152759Y-129743806D01*
X81120805Y-129763131D01*
X81089699Y-129784106D01*
X81059439Y-129806729D01*
X81030027Y-129831000D01*
X81001462Y-129856921D01*
X80973744Y-129884490D01*
X80839655Y-129640491D01*
X80867991Y-129613655D01*
X80890610Y-129594129D01*
X80914402Y-129575118D01*
X80939365Y-129556622D01*
X80965501Y-129538642D01*
X80992809Y-129521177D01*
X81021289Y-129504226D01*
X81050940Y-129487792D01*
X81081764Y-129471872D01*
X81113760Y-129456467D01*
X81124686Y-129451447D01*
X81158241Y-129437174D01*
X81192684Y-129424305D01*
X81228016Y-129412839D01*
X81264237Y-129402778D01*
X81301346Y-129394120D01*
X81339344Y-129386867D01*
X81378231Y-129381017D01*
X81418007Y-129376571D01*
X81458671Y-129373530D01*
X81500224Y-129371892D01*
X81528420Y-129371580D01*
X81570338Y-129372211D01*
X81611187Y-129374104D01*
X81650966Y-129377260D01*
X81689677Y-129381678D01*
X81727319Y-129387358D01*
X81763892Y-129394300D01*
X81799395Y-129402505D01*
X81833830Y-129411971D01*
X81867196Y-129422700D01*
X81899492Y-129434692D01*
X81920430Y-129443387D01*
X81950966Y-129457383D01*
X81980201Y-129472719D01*
X82008136Y-129489394D01*
X82034770Y-129507409D01*
X82060102Y-129526764D01*
X82084134Y-129547457D01*
X82106865Y-129569491D01*
X82128295Y-129592864D01*
X82148425Y-129617576D01*
X82167253Y-129643628D01*
X82179083Y-129661740D01*
X82195582Y-129689887D01*
X82210458Y-129719374D01*
X82223712Y-129750200D01*
X82235342Y-129782366D01*
X82245350Y-129815871D01*
X82253735Y-129850715D01*
X82260497Y-129886900D01*
X82265636Y-129924423D01*
X82269152Y-129963287D01*
X82271046Y-130003489D01*
X82271406Y-130031035D01*
G37*
G36*
X79474582Y-130283094D02*
G01*
X79810171Y-130283094D01*
X79810171Y-131358739D01*
X79782169Y-131367924D01*
X79752383Y-131375784D01*
X79747157Y-131377058D01*
X79717404Y-131383315D01*
X79685573Y-131386975D01*
X79654833Y-131388049D01*
X79623328Y-131386786D01*
X79590285Y-131382123D01*
X79561238Y-131374024D01*
X79532937Y-131360560D01*
X79520744Y-131352145D01*
X79498429Y-131328472D01*
X79484725Y-131301590D01*
X79476791Y-131269212D01*
X79474582Y-131236374D01*
X79474582Y-130283094D01*
G37*
G36*
X80704833Y-130283094D02*
G01*
X81041155Y-130283094D01*
X81041155Y-131358739D01*
X81012167Y-131367924D01*
X80981349Y-131375784D01*
X80975942Y-131377058D01*
X80945458Y-131383315D01*
X80914453Y-131386975D01*
X80885817Y-131388049D01*
X80852870Y-131386786D01*
X80823272Y-131383000D01*
X80792973Y-131375391D01*
X80763927Y-131362488D01*
X80748797Y-131352145D01*
X80727545Y-131328472D01*
X80714493Y-131301590D01*
X80706937Y-131269212D01*
X80704833Y-131236374D01*
X80704833Y-130283094D01*
G37*
G36*
X81935817Y-130283094D02*
G01*
X82271406Y-130283094D01*
X82271406Y-131358739D01*
X82242784Y-131367924D01*
X82214362Y-131375154D01*
X82206194Y-131377058D01*
X82175709Y-131383315D01*
X82144705Y-131386975D01*
X82116068Y-131388049D01*
X82083147Y-131386786D01*
X82053626Y-131383000D01*
X82023482Y-131375391D01*
X81994700Y-131362488D01*
X81979781Y-131352145D01*
X81958529Y-131328472D01*
X81945477Y-131301590D01*
X81937921Y-131269212D01*
X81935817Y-131236374D01*
X81935817Y-130283094D01*
G37*
G36*
X83784760Y-129372072D02*
G01*
X83819639Y-129373549D01*
X83853957Y-129376010D01*
X83887714Y-129379457D01*
X83920910Y-129383887D01*
X83953545Y-129389303D01*
X83985619Y-129395702D01*
X84017132Y-129403087D01*
X84048084Y-129411456D01*
X84078475Y-129420810D01*
X84108305Y-129431148D01*
X84137574Y-129442471D01*
X84166283Y-129454779D01*
X84194430Y-129468071D01*
X84222016Y-129482348D01*
X84249041Y-129497609D01*
X84275416Y-129513766D01*
X84301053Y-129530731D01*
X84325952Y-129548502D01*
X84350112Y-129567081D01*
X84373533Y-129586467D01*
X84396216Y-129606660D01*
X84418161Y-129627660D01*
X84439367Y-129649467D01*
X84459835Y-129672081D01*
X84479564Y-129695503D01*
X84498555Y-129719732D01*
X84516807Y-129744767D01*
X84534321Y-129770610D01*
X84551097Y-129797261D01*
X84567134Y-129824718D01*
X84582432Y-129852982D01*
X84596984Y-129881896D01*
X84610597Y-129911486D01*
X84623270Y-129941751D01*
X84635006Y-129972692D01*
X84645802Y-130004308D01*
X84655659Y-130036600D01*
X84664578Y-130069567D01*
X84672558Y-130103209D01*
X84679599Y-130137527D01*
X84685701Y-130172521D01*
X84690865Y-130208190D01*
X84695089Y-130244534D01*
X84698375Y-130281554D01*
X84700722Y-130319250D01*
X84702130Y-130357620D01*
X84702600Y-130396667D01*
X84702139Y-130435192D01*
X84700757Y-130473100D01*
X84698452Y-130510389D01*
X84695227Y-130547059D01*
X84691079Y-130583112D01*
X84686010Y-130618546D01*
X84680020Y-130653362D01*
X84673107Y-130687560D01*
X84665274Y-130721140D01*
X84656518Y-130754101D01*
X84646841Y-130786444D01*
X84636242Y-130818169D01*
X84624722Y-130849276D01*
X84612280Y-130879764D01*
X84598916Y-130909634D01*
X84584630Y-130938886D01*
X84569595Y-130967328D01*
X84553799Y-130994951D01*
X84537241Y-131021756D01*
X84519921Y-131047742D01*
X84501841Y-131072910D01*
X84482999Y-131097258D01*
X84463395Y-131120789D01*
X84443031Y-131143500D01*
X84421905Y-131165394D01*
X84400017Y-131186468D01*
X84377368Y-131206724D01*
X84353958Y-131226161D01*
X84329787Y-131244780D01*
X84304854Y-131262580D01*
X84279160Y-131279562D01*
X84252704Y-131295725D01*
X84225665Y-131310986D01*
X84198036Y-131325263D01*
X84169817Y-131338555D01*
X84141009Y-131350863D01*
X84111611Y-131362186D01*
X84081624Y-131372524D01*
X84051047Y-131381878D01*
X84019880Y-131390247D01*
X83988124Y-131397631D01*
X83955778Y-131404031D01*
X83922842Y-131409447D01*
X83889317Y-131413877D01*
X83855202Y-131417323D01*
X83820498Y-131419785D01*
X83785204Y-131421262D01*
X83749320Y-131421754D01*
X83713339Y-131421262D01*
X83677936Y-131419785D01*
X83643112Y-131417323D01*
X83608865Y-131413877D01*
X83575197Y-131409447D01*
X83542107Y-131404031D01*
X83509595Y-131397631D01*
X83477661Y-131390247D01*
X83446305Y-131381878D01*
X83415528Y-131372524D01*
X83385328Y-131362186D01*
X83355707Y-131350863D01*
X83326664Y-131338555D01*
X83298200Y-131325263D01*
X83270313Y-131310986D01*
X83243005Y-131295725D01*
X83216369Y-131279562D01*
X83190500Y-131262580D01*
X83165398Y-131244780D01*
X83141064Y-131226161D01*
X83117496Y-131206724D01*
X83094696Y-131186468D01*
X83072662Y-131165394D01*
X83051396Y-131143500D01*
X83030897Y-131120789D01*
X83011165Y-131097258D01*
X82992200Y-131072910D01*
X82974002Y-131047742D01*
X82956571Y-131021756D01*
X82939907Y-130994951D01*
X82924010Y-130967328D01*
X82908880Y-130938886D01*
X82894684Y-130909634D01*
X82881403Y-130879764D01*
X82869038Y-130849276D01*
X82857589Y-130818169D01*
X82847056Y-130786444D01*
X82837439Y-130754101D01*
X82828738Y-130721140D01*
X82820953Y-130687560D01*
X82814084Y-130653362D01*
X82808130Y-130618546D01*
X82803093Y-130583112D01*
X82798971Y-130547059D01*
X82795765Y-130510389D01*
X82793476Y-130473100D01*
X82792102Y-130435192D01*
X82791644Y-130396667D01*
X83136026Y-130396667D01*
X83136656Y-130440118D01*
X83138545Y-130482362D01*
X83141693Y-130523397D01*
X83146101Y-130563225D01*
X83151768Y-130601845D01*
X83158695Y-130639257D01*
X83166881Y-130675462D01*
X83176326Y-130710458D01*
X83187031Y-130744246D01*
X83198995Y-130776827D01*
X83212218Y-130808200D01*
X83226701Y-130838365D01*
X83242444Y-130867322D01*
X83259445Y-130895071D01*
X83277706Y-130921613D01*
X83297226Y-130946946D01*
X83317969Y-130970814D01*
X83339713Y-130993142D01*
X83362459Y-131013931D01*
X83386207Y-131033179D01*
X83410957Y-131050888D01*
X83436708Y-131067056D01*
X83463461Y-131081685D01*
X83491216Y-131094774D01*
X83519973Y-131106323D01*
X83549732Y-131116332D01*
X83580492Y-131124802D01*
X83612254Y-131131731D01*
X83645018Y-131137121D01*
X83678783Y-131140970D01*
X83713551Y-131143280D01*
X83749320Y-131144050D01*
X83784554Y-131143271D01*
X83818815Y-131140936D01*
X83852102Y-131137043D01*
X83884417Y-131131594D01*
X83915758Y-131124587D01*
X83946126Y-131116023D01*
X83975521Y-131105902D01*
X84003943Y-131094224D01*
X84031392Y-131080990D01*
X84057867Y-131066198D01*
X84083370Y-131049849D01*
X84107899Y-131031943D01*
X84131455Y-131012479D01*
X84154038Y-130991459D01*
X84175648Y-130968882D01*
X84196284Y-130944748D01*
X84215893Y-130919251D01*
X84234237Y-130892587D01*
X84251316Y-130864755D01*
X84267130Y-130835754D01*
X84281679Y-130805587D01*
X84294962Y-130774251D01*
X84306981Y-130741748D01*
X84317734Y-130708077D01*
X84327222Y-130673238D01*
X84335446Y-130637231D01*
X84342404Y-130600056D01*
X84348097Y-130561714D01*
X84352524Y-130522204D01*
X84355687Y-130481526D01*
X84357585Y-130439680D01*
X84358217Y-130396667D01*
X84357585Y-130353653D01*
X84355687Y-130311808D01*
X84352524Y-130271130D01*
X84348097Y-130231620D01*
X84342404Y-130193277D01*
X84335446Y-130156103D01*
X84327222Y-130120096D01*
X84317734Y-130085257D01*
X84306981Y-130051586D01*
X84294962Y-130019083D01*
X84281679Y-129987747D01*
X84267130Y-129957579D01*
X84251316Y-129928579D01*
X84234237Y-129900747D01*
X84215893Y-129874083D01*
X84196284Y-129848586D01*
X84175648Y-129824452D01*
X84154038Y-129801875D01*
X84131455Y-129780854D01*
X84107899Y-129761391D01*
X84083370Y-129743485D01*
X84057867Y-129727136D01*
X84031392Y-129712344D01*
X84003943Y-129699109D01*
X83975521Y-129687431D01*
X83946126Y-129677311D01*
X83915758Y-129668747D01*
X83884417Y-129661740D01*
X83852102Y-129656291D01*
X83818815Y-129652398D01*
X83784554Y-129650062D01*
X83749320Y-129649284D01*
X83714598Y-129650062D01*
X83680775Y-129652398D01*
X83647851Y-129656291D01*
X83615826Y-129661740D01*
X83584699Y-129668747D01*
X83554471Y-129677311D01*
X83525142Y-129687431D01*
X83496712Y-129699109D01*
X83469180Y-129712344D01*
X83442547Y-129727136D01*
X83416813Y-129743485D01*
X83391977Y-129761391D01*
X83368041Y-129780854D01*
X83345003Y-129801875D01*
X83322863Y-129824452D01*
X83301623Y-129848586D01*
X83281570Y-129874083D01*
X83262811Y-129900747D01*
X83245346Y-129928579D01*
X83229174Y-129957579D01*
X83214296Y-129987747D01*
X83200712Y-130019083D01*
X83188422Y-130051586D01*
X83177425Y-130085257D01*
X83167722Y-130120096D01*
X83159313Y-130156103D01*
X83152198Y-130193277D01*
X83146376Y-130231620D01*
X83141848Y-130271130D01*
X83138614Y-130311808D01*
X83136673Y-130353653D01*
X83136026Y-130396667D01*
X82791644Y-130396667D01*
X82792110Y-130357620D01*
X82793510Y-130319250D01*
X82795843Y-130281554D01*
X82799108Y-130244534D01*
X82803307Y-130208190D01*
X82808439Y-130172521D01*
X82814504Y-130137527D01*
X82821502Y-130103209D01*
X82829434Y-130069567D01*
X82838298Y-130036600D01*
X82848095Y-130004308D01*
X82858826Y-129972692D01*
X82870489Y-129941751D01*
X82883086Y-129911486D01*
X82896616Y-129881896D01*
X82911078Y-129852982D01*
X82926474Y-129824718D01*
X82942620Y-129797261D01*
X82959516Y-129770610D01*
X82977161Y-129744767D01*
X82995557Y-129719732D01*
X83014702Y-129695503D01*
X83034598Y-129672081D01*
X83055243Y-129649467D01*
X83076638Y-129627660D01*
X83098783Y-129606660D01*
X83121678Y-129586467D01*
X83145323Y-129567081D01*
X83169717Y-129548502D01*
X83194862Y-129530731D01*
X83220756Y-129513766D01*
X83247401Y-129497609D01*
X83274692Y-129482348D01*
X83302527Y-129468071D01*
X83330906Y-129454779D01*
X83359829Y-129442471D01*
X83389295Y-129431148D01*
X83419306Y-129420810D01*
X83449860Y-129411456D01*
X83480958Y-129403087D01*
X83512600Y-129395702D01*
X83544786Y-129389303D01*
X83577515Y-129383887D01*
X83610788Y-129379457D01*
X83644606Y-129376010D01*
X83678967Y-129373549D01*
X83713871Y-129372072D01*
X83749320Y-129371580D01*
X83784760Y-129372072D01*
G37*
G36*
X85620709Y-130333652D02*
G01*
X85280723Y-130329256D01*
X85280723Y-128997888D01*
X85282500Y-128967723D01*
X85289067Y-128935461D01*
X85300472Y-128906354D01*
X85316716Y-128880403D01*
X85331281Y-128863799D01*
X85354978Y-128844099D01*
X85381831Y-128829237D01*
X85411839Y-128819215D01*
X85445003Y-128814031D01*
X85465370Y-128813241D01*
X85497106Y-128814712D01*
X85528843Y-128819128D01*
X85557694Y-128825697D01*
X85586298Y-128833828D01*
X85614920Y-128844109D01*
X85620709Y-128846946D01*
X85620709Y-130333652D01*
G37*
G36*
X85465370Y-130266241D02*
G01*
X85465370Y-129976813D01*
X86713207Y-129976813D01*
X86727220Y-130004763D01*
X86738120Y-130033234D01*
X86746185Y-130063373D01*
X86749980Y-130092911D01*
X86750576Y-130110903D01*
X86748469Y-130143143D01*
X86742150Y-130172452D01*
X86730004Y-130201921D01*
X86716871Y-130222278D01*
X86695947Y-130243530D01*
X86670271Y-130257826D01*
X86639842Y-130265168D01*
X86620883Y-130266241D01*
X85465370Y-130266241D01*
G37*
G36*
X85465370Y-129102668D02*
G01*
X85465370Y-128813241D01*
X86859753Y-128813241D01*
X86874359Y-128838923D01*
X86885398Y-128868195D01*
X86892989Y-128896840D01*
X86897076Y-128926722D01*
X86897854Y-128947330D01*
X86895748Y-128979570D01*
X86889428Y-129008879D01*
X86877282Y-129038348D01*
X86864149Y-129058705D01*
X86842871Y-129079957D01*
X86816957Y-129094253D01*
X86786405Y-129101595D01*
X86767429Y-129102668D01*
X85465370Y-129102668D01*
G37*
G36*
X85280723Y-129871301D02*
G01*
X85625105Y-129871301D01*
X85625105Y-131362403D01*
X85596482Y-131368729D01*
X85565385Y-131375798D01*
X85559892Y-131377058D01*
X85529407Y-131383315D01*
X85498403Y-131386975D01*
X85469767Y-131388049D01*
X85436691Y-131386709D01*
X85406706Y-131382691D01*
X85375631Y-131374616D01*
X85348763Y-131362895D01*
X85329083Y-131349947D01*
X85307925Y-131328560D01*
X85292813Y-131302503D01*
X85283745Y-131271774D01*
X85280770Y-131241054D01*
X85280723Y-131236374D01*
X85280723Y-129871301D01*
G37*
G36*
X88148891Y-129372072D02*
G01*
X88183770Y-129373549D01*
X88218088Y-129376010D01*
X88251845Y-129379457D01*
X88285041Y-129383887D01*
X88317676Y-129389303D01*
X88349750Y-129395702D01*
X88381263Y-129403087D01*
X88412215Y-129411456D01*
X88442607Y-129420810D01*
X88472437Y-129431148D01*
X88501706Y-129442471D01*
X88530414Y-129454779D01*
X88558561Y-129468071D01*
X88586147Y-129482348D01*
X88613172Y-129497609D01*
X88639547Y-129513766D01*
X88665184Y-129530731D01*
X88690083Y-129548502D01*
X88714243Y-129567081D01*
X88737664Y-129586467D01*
X88760347Y-129606660D01*
X88782292Y-129627660D01*
X88803498Y-129649467D01*
X88823966Y-129672081D01*
X88843695Y-129695503D01*
X88862686Y-129719732D01*
X88880938Y-129744767D01*
X88898452Y-129770610D01*
X88915228Y-129797261D01*
X88931265Y-129824718D01*
X88946563Y-129852982D01*
X88961115Y-129881896D01*
X88974728Y-129911486D01*
X88987402Y-129941751D01*
X88999137Y-129972692D01*
X89009933Y-130004308D01*
X89019791Y-130036600D01*
X89028709Y-130069567D01*
X89036689Y-130103209D01*
X89043730Y-130137527D01*
X89049832Y-130172521D01*
X89054996Y-130208190D01*
X89059221Y-130244534D01*
X89062506Y-130281554D01*
X89064853Y-130319250D01*
X89066262Y-130357620D01*
X89066731Y-130396667D01*
X89066270Y-130435192D01*
X89064888Y-130473100D01*
X89062584Y-130510389D01*
X89059358Y-130547059D01*
X89055211Y-130583112D01*
X89050142Y-130618546D01*
X89044151Y-130653362D01*
X89037239Y-130687560D01*
X89029405Y-130721140D01*
X89020649Y-130754101D01*
X89010972Y-130786444D01*
X89000373Y-130818169D01*
X88988853Y-130849276D01*
X88976411Y-130879764D01*
X88963047Y-130909634D01*
X88948762Y-130938886D01*
X88933726Y-130967328D01*
X88917930Y-130994951D01*
X88901372Y-131021756D01*
X88884053Y-131047742D01*
X88865972Y-131072910D01*
X88847130Y-131097258D01*
X88827527Y-131120789D01*
X88807162Y-131143500D01*
X88786036Y-131165394D01*
X88764148Y-131186468D01*
X88741500Y-131206724D01*
X88718090Y-131226161D01*
X88693918Y-131244780D01*
X88668985Y-131262580D01*
X88643291Y-131279562D01*
X88616836Y-131295725D01*
X88589796Y-131310986D01*
X88562167Y-131325263D01*
X88533949Y-131338555D01*
X88505140Y-131350863D01*
X88475742Y-131362186D01*
X88445755Y-131372524D01*
X88415178Y-131381878D01*
X88384011Y-131390247D01*
X88352255Y-131397631D01*
X88319909Y-131404031D01*
X88286973Y-131409447D01*
X88253448Y-131413877D01*
X88219333Y-131417323D01*
X88184629Y-131419785D01*
X88149335Y-131421262D01*
X88113451Y-131421754D01*
X88077470Y-131421262D01*
X88042067Y-131419785D01*
X88007243Y-131417323D01*
X87972996Y-131413877D01*
X87939328Y-131409447D01*
X87906238Y-131404031D01*
X87873726Y-131397631D01*
X87841792Y-131390247D01*
X87810436Y-131381878D01*
X87779659Y-131372524D01*
X87749460Y-131362186D01*
X87719839Y-131350863D01*
X87690796Y-131338555D01*
X87662331Y-131325263D01*
X87634444Y-131310986D01*
X87607136Y-131295725D01*
X87580500Y-131279562D01*
X87554631Y-131262580D01*
X87529529Y-131244780D01*
X87505195Y-131226161D01*
X87481627Y-131206724D01*
X87458827Y-131186468D01*
X87436794Y-131165394D01*
X87415527Y-131143500D01*
X87395028Y-131120789D01*
X87375296Y-131097258D01*
X87356331Y-131072910D01*
X87338133Y-131047742D01*
X87320702Y-131021756D01*
X87304038Y-130994951D01*
X87288141Y-130967328D01*
X87273012Y-130938886D01*
X87258815Y-130909634D01*
X87245534Y-130879764D01*
X87233169Y-130849276D01*
X87221721Y-130818169D01*
X87211188Y-130786444D01*
X87201570Y-130754101D01*
X87192869Y-130721140D01*
X87185084Y-130687560D01*
X87178215Y-130653362D01*
X87172261Y-130618546D01*
X87167224Y-130583112D01*
X87163102Y-130547059D01*
X87159897Y-130510389D01*
X87157607Y-130473100D01*
X87156233Y-130435192D01*
X87155775Y-130396667D01*
X87500157Y-130396667D01*
X87500787Y-130440118D01*
X87502676Y-130482362D01*
X87505825Y-130523397D01*
X87510232Y-130563225D01*
X87515900Y-130601845D01*
X87522826Y-130639257D01*
X87531012Y-130675462D01*
X87540457Y-130710458D01*
X87551162Y-130744246D01*
X87563126Y-130776827D01*
X87576350Y-130808200D01*
X87590833Y-130838365D01*
X87606575Y-130867322D01*
X87623576Y-130895071D01*
X87641837Y-130921613D01*
X87661358Y-130946946D01*
X87682100Y-130970814D01*
X87703844Y-130993142D01*
X87726591Y-131013931D01*
X87750338Y-131033179D01*
X87775088Y-131050888D01*
X87800839Y-131067056D01*
X87827593Y-131081685D01*
X87855348Y-131094774D01*
X87884104Y-131106323D01*
X87913863Y-131116332D01*
X87944623Y-131124802D01*
X87976385Y-131131731D01*
X88009149Y-131137121D01*
X88042915Y-131140970D01*
X88077682Y-131143280D01*
X88113451Y-131144050D01*
X88148685Y-131143271D01*
X88182946Y-131140936D01*
X88216233Y-131137043D01*
X88248548Y-131131594D01*
X88279889Y-131124587D01*
X88310257Y-131116023D01*
X88339652Y-131105902D01*
X88368074Y-131094224D01*
X88395523Y-131080990D01*
X88421999Y-131066198D01*
X88447501Y-131049849D01*
X88472030Y-131031943D01*
X88495586Y-131012479D01*
X88518169Y-130991459D01*
X88539779Y-130968882D01*
X88560416Y-130944748D01*
X88580025Y-130919251D01*
X88598369Y-130892587D01*
X88615447Y-130864755D01*
X88631261Y-130835754D01*
X88645810Y-130805587D01*
X88659093Y-130774251D01*
X88671112Y-130741748D01*
X88681865Y-130708077D01*
X88691354Y-130673238D01*
X88699577Y-130637231D01*
X88706535Y-130600056D01*
X88712228Y-130561714D01*
X88716656Y-130522204D01*
X88719818Y-130481526D01*
X88721716Y-130439680D01*
X88722349Y-130396667D01*
X88721716Y-130353653D01*
X88719818Y-130311808D01*
X88716656Y-130271130D01*
X88712228Y-130231620D01*
X88706535Y-130193277D01*
X88699577Y-130156103D01*
X88691354Y-130120096D01*
X88681865Y-130085257D01*
X88671112Y-130051586D01*
X88659093Y-130019083D01*
X88645810Y-129987747D01*
X88631261Y-129957579D01*
X88615447Y-129928579D01*
X88598369Y-129900747D01*
X88580025Y-129874083D01*
X88560416Y-129848586D01*
X88539779Y-129824452D01*
X88518169Y-129801875D01*
X88495586Y-129780854D01*
X88472030Y-129761391D01*
X88447501Y-129743485D01*
X88421999Y-129727136D01*
X88395523Y-129712344D01*
X88368074Y-129699109D01*
X88339652Y-129687431D01*
X88310257Y-129677311D01*
X88279889Y-129668747D01*
X88248548Y-129661740D01*
X88216233Y-129656291D01*
X88182946Y-129652398D01*
X88148685Y-129650062D01*
X88113451Y-129649284D01*
X88078730Y-129650062D01*
X88044907Y-129652398D01*
X88011983Y-129656291D01*
X87979957Y-129661740D01*
X87948831Y-129668747D01*
X87918603Y-129677311D01*
X87889273Y-129687431D01*
X87860843Y-129699109D01*
X87833311Y-129712344D01*
X87806678Y-129727136D01*
X87780944Y-129743485D01*
X87756109Y-129761391D01*
X87732172Y-129780854D01*
X87709134Y-129801875D01*
X87686995Y-129824452D01*
X87665754Y-129848586D01*
X87645701Y-129874083D01*
X87626942Y-129900747D01*
X87609477Y-129928579D01*
X87593305Y-129957579D01*
X87578428Y-129987747D01*
X87564844Y-130019083D01*
X87552553Y-130051586D01*
X87541557Y-130085257D01*
X87531854Y-130120096D01*
X87523444Y-130156103D01*
X87516329Y-130193277D01*
X87510507Y-130231620D01*
X87505979Y-130271130D01*
X87502745Y-130311808D01*
X87500804Y-130353653D01*
X87500157Y-130396667D01*
X87155775Y-130396667D01*
X87156241Y-130357620D01*
X87157641Y-130319250D01*
X87159974Y-130281554D01*
X87163240Y-130244534D01*
X87167438Y-130208190D01*
X87172570Y-130172521D01*
X87178635Y-130137527D01*
X87185634Y-130103209D01*
X87193565Y-130069567D01*
X87202429Y-130036600D01*
X87212227Y-130004308D01*
X87222957Y-129972692D01*
X87234621Y-129941751D01*
X87247217Y-129911486D01*
X87260747Y-129881896D01*
X87275210Y-129852982D01*
X87290606Y-129824718D01*
X87306751Y-129797261D01*
X87323647Y-129770610D01*
X87341293Y-129744767D01*
X87359688Y-129719732D01*
X87378834Y-129695503D01*
X87398729Y-129672081D01*
X87419374Y-129649467D01*
X87440769Y-129627660D01*
X87462914Y-129606660D01*
X87485809Y-129586467D01*
X87509454Y-129567081D01*
X87533849Y-129548502D01*
X87558993Y-129530731D01*
X87584888Y-129513766D01*
X87611532Y-129497609D01*
X87638823Y-129482348D01*
X87666658Y-129468071D01*
X87695037Y-129454779D01*
X87723960Y-129442471D01*
X87753427Y-129431148D01*
X87783437Y-129420810D01*
X87813991Y-129411456D01*
X87845089Y-129403087D01*
X87876731Y-129395702D01*
X87908917Y-129389303D01*
X87941646Y-129383887D01*
X87974920Y-129379457D01*
X88008737Y-129376010D01*
X88043098Y-129373549D01*
X88078003Y-129372072D01*
X88113451Y-129371580D01*
X88148891Y-129372072D01*
G37*
G36*
X89921825Y-129787769D02*
G01*
X89921825Y-130450889D01*
X89586236Y-130450889D01*
X89586236Y-129812682D01*
X89587472Y-129777829D01*
X89591181Y-129745809D01*
X89597364Y-129716623D01*
X89607702Y-129686154D01*
X89621406Y-129659542D01*
X89639428Y-129634928D01*
X89662079Y-129610455D01*
X89685177Y-129589589D01*
X89711675Y-129568827D01*
X89736355Y-129551603D01*
X89741574Y-129548167D01*
X89770116Y-129530685D01*
X89801154Y-129513775D01*
X89834688Y-129497437D01*
X89870717Y-129481672D01*
X89899377Y-129470224D01*
X89929442Y-129459098D01*
X89960910Y-129448294D01*
X89993781Y-129437811D01*
X90028057Y-129427651D01*
X90039794Y-129424336D01*
X90075607Y-129414908D01*
X90112154Y-129406407D01*
X90149435Y-129398834D01*
X90187451Y-129392188D01*
X90226200Y-129386469D01*
X90265684Y-129381678D01*
X90305902Y-129377814D01*
X90346854Y-129374877D01*
X90388540Y-129372868D01*
X90430960Y-129371786D01*
X90459648Y-129371580D01*
X90500374Y-129372238D01*
X90538473Y-129374213D01*
X90573945Y-129377504D01*
X90606789Y-129382113D01*
X90637005Y-129388037D01*
X90677404Y-129399393D01*
X90711890Y-129413712D01*
X90740464Y-129430992D01*
X90763126Y-129451235D01*
X90784146Y-129482834D01*
X90794657Y-129519700D01*
X90795970Y-129540107D01*
X90794116Y-129570607D01*
X90788551Y-129599458D01*
X90782781Y-129617776D01*
X90771330Y-129644781D01*
X90756023Y-129670346D01*
X90749808Y-129678593D01*
X90720814Y-129673169D01*
X90690559Y-129668410D01*
X90660357Y-129664277D01*
X90639899Y-129661740D01*
X90610692Y-129658314D01*
X90581415Y-129655730D01*
X90552068Y-129653986D01*
X90522651Y-129653085D01*
X90505810Y-129652947D01*
X90470076Y-129653302D01*
X90435142Y-129654364D01*
X90401005Y-129656135D01*
X90367668Y-129658615D01*
X90335128Y-129661802D01*
X90303388Y-129665699D01*
X90272446Y-129670303D01*
X90242302Y-129675616D01*
X90212957Y-129681638D01*
X90184411Y-129688367D01*
X90165824Y-129693248D01*
X90129794Y-129703380D01*
X90095344Y-129713993D01*
X90062475Y-129725087D01*
X90031185Y-129736662D01*
X90001475Y-129748717D01*
X89973345Y-129761254D01*
X89946795Y-129774271D01*
X89921825Y-129787769D01*
G37*
G36*
X89586236Y-130258181D02*
G01*
X89921825Y-130308739D01*
X89921825Y-131358739D01*
X89893823Y-131367924D01*
X89864037Y-131375784D01*
X89858811Y-131377058D01*
X89829058Y-131383315D01*
X89797227Y-131386975D01*
X89766487Y-131388049D01*
X89734982Y-131386786D01*
X89701939Y-131382123D01*
X89672892Y-131374024D01*
X89644590Y-131360560D01*
X89632397Y-131352145D01*
X89610083Y-131328472D01*
X89596379Y-131301590D01*
X89588444Y-131269212D01*
X89586236Y-131236374D01*
X89586236Y-130258181D01*
G37*
G36*
X91945621Y-131308181D02*
G01*
X91915359Y-131307812D01*
X91885389Y-131306704D01*
X91855710Y-131304858D01*
X91826324Y-131302274D01*
X91782792Y-131297012D01*
X91739916Y-131290089D01*
X91697698Y-131281505D01*
X91656136Y-131271259D01*
X91615232Y-131259351D01*
X91574984Y-131245782D01*
X91535393Y-131230551D01*
X91496459Y-131213659D01*
X91458555Y-131194887D01*
X91422055Y-131174015D01*
X91386960Y-131151043D01*
X91353268Y-131125972D01*
X91320980Y-131098802D01*
X91290096Y-131069532D01*
X91260615Y-131038163D01*
X91232539Y-131004694D01*
X91214602Y-130981215D01*
X91197288Y-130956804D01*
X91180598Y-130931459D01*
X91164533Y-130905181D01*
X91149271Y-130877806D01*
X91134995Y-130849356D01*
X91121703Y-130819829D01*
X91109395Y-130789226D01*
X91098072Y-130757547D01*
X91087734Y-130724792D01*
X91078380Y-130690960D01*
X91070011Y-130656053D01*
X91062626Y-130620069D01*
X91056226Y-130583009D01*
X91050811Y-130544873D01*
X91046380Y-130505660D01*
X91042934Y-130465372D01*
X91040473Y-130424007D01*
X91038996Y-130381566D01*
X91038503Y-130338049D01*
X91038987Y-130298527D01*
X91040438Y-130259830D01*
X91042857Y-130221957D01*
X91046243Y-130184908D01*
X91050596Y-130148684D01*
X91055917Y-130113284D01*
X91062206Y-130078709D01*
X91069461Y-130044957D01*
X91077684Y-130012030D01*
X91086875Y-129979928D01*
X91097033Y-129948649D01*
X91108158Y-129918195D01*
X91120251Y-129888565D01*
X91133312Y-129859760D01*
X91147339Y-129831779D01*
X91162335Y-129804622D01*
X91178271Y-129778198D01*
X91194941Y-129752599D01*
X91212343Y-129727823D01*
X91230478Y-129703872D01*
X91249346Y-129680745D01*
X91268947Y-129658443D01*
X91289280Y-129636965D01*
X91310346Y-129616311D01*
X91332144Y-129596482D01*
X91354676Y-129577476D01*
X91377940Y-129559296D01*
X91401937Y-129541939D01*
X91426666Y-129525407D01*
X91452129Y-129509699D01*
X91478324Y-129494815D01*
X91505252Y-129480756D01*
X91532792Y-129467536D01*
X91560824Y-129455168D01*
X91589349Y-129443653D01*
X91618367Y-129432991D01*
X91647876Y-129423183D01*
X91677878Y-129414227D01*
X91708372Y-129406124D01*
X91739358Y-129398874D01*
X91770837Y-129392477D01*
X91802808Y-129386933D01*
X91835271Y-129382241D01*
X91868227Y-129378403D01*
X91901675Y-129375418D01*
X91935615Y-129373286D01*
X91970048Y-129372006D01*
X92004972Y-129371580D01*
X92040835Y-129372005D01*
X92076156Y-129373280D01*
X92110936Y-129375405D01*
X92145175Y-129378380D01*
X92178874Y-129382206D01*
X92212031Y-129386881D01*
X92244648Y-129392407D01*
X92276723Y-129398782D01*
X92308258Y-129406008D01*
X92339251Y-129414084D01*
X92359613Y-129419940D01*
X92389512Y-129429213D01*
X92418483Y-129438899D01*
X92446527Y-129448997D01*
X92482477Y-129463102D01*
X92516778Y-129477940D01*
X92549430Y-129493510D01*
X92580433Y-129509814D01*
X92609788Y-129526849D01*
X92630723Y-129540107D01*
X92657170Y-129558906D01*
X92681372Y-129578756D01*
X92703331Y-129599658D01*
X92723046Y-129621612D01*
X92733305Y-129634629D01*
X92750936Y-129662107D01*
X92763530Y-129692515D01*
X92770417Y-129721526D01*
X92773447Y-129752782D01*
X92773605Y-129762124D01*
X92773605Y-131060519D01*
X92437282Y-131060519D01*
X92437282Y-129766520D01*
X92409341Y-129749596D01*
X92378824Y-129733445D01*
X92351426Y-129720575D01*
X92322238Y-129708243D01*
X92291262Y-129696447D01*
X92258496Y-129685187D01*
X92224100Y-129674844D01*
X92195191Y-129667832D01*
X92165046Y-129661941D01*
X92133665Y-129657173D01*
X92101047Y-129653526D01*
X92067193Y-129651002D01*
X92032102Y-129649599D01*
X92004972Y-129649284D01*
X91970228Y-129649956D01*
X91936336Y-129651974D01*
X91903298Y-129655337D01*
X91871112Y-129660046D01*
X91839779Y-129666099D01*
X91809300Y-129673498D01*
X91779673Y-129682242D01*
X91750899Y-129692332D01*
X91722978Y-129703766D01*
X91695910Y-129716546D01*
X91669695Y-129730671D01*
X91644333Y-129746141D01*
X91619823Y-129762957D01*
X91596167Y-129781118D01*
X91573364Y-129800624D01*
X91551413Y-129821475D01*
X91530562Y-129843654D01*
X91511056Y-129867145D01*
X91492895Y-129891946D01*
X91476080Y-129918058D01*
X91460609Y-129945481D01*
X91446484Y-129974215D01*
X91433705Y-130004259D01*
X91422270Y-130035615D01*
X91412181Y-130068281D01*
X91403437Y-130102259D01*
X91396038Y-130137547D01*
X91389984Y-130174146D01*
X91385276Y-130212057D01*
X91381913Y-130251278D01*
X91379895Y-130291809D01*
X91379222Y-130333652D01*
X91379901Y-130380060D01*
X91381936Y-130424762D01*
X91385327Y-130467759D01*
X91390076Y-130509049D01*
X91396181Y-130548634D01*
X91403643Y-130586512D01*
X91412461Y-130622685D01*
X91422636Y-130657152D01*
X91434168Y-130689913D01*
X91447057Y-130720968D01*
X91461302Y-130750317D01*
X91476904Y-130777961D01*
X91493863Y-130803898D01*
X91512178Y-130828130D01*
X91531850Y-130850655D01*
X91552879Y-130871475D01*
X91574998Y-130890729D01*
X91609379Y-130917281D01*
X91645203Y-130941038D01*
X91682469Y-130962001D01*
X91721178Y-130980168D01*
X91761329Y-130995540D01*
X91802923Y-131008117D01*
X91831453Y-131014950D01*
X91860625Y-131020539D01*
X91890438Y-131024887D01*
X91920892Y-131027993D01*
X91951987Y-131029856D01*
X91983723Y-131030477D01*
X92017720Y-131029923D01*
X92050467Y-131028262D01*
X92081965Y-131025493D01*
X92112214Y-131021616D01*
X92141213Y-131016631D01*
X92177936Y-131008262D01*
X92212437Y-130997924D01*
X92244717Y-130985616D01*
X92274776Y-130971339D01*
X92281944Y-130967462D01*
X92309604Y-130951514D01*
X92335799Y-130935177D01*
X92360529Y-130918450D01*
X92389380Y-130896994D01*
X92415942Y-130874930D01*
X92440213Y-130852257D01*
X92462195Y-130828977D01*
X92479048Y-131127197D01*
X92457567Y-131148013D01*
X92432508Y-131168327D01*
X92403872Y-131188141D01*
X92378386Y-131203631D01*
X92350611Y-131218801D01*
X92320547Y-131233650D01*
X92288192Y-131248179D01*
X92279746Y-131251761D01*
X92244712Y-131264985D01*
X92207755Y-131276445D01*
X92178775Y-131283883D01*
X92148713Y-131290330D01*
X92117569Y-131295784D01*
X92085344Y-131300247D01*
X92052036Y-131303718D01*
X92017646Y-131306198D01*
X91982175Y-131307685D01*
X91945621Y-131308181D01*
G37*
G36*
X92437282Y-131429814D02*
G01*
X92437282Y-130988712D01*
X92773605Y-130988712D01*
X92773605Y-131451063D01*
X92773135Y-131485258D01*
X92771727Y-131518600D01*
X92769380Y-131551089D01*
X92766094Y-131582725D01*
X92761870Y-131613509D01*
X92756706Y-131643439D01*
X92750604Y-131672516D01*
X92739690Y-131714533D01*
X92726664Y-131754630D01*
X92711526Y-131792809D01*
X92694275Y-131829068D01*
X92674912Y-131863408D01*
X92653437Y-131895830D01*
X92630264Y-131926611D01*
X92605532Y-131955756D01*
X92579242Y-131983265D01*
X92551393Y-132009139D01*
X92521986Y-132033377D01*
X92491020Y-132055979D01*
X92458496Y-132076946D01*
X92424414Y-132096277D01*
X92388773Y-132113972D01*
X92351573Y-132130031D01*
X92325908Y-132139828D01*
X92286432Y-132153316D01*
X92246043Y-132165476D01*
X92204739Y-132176311D01*
X92162521Y-132185818D01*
X92119388Y-132193999D01*
X92090124Y-132198716D01*
X92060454Y-132202843D01*
X92030378Y-132206381D01*
X91999896Y-132209329D01*
X91969006Y-132211688D01*
X91937711Y-132213457D01*
X91906009Y-132214636D01*
X91873901Y-132215225D01*
X91857694Y-132215299D01*
X91818786Y-132214893D01*
X91780921Y-132213676D01*
X91744099Y-132211648D01*
X91708320Y-132208808D01*
X91673585Y-132205156D01*
X91639893Y-132200693D01*
X91607245Y-132195419D01*
X91575639Y-132189333D01*
X91545077Y-132182436D01*
X91515558Y-132174727D01*
X91496459Y-132169137D01*
X91460223Y-132157860D01*
X91426987Y-132147110D01*
X91396750Y-132136886D01*
X91363173Y-132124847D01*
X91334283Y-132113630D01*
X91305801Y-132101257D01*
X91290562Y-132093666D01*
X91261024Y-132075130D01*
X91235424Y-132055427D01*
X91213763Y-132034556D01*
X91192225Y-132006824D01*
X91176840Y-131977268D01*
X91167610Y-131945888D01*
X91164533Y-131912682D01*
X91166677Y-131881158D01*
X91173111Y-131852533D01*
X91185290Y-131824125D01*
X91191644Y-131813764D01*
X91210406Y-131790823D01*
X91234184Y-131769721D01*
X91261253Y-131752947D01*
X91290537Y-131773745D01*
X91316566Y-131789997D01*
X91344908Y-131805905D01*
X91375562Y-131821470D01*
X91408529Y-131836691D01*
X91443809Y-131851569D01*
X91471786Y-131862502D01*
X91501065Y-131873242D01*
X91511113Y-131876779D01*
X91541675Y-131886992D01*
X91572637Y-131896202D01*
X91603997Y-131904406D01*
X91635757Y-131911606D01*
X91667917Y-131917801D01*
X91700475Y-131922992D01*
X91733433Y-131927178D01*
X91766790Y-131930359D01*
X91800546Y-131932536D01*
X91834702Y-131933708D01*
X91857694Y-131933931D01*
X91892347Y-131933453D01*
X91925964Y-131932019D01*
X91958544Y-131929629D01*
X91990089Y-131926284D01*
X92020597Y-131921982D01*
X92050070Y-131916724D01*
X92092335Y-131907044D01*
X92132270Y-131895214D01*
X92169873Y-131881233D01*
X92205145Y-131865101D01*
X92238085Y-131846818D01*
X92268695Y-131826383D01*
X92287806Y-131811566D01*
X92314519Y-131787542D01*
X92338604Y-131761085D01*
X92360062Y-131732193D01*
X92378893Y-131700866D01*
X92395096Y-131667106D01*
X92408672Y-131630911D01*
X92419619Y-131592282D01*
X92427940Y-131551218D01*
X92433633Y-131507720D01*
X92435969Y-131477369D01*
X92437136Y-131445936D01*
X92437282Y-131429814D01*
G37*
G36*
X93515126Y-130610624D02*
G01*
X93498273Y-130346109D01*
X94766626Y-130173917D01*
X94762359Y-130131362D01*
X94755876Y-130090249D01*
X94747178Y-130050579D01*
X94736264Y-130012351D01*
X94723135Y-129975566D01*
X94707790Y-129940223D01*
X94690231Y-129906323D01*
X94670456Y-129873865D01*
X94648465Y-129842850D01*
X94624259Y-129813278D01*
X94606891Y-129794364D01*
X94579272Y-129767651D01*
X94549721Y-129743565D01*
X94518238Y-129722107D01*
X94484823Y-129703277D01*
X94449476Y-129687074D01*
X94412197Y-129673498D01*
X94372986Y-129662550D01*
X94331843Y-129654230D01*
X94288769Y-129648537D01*
X94258979Y-129646201D01*
X94228330Y-129645033D01*
X94212684Y-129644887D01*
X94180432Y-129645617D01*
X94148890Y-129647807D01*
X94118058Y-129651456D01*
X94087936Y-129656565D01*
X94058524Y-129663134D01*
X94029822Y-129671163D01*
X94001829Y-129680651D01*
X93974547Y-129691599D01*
X93947974Y-129704007D01*
X93922111Y-129717874D01*
X93896958Y-129733201D01*
X93872514Y-129749988D01*
X93848781Y-129768235D01*
X93825757Y-129787941D01*
X93803443Y-129809107D01*
X93781839Y-129831733D01*
X93761254Y-129855721D01*
X93741997Y-129880975D01*
X93724068Y-129907493D01*
X93707467Y-129935277D01*
X93692194Y-129964326D01*
X93678250Y-129994639D01*
X93665633Y-130026218D01*
X93654344Y-130059062D01*
X93644384Y-130093171D01*
X93635751Y-130128546D01*
X93628447Y-130165185D01*
X93622471Y-130203089D01*
X93617822Y-130242259D01*
X93614502Y-130282693D01*
X93612510Y-130324393D01*
X93611846Y-130367358D01*
X93611846Y-130459682D01*
X93616142Y-130501001D01*
X93621704Y-130541060D01*
X93628530Y-130579860D01*
X93636621Y-130617401D01*
X93645978Y-130653683D01*
X93656600Y-130688705D01*
X93668487Y-130722468D01*
X93681639Y-130754971D01*
X93696056Y-130786215D01*
X93711738Y-130816200D01*
X93728685Y-130844925D01*
X93746897Y-130872391D01*
X93766375Y-130898597D01*
X93787117Y-130923545D01*
X93809125Y-130947232D01*
X93832397Y-130969661D01*
X93856852Y-130990778D01*
X93882406Y-131010533D01*
X93909059Y-131028926D01*
X93936811Y-131045956D01*
X93965662Y-131061624D01*
X93995613Y-131075929D01*
X94026662Y-131088872D01*
X94058811Y-131100453D01*
X94092058Y-131110671D01*
X94126405Y-131119527D01*
X94161850Y-131127020D01*
X94198395Y-131133151D01*
X94236039Y-131137919D01*
X94274782Y-131141325D01*
X94314624Y-131143369D01*
X94355566Y-131144050D01*
X94388249Y-131143535D01*
X94420352Y-131141989D01*
X94451876Y-131139413D01*
X94482820Y-131135807D01*
X94513185Y-131131170D01*
X94542969Y-131125503D01*
X94572175Y-131118805D01*
X94600801Y-131111077D01*
X94628847Y-131102319D01*
X94665340Y-131089038D01*
X94674303Y-131085432D01*
X94709107Y-131070640D01*
X94742080Y-131055573D01*
X94773221Y-131040232D01*
X94802530Y-131024615D01*
X94830007Y-131008724D01*
X94855653Y-130992558D01*
X94885134Y-130971965D01*
X94901448Y-130959402D01*
X94925907Y-130976758D01*
X94949549Y-130998082D01*
X94969470Y-131021552D01*
X94974721Y-131029012D01*
X94989018Y-131054815D01*
X94998020Y-131082764D01*
X95001726Y-131112860D01*
X95001832Y-131119137D01*
X94998664Y-131148727D01*
X94989158Y-131177595D01*
X94973316Y-131205742D01*
X94951137Y-131233168D01*
X94927813Y-131255472D01*
X94911707Y-131268614D01*
X94882093Y-131289476D01*
X94856316Y-131305212D01*
X94828684Y-131320102D01*
X94799198Y-131334144D01*
X94767856Y-131347339D01*
X94734660Y-131359686D01*
X94699610Y-131371187D01*
X94672104Y-131379256D01*
X94634357Y-131389216D01*
X94605311Y-131395815D01*
X94575633Y-131401667D01*
X94545324Y-131406772D01*
X94514384Y-131411130D01*
X94482813Y-131414740D01*
X94450611Y-131417604D01*
X94417778Y-131419721D01*
X94384314Y-131421090D01*
X94350218Y-131421713D01*
X94338713Y-131421754D01*
X94298567Y-131421296D01*
X94259097Y-131419922D01*
X94220303Y-131417633D01*
X94182184Y-131414427D01*
X94144740Y-131410305D01*
X94107972Y-131405268D01*
X94071879Y-131399314D01*
X94036462Y-131392445D01*
X94001721Y-131384660D01*
X93967655Y-131375959D01*
X93934264Y-131366342D01*
X93901549Y-131355809D01*
X93869509Y-131344360D01*
X93838145Y-131331995D01*
X93807456Y-131318714D01*
X93777443Y-131304518D01*
X93748282Y-131289322D01*
X93719969Y-131273228D01*
X93692503Y-131256235D01*
X93665885Y-131238343D01*
X93640113Y-131219553D01*
X93615189Y-131199863D01*
X93591112Y-131179275D01*
X93567882Y-131157789D01*
X93545500Y-131135403D01*
X93523964Y-131112119D01*
X93503276Y-131087936D01*
X93483435Y-131062855D01*
X93464442Y-131036874D01*
X93446295Y-131009995D01*
X93428996Y-130982217D01*
X93412544Y-130953541D01*
X93397016Y-130923925D01*
X93382491Y-130893514D01*
X93368967Y-130862307D01*
X93356444Y-130830305D01*
X93344924Y-130797507D01*
X93334405Y-130763913D01*
X93324888Y-130729523D01*
X93316373Y-130694338D01*
X93308860Y-130658357D01*
X93302348Y-130621580D01*
X93296839Y-130584008D01*
X93292331Y-130545640D01*
X93288824Y-130506476D01*
X93286320Y-130466517D01*
X93284817Y-130425761D01*
X93284316Y-130384211D01*
X93284586Y-130354466D01*
X93285393Y-130325134D01*
X93287612Y-130281909D01*
X93291043Y-130239611D01*
X93295684Y-130198241D01*
X93301536Y-130157797D01*
X93308598Y-130118282D01*
X93316871Y-130079693D01*
X93326355Y-130042032D01*
X93337050Y-130005298D01*
X93348955Y-129969492D01*
X93353193Y-129957763D01*
X93366721Y-129923225D01*
X93381203Y-129889679D01*
X93396637Y-129857125D01*
X93413025Y-129825562D01*
X93430366Y-129794992D01*
X93448659Y-129765413D01*
X93467906Y-129736826D01*
X93488107Y-129709230D01*
X93509260Y-129682627D01*
X93531366Y-129657015D01*
X93546633Y-129640491D01*
X93570277Y-129616577D01*
X93594770Y-129593745D01*
X93620114Y-129571995D01*
X93646307Y-129551327D01*
X93673351Y-129531741D01*
X93701245Y-129513237D01*
X93729989Y-129495814D01*
X93759583Y-129479474D01*
X93790027Y-129464215D01*
X93821321Y-129450039D01*
X93842656Y-129441189D01*
X93875199Y-129428749D01*
X93908258Y-129417533D01*
X93941832Y-129407540D01*
X93975921Y-129398771D01*
X94010525Y-129391225D01*
X94045644Y-129384903D01*
X94081279Y-129379805D01*
X94117429Y-129375930D01*
X94154094Y-129373279D01*
X94191274Y-129371852D01*
X94216347Y-129371580D01*
X94248164Y-129372006D01*
X94279499Y-129373286D01*
X94310354Y-129375418D01*
X94340728Y-129378403D01*
X94370621Y-129382241D01*
X94400033Y-129386933D01*
X94428964Y-129392477D01*
X94471460Y-129402392D01*
X94512873Y-129414227D01*
X94553205Y-129427980D01*
X94592454Y-129443653D01*
X94630622Y-129461245D01*
X94667708Y-129480756D01*
X94703650Y-129501987D01*
X94738110Y-129524737D01*
X94771089Y-129549007D01*
X94802587Y-129574797D01*
X94832604Y-129602107D01*
X94861140Y-129630937D01*
X94888194Y-129661287D01*
X94913767Y-129693156D01*
X94937859Y-129726545D01*
X94960470Y-129761454D01*
X94974721Y-129785571D01*
X94994625Y-129822618D01*
X95012571Y-129860670D01*
X95028560Y-129899727D01*
X95042590Y-129939788D01*
X95054663Y-129980853D01*
X95064778Y-130022924D01*
X95072935Y-130065999D01*
X95077286Y-130095274D01*
X95080766Y-130124995D01*
X95083377Y-130155163D01*
X95085117Y-130185777D01*
X95085987Y-130216838D01*
X95086096Y-130232536D01*
X95084602Y-130265328D01*
X95080120Y-130294463D01*
X95071114Y-130323830D01*
X95055841Y-130351296D01*
X95043598Y-130365160D01*
X95017438Y-130384982D01*
X94989709Y-130398514D01*
X94957767Y-130408200D01*
X94926361Y-130413520D01*
X93515126Y-130610624D01*
G37*
G36*
X97190492Y-129102668D02*
G01*
X97169243Y-128813241D01*
X98148169Y-128813241D01*
X98162960Y-128840744D01*
X98173081Y-128868195D01*
X98181118Y-128896840D01*
X98185446Y-128926722D01*
X98186270Y-128947330D01*
X98184164Y-128979570D01*
X98177844Y-129008879D01*
X98165698Y-129038348D01*
X98152565Y-129058705D01*
X98131287Y-129079957D01*
X98105373Y-129094253D01*
X98074821Y-129101595D01*
X98055845Y-129102668D01*
X97190492Y-129102668D01*
G37*
G36*
X97199285Y-128813241D02*
G01*
X97219801Y-129102668D01*
X96237212Y-129102668D01*
X96223771Y-129076113D01*
X96212391Y-129047102D01*
X96211567Y-129044783D01*
X96203976Y-129015588D01*
X96199889Y-128985157D01*
X96199111Y-128964183D01*
X96200723Y-128934595D01*
X96206517Y-128904473D01*
X96218070Y-128875293D01*
X96232816Y-128853541D01*
X96256744Y-128832289D01*
X96286397Y-128818908D01*
X96317979Y-128813595D01*
X96329536Y-128813241D01*
X97199285Y-128813241D01*
G37*
G36*
X97022697Y-128989828D02*
G01*
X97362684Y-128989828D01*
X97362684Y-131358739D01*
X97333696Y-131367924D01*
X97302877Y-131375784D01*
X97297471Y-131377058D01*
X97266986Y-131383315D01*
X97235982Y-131386975D01*
X97207345Y-131388049D01*
X97174347Y-131386709D01*
X97144594Y-131382691D01*
X97113984Y-131374616D01*
X97084412Y-131360923D01*
X97068859Y-131349947D01*
X97048664Y-131328331D01*
X97034238Y-131301587D01*
X97025583Y-131269713D01*
X97022743Y-131237616D01*
X97022697Y-131232710D01*
X97022697Y-128989828D01*
G37*
G36*
X99003263Y-130333652D02*
G01*
X98663277Y-130329256D01*
X98663277Y-128997888D01*
X98665054Y-128967723D01*
X98671621Y-128935461D01*
X98683026Y-128906354D01*
X98699270Y-128880403D01*
X98713835Y-128863799D01*
X98737532Y-128844099D01*
X98764385Y-128829237D01*
X98794393Y-128819215D01*
X98827557Y-128814031D01*
X98847924Y-128813241D01*
X98879661Y-128814712D01*
X98911397Y-128819128D01*
X98940248Y-128825697D01*
X98968852Y-128833828D01*
X98997474Y-128844109D01*
X99003263Y-128846946D01*
X99003263Y-130333652D01*
G37*
G36*
X98847924Y-130266241D02*
G01*
X98847924Y-129976813D01*
X100095761Y-129976813D01*
X100109774Y-130004763D01*
X100120674Y-130033234D01*
X100128739Y-130063373D01*
X100132534Y-130092911D01*
X100133130Y-130110903D01*
X100131024Y-130143143D01*
X100124704Y-130172452D01*
X100112558Y-130201921D01*
X100099425Y-130222278D01*
X100078501Y-130243530D01*
X100052825Y-130257826D01*
X100022396Y-130265168D01*
X100003437Y-130266241D01*
X98847924Y-130266241D01*
G37*
G36*
X98847924Y-129102668D02*
G01*
X98847924Y-128813241D01*
X100242307Y-128813241D01*
X100256913Y-128838923D01*
X100267952Y-128868195D01*
X100275543Y-128896840D01*
X100279630Y-128926722D01*
X100280409Y-128947330D01*
X100278302Y-128979570D01*
X100271982Y-129008879D01*
X100259836Y-129038348D01*
X100246703Y-129058705D01*
X100225425Y-129079957D01*
X100199511Y-129094253D01*
X100168959Y-129101595D01*
X100149983Y-129102668D01*
X98847924Y-129102668D01*
G37*
G36*
X98663277Y-129871301D02*
G01*
X99007659Y-129871301D01*
X99007659Y-131362403D01*
X98979036Y-131368729D01*
X98947939Y-131375798D01*
X98942446Y-131377058D01*
X98911961Y-131383315D01*
X98880957Y-131386975D01*
X98852321Y-131388049D01*
X98819245Y-131386709D01*
X98789260Y-131382691D01*
X98758185Y-131374616D01*
X98731317Y-131362895D01*
X98711637Y-131349947D01*
X98690479Y-131328560D01*
X98675367Y-131302503D01*
X98666299Y-131271774D01*
X98663324Y-131241054D01*
X98663277Y-131236374D01*
X98663277Y-129871301D01*
G37*
G36*
X102773151Y-130161461D02*
G01*
X102773151Y-131072975D01*
X102771047Y-131104907D01*
X102764736Y-131134665D01*
X102754217Y-131162249D01*
X102739491Y-131187659D01*
X102729187Y-131201203D01*
X102707814Y-131223507D01*
X102682164Y-131244900D01*
X102656773Y-131262512D01*
X102628240Y-131279453D01*
X102602061Y-131293059D01*
X102596563Y-131295725D01*
X102569121Y-131308994D01*
X102539182Y-131321691D01*
X102506747Y-131333815D01*
X102471816Y-131345367D01*
X102434390Y-131356347D01*
X102404682Y-131364206D01*
X102373571Y-131371743D01*
X102341055Y-131378957D01*
X102307136Y-131385850D01*
X102272476Y-131392267D01*
X102237738Y-131398052D01*
X102202924Y-131403206D01*
X102168032Y-131407729D01*
X102133063Y-131411621D01*
X102098016Y-131414882D01*
X102062892Y-131417512D01*
X102027691Y-131419510D01*
X101992413Y-131420878D01*
X101957057Y-131421614D01*
X101933444Y-131421754D01*
X101884978Y-131421196D01*
X101837216Y-131419522D01*
X101790159Y-131416731D01*
X101743805Y-131412824D01*
X101698155Y-131407801D01*
X101653210Y-131401661D01*
X101608968Y-131394406D01*
X101565431Y-131386034D01*
X101522598Y-131376545D01*
X101480469Y-131365941D01*
X101439044Y-131354220D01*
X101398323Y-131341383D01*
X101358307Y-131327430D01*
X101318994Y-131312360D01*
X101280386Y-131296174D01*
X101242481Y-131278872D01*
X101205447Y-131260422D01*
X101169449Y-131240793D01*
X101134487Y-131219985D01*
X101100561Y-131197997D01*
X101067671Y-131174830D01*
X101035817Y-131150484D01*
X101005000Y-131124959D01*
X100975218Y-131098254D01*
X100946473Y-131070371D01*
X100918764Y-131041308D01*
X100892091Y-131011066D01*
X100866454Y-130979644D01*
X100841853Y-130947043D01*
X100818289Y-130913263D01*
X100795760Y-130878304D01*
X100774268Y-130842166D01*
X100753949Y-130804725D01*
X100734941Y-130766042D01*
X100717244Y-130726117D01*
X100700857Y-130684950D01*
X100685782Y-130642540D01*
X100672018Y-130598889D01*
X100659564Y-130553995D01*
X100648421Y-130507858D01*
X100638590Y-130460480D01*
X100630069Y-130411860D01*
X100622859Y-130361997D01*
X100616960Y-130310892D01*
X100612372Y-130258545D01*
X100609095Y-130204955D01*
X100607128Y-130150124D01*
X100606473Y-130094050D01*
X100607151Y-130038503D01*
X100609186Y-129984152D01*
X100612578Y-129930998D01*
X100617326Y-129879040D01*
X100623431Y-129828279D01*
X100630893Y-129778713D01*
X100639712Y-129730345D01*
X100649887Y-129683172D01*
X100661419Y-129637197D01*
X100674307Y-129592417D01*
X100688553Y-129548834D01*
X100704155Y-129506448D01*
X100721113Y-129465257D01*
X100739429Y-129425263D01*
X100759101Y-129386466D01*
X100780129Y-129348865D01*
X100802377Y-129312443D01*
X100825524Y-129277184D01*
X100849570Y-129243086D01*
X100874514Y-129210150D01*
X100900357Y-129178377D01*
X100927099Y-129147765D01*
X100954739Y-129118316D01*
X100983278Y-129090029D01*
X101012716Y-129062903D01*
X101043053Y-129036940D01*
X101074288Y-129012139D01*
X101106423Y-128988500D01*
X101139456Y-128966023D01*
X101173387Y-128944708D01*
X101208218Y-128924555D01*
X101243947Y-128905564D01*
X101280428Y-128887730D01*
X101317334Y-128871046D01*
X101354663Y-128855513D01*
X101392416Y-128841130D01*
X101430592Y-128827898D01*
X101469192Y-128815817D01*
X101508215Y-128804886D01*
X101547663Y-128795106D01*
X101587533Y-128786476D01*
X101627828Y-128778997D01*
X101668546Y-128772669D01*
X101709687Y-128767491D01*
X101751252Y-128763464D01*
X101793241Y-128760587D01*
X101835654Y-128758861D01*
X101878490Y-128758286D01*
X101908208Y-128758483D01*
X101951916Y-128759520D01*
X101994581Y-128761446D01*
X102036203Y-128764260D01*
X102076781Y-128767963D01*
X102116316Y-128772555D01*
X102154808Y-128778035D01*
X102192257Y-128784404D01*
X102228662Y-128791662D01*
X102264024Y-128799809D01*
X102298343Y-128808844D01*
X102331569Y-128818543D01*
X102363378Y-128828679D01*
X102393771Y-128839254D01*
X102422747Y-128850266D01*
X102450305Y-128861717D01*
X102484847Y-128877665D01*
X102516869Y-128894392D01*
X102546373Y-128911897D01*
X102573358Y-128930181D01*
X102579711Y-128934873D01*
X102603410Y-128953810D01*
X102628590Y-128977674D01*
X102648833Y-129001752D01*
X102666608Y-129030930D01*
X102677272Y-129060416D01*
X102680827Y-129090212D01*
X102678161Y-129120255D01*
X102670163Y-129148558D01*
X102656832Y-129175123D01*
X102647122Y-129189130D01*
X102627177Y-129212063D01*
X102602705Y-129233329D01*
X102575800Y-129250159D01*
X102567254Y-129254343D01*
X102538369Y-129235636D01*
X102508132Y-129217249D01*
X102476545Y-129199182D01*
X102443606Y-129181437D01*
X102409317Y-129164011D01*
X102382713Y-129151153D01*
X102355350Y-129138475D01*
X102327226Y-129125977D01*
X102298343Y-129113659D01*
X102268444Y-129102005D01*
X102237000Y-129091497D01*
X102204010Y-129082135D01*
X102169474Y-129073920D01*
X102133393Y-129066851D01*
X102095766Y-129060929D01*
X102056594Y-129056152D01*
X102015876Y-129052522D01*
X101973613Y-129050039D01*
X101929803Y-129048701D01*
X101899739Y-129048446D01*
X101866869Y-129048907D01*
X101834388Y-129050290D01*
X101802297Y-129052594D01*
X101770595Y-129055819D01*
X101739283Y-129059967D01*
X101708359Y-129065036D01*
X101677825Y-129071026D01*
X101647680Y-129077939D01*
X101617924Y-129085773D01*
X101588558Y-129094528D01*
X101559581Y-129104205D01*
X101530993Y-129114804D01*
X101502794Y-129126325D01*
X101474985Y-129138767D01*
X101447565Y-129152130D01*
X101420534Y-129166416D01*
X101394142Y-129181522D01*
X101368453Y-129197534D01*
X101343469Y-129214449D01*
X101319189Y-129232270D01*
X101295613Y-129250994D01*
X101272741Y-129270623D01*
X101250573Y-129291157D01*
X101229109Y-129312595D01*
X101208349Y-129334938D01*
X101188294Y-129358184D01*
X101168942Y-129382336D01*
X101150295Y-129407392D01*
X101132351Y-129433352D01*
X101115112Y-129460217D01*
X101098577Y-129487986D01*
X101082746Y-129516660D01*
X101067751Y-129546221D01*
X101053723Y-129576652D01*
X101040663Y-129607953D01*
X101028570Y-129640125D01*
X101017445Y-129673166D01*
X101007287Y-129707078D01*
X100998096Y-129741859D01*
X100989873Y-129777511D01*
X100982617Y-129814033D01*
X100976329Y-129851425D01*
X100971008Y-129889687D01*
X100966655Y-129928820D01*
X100963269Y-129968822D01*
X100960850Y-130009695D01*
X100959399Y-130051437D01*
X100958915Y-130094050D01*
X100959416Y-130138689D01*
X100960919Y-130182298D01*
X100963423Y-130224876D01*
X100966929Y-130266424D01*
X100971437Y-130306942D01*
X100976947Y-130346429D01*
X100983459Y-130384886D01*
X100990972Y-130422312D01*
X100999487Y-130458708D01*
X101009004Y-130494074D01*
X101019523Y-130528409D01*
X101031043Y-130561714D01*
X101043565Y-130593988D01*
X101057089Y-130625232D01*
X101071615Y-130655446D01*
X101087143Y-130684629D01*
X101103537Y-130712739D01*
X101120665Y-130739916D01*
X101138525Y-130766160D01*
X101157118Y-130791470D01*
X101176444Y-130815848D01*
X101196502Y-130839292D01*
X101217294Y-130861804D01*
X101238818Y-130883382D01*
X101261074Y-130904027D01*
X101284063Y-130923739D01*
X101307786Y-130942518D01*
X101332240Y-130960364D01*
X101357428Y-130977277D01*
X101383348Y-130993257D01*
X101410001Y-131008303D01*
X101437387Y-131022417D01*
X101465445Y-131035638D01*
X101493933Y-131048005D01*
X101522850Y-131059520D01*
X101552196Y-131070182D01*
X101581972Y-131079991D01*
X101612177Y-131088947D01*
X101642811Y-131097049D01*
X101673875Y-131104300D01*
X101705368Y-131110697D01*
X101737290Y-131116241D01*
X101769642Y-131120932D01*
X101802423Y-131124770D01*
X101835633Y-131127755D01*
X101869273Y-131129888D01*
X101903342Y-131131167D01*
X101937841Y-131131594D01*
X101975313Y-131131204D01*
X102012258Y-131130037D01*
X102048677Y-131128090D01*
X102084569Y-131125365D01*
X102119935Y-131121862D01*
X102154774Y-131117580D01*
X102189086Y-131112520D01*
X102222872Y-131106681D01*
X102255650Y-131100086D01*
X102286574Y-131093125D01*
X102315642Y-131085798D01*
X102349370Y-131076124D01*
X102380200Y-131065877D01*
X102408131Y-131055058D01*
X102433165Y-131043666D01*
X102433165Y-130270638D01*
X101798622Y-130270638D01*
X101785387Y-130244131D01*
X101774488Y-130216402D01*
X101773709Y-130214218D01*
X101765644Y-130184078D01*
X101761849Y-130154540D01*
X101761253Y-130136548D01*
X101762866Y-130106675D01*
X101768659Y-130076313D01*
X101780212Y-130046972D01*
X101794958Y-130025174D01*
X101818887Y-130003922D01*
X101848539Y-129990541D01*
X101880121Y-129985228D01*
X101891679Y-129984873D01*
X102592900Y-129984873D01*
X102624796Y-129987188D01*
X102654449Y-129994130D01*
X102681858Y-130005700D01*
X102707022Y-130021899D01*
X102720395Y-130033234D01*
X102740951Y-130055899D01*
X102756459Y-130081579D01*
X102766917Y-130110275D01*
X102772327Y-130141986D01*
X102773151Y-130161461D01*
G37*
G36*
X104321406Y-130409123D02*
G01*
X103317568Y-130409123D01*
X103306331Y-130381163D01*
X103297347Y-130352237D01*
X103296319Y-130348307D01*
X103290809Y-130318774D01*
X103288456Y-130287835D01*
X103288259Y-130275034D01*
X103290153Y-130245371D01*
X103296953Y-130215765D01*
X103310516Y-130187931D01*
X103327827Y-130168056D01*
X103352286Y-130150700D01*
X103381150Y-130139024D01*
X103410505Y-130133414D01*
X103434805Y-130132152D01*
X104438643Y-130132152D01*
X104448399Y-130161103D01*
X104457694Y-130190770D01*
X104464706Y-130220964D01*
X104467702Y-130250256D01*
X104467952Y-130261845D01*
X104465571Y-130293856D01*
X104458427Y-130322478D01*
X104444697Y-130350627D01*
X104429850Y-130369556D01*
X104406164Y-130388683D01*
X104377145Y-130401550D01*
X104346875Y-130407732D01*
X104321406Y-130409123D01*
G37*
G36*
X105067324Y-129829535D02*
G01*
X105407310Y-129829535D01*
X105407310Y-131333094D01*
X105377318Y-131341931D01*
X105347196Y-131351239D01*
X105344296Y-131352145D01*
X105315444Y-131359873D01*
X105283708Y-131365068D01*
X105251972Y-131366800D01*
X105221807Y-131364971D01*
X105189545Y-131358214D01*
X105160438Y-131346478D01*
X105134487Y-131329763D01*
X105117882Y-131314776D01*
X105098182Y-131290398D01*
X105083321Y-131263425D01*
X105073298Y-131233857D01*
X105068114Y-131201695D01*
X105067324Y-131182152D01*
X105067324Y-129829535D01*
G37*
G36*
X105407310Y-130324860D02*
G01*
X105067324Y-130321196D01*
X105067324Y-128997888D01*
X105069102Y-128967723D01*
X105075668Y-128935461D01*
X105087073Y-128906354D01*
X105103317Y-128880403D01*
X105117882Y-128863799D01*
X105141579Y-128844099D01*
X105168432Y-128829237D01*
X105198440Y-128819215D01*
X105231604Y-128814031D01*
X105251972Y-128813241D01*
X105283708Y-128814712D01*
X105315444Y-128819128D01*
X105344296Y-128825697D01*
X105372899Y-128833828D01*
X105401521Y-128844109D01*
X105407310Y-128846946D01*
X105407310Y-130324860D01*
G37*
G36*
X105251972Y-130199563D02*
G01*
X105251972Y-129913799D01*
X106516661Y-129913799D01*
X106531453Y-129941303D01*
X106541574Y-129968753D01*
X106549165Y-129997399D01*
X106553252Y-130027280D01*
X106554030Y-130047888D01*
X106551924Y-130080037D01*
X106545604Y-130109071D01*
X106533458Y-130138012D01*
X106520325Y-130157797D01*
X106496783Y-130179822D01*
X106467374Y-130193690D01*
X106435889Y-130199196D01*
X106424337Y-130199563D01*
X105251972Y-130199563D01*
G37*
G36*
X105251972Y-131366800D02*
G01*
X105251972Y-131081035D01*
X106667603Y-131081035D01*
X106682395Y-131107764D01*
X106692516Y-131133792D01*
X106700553Y-131162162D01*
X106704881Y-131193418D01*
X106705705Y-131215857D01*
X106703599Y-131247685D01*
X106697279Y-131276491D01*
X106685133Y-131305284D01*
X106672000Y-131325034D01*
X106650722Y-131345223D01*
X106621642Y-131359907D01*
X106590575Y-131366147D01*
X106575279Y-131366800D01*
X105251972Y-131366800D01*
G37*
G36*
X105251972Y-129102668D02*
G01*
X105251972Y-128813241D01*
X106646354Y-128813241D01*
X106660960Y-128838923D01*
X106672000Y-128868195D01*
X106679590Y-128896840D01*
X106683678Y-128926722D01*
X106684456Y-128947330D01*
X106682349Y-128979570D01*
X106676030Y-129008879D01*
X106663884Y-129038348D01*
X106650751Y-129058705D01*
X106629473Y-129079957D01*
X106603558Y-129094253D01*
X106573007Y-129101595D01*
X106554030Y-129102668D01*
X105251972Y-129102668D01*
G37*
G36*
X108020220Y-129102668D02*
G01*
X107998971Y-128813241D01*
X108977896Y-128813241D01*
X108992688Y-128840744D01*
X109002809Y-128868195D01*
X109010846Y-128896840D01*
X109015174Y-128926722D01*
X109015998Y-128947330D01*
X109013892Y-128979570D01*
X109007572Y-129008879D01*
X108995426Y-129038348D01*
X108982293Y-129058705D01*
X108961015Y-129079957D01*
X108935100Y-129094253D01*
X108904549Y-129101595D01*
X108885573Y-129102668D01*
X108020220Y-129102668D01*
G37*
G36*
X108029013Y-128813241D02*
G01*
X108049529Y-129102668D01*
X107066940Y-129102668D01*
X107053499Y-129076113D01*
X107042118Y-129047102D01*
X107041295Y-129044783D01*
X107033704Y-129015588D01*
X107029617Y-128985157D01*
X107028838Y-128964183D01*
X107030451Y-128934595D01*
X107036244Y-128904473D01*
X107047798Y-128875293D01*
X107062544Y-128853541D01*
X107086472Y-128832289D01*
X107116125Y-128818908D01*
X107147706Y-128813595D01*
X107159264Y-128813241D01*
X108029013Y-128813241D01*
G37*
G36*
X107852425Y-128989828D02*
G01*
X108192411Y-128989828D01*
X108192411Y-131358739D01*
X108163424Y-131367924D01*
X108132605Y-131375784D01*
X108127199Y-131377058D01*
X108096714Y-131383315D01*
X108065709Y-131386975D01*
X108037073Y-131388049D01*
X108004074Y-131386709D01*
X107974322Y-131382691D01*
X107943712Y-131374616D01*
X107914140Y-131360923D01*
X107898587Y-131349947D01*
X107878391Y-131328331D01*
X107863966Y-131301587D01*
X107855310Y-131269713D01*
X107852470Y-131237616D01*
X107852425Y-131232710D01*
X107852425Y-128989828D01*
G37*
G36*
X111414951Y-131333094D02*
G01*
X111389206Y-131348261D01*
X111362058Y-131359610D01*
X111335084Y-131368998D01*
X111304951Y-131377332D01*
X111273169Y-131383286D01*
X111244007Y-131386542D01*
X111213583Y-131387974D01*
X111204658Y-131388049D01*
X111175301Y-131387250D01*
X111142547Y-131384300D01*
X111111407Y-131379176D01*
X111081880Y-131371878D01*
X111061776Y-131365334D01*
X111033200Y-131352191D01*
X111007182Y-131334011D01*
X110985887Y-131309596D01*
X110978245Y-131295725D01*
X110961038Y-131261745D01*
X110947666Y-131234456D01*
X110933895Y-131205622D01*
X110919725Y-131175243D01*
X110905156Y-131143317D01*
X110890187Y-131109846D01*
X110874819Y-131074830D01*
X110859052Y-131038268D01*
X110842885Y-131000160D01*
X110826319Y-130960507D01*
X110820709Y-130946946D01*
X110809391Y-130919446D01*
X110797971Y-130891533D01*
X110786448Y-130863209D01*
X110774822Y-130834472D01*
X110763092Y-130805323D01*
X110751260Y-130775762D01*
X110739324Y-130745789D01*
X110727286Y-130715404D01*
X110715144Y-130684606D01*
X110702900Y-130653397D01*
X110690552Y-130621775D01*
X110678101Y-130589741D01*
X110665548Y-130557295D01*
X110652891Y-130524436D01*
X110640131Y-130491166D01*
X110627268Y-130457483D01*
X110614451Y-130423546D01*
X110601646Y-130389511D01*
X110588852Y-130355379D01*
X110576069Y-130321150D01*
X110563298Y-130286823D01*
X110550538Y-130252400D01*
X110537790Y-130217878D01*
X110525053Y-130183260D01*
X110512327Y-130148544D01*
X110499613Y-130113731D01*
X110486911Y-130078820D01*
X110474220Y-130043812D01*
X110461540Y-130008707D01*
X110448872Y-129973505D01*
X110436215Y-129938205D01*
X110423570Y-129902808D01*
X110411076Y-129867431D01*
X110398691Y-129832191D01*
X110386415Y-129797089D01*
X110374248Y-129762124D01*
X110362189Y-129727296D01*
X110350240Y-129692606D01*
X110338399Y-129658054D01*
X110326666Y-129623638D01*
X110315043Y-129589360D01*
X110303528Y-129555220D01*
X110292122Y-129521217D01*
X110280825Y-129487351D01*
X110269637Y-129453622D01*
X110258557Y-129420031D01*
X110247586Y-129386578D01*
X110236724Y-129353261D01*
X110226097Y-129320160D01*
X110215647Y-129287533D01*
X110205374Y-129255382D01*
X110195279Y-129223706D01*
X110185361Y-129192505D01*
X110175621Y-129161779D01*
X110166059Y-129131528D01*
X110156673Y-129101752D01*
X110147466Y-129072452D01*
X110138435Y-129043626D01*
X110129582Y-129015276D01*
X110116636Y-128973642D01*
X110104089Y-128933076D01*
X110091941Y-128893579D01*
X110087980Y-128880652D01*
X110108138Y-128857999D01*
X110131723Y-128838306D01*
X110157232Y-128821318D01*
X110163451Y-128817637D01*
X110192875Y-128803469D01*
X110224270Y-128793938D01*
X110253831Y-128789358D01*
X110277024Y-128788328D01*
X110309932Y-128790151D01*
X110338774Y-128795621D01*
X110366755Y-128806337D01*
X110391884Y-128824085D01*
X110394261Y-128826430D01*
X110414650Y-128850464D01*
X110431022Y-128876888D01*
X110443995Y-128903916D01*
X110455705Y-128934590D01*
X110457275Y-128939270D01*
X110468806Y-128973359D01*
X110480316Y-129007391D01*
X110491807Y-129041365D01*
X110503277Y-129075283D01*
X110514727Y-129109143D01*
X110526157Y-129142945D01*
X110537568Y-129176691D01*
X110548958Y-129210379D01*
X110560328Y-129244010D01*
X110571678Y-129277584D01*
X110583008Y-129311101D01*
X110594318Y-129344560D01*
X110605608Y-129377962D01*
X110616878Y-129411307D01*
X110628128Y-129444595D01*
X110639358Y-129477825D01*
X110650568Y-129510998D01*
X110661758Y-129544114D01*
X110672928Y-129577173D01*
X110684078Y-129610174D01*
X110695207Y-129643119D01*
X110706317Y-129676005D01*
X110717407Y-129708835D01*
X110728476Y-129741608D01*
X110739526Y-129774323D01*
X110750556Y-129806981D01*
X110761565Y-129839581D01*
X110772555Y-129872125D01*
X110783524Y-129904611D01*
X110794474Y-129937040D01*
X110805403Y-129969412D01*
X110816312Y-130001726D01*
X110827242Y-130034021D01*
X110838234Y-130066332D01*
X110849287Y-130098661D01*
X110860402Y-130131007D01*
X110871578Y-130163370D01*
X110882816Y-130195750D01*
X110894115Y-130228148D01*
X110905476Y-130260563D01*
X110916899Y-130292994D01*
X110928383Y-130325443D01*
X110939928Y-130357910D01*
X110951535Y-130390393D01*
X110963204Y-130422893D01*
X110974934Y-130455411D01*
X110986725Y-130487946D01*
X110998578Y-130520498D01*
X111010493Y-130553067D01*
X111022469Y-130585654D01*
X111034507Y-130618257D01*
X111046607Y-130650878D01*
X111058767Y-130683516D01*
X111070990Y-130716171D01*
X111083274Y-130748843D01*
X111095619Y-130781533D01*
X111108026Y-130814239D01*
X111120495Y-130846963D01*
X111133025Y-130879704D01*
X111145617Y-130912462D01*
X111158270Y-130945237D01*
X111170984Y-130978030D01*
X111183761Y-131010839D01*
X111196598Y-131043666D01*
X111213451Y-131043666D01*
X111228695Y-131003529D01*
X111244020Y-130962986D01*
X111259424Y-130922036D01*
X111274909Y-130880680D01*
X111290474Y-130838917D01*
X111306118Y-130796748D01*
X111321843Y-130754173D01*
X111337649Y-130711191D01*
X111353534Y-130667802D01*
X111369499Y-130624007D01*
X111385545Y-130579806D01*
X111401671Y-130535198D01*
X111417877Y-130490184D01*
X111434163Y-130444764D01*
X111450529Y-130398937D01*
X111466975Y-130352703D01*
X111483519Y-130306089D01*
X111499994Y-130259303D01*
X111516400Y-130212346D01*
X111532738Y-130165216D01*
X111549006Y-130117915D01*
X111565207Y-130070442D01*
X111581338Y-130022798D01*
X111597401Y-129974982D01*
X111613395Y-129926994D01*
X111629320Y-129878834D01*
X111645177Y-129830502D01*
X111660965Y-129781999D01*
X111676684Y-129733324D01*
X111692335Y-129684478D01*
X111707917Y-129635459D01*
X111723430Y-129586269D01*
X111738803Y-129536985D01*
X111753964Y-129487866D01*
X111768914Y-129438913D01*
X111783651Y-129390127D01*
X111798177Y-129341506D01*
X111812491Y-129293052D01*
X111826593Y-129244763D01*
X111840484Y-129196641D01*
X111854162Y-129148684D01*
X111867629Y-129100894D01*
X111880884Y-129053269D01*
X111893927Y-129005811D01*
X111906758Y-128958518D01*
X111919378Y-128911392D01*
X111931786Y-128864431D01*
X111943981Y-128817637D01*
X111970889Y-128804994D01*
X112000321Y-128796560D01*
X112009194Y-128794922D01*
X112039334Y-128790653D01*
X112068872Y-128788643D01*
X112086864Y-128788328D01*
X112118480Y-128790151D01*
X112147291Y-128795621D01*
X112176783Y-128806337D01*
X112202612Y-128821816D01*
X112208496Y-128826430D01*
X112230811Y-128850464D01*
X112244515Y-128876888D01*
X112252449Y-128908074D01*
X112254658Y-128939270D01*
X112252449Y-128972063D01*
X112248167Y-129001884D01*
X112241630Y-129037035D01*
X112234778Y-129068995D01*
X112226483Y-129104366D01*
X112219316Y-129133134D01*
X112211337Y-129163820D01*
X112208496Y-129174476D01*
X112199564Y-129207315D01*
X112190078Y-129241263D01*
X112180038Y-129276318D01*
X112169444Y-129312481D01*
X112158297Y-129349751D01*
X112146595Y-129388129D01*
X112134340Y-129427615D01*
X112121531Y-129468208D01*
X112108168Y-129509909D01*
X112098951Y-129538326D01*
X112089489Y-129567234D01*
X112084665Y-129581873D01*
X112074899Y-129611374D01*
X112065019Y-129641075D01*
X112055024Y-129670977D01*
X112044915Y-129701079D01*
X112034691Y-129731381D01*
X112024353Y-129761884D01*
X112013900Y-129792587D01*
X112003333Y-129823490D01*
X111992651Y-129854594D01*
X111981854Y-129885898D01*
X111970944Y-129917402D01*
X111959918Y-129949107D01*
X111948779Y-129981012D01*
X111937524Y-130013118D01*
X111926156Y-130045424D01*
X111914672Y-130077930D01*
X111903115Y-130110405D01*
X111891523Y-130142799D01*
X111879896Y-130175114D01*
X111868236Y-130207348D01*
X111856541Y-130239502D01*
X111844811Y-130271576D01*
X111833048Y-130303570D01*
X111821249Y-130335484D01*
X111809417Y-130367318D01*
X111797550Y-130399071D01*
X111785649Y-130430745D01*
X111773714Y-130462338D01*
X111761744Y-130493851D01*
X111749740Y-130525284D01*
X111737701Y-130556636D01*
X111725628Y-130587909D01*
X111713604Y-130618930D01*
X111701712Y-130649527D01*
X111689951Y-130679700D01*
X111678322Y-130709450D01*
X111666824Y-130738777D01*
X111655458Y-130767679D01*
X111644224Y-130796159D01*
X111633121Y-130824214D01*
X111622151Y-130851846D01*
X111605941Y-130892499D01*
X111590028Y-130932200D01*
X111574411Y-130970947D01*
X111559090Y-131008741D01*
X111549041Y-131033408D01*
X111534416Y-131069161D01*
X111520215Y-131103329D01*
X111506440Y-131135913D01*
X111493090Y-131166913D01*
X111480165Y-131196329D01*
X111467665Y-131224161D01*
X111451659Y-131258805D01*
X111436410Y-131290633D01*
X111421915Y-131319644D01*
X111414951Y-131333094D01*
G37*
G36*
X113492237Y-130425976D02*
G01*
X113152251Y-130425976D01*
X113152251Y-129140770D01*
X112614428Y-129392829D01*
X112585023Y-129379253D01*
X112558632Y-129362432D01*
X112535255Y-129342365D01*
X112523570Y-129329814D01*
X112506568Y-129304640D01*
X112495131Y-129276105D01*
X112489257Y-129244207D01*
X112488399Y-129225034D01*
X112490757Y-129195370D01*
X112500339Y-129160898D01*
X112517290Y-129129324D01*
X112536158Y-129106152D01*
X112559743Y-129084834D01*
X112588044Y-129065371D01*
X112621063Y-129047762D01*
X112639341Y-129039654D01*
X113227722Y-128783931D01*
X113307589Y-128783931D01*
X113337754Y-128785709D01*
X113370016Y-128792275D01*
X113399123Y-128803681D01*
X113425074Y-128819925D01*
X113441679Y-128834490D01*
X113461379Y-128857936D01*
X113476240Y-128884679D01*
X113486263Y-128914717D01*
X113491447Y-128948051D01*
X113492237Y-128968579D01*
X113492237Y-130425976D01*
G37*
G36*
X113152251Y-130258181D02*
G01*
X113492237Y-130258181D01*
X113492237Y-131371196D01*
X113462928Y-131379805D01*
X113432640Y-131387610D01*
X113424826Y-131389514D01*
X113395073Y-131395772D01*
X113363242Y-131399432D01*
X113332502Y-131400505D01*
X113300998Y-131399191D01*
X113267954Y-131394338D01*
X113238907Y-131385908D01*
X113210606Y-131371894D01*
X113198413Y-131363136D01*
X113178217Y-131341475D01*
X113163791Y-131314593D01*
X113155136Y-131282490D01*
X113152296Y-131250117D01*
X113152251Y-131245167D01*
X113152251Y-130258181D01*
G37*
D11*
%TO.C,F1*%
X53938809Y-80825133D02*
X53938809Y-81158466D01*
X54462619Y-81158466D02*
X53462619Y-81158466D01*
X53462619Y-81158466D02*
X53462619Y-80682276D01*
X54462619Y-79777514D02*
X54462619Y-80348942D01*
X54462619Y-80063228D02*
X53462619Y-80063228D01*
X53462619Y-80063228D02*
X53605476Y-80158466D01*
X53605476Y-80158466D02*
X53700714Y-80253704D01*
X53700714Y-80253704D02*
X53748333Y-80348942D01*
%TO.C,H4*%
X59238095Y-56462619D02*
X59238095Y-55462619D01*
X59238095Y-55938809D02*
X59809523Y-55938809D01*
X59809523Y-56462619D02*
X59809523Y-55462619D01*
X60714285Y-55795952D02*
X60714285Y-56462619D01*
X60476190Y-55415000D02*
X60238095Y-56129285D01*
X60238095Y-56129285D02*
X60857142Y-56129285D01*
%TO.C,H1*%
X54504485Y-130453409D02*
X54504485Y-129453409D01*
X54504485Y-129929599D02*
X55075913Y-129929599D01*
X55075913Y-130453409D02*
X55075913Y-129453409D01*
X56075913Y-130453409D02*
X55504485Y-130453409D01*
X55790199Y-130453409D02*
X55790199Y-129453409D01*
X55790199Y-129453409D02*
X55694961Y-129596266D01*
X55694961Y-129596266D02*
X55599723Y-129691504D01*
X55599723Y-129691504D02*
X55504485Y-129739123D01*
%TO.C,KBPC610*%
X129256724Y-111165819D02*
X129256724Y-110165819D01*
X129828152Y-111165819D02*
X129399581Y-110594390D01*
X129828152Y-110165819D02*
X129256724Y-110737247D01*
X130590057Y-110642009D02*
X130732914Y-110689628D01*
X130732914Y-110689628D02*
X130780533Y-110737247D01*
X130780533Y-110737247D02*
X130828152Y-110832485D01*
X130828152Y-110832485D02*
X130828152Y-110975342D01*
X130828152Y-110975342D02*
X130780533Y-111070580D01*
X130780533Y-111070580D02*
X130732914Y-111118200D01*
X130732914Y-111118200D02*
X130637676Y-111165819D01*
X130637676Y-111165819D02*
X130256724Y-111165819D01*
X130256724Y-111165819D02*
X130256724Y-110165819D01*
X130256724Y-110165819D02*
X130590057Y-110165819D01*
X130590057Y-110165819D02*
X130685295Y-110213438D01*
X130685295Y-110213438D02*
X130732914Y-110261057D01*
X130732914Y-110261057D02*
X130780533Y-110356295D01*
X130780533Y-110356295D02*
X130780533Y-110451533D01*
X130780533Y-110451533D02*
X130732914Y-110546771D01*
X130732914Y-110546771D02*
X130685295Y-110594390D01*
X130685295Y-110594390D02*
X130590057Y-110642009D01*
X130590057Y-110642009D02*
X130256724Y-110642009D01*
X131256724Y-111165819D02*
X131256724Y-110165819D01*
X131256724Y-110165819D02*
X131637676Y-110165819D01*
X131637676Y-110165819D02*
X131732914Y-110213438D01*
X131732914Y-110213438D02*
X131780533Y-110261057D01*
X131780533Y-110261057D02*
X131828152Y-110356295D01*
X131828152Y-110356295D02*
X131828152Y-110499152D01*
X131828152Y-110499152D02*
X131780533Y-110594390D01*
X131780533Y-110594390D02*
X131732914Y-110642009D01*
X131732914Y-110642009D02*
X131637676Y-110689628D01*
X131637676Y-110689628D02*
X131256724Y-110689628D01*
X132828152Y-111070580D02*
X132780533Y-111118200D01*
X132780533Y-111118200D02*
X132637676Y-111165819D01*
X132637676Y-111165819D02*
X132542438Y-111165819D01*
X132542438Y-111165819D02*
X132399581Y-111118200D01*
X132399581Y-111118200D02*
X132304343Y-111022961D01*
X132304343Y-111022961D02*
X132256724Y-110927723D01*
X132256724Y-110927723D02*
X132209105Y-110737247D01*
X132209105Y-110737247D02*
X132209105Y-110594390D01*
X132209105Y-110594390D02*
X132256724Y-110403914D01*
X132256724Y-110403914D02*
X132304343Y-110308676D01*
X132304343Y-110308676D02*
X132399581Y-110213438D01*
X132399581Y-110213438D02*
X132542438Y-110165819D01*
X132542438Y-110165819D02*
X132637676Y-110165819D01*
X132637676Y-110165819D02*
X132780533Y-110213438D01*
X132780533Y-110213438D02*
X132828152Y-110261057D01*
X133685295Y-110165819D02*
X133494819Y-110165819D01*
X133494819Y-110165819D02*
X133399581Y-110213438D01*
X133399581Y-110213438D02*
X133351962Y-110261057D01*
X133351962Y-110261057D02*
X133256724Y-110403914D01*
X133256724Y-110403914D02*
X133209105Y-110594390D01*
X133209105Y-110594390D02*
X133209105Y-110975342D01*
X133209105Y-110975342D02*
X133256724Y-111070580D01*
X133256724Y-111070580D02*
X133304343Y-111118200D01*
X133304343Y-111118200D02*
X133399581Y-111165819D01*
X133399581Y-111165819D02*
X133590057Y-111165819D01*
X133590057Y-111165819D02*
X133685295Y-111118200D01*
X133685295Y-111118200D02*
X133732914Y-111070580D01*
X133732914Y-111070580D02*
X133780533Y-110975342D01*
X133780533Y-110975342D02*
X133780533Y-110737247D01*
X133780533Y-110737247D02*
X133732914Y-110642009D01*
X133732914Y-110642009D02*
X133685295Y-110594390D01*
X133685295Y-110594390D02*
X133590057Y-110546771D01*
X133590057Y-110546771D02*
X133399581Y-110546771D01*
X133399581Y-110546771D02*
X133304343Y-110594390D01*
X133304343Y-110594390D02*
X133256724Y-110642009D01*
X133256724Y-110642009D02*
X133209105Y-110737247D01*
X134732914Y-111165819D02*
X134161486Y-111165819D01*
X134447200Y-111165819D02*
X134447200Y-110165819D01*
X134447200Y-110165819D02*
X134351962Y-110308676D01*
X134351962Y-110308676D02*
X134256724Y-110403914D01*
X134256724Y-110403914D02*
X134161486Y-110451533D01*
X135351962Y-110165819D02*
X135447200Y-110165819D01*
X135447200Y-110165819D02*
X135542438Y-110213438D01*
X135542438Y-110213438D02*
X135590057Y-110261057D01*
X135590057Y-110261057D02*
X135637676Y-110356295D01*
X135637676Y-110356295D02*
X135685295Y-110546771D01*
X135685295Y-110546771D02*
X135685295Y-110784866D01*
X135685295Y-110784866D02*
X135637676Y-110975342D01*
X135637676Y-110975342D02*
X135590057Y-111070580D01*
X135590057Y-111070580D02*
X135542438Y-111118200D01*
X135542438Y-111118200D02*
X135447200Y-111165819D01*
X135447200Y-111165819D02*
X135351962Y-111165819D01*
X135351962Y-111165819D02*
X135256724Y-111118200D01*
X135256724Y-111118200D02*
X135209105Y-111070580D01*
X135209105Y-111070580D02*
X135161486Y-110975342D01*
X135161486Y-110975342D02*
X135113867Y-110784866D01*
X135113867Y-110784866D02*
X135113867Y-110546771D01*
X135113867Y-110546771D02*
X135161486Y-110356295D01*
X135161486Y-110356295D02*
X135209105Y-110261057D01*
X135209105Y-110261057D02*
X135256724Y-110213438D01*
X135256724Y-110213438D02*
X135351962Y-110165819D01*
%TO.C,INTEPT*%
X81200905Y-72845219D02*
X81200905Y-71845219D01*
X81677095Y-72845219D02*
X81677095Y-71845219D01*
X81677095Y-71845219D02*
X82248523Y-72845219D01*
X82248523Y-72845219D02*
X82248523Y-71845219D01*
X82581857Y-71845219D02*
X83153285Y-71845219D01*
X82867571Y-72845219D02*
X82867571Y-71845219D01*
X83486619Y-72321409D02*
X83819952Y-72321409D01*
X83962809Y-72845219D02*
X83486619Y-72845219D01*
X83486619Y-72845219D02*
X83486619Y-71845219D01*
X83486619Y-71845219D02*
X83962809Y-71845219D01*
X84391381Y-72845219D02*
X84391381Y-71845219D01*
X84391381Y-71845219D02*
X84772333Y-71845219D01*
X84772333Y-71845219D02*
X84867571Y-71892838D01*
X84867571Y-71892838D02*
X84915190Y-71940457D01*
X84915190Y-71940457D02*
X84962809Y-72035695D01*
X84962809Y-72035695D02*
X84962809Y-72178552D01*
X84962809Y-72178552D02*
X84915190Y-72273790D01*
X84915190Y-72273790D02*
X84867571Y-72321409D01*
X84867571Y-72321409D02*
X84772333Y-72369028D01*
X84772333Y-72369028D02*
X84391381Y-72369028D01*
X85248524Y-71845219D02*
X85819952Y-71845219D01*
X85534238Y-72845219D02*
X85534238Y-71845219D01*
%TO.C,OLED*%
X147036019Y-62886419D02*
X147226495Y-62886419D01*
X147226495Y-62886419D02*
X147321733Y-62934038D01*
X147321733Y-62934038D02*
X147416971Y-63029276D01*
X147416971Y-63029276D02*
X147464590Y-63219752D01*
X147464590Y-63219752D02*
X147464590Y-63553085D01*
X147464590Y-63553085D02*
X147416971Y-63743561D01*
X147416971Y-63743561D02*
X147321733Y-63838800D01*
X147321733Y-63838800D02*
X147226495Y-63886419D01*
X147226495Y-63886419D02*
X147036019Y-63886419D01*
X147036019Y-63886419D02*
X146940781Y-63838800D01*
X146940781Y-63838800D02*
X146845543Y-63743561D01*
X146845543Y-63743561D02*
X146797924Y-63553085D01*
X146797924Y-63553085D02*
X146797924Y-63219752D01*
X146797924Y-63219752D02*
X146845543Y-63029276D01*
X146845543Y-63029276D02*
X146940781Y-62934038D01*
X146940781Y-62934038D02*
X147036019Y-62886419D01*
X148369352Y-63886419D02*
X147893162Y-63886419D01*
X147893162Y-63886419D02*
X147893162Y-62886419D01*
X148702686Y-63362609D02*
X149036019Y-63362609D01*
X149178876Y-63886419D02*
X148702686Y-63886419D01*
X148702686Y-63886419D02*
X148702686Y-62886419D01*
X148702686Y-62886419D02*
X149178876Y-62886419D01*
X149607448Y-63886419D02*
X149607448Y-62886419D01*
X149607448Y-62886419D02*
X149845543Y-62886419D01*
X149845543Y-62886419D02*
X149988400Y-62934038D01*
X149988400Y-62934038D02*
X150083638Y-63029276D01*
X150083638Y-63029276D02*
X150131257Y-63124514D01*
X150131257Y-63124514D02*
X150178876Y-63314990D01*
X150178876Y-63314990D02*
X150178876Y-63457847D01*
X150178876Y-63457847D02*
X150131257Y-63648323D01*
X150131257Y-63648323D02*
X150083638Y-63743561D01*
X150083638Y-63743561D02*
X149988400Y-63838800D01*
X149988400Y-63838800D02*
X149845543Y-63886419D01*
X149845543Y-63886419D02*
X149607448Y-63886419D01*
%TO.C,U1*%
X176149095Y-51380219D02*
X176149095Y-52189742D01*
X176149095Y-52189742D02*
X176196714Y-52284980D01*
X176196714Y-52284980D02*
X176244333Y-52332600D01*
X176244333Y-52332600D02*
X176339571Y-52380219D01*
X176339571Y-52380219D02*
X176530047Y-52380219D01*
X176530047Y-52380219D02*
X176625285Y-52332600D01*
X176625285Y-52332600D02*
X176672904Y-52284980D01*
X176672904Y-52284980D02*
X176720523Y-52189742D01*
X176720523Y-52189742D02*
X176720523Y-51380219D01*
X177720523Y-52380219D02*
X177149095Y-52380219D01*
X177434809Y-52380219D02*
X177434809Y-51380219D01*
X177434809Y-51380219D02*
X177339571Y-51523076D01*
X177339571Y-51523076D02*
X177244333Y-51618314D01*
X177244333Y-51618314D02*
X177149095Y-51665933D01*
%TO.C,47K*%
X105462485Y-85944952D02*
X105462485Y-86611619D01*
X105224390Y-85564000D02*
X104986295Y-86278285D01*
X104986295Y-86278285D02*
X105605342Y-86278285D01*
X105891057Y-85611619D02*
X106557723Y-85611619D01*
X106557723Y-85611619D02*
X106129152Y-86611619D01*
X106938676Y-86611619D02*
X106938676Y-85611619D01*
X107510104Y-86611619D02*
X107081533Y-86040190D01*
X107510104Y-85611619D02*
X106938676Y-86183047D01*
%TO.C,INL*%
X81977029Y-100716419D02*
X81977029Y-99716419D01*
X82453219Y-100716419D02*
X82453219Y-99716419D01*
X82453219Y-99716419D02*
X83024647Y-100716419D01*
X83024647Y-100716419D02*
X83024647Y-99716419D01*
X83977028Y-100716419D02*
X83500838Y-100716419D01*
X83500838Y-100716419D02*
X83500838Y-99716419D01*
%TO.C,BZ1*%
X225814047Y-89702409D02*
X225956904Y-89750028D01*
X225956904Y-89750028D02*
X226004523Y-89797647D01*
X226004523Y-89797647D02*
X226052142Y-89892885D01*
X226052142Y-89892885D02*
X226052142Y-90035742D01*
X226052142Y-90035742D02*
X226004523Y-90130980D01*
X226004523Y-90130980D02*
X225956904Y-90178600D01*
X225956904Y-90178600D02*
X225861666Y-90226219D01*
X225861666Y-90226219D02*
X225480714Y-90226219D01*
X225480714Y-90226219D02*
X225480714Y-89226219D01*
X225480714Y-89226219D02*
X225814047Y-89226219D01*
X225814047Y-89226219D02*
X225909285Y-89273838D01*
X225909285Y-89273838D02*
X225956904Y-89321457D01*
X225956904Y-89321457D02*
X226004523Y-89416695D01*
X226004523Y-89416695D02*
X226004523Y-89511933D01*
X226004523Y-89511933D02*
X225956904Y-89607171D01*
X225956904Y-89607171D02*
X225909285Y-89654790D01*
X225909285Y-89654790D02*
X225814047Y-89702409D01*
X225814047Y-89702409D02*
X225480714Y-89702409D01*
X226385476Y-89226219D02*
X227052142Y-89226219D01*
X227052142Y-89226219D02*
X226385476Y-90226219D01*
X226385476Y-90226219D02*
X227052142Y-90226219D01*
X227956904Y-90226219D02*
X227385476Y-90226219D01*
X227671190Y-90226219D02*
X227671190Y-89226219D01*
X227671190Y-89226219D02*
X227575952Y-89369076D01*
X227575952Y-89369076D02*
X227480714Y-89464314D01*
X227480714Y-89464314D02*
X227385476Y-89511933D01*
%TO.C,HLK-PM01*%
X193956467Y-127691219D02*
X193956467Y-126691219D01*
X193956467Y-127167409D02*
X194527895Y-127167409D01*
X194527895Y-127691219D02*
X194527895Y-126691219D01*
X195480276Y-127691219D02*
X195004086Y-127691219D01*
X195004086Y-127691219D02*
X195004086Y-126691219D01*
X195813610Y-127691219D02*
X195813610Y-126691219D01*
X196385038Y-127691219D02*
X195956467Y-127119790D01*
X196385038Y-126691219D02*
X195813610Y-127262647D01*
X196813610Y-127310266D02*
X197575515Y-127310266D01*
X198051705Y-127691219D02*
X198051705Y-126691219D01*
X198051705Y-126691219D02*
X198432657Y-126691219D01*
X198432657Y-126691219D02*
X198527895Y-126738838D01*
X198527895Y-126738838D02*
X198575514Y-126786457D01*
X198575514Y-126786457D02*
X198623133Y-126881695D01*
X198623133Y-126881695D02*
X198623133Y-127024552D01*
X198623133Y-127024552D02*
X198575514Y-127119790D01*
X198575514Y-127119790D02*
X198527895Y-127167409D01*
X198527895Y-127167409D02*
X198432657Y-127215028D01*
X198432657Y-127215028D02*
X198051705Y-127215028D01*
X199051705Y-127691219D02*
X199051705Y-126691219D01*
X199051705Y-126691219D02*
X199385038Y-127405504D01*
X199385038Y-127405504D02*
X199718371Y-126691219D01*
X199718371Y-126691219D02*
X199718371Y-127691219D01*
X200385038Y-126691219D02*
X200480276Y-126691219D01*
X200480276Y-126691219D02*
X200575514Y-126738838D01*
X200575514Y-126738838D02*
X200623133Y-126786457D01*
X200623133Y-126786457D02*
X200670752Y-126881695D01*
X200670752Y-126881695D02*
X200718371Y-127072171D01*
X200718371Y-127072171D02*
X200718371Y-127310266D01*
X200718371Y-127310266D02*
X200670752Y-127500742D01*
X200670752Y-127500742D02*
X200623133Y-127595980D01*
X200623133Y-127595980D02*
X200575514Y-127643600D01*
X200575514Y-127643600D02*
X200480276Y-127691219D01*
X200480276Y-127691219D02*
X200385038Y-127691219D01*
X200385038Y-127691219D02*
X200289800Y-127643600D01*
X200289800Y-127643600D02*
X200242181Y-127595980D01*
X200242181Y-127595980D02*
X200194562Y-127500742D01*
X200194562Y-127500742D02*
X200146943Y-127310266D01*
X200146943Y-127310266D02*
X200146943Y-127072171D01*
X200146943Y-127072171D02*
X200194562Y-126881695D01*
X200194562Y-126881695D02*
X200242181Y-126786457D01*
X200242181Y-126786457D02*
X200289800Y-126738838D01*
X200289800Y-126738838D02*
X200385038Y-126691219D01*
X201670752Y-127691219D02*
X201099324Y-127691219D01*
X201385038Y-127691219D02*
X201385038Y-126691219D01*
X201385038Y-126691219D02*
X201289800Y-126834076D01*
X201289800Y-126834076D02*
X201194562Y-126929314D01*
X201194562Y-126929314D02*
X201099324Y-126976933D01*
%TO.C,KEY2*%
X227895352Y-82504619D02*
X227895352Y-81504619D01*
X228466780Y-82504619D02*
X228038209Y-81933190D01*
X228466780Y-81504619D02*
X227895352Y-82076047D01*
X228895352Y-81980809D02*
X229228685Y-81980809D01*
X229371542Y-82504619D02*
X228895352Y-82504619D01*
X228895352Y-82504619D02*
X228895352Y-81504619D01*
X228895352Y-81504619D02*
X229371542Y-81504619D01*
X229990590Y-82028428D02*
X229990590Y-82504619D01*
X229657257Y-81504619D02*
X229990590Y-82028428D01*
X229990590Y-82028428D02*
X230323923Y-81504619D01*
X230609638Y-81599857D02*
X230657257Y-81552238D01*
X230657257Y-81552238D02*
X230752495Y-81504619D01*
X230752495Y-81504619D02*
X230990590Y-81504619D01*
X230990590Y-81504619D02*
X231085828Y-81552238D01*
X231085828Y-81552238D02*
X231133447Y-81599857D01*
X231133447Y-81599857D02*
X231181066Y-81695095D01*
X231181066Y-81695095D02*
X231181066Y-81790333D01*
X231181066Y-81790333D02*
X231133447Y-81933190D01*
X231133447Y-81933190D02*
X230562019Y-82504619D01*
X230562019Y-82504619D02*
X231181066Y-82504619D01*
%TO.C,VIN*%
X58904762Y-110754419D02*
X59238095Y-111754419D01*
X59238095Y-111754419D02*
X59571428Y-110754419D01*
X59904762Y-111754419D02*
X59904762Y-110754419D01*
X60380952Y-111754419D02*
X60380952Y-110754419D01*
X60380952Y-110754419D02*
X60952380Y-111754419D01*
X60952380Y-111754419D02*
X60952380Y-110754419D01*
%TO.C,KEY1*%
X222459752Y-122839819D02*
X222459752Y-121839819D01*
X223031180Y-122839819D02*
X222602609Y-122268390D01*
X223031180Y-121839819D02*
X222459752Y-122411247D01*
X223459752Y-122316009D02*
X223793085Y-122316009D01*
X223935942Y-122839819D02*
X223459752Y-122839819D01*
X223459752Y-122839819D02*
X223459752Y-121839819D01*
X223459752Y-121839819D02*
X223935942Y-121839819D01*
X224554990Y-122363628D02*
X224554990Y-122839819D01*
X224221657Y-121839819D02*
X224554990Y-122363628D01*
X224554990Y-122363628D02*
X224888323Y-121839819D01*
X225745466Y-122839819D02*
X225174038Y-122839819D01*
X225459752Y-122839819D02*
X225459752Y-121839819D01*
X225459752Y-121839819D02*
X225364514Y-121982676D01*
X225364514Y-121982676D02*
X225269276Y-122077914D01*
X225269276Y-122077914D02*
X225174038Y-122125533D01*
%TO.C,PC817*%
X141532724Y-99930819D02*
X141532724Y-98930819D01*
X141532724Y-98930819D02*
X141913676Y-98930819D01*
X141913676Y-98930819D02*
X142008914Y-98978438D01*
X142008914Y-98978438D02*
X142056533Y-99026057D01*
X142056533Y-99026057D02*
X142104152Y-99121295D01*
X142104152Y-99121295D02*
X142104152Y-99264152D01*
X142104152Y-99264152D02*
X142056533Y-99359390D01*
X142056533Y-99359390D02*
X142008914Y-99407009D01*
X142008914Y-99407009D02*
X141913676Y-99454628D01*
X141913676Y-99454628D02*
X141532724Y-99454628D01*
X143104152Y-99835580D02*
X143056533Y-99883200D01*
X143056533Y-99883200D02*
X142913676Y-99930819D01*
X142913676Y-99930819D02*
X142818438Y-99930819D01*
X142818438Y-99930819D02*
X142675581Y-99883200D01*
X142675581Y-99883200D02*
X142580343Y-99787961D01*
X142580343Y-99787961D02*
X142532724Y-99692723D01*
X142532724Y-99692723D02*
X142485105Y-99502247D01*
X142485105Y-99502247D02*
X142485105Y-99359390D01*
X142485105Y-99359390D02*
X142532724Y-99168914D01*
X142532724Y-99168914D02*
X142580343Y-99073676D01*
X142580343Y-99073676D02*
X142675581Y-98978438D01*
X142675581Y-98978438D02*
X142818438Y-98930819D01*
X142818438Y-98930819D02*
X142913676Y-98930819D01*
X142913676Y-98930819D02*
X143056533Y-98978438D01*
X143056533Y-98978438D02*
X143104152Y-99026057D01*
X143675581Y-99359390D02*
X143580343Y-99311771D01*
X143580343Y-99311771D02*
X143532724Y-99264152D01*
X143532724Y-99264152D02*
X143485105Y-99168914D01*
X143485105Y-99168914D02*
X143485105Y-99121295D01*
X143485105Y-99121295D02*
X143532724Y-99026057D01*
X143532724Y-99026057D02*
X143580343Y-98978438D01*
X143580343Y-98978438D02*
X143675581Y-98930819D01*
X143675581Y-98930819D02*
X143866057Y-98930819D01*
X143866057Y-98930819D02*
X143961295Y-98978438D01*
X143961295Y-98978438D02*
X144008914Y-99026057D01*
X144008914Y-99026057D02*
X144056533Y-99121295D01*
X144056533Y-99121295D02*
X144056533Y-99168914D01*
X144056533Y-99168914D02*
X144008914Y-99264152D01*
X144008914Y-99264152D02*
X143961295Y-99311771D01*
X143961295Y-99311771D02*
X143866057Y-99359390D01*
X143866057Y-99359390D02*
X143675581Y-99359390D01*
X143675581Y-99359390D02*
X143580343Y-99407009D01*
X143580343Y-99407009D02*
X143532724Y-99454628D01*
X143532724Y-99454628D02*
X143485105Y-99549866D01*
X143485105Y-99549866D02*
X143485105Y-99740342D01*
X143485105Y-99740342D02*
X143532724Y-99835580D01*
X143532724Y-99835580D02*
X143580343Y-99883200D01*
X143580343Y-99883200D02*
X143675581Y-99930819D01*
X143675581Y-99930819D02*
X143866057Y-99930819D01*
X143866057Y-99930819D02*
X143961295Y-99883200D01*
X143961295Y-99883200D02*
X144008914Y-99835580D01*
X144008914Y-99835580D02*
X144056533Y-99740342D01*
X144056533Y-99740342D02*
X144056533Y-99549866D01*
X144056533Y-99549866D02*
X144008914Y-99454628D01*
X144008914Y-99454628D02*
X143961295Y-99407009D01*
X143961295Y-99407009D02*
X143866057Y-99359390D01*
X145008914Y-99930819D02*
X144437486Y-99930819D01*
X144723200Y-99930819D02*
X144723200Y-98930819D01*
X144723200Y-98930819D02*
X144627962Y-99073676D01*
X144627962Y-99073676D02*
X144532724Y-99168914D01*
X144532724Y-99168914D02*
X144437486Y-99216533D01*
X145342248Y-98930819D02*
X146008914Y-98930819D01*
X146008914Y-98930819D02*
X145580343Y-99930819D01*
%TO.C,MOC3010*%
X135168095Y-83749219D02*
X135168095Y-82749219D01*
X135168095Y-82749219D02*
X135501428Y-83463504D01*
X135501428Y-83463504D02*
X135834761Y-82749219D01*
X135834761Y-82749219D02*
X135834761Y-83749219D01*
X136501428Y-82749219D02*
X136691904Y-82749219D01*
X136691904Y-82749219D02*
X136787142Y-82796838D01*
X136787142Y-82796838D02*
X136882380Y-82892076D01*
X136882380Y-82892076D02*
X136929999Y-83082552D01*
X136929999Y-83082552D02*
X136929999Y-83415885D01*
X136929999Y-83415885D02*
X136882380Y-83606361D01*
X136882380Y-83606361D02*
X136787142Y-83701600D01*
X136787142Y-83701600D02*
X136691904Y-83749219D01*
X136691904Y-83749219D02*
X136501428Y-83749219D01*
X136501428Y-83749219D02*
X136406190Y-83701600D01*
X136406190Y-83701600D02*
X136310952Y-83606361D01*
X136310952Y-83606361D02*
X136263333Y-83415885D01*
X136263333Y-83415885D02*
X136263333Y-83082552D01*
X136263333Y-83082552D02*
X136310952Y-82892076D01*
X136310952Y-82892076D02*
X136406190Y-82796838D01*
X136406190Y-82796838D02*
X136501428Y-82749219D01*
X137929999Y-83653980D02*
X137882380Y-83701600D01*
X137882380Y-83701600D02*
X137739523Y-83749219D01*
X137739523Y-83749219D02*
X137644285Y-83749219D01*
X137644285Y-83749219D02*
X137501428Y-83701600D01*
X137501428Y-83701600D02*
X137406190Y-83606361D01*
X137406190Y-83606361D02*
X137358571Y-83511123D01*
X137358571Y-83511123D02*
X137310952Y-83320647D01*
X137310952Y-83320647D02*
X137310952Y-83177790D01*
X137310952Y-83177790D02*
X137358571Y-82987314D01*
X137358571Y-82987314D02*
X137406190Y-82892076D01*
X137406190Y-82892076D02*
X137501428Y-82796838D01*
X137501428Y-82796838D02*
X137644285Y-82749219D01*
X137644285Y-82749219D02*
X137739523Y-82749219D01*
X137739523Y-82749219D02*
X137882380Y-82796838D01*
X137882380Y-82796838D02*
X137929999Y-82844457D01*
X138263333Y-82749219D02*
X138882380Y-82749219D01*
X138882380Y-82749219D02*
X138549047Y-83130171D01*
X138549047Y-83130171D02*
X138691904Y-83130171D01*
X138691904Y-83130171D02*
X138787142Y-83177790D01*
X138787142Y-83177790D02*
X138834761Y-83225409D01*
X138834761Y-83225409D02*
X138882380Y-83320647D01*
X138882380Y-83320647D02*
X138882380Y-83558742D01*
X138882380Y-83558742D02*
X138834761Y-83653980D01*
X138834761Y-83653980D02*
X138787142Y-83701600D01*
X138787142Y-83701600D02*
X138691904Y-83749219D01*
X138691904Y-83749219D02*
X138406190Y-83749219D01*
X138406190Y-83749219D02*
X138310952Y-83701600D01*
X138310952Y-83701600D02*
X138263333Y-83653980D01*
X139501428Y-82749219D02*
X139596666Y-82749219D01*
X139596666Y-82749219D02*
X139691904Y-82796838D01*
X139691904Y-82796838D02*
X139739523Y-82844457D01*
X139739523Y-82844457D02*
X139787142Y-82939695D01*
X139787142Y-82939695D02*
X139834761Y-83130171D01*
X139834761Y-83130171D02*
X139834761Y-83368266D01*
X139834761Y-83368266D02*
X139787142Y-83558742D01*
X139787142Y-83558742D02*
X139739523Y-83653980D01*
X139739523Y-83653980D02*
X139691904Y-83701600D01*
X139691904Y-83701600D02*
X139596666Y-83749219D01*
X139596666Y-83749219D02*
X139501428Y-83749219D01*
X139501428Y-83749219D02*
X139406190Y-83701600D01*
X139406190Y-83701600D02*
X139358571Y-83653980D01*
X139358571Y-83653980D02*
X139310952Y-83558742D01*
X139310952Y-83558742D02*
X139263333Y-83368266D01*
X139263333Y-83368266D02*
X139263333Y-83130171D01*
X139263333Y-83130171D02*
X139310952Y-82939695D01*
X139310952Y-82939695D02*
X139358571Y-82844457D01*
X139358571Y-82844457D02*
X139406190Y-82796838D01*
X139406190Y-82796838D02*
X139501428Y-82749219D01*
X140787142Y-83749219D02*
X140215714Y-83749219D01*
X140501428Y-83749219D02*
X140501428Y-82749219D01*
X140501428Y-82749219D02*
X140406190Y-82892076D01*
X140406190Y-82892076D02*
X140310952Y-82987314D01*
X140310952Y-82987314D02*
X140215714Y-83034933D01*
X141406190Y-82749219D02*
X141501428Y-82749219D01*
X141501428Y-82749219D02*
X141596666Y-82796838D01*
X141596666Y-82796838D02*
X141644285Y-82844457D01*
X141644285Y-82844457D02*
X141691904Y-82939695D01*
X141691904Y-82939695D02*
X141739523Y-83130171D01*
X141739523Y-83130171D02*
X141739523Y-83368266D01*
X141739523Y-83368266D02*
X141691904Y-83558742D01*
X141691904Y-83558742D02*
X141644285Y-83653980D01*
X141644285Y-83653980D02*
X141596666Y-83701600D01*
X141596666Y-83701600D02*
X141501428Y-83749219D01*
X141501428Y-83749219D02*
X141406190Y-83749219D01*
X141406190Y-83749219D02*
X141310952Y-83701600D01*
X141310952Y-83701600D02*
X141263333Y-83653980D01*
X141263333Y-83653980D02*
X141215714Y-83558742D01*
X141215714Y-83558742D02*
X141168095Y-83368266D01*
X141168095Y-83368266D02*
X141168095Y-83130171D01*
X141168095Y-83130171D02*
X141215714Y-82939695D01*
X141215714Y-82939695D02*
X141263333Y-82844457D01*
X141263333Y-82844457D02*
X141310952Y-82796838D01*
X141310952Y-82796838D02*
X141406190Y-82749219D01*
%TO.C,F3*%
X140916666Y-123938809D02*
X140583333Y-123938809D01*
X140583333Y-124462619D02*
X140583333Y-123462619D01*
X140583333Y-123462619D02*
X141059523Y-123462619D01*
X141345238Y-123462619D02*
X141964285Y-123462619D01*
X141964285Y-123462619D02*
X141630952Y-123843571D01*
X141630952Y-123843571D02*
X141773809Y-123843571D01*
X141773809Y-123843571D02*
X141869047Y-123891190D01*
X141869047Y-123891190D02*
X141916666Y-123938809D01*
X141916666Y-123938809D02*
X141964285Y-124034047D01*
X141964285Y-124034047D02*
X141964285Y-124272142D01*
X141964285Y-124272142D02*
X141916666Y-124367380D01*
X141916666Y-124367380D02*
X141869047Y-124415000D01*
X141869047Y-124415000D02*
X141773809Y-124462619D01*
X141773809Y-124462619D02*
X141488095Y-124462619D01*
X141488095Y-124462619D02*
X141392857Y-124415000D01*
X141392857Y-124415000D02*
X141345238Y-124367380D01*
%TO.C,47K*%
X106554685Y-119658552D02*
X106554685Y-120325219D01*
X106316590Y-119277600D02*
X106078495Y-119991885D01*
X106078495Y-119991885D02*
X106697542Y-119991885D01*
X106983257Y-119325219D02*
X107649923Y-119325219D01*
X107649923Y-119325219D02*
X107221352Y-120325219D01*
X108030876Y-120325219D02*
X108030876Y-119325219D01*
X108602304Y-120325219D02*
X108173733Y-119753790D01*
X108602304Y-119325219D02*
X108030876Y-119896647D01*
%TO.C,H3*%
X229238095Y-56462619D02*
X229238095Y-55462619D01*
X229238095Y-55938809D02*
X229809523Y-55938809D01*
X229809523Y-56462619D02*
X229809523Y-55462619D01*
X230190476Y-55462619D02*
X230809523Y-55462619D01*
X230809523Y-55462619D02*
X230476190Y-55843571D01*
X230476190Y-55843571D02*
X230619047Y-55843571D01*
X230619047Y-55843571D02*
X230714285Y-55891190D01*
X230714285Y-55891190D02*
X230761904Y-55938809D01*
X230761904Y-55938809D02*
X230809523Y-56034047D01*
X230809523Y-56034047D02*
X230809523Y-56272142D01*
X230809523Y-56272142D02*
X230761904Y-56367380D01*
X230761904Y-56367380D02*
X230714285Y-56415000D01*
X230714285Y-56415000D02*
X230619047Y-56462619D01*
X230619047Y-56462619D02*
X230333333Y-56462619D01*
X230333333Y-56462619D02*
X230238095Y-56415000D01*
X230238095Y-56415000D02*
X230190476Y-56367380D01*
%TO.C,220*%
X126930305Y-74911857D02*
X126977924Y-74864238D01*
X126977924Y-74864238D02*
X127073162Y-74816619D01*
X127073162Y-74816619D02*
X127311257Y-74816619D01*
X127311257Y-74816619D02*
X127406495Y-74864238D01*
X127406495Y-74864238D02*
X127454114Y-74911857D01*
X127454114Y-74911857D02*
X127501733Y-75007095D01*
X127501733Y-75007095D02*
X127501733Y-75102333D01*
X127501733Y-75102333D02*
X127454114Y-75245190D01*
X127454114Y-75245190D02*
X126882686Y-75816619D01*
X126882686Y-75816619D02*
X127501733Y-75816619D01*
X127882686Y-74911857D02*
X127930305Y-74864238D01*
X127930305Y-74864238D02*
X128025543Y-74816619D01*
X128025543Y-74816619D02*
X128263638Y-74816619D01*
X128263638Y-74816619D02*
X128358876Y-74864238D01*
X128358876Y-74864238D02*
X128406495Y-74911857D01*
X128406495Y-74911857D02*
X128454114Y-75007095D01*
X128454114Y-75007095D02*
X128454114Y-75102333D01*
X128454114Y-75102333D02*
X128406495Y-75245190D01*
X128406495Y-75245190D02*
X127835067Y-75816619D01*
X127835067Y-75816619D02*
X128454114Y-75816619D01*
X129073162Y-74816619D02*
X129168400Y-74816619D01*
X129168400Y-74816619D02*
X129263638Y-74864238D01*
X129263638Y-74864238D02*
X129311257Y-74911857D01*
X129311257Y-74911857D02*
X129358876Y-75007095D01*
X129358876Y-75007095D02*
X129406495Y-75197571D01*
X129406495Y-75197571D02*
X129406495Y-75435666D01*
X129406495Y-75435666D02*
X129358876Y-75626142D01*
X129358876Y-75626142D02*
X129311257Y-75721380D01*
X129311257Y-75721380D02*
X129263638Y-75769000D01*
X129263638Y-75769000D02*
X129168400Y-75816619D01*
X129168400Y-75816619D02*
X129073162Y-75816619D01*
X129073162Y-75816619D02*
X128977924Y-75769000D01*
X128977924Y-75769000D02*
X128930305Y-75721380D01*
X128930305Y-75721380D02*
X128882686Y-75626142D01*
X128882686Y-75626142D02*
X128835067Y-75435666D01*
X128835067Y-75435666D02*
X128835067Y-75197571D01*
X128835067Y-75197571D02*
X128882686Y-75007095D01*
X128882686Y-75007095D02*
X128930305Y-74911857D01*
X128930305Y-74911857D02*
X128977924Y-74864238D01*
X128977924Y-74864238D02*
X129073162Y-74816619D01*
%TO.C,TK*%
X176792619Y-60785713D02*
X176792619Y-60214285D01*
X177792619Y-60499999D02*
X176792619Y-60499999D01*
X177792619Y-59880951D02*
X176792619Y-59880951D01*
X177792619Y-59309523D02*
X177221190Y-59738094D01*
X176792619Y-59309523D02*
X177364047Y-59880951D01*
%TO.C,BTA*%
X126801904Y-55668809D02*
X126944761Y-55716428D01*
X126944761Y-55716428D02*
X126992380Y-55764047D01*
X126992380Y-55764047D02*
X127039999Y-55859285D01*
X127039999Y-55859285D02*
X127039999Y-56002142D01*
X127039999Y-56002142D02*
X126992380Y-56097380D01*
X126992380Y-56097380D02*
X126944761Y-56145000D01*
X126944761Y-56145000D02*
X126849523Y-56192619D01*
X126849523Y-56192619D02*
X126468571Y-56192619D01*
X126468571Y-56192619D02*
X126468571Y-55192619D01*
X126468571Y-55192619D02*
X126801904Y-55192619D01*
X126801904Y-55192619D02*
X126897142Y-55240238D01*
X126897142Y-55240238D02*
X126944761Y-55287857D01*
X126944761Y-55287857D02*
X126992380Y-55383095D01*
X126992380Y-55383095D02*
X126992380Y-55478333D01*
X126992380Y-55478333D02*
X126944761Y-55573571D01*
X126944761Y-55573571D02*
X126897142Y-55621190D01*
X126897142Y-55621190D02*
X126801904Y-55668809D01*
X126801904Y-55668809D02*
X126468571Y-55668809D01*
X127325714Y-55192619D02*
X127897142Y-55192619D01*
X127611428Y-56192619D02*
X127611428Y-55192619D01*
X128182857Y-55906904D02*
X128659047Y-55906904D01*
X128087619Y-56192619D02*
X128420952Y-55192619D01*
X128420952Y-55192619D02*
X128754285Y-56192619D01*
%TO.C,1K*%
X167527314Y-88245019D02*
X166955886Y-88245019D01*
X167241600Y-88245019D02*
X167241600Y-87245019D01*
X167241600Y-87245019D02*
X167146362Y-87387876D01*
X167146362Y-87387876D02*
X167051124Y-87483114D01*
X167051124Y-87483114D02*
X166955886Y-87530733D01*
X167955886Y-88245019D02*
X167955886Y-87245019D01*
X168527314Y-88245019D02*
X168098743Y-87673590D01*
X168527314Y-87245019D02*
X167955886Y-87816447D01*
%TO.C,H2*%
X229238095Y-126462619D02*
X229238095Y-125462619D01*
X229238095Y-125938809D02*
X229809523Y-125938809D01*
X229809523Y-126462619D02*
X229809523Y-125462619D01*
X230238095Y-125557857D02*
X230285714Y-125510238D01*
X230285714Y-125510238D02*
X230380952Y-125462619D01*
X230380952Y-125462619D02*
X230619047Y-125462619D01*
X230619047Y-125462619D02*
X230714285Y-125510238D01*
X230714285Y-125510238D02*
X230761904Y-125557857D01*
X230761904Y-125557857D02*
X230809523Y-125653095D01*
X230809523Y-125653095D02*
X230809523Y-125748333D01*
X230809523Y-125748333D02*
X230761904Y-125891190D01*
X230761904Y-125891190D02*
X230190476Y-126462619D01*
X230190476Y-126462619D02*
X230809523Y-126462619D01*
%TO.C,Heater*%
X102152723Y-65486619D02*
X102152723Y-64486619D01*
X102152723Y-64962809D02*
X102724151Y-64962809D01*
X102724151Y-65486619D02*
X102724151Y-64486619D01*
X103581294Y-65439000D02*
X103486056Y-65486619D01*
X103486056Y-65486619D02*
X103295580Y-65486619D01*
X103295580Y-65486619D02*
X103200342Y-65439000D01*
X103200342Y-65439000D02*
X103152723Y-65343761D01*
X103152723Y-65343761D02*
X103152723Y-64962809D01*
X103152723Y-64962809D02*
X103200342Y-64867571D01*
X103200342Y-64867571D02*
X103295580Y-64819952D01*
X103295580Y-64819952D02*
X103486056Y-64819952D01*
X103486056Y-64819952D02*
X103581294Y-64867571D01*
X103581294Y-64867571D02*
X103628913Y-64962809D01*
X103628913Y-64962809D02*
X103628913Y-65058047D01*
X103628913Y-65058047D02*
X103152723Y-65153285D01*
X104486056Y-65486619D02*
X104486056Y-64962809D01*
X104486056Y-64962809D02*
X104438437Y-64867571D01*
X104438437Y-64867571D02*
X104343199Y-64819952D01*
X104343199Y-64819952D02*
X104152723Y-64819952D01*
X104152723Y-64819952D02*
X104057485Y-64867571D01*
X104486056Y-65439000D02*
X104390818Y-65486619D01*
X104390818Y-65486619D02*
X104152723Y-65486619D01*
X104152723Y-65486619D02*
X104057485Y-65439000D01*
X104057485Y-65439000D02*
X104009866Y-65343761D01*
X104009866Y-65343761D02*
X104009866Y-65248523D01*
X104009866Y-65248523D02*
X104057485Y-65153285D01*
X104057485Y-65153285D02*
X104152723Y-65105666D01*
X104152723Y-65105666D02*
X104390818Y-65105666D01*
X104390818Y-65105666D02*
X104486056Y-65058047D01*
X104819390Y-64819952D02*
X105200342Y-64819952D01*
X104962247Y-64486619D02*
X104962247Y-65343761D01*
X104962247Y-65343761D02*
X105009866Y-65439000D01*
X105009866Y-65439000D02*
X105105104Y-65486619D01*
X105105104Y-65486619D02*
X105200342Y-65486619D01*
X105914628Y-65439000D02*
X105819390Y-65486619D01*
X105819390Y-65486619D02*
X105628914Y-65486619D01*
X105628914Y-65486619D02*
X105533676Y-65439000D01*
X105533676Y-65439000D02*
X105486057Y-65343761D01*
X105486057Y-65343761D02*
X105486057Y-64962809D01*
X105486057Y-64962809D02*
X105533676Y-64867571D01*
X105533676Y-64867571D02*
X105628914Y-64819952D01*
X105628914Y-64819952D02*
X105819390Y-64819952D01*
X105819390Y-64819952D02*
X105914628Y-64867571D01*
X105914628Y-64867571D02*
X105962247Y-64962809D01*
X105962247Y-64962809D02*
X105962247Y-65058047D01*
X105962247Y-65058047D02*
X105486057Y-65153285D01*
X106390819Y-65486619D02*
X106390819Y-64819952D01*
X106390819Y-65010428D02*
X106438438Y-64915190D01*
X106438438Y-64915190D02*
X106486057Y-64867571D01*
X106486057Y-64867571D02*
X106581295Y-64819952D01*
X106581295Y-64819952D02*
X106676533Y-64819952D01*
%TO.C,VIL*%
X59094810Y-106091819D02*
X59428143Y-107091819D01*
X59428143Y-107091819D02*
X59761476Y-106091819D01*
X60094810Y-107091819D02*
X60094810Y-106091819D01*
X61047190Y-107091819D02*
X60571000Y-107091819D01*
X60571000Y-107091819D02*
X60571000Y-106091819D01*
%TO.C,1K*%
X219865714Y-83092619D02*
X219294286Y-83092619D01*
X219580000Y-83092619D02*
X219580000Y-82092619D01*
X219580000Y-82092619D02*
X219484762Y-82235476D01*
X219484762Y-82235476D02*
X219389524Y-82330714D01*
X219389524Y-82330714D02*
X219294286Y-82378333D01*
X220294286Y-83092619D02*
X220294286Y-82092619D01*
X220865714Y-83092619D02*
X220437143Y-82521190D01*
X220865714Y-82092619D02*
X220294286Y-82664047D01*
X219865714Y-103092619D02*
X219294286Y-103092619D01*
X219580000Y-103092619D02*
X219580000Y-102092619D01*
X219580000Y-102092619D02*
X219484762Y-102235476D01*
X219484762Y-102235476D02*
X219389524Y-102330714D01*
X219389524Y-102330714D02*
X219294286Y-102378333D01*
X220294286Y-103092619D02*
X220294286Y-102092619D01*
X220865714Y-103092619D02*
X220437143Y-102521190D01*
X220865714Y-102092619D02*
X220294286Y-102664047D01*
%TO.C,INN*%
X81908781Y-107647019D02*
X81908781Y-106647019D01*
X82384971Y-107647019D02*
X82384971Y-106647019D01*
X82384971Y-106647019D02*
X82956399Y-107647019D01*
X82956399Y-107647019D02*
X82956399Y-106647019D01*
X83432590Y-107647019D02*
X83432590Y-106647019D01*
X83432590Y-106647019D02*
X84004018Y-107647019D01*
X84004018Y-107647019D02*
X84004018Y-106647019D01*
%TO.C,RV1*%
X211962619Y-60595238D02*
X211486428Y-60928571D01*
X211962619Y-61166666D02*
X210962619Y-61166666D01*
X210962619Y-61166666D02*
X210962619Y-60785714D01*
X210962619Y-60785714D02*
X211010238Y-60690476D01*
X211010238Y-60690476D02*
X211057857Y-60642857D01*
X211057857Y-60642857D02*
X211153095Y-60595238D01*
X211153095Y-60595238D02*
X211295952Y-60595238D01*
X211295952Y-60595238D02*
X211391190Y-60642857D01*
X211391190Y-60642857D02*
X211438809Y-60690476D01*
X211438809Y-60690476D02*
X211486428Y-60785714D01*
X211486428Y-60785714D02*
X211486428Y-61166666D01*
X210962619Y-60309523D02*
X211962619Y-59976190D01*
X211962619Y-59976190D02*
X210962619Y-59642857D01*
X211962619Y-58785714D02*
X211962619Y-59357142D01*
X211962619Y-59071428D02*
X210962619Y-59071428D01*
X210962619Y-59071428D02*
X211105476Y-59166666D01*
X211105476Y-59166666D02*
X211200714Y-59261904D01*
X211200714Y-59261904D02*
X211248333Y-59357142D01*
%TO.C,100*%
X164611133Y-72674819D02*
X164039705Y-72674819D01*
X164325419Y-72674819D02*
X164325419Y-71674819D01*
X164325419Y-71674819D02*
X164230181Y-71817676D01*
X164230181Y-71817676D02*
X164134943Y-71912914D01*
X164134943Y-71912914D02*
X164039705Y-71960533D01*
X165230181Y-71674819D02*
X165325419Y-71674819D01*
X165325419Y-71674819D02*
X165420657Y-71722438D01*
X165420657Y-71722438D02*
X165468276Y-71770057D01*
X165468276Y-71770057D02*
X165515895Y-71865295D01*
X165515895Y-71865295D02*
X165563514Y-72055771D01*
X165563514Y-72055771D02*
X165563514Y-72293866D01*
X165563514Y-72293866D02*
X165515895Y-72484342D01*
X165515895Y-72484342D02*
X165468276Y-72579580D01*
X165468276Y-72579580D02*
X165420657Y-72627200D01*
X165420657Y-72627200D02*
X165325419Y-72674819D01*
X165325419Y-72674819D02*
X165230181Y-72674819D01*
X165230181Y-72674819D02*
X165134943Y-72627200D01*
X165134943Y-72627200D02*
X165087324Y-72579580D01*
X165087324Y-72579580D02*
X165039705Y-72484342D01*
X165039705Y-72484342D02*
X164992086Y-72293866D01*
X164992086Y-72293866D02*
X164992086Y-72055771D01*
X164992086Y-72055771D02*
X165039705Y-71865295D01*
X165039705Y-71865295D02*
X165087324Y-71770057D01*
X165087324Y-71770057D02*
X165134943Y-71722438D01*
X165134943Y-71722438D02*
X165230181Y-71674819D01*
X166182562Y-71674819D02*
X166277800Y-71674819D01*
X166277800Y-71674819D02*
X166373038Y-71722438D01*
X166373038Y-71722438D02*
X166420657Y-71770057D01*
X166420657Y-71770057D02*
X166468276Y-71865295D01*
X166468276Y-71865295D02*
X166515895Y-72055771D01*
X166515895Y-72055771D02*
X166515895Y-72293866D01*
X166515895Y-72293866D02*
X166468276Y-72484342D01*
X166468276Y-72484342D02*
X166420657Y-72579580D01*
X166420657Y-72579580D02*
X166373038Y-72627200D01*
X166373038Y-72627200D02*
X166277800Y-72674819D01*
X166277800Y-72674819D02*
X166182562Y-72674819D01*
X166182562Y-72674819D02*
X166087324Y-72627200D01*
X166087324Y-72627200D02*
X166039705Y-72579580D01*
X166039705Y-72579580D02*
X165992086Y-72484342D01*
X165992086Y-72484342D02*
X165944467Y-72293866D01*
X165944467Y-72293866D02*
X165944467Y-72055771D01*
X165944467Y-72055771D02*
X165992086Y-71865295D01*
X165992086Y-71865295D02*
X166039705Y-71770057D01*
X166039705Y-71770057D02*
X166087324Y-71722438D01*
X166087324Y-71722438D02*
X166182562Y-71674819D01*
%TO.C,G\u002A\u002A\u002A*%
G36*
X89871563Y-59941328D02*
G01*
X89805313Y-60364812D01*
X89681304Y-60765990D01*
X89503270Y-61140515D01*
X89274942Y-61484039D01*
X89000054Y-61792218D01*
X88682338Y-62060703D01*
X88325527Y-62285150D01*
X87933355Y-62461210D01*
X87625166Y-62557124D01*
X87574705Y-62568844D01*
X87517923Y-62578965D01*
X87449726Y-62587644D01*
X87365019Y-62595036D01*
X87258706Y-62601299D01*
X87125692Y-62606591D01*
X86960882Y-62611067D01*
X86759181Y-62614885D01*
X86515493Y-62618202D01*
X86224723Y-62621175D01*
X85881776Y-62623960D01*
X85481557Y-62626715D01*
X85335031Y-62627650D01*
X83269079Y-62640654D01*
X83130008Y-62721773D01*
X82998993Y-62827919D01*
X82930522Y-62935947D01*
X82875988Y-63122017D01*
X82882744Y-63296592D01*
X82948185Y-63452751D01*
X83069704Y-63583568D01*
X83205019Y-63665082D01*
X83236297Y-63677982D01*
X83273213Y-63688868D01*
X83321150Y-63697915D01*
X83385492Y-63705293D01*
X83471622Y-63711176D01*
X83584924Y-63715735D01*
X83730780Y-63719143D01*
X83914575Y-63721572D01*
X84141691Y-63723194D01*
X84417512Y-63724181D01*
X84747421Y-63724706D01*
X85075381Y-63724917D01*
X86817622Y-63725621D01*
X86796365Y-63954344D01*
X86725391Y-64395558D01*
X86598310Y-64807925D01*
X86417108Y-65188534D01*
X86183776Y-65534475D01*
X85900299Y-65842839D01*
X85568668Y-66110714D01*
X85190870Y-66335191D01*
X85158865Y-66351112D01*
X84989107Y-66432040D01*
X84841237Y-66495057D01*
X84703052Y-66542515D01*
X84562349Y-66576766D01*
X84406925Y-66600162D01*
X84224576Y-66615055D01*
X84003101Y-66623795D01*
X83730296Y-66628736D01*
X83717503Y-66628895D01*
X83466303Y-66631040D01*
X83267130Y-66630130D01*
X83107998Y-66625556D01*
X82976921Y-66616709D01*
X82861910Y-66602981D01*
X82750981Y-66583762D01*
X82724565Y-66578456D01*
X82269221Y-66453502D01*
X81843001Y-66273199D01*
X81449490Y-66040951D01*
X81092278Y-65760162D01*
X80774953Y-65434235D01*
X80501102Y-65066572D01*
X80274314Y-64660578D01*
X80098177Y-64219656D01*
X80042860Y-64034830D01*
X80017385Y-63933752D01*
X79998729Y-63836949D01*
X79985867Y-63731673D01*
X79977776Y-63605179D01*
X79973431Y-63444720D01*
X79971808Y-63237550D01*
X79971693Y-63149076D01*
X79972129Y-62930139D01*
X79974367Y-62762558D01*
X79979637Y-62633632D01*
X79989164Y-62530660D01*
X80004178Y-62440941D01*
X80025905Y-62351772D01*
X80055573Y-62250454D01*
X80059928Y-62236214D01*
X80227878Y-61783342D01*
X80441766Y-61373335D01*
X80704200Y-61001874D01*
X80997511Y-60683961D01*
X81335146Y-60393848D01*
X81691197Y-60157042D01*
X82076029Y-59967988D01*
X82500005Y-59821131D01*
X82708550Y-59766805D01*
X82750315Y-59757772D01*
X82797628Y-59749706D01*
X82854273Y-59742537D01*
X82924037Y-59736196D01*
X83010706Y-59730613D01*
X83118066Y-59725717D01*
X83249903Y-59721439D01*
X83410003Y-59717710D01*
X83602152Y-59714459D01*
X83830136Y-59711617D01*
X84097742Y-59709114D01*
X84408754Y-59706880D01*
X84766960Y-59704846D01*
X85176146Y-59702941D01*
X85640096Y-59701095D01*
X86162599Y-59699240D01*
X86420780Y-59698374D01*
X89892784Y-59686873D01*
X89871563Y-59941328D01*
G37*
G36*
X92755719Y-55965355D02*
G01*
X92730681Y-56202470D01*
X92687793Y-56415425D01*
X92620812Y-56626407D01*
X92523496Y-56857606D01*
X92477148Y-56955617D01*
X92269462Y-57322409D01*
X92022527Y-57643077D01*
X91733405Y-57919992D01*
X91399155Y-58155524D01*
X91016841Y-58352044D01*
X90583523Y-58511921D01*
X90526057Y-58529320D01*
X90493807Y-58537440D01*
X90452399Y-58544763D01*
X90398306Y-58551356D01*
X90328004Y-58557284D01*
X90237967Y-58562611D01*
X90124668Y-58567403D01*
X89984582Y-58571727D01*
X89814184Y-58575646D01*
X89609948Y-58579227D01*
X89368348Y-58582535D01*
X89085858Y-58585635D01*
X88758954Y-58588592D01*
X88384108Y-58591473D01*
X87957796Y-58594342D01*
X87476492Y-58597264D01*
X86936670Y-58600306D01*
X86600227Y-58602125D01*
X86030509Y-58605196D01*
X85521143Y-58608039D01*
X85068419Y-58610733D01*
X84668628Y-58613358D01*
X84318061Y-58615993D01*
X84013011Y-58618717D01*
X83749767Y-58621609D01*
X83524622Y-58624749D01*
X83333865Y-58628216D01*
X83173790Y-58632090D01*
X83040686Y-58636450D01*
X82930845Y-58641374D01*
X82840558Y-58646943D01*
X82766116Y-58653236D01*
X82703811Y-58660332D01*
X82649933Y-58668311D01*
X82600775Y-58677251D01*
X82552626Y-58687232D01*
X82545116Y-58688855D01*
X82009301Y-58833273D01*
X81513573Y-59026231D01*
X81053877Y-59269847D01*
X80626159Y-59566237D01*
X80267237Y-59877909D01*
X79953947Y-60178116D01*
X79953947Y-59854856D01*
X79979512Y-59386547D01*
X80053664Y-58913264D01*
X80172587Y-58449304D01*
X80332464Y-58008961D01*
X80529481Y-57606531D01*
X80574874Y-57528742D01*
X80834536Y-57149031D01*
X81129906Y-56815619D01*
X81464218Y-56526328D01*
X81840708Y-56278976D01*
X82262612Y-56071383D01*
X82733165Y-55901368D01*
X83156973Y-55788609D01*
X83525321Y-55704158D01*
X88150489Y-55694157D01*
X92775656Y-55684156D01*
X92755719Y-55965355D01*
G37*
D12*
%TO.C,F1*%
X55200000Y-91741800D02*
X55200000Y-69141800D01*
X58000000Y-91741800D02*
X55200000Y-91741800D01*
X64800000Y-91741800D02*
X62000000Y-91741800D01*
X64800000Y-91741800D02*
X64800000Y-69141800D01*
X58000000Y-69141800D02*
X55200000Y-69141800D01*
X64800000Y-69141800D02*
X62000000Y-69141800D01*
%TO.C,KBPC610*%
X119047200Y-109503200D02*
X134547200Y-109503200D01*
X119147200Y-96103200D02*
X119047200Y-109503200D01*
X121147200Y-94103200D02*
X119147200Y-96103200D01*
X134547200Y-94103200D02*
X121147200Y-94103200D01*
X134547200Y-109503200D02*
X134547200Y-94103200D01*
X128797200Y-101853200D02*
G75*
G03*
X128797200Y-101853200I-1900000J0D01*
G01*
%TO.C,INTEPT*%
X78396400Y-74184400D02*
X78396400Y-81604400D01*
X78396400Y-74184400D02*
X87516400Y-74184400D01*
X78396400Y-81604400D02*
X87516400Y-81604400D01*
X81580400Y-79018400D02*
X81393400Y-79205400D01*
X81788400Y-79313400D02*
X81644400Y-79457400D01*
X84268400Y-76331400D02*
X84124400Y-76475400D01*
X84519400Y-76583400D02*
X84332400Y-76769400D01*
X87516400Y-74184400D02*
X87516400Y-81604400D01*
X85016400Y-77894400D02*
G75*
G03*
X85016400Y-77894400I-2060000J0D01*
G01*
D13*
%TO.C,OLED*%
X161600000Y-62200000D02*
X134400000Y-62200000D01*
X161600000Y-34400000D02*
X161600000Y-62200000D01*
X154350000Y-38150000D02*
X154350000Y-34400000D01*
X154350000Y-34400000D02*
X161600000Y-34400000D01*
X153080000Y-61250000D02*
X153080000Y-58750000D01*
X153080000Y-61250000D02*
X142920000Y-61250000D01*
X153080000Y-58750000D02*
X142920000Y-58750000D01*
X142920000Y-58750000D02*
X142920000Y-61250000D01*
X141500000Y-38150000D02*
X154350000Y-38150000D01*
X141500000Y-34400000D02*
X141500000Y-38150000D01*
X134400000Y-62200000D02*
X134400000Y-34400000D01*
X134400000Y-34400000D02*
X141500000Y-34400000D01*
X161020000Y-60200000D02*
G75*
G03*
X161020000Y-60200000I-1270000J0D01*
G01*
X161020000Y-36400000D02*
G75*
G03*
X161020000Y-36400000I-1270000J0D01*
G01*
X137520000Y-60200000D02*
G75*
G03*
X137520000Y-60200000I-1270000J0D01*
G01*
X137520000Y-36400000D02*
G75*
G03*
X137520000Y-36400000I-1270000J0D01*
G01*
D14*
%TO.C,U1*%
X180030000Y-50288800D02*
X191099000Y-50288800D01*
X180030000Y-50288800D02*
X208540000Y-50288800D01*
X180030000Y-101238800D02*
X180030000Y-50288800D01*
X180030000Y-101238800D02*
X180030000Y-50288800D01*
X180030000Y-101238800D02*
X185400000Y-101238800D01*
X185400000Y-101238800D02*
X203090000Y-101238800D01*
X191099000Y-50288800D02*
X197810000Y-50288800D01*
X197810000Y-50288800D02*
X208540000Y-50288800D01*
X203090000Y-101238800D02*
X208540000Y-101238800D01*
X208540000Y-50288800D02*
X208540000Y-101238800D01*
X208540000Y-50288800D02*
X208540000Y-101238800D01*
X208540000Y-101238800D02*
X180030000Y-101238800D01*
D15*
X179560000Y-60248800D02*
G75*
G03*
X179560000Y-60248800I-100000J0D01*
G01*
D12*
%TO.C,47K*%
X102208200Y-88519000D02*
X102978200Y-88519000D01*
X102978200Y-87149000D02*
X102978200Y-89889000D01*
X102978200Y-89889000D02*
X109518200Y-89889000D01*
X109518200Y-87149000D02*
X102978200Y-87149000D01*
X109518200Y-89889000D02*
X109518200Y-87149000D01*
X110288200Y-88519000D02*
X109518200Y-88519000D01*
%TO.C,INL*%
X78396400Y-91184400D02*
X78396400Y-98604400D01*
X78396400Y-91184400D02*
X87516400Y-91184400D01*
X78396400Y-98604400D02*
X87516400Y-98604400D01*
X81580400Y-96018400D02*
X81393400Y-96205400D01*
X81788400Y-96313400D02*
X81644400Y-96457400D01*
X84268400Y-93331400D02*
X84124400Y-93475400D01*
X84519400Y-93583400D02*
X84332400Y-93769400D01*
X87516400Y-91184400D02*
X87516400Y-98604400D01*
X85016400Y-94894400D02*
G75*
G03*
X85016400Y-94894400I-2060000J0D01*
G01*
D16*
%TO.C,BZ1*%
X226110000Y-95000000D02*
G75*
G03*
X226110000Y-95000000I-6400000J0D01*
G01*
D12*
%TO.C,HLK-PM01*%
X176039200Y-112200800D02*
X176039200Y-114210800D01*
X176429200Y-105600800D02*
X176429200Y-125800800D01*
X176429200Y-125800800D02*
X210629200Y-125800800D01*
X210629200Y-105600800D02*
X176429200Y-105600800D01*
X210629200Y-125800800D02*
X210629200Y-105600800D01*
D13*
%TO.C,KEY2*%
X230000000Y-81000000D02*
X230000000Y-78960000D01*
X230000000Y-76040000D02*
X230000000Y-73960000D01*
X230000000Y-71040000D02*
X230000000Y-69000000D01*
X230000000Y-69000000D02*
X218000000Y-69000000D01*
X218000000Y-81000000D02*
X230000000Y-81000000D01*
X218000000Y-78960000D02*
X218000000Y-81000000D01*
X218000000Y-73960000D02*
X218000000Y-76040000D01*
X218000000Y-69000000D02*
X218000000Y-71040000D01*
X226070000Y-75000000D02*
G75*
G03*
X226070000Y-75000000I-2070000J0D01*
G01*
X227680000Y-75000000D02*
G75*
G03*
X227680000Y-75000000I-3680000J0D01*
G01*
D12*
%TO.C,VIN*%
X55440000Y-112291800D02*
X55440000Y-119711800D01*
X55440000Y-112291800D02*
X64560000Y-112291800D01*
X55440000Y-119711800D02*
X64560000Y-119711800D01*
X58624000Y-117125800D02*
X58437000Y-117312800D01*
X58832000Y-117420800D02*
X58688000Y-117564800D01*
X61312000Y-114438800D02*
X61168000Y-114582800D01*
X61563000Y-114690800D02*
X61376000Y-114876800D01*
X64560000Y-112291800D02*
X64560000Y-119711800D01*
X62060000Y-116001800D02*
G75*
G03*
X62060000Y-116001800I-2060000J0D01*
G01*
D13*
%TO.C,KEY1*%
X230000000Y-121000000D02*
X230000000Y-118960000D01*
X230000000Y-116040000D02*
X230000000Y-113960000D01*
X230000000Y-111040000D02*
X230000000Y-109000000D01*
X230000000Y-109000000D02*
X218000000Y-109000000D01*
X218000000Y-121000000D02*
X230000000Y-121000000D01*
X218000000Y-118960000D02*
X218000000Y-121000000D01*
X218000000Y-113960000D02*
X218000000Y-116040000D01*
X218000000Y-109000000D02*
X218000000Y-111040000D01*
X226070000Y-115000000D02*
G75*
G03*
X226070000Y-115000000I-2070000J0D01*
G01*
X227680000Y-115000000D02*
G75*
G03*
X227680000Y-115000000I-3680000J0D01*
G01*
D12*
%TO.C,PC817*%
X141073200Y-100468200D02*
X141073200Y-105668200D01*
X141073200Y-105668200D02*
X146373200Y-105668200D01*
X142723200Y-100468200D02*
X141073200Y-100468200D01*
X146373200Y-100468200D02*
X144723200Y-100468200D01*
X146373200Y-105668200D02*
X146373200Y-100468200D01*
X142723200Y-100468200D02*
G75*
G03*
X144723200Y-100468200I1000000J0D01*
G01*
D11*
%TO.C,MOC3010*%
X143227400Y-80764400D02*
X143227400Y-82664400D01*
X143227400Y-84264400D02*
X143227400Y-86164400D01*
X143227400Y-86164400D02*
X152987400Y-86164400D01*
X152987400Y-80764400D02*
X143227400Y-80764400D01*
X152987400Y-86164400D02*
X152987400Y-80764400D01*
X143227400Y-84264400D02*
G75*
G03*
X143227400Y-82664400I0J800000D01*
G01*
X142777400Y-87264400D02*
G75*
G03*
X142777400Y-87264400I-70000J0D01*
G01*
D12*
%TO.C,F3*%
X130000000Y-125200000D02*
X152600000Y-125200000D01*
X130000000Y-128000000D02*
X130000000Y-125200000D01*
X130000000Y-134800000D02*
X130000000Y-132000000D01*
X130000000Y-134800000D02*
X152600000Y-134800000D01*
X152600000Y-128000000D02*
X152600000Y-125200000D01*
X152600000Y-134800000D02*
X152600000Y-132000000D01*
%TO.C,47K*%
X111075600Y-117246400D02*
X110305600Y-117246400D01*
X110305600Y-118616400D02*
X110305600Y-115876400D01*
X110305600Y-115876400D02*
X103765600Y-115876400D01*
X103765600Y-118616400D02*
X110305600Y-118616400D01*
X103765600Y-115876400D02*
X103765600Y-118616400D01*
X102995600Y-117246400D02*
X103765600Y-117246400D01*
%TO.C,220*%
X124128400Y-77724000D02*
X124898400Y-77724000D01*
X124898400Y-76354000D02*
X124898400Y-79094000D01*
X124898400Y-79094000D02*
X131438400Y-79094000D01*
X131438400Y-76354000D02*
X124898400Y-76354000D01*
X131438400Y-79094000D02*
X131438400Y-76354000D01*
X132208400Y-77724000D02*
X131438400Y-77724000D01*
%TO.C,TK*%
X176330000Y-58670000D02*
X176330000Y-60000000D01*
X175000000Y-58670000D02*
X176330000Y-58670000D01*
X173730000Y-58670000D02*
X163510000Y-58670000D01*
X173730000Y-58670000D02*
X173730000Y-61330000D01*
X163510000Y-58670000D02*
X163510000Y-61330000D01*
X173730000Y-61330000D02*
X163510000Y-61330000D01*
%TO.C,BTA*%
X122420000Y-56730000D02*
X122420000Y-61371000D01*
X122420000Y-56730000D02*
X132660000Y-56730000D01*
X122420000Y-58240000D02*
X132660000Y-58240000D01*
X122420000Y-61371000D02*
X132660000Y-61371000D01*
X125690000Y-56730000D02*
X125690000Y-58240000D01*
X129391000Y-56730000D02*
X129391000Y-58240000D01*
X132660000Y-56730000D02*
X132660000Y-61371000D01*
%TO.C,1K*%
X165632000Y-90220800D02*
X166402000Y-90220800D01*
X166402000Y-88850800D02*
X166402000Y-91590800D01*
X166402000Y-91590800D02*
X172942000Y-91590800D01*
X172942000Y-88850800D02*
X166402000Y-88850800D01*
X172942000Y-91590800D02*
X172942000Y-88850800D01*
X173712000Y-90220800D02*
X172942000Y-90220800D01*
%TO.C,Heater*%
X109423200Y-63754000D02*
X109423200Y-56134000D01*
X109423200Y-56134000D02*
X99263200Y-56134000D01*
X99263200Y-63754000D02*
X109423200Y-63754000D01*
X99263200Y-57404000D02*
X109423200Y-57404000D01*
X99263200Y-56134000D02*
X99263200Y-63754000D01*
%TO.C,VIL*%
X62060000Y-101650800D02*
G75*
G03*
X62060000Y-101650800I-2060000J0D01*
G01*
X64560000Y-97940800D02*
X64560000Y-105360800D01*
X61563000Y-100339800D02*
X61376000Y-100525800D01*
X61312000Y-100087800D02*
X61168000Y-100231800D01*
X58832000Y-103069800D02*
X58688000Y-103213800D01*
X58624000Y-102774800D02*
X58437000Y-102961800D01*
X55440000Y-105360800D02*
X64560000Y-105360800D01*
X55440000Y-97940800D02*
X64560000Y-97940800D01*
X55440000Y-97940800D02*
X55440000Y-105360800D01*
%TO.C,1K*%
X216040000Y-85000000D02*
X216810000Y-85000000D01*
X216810000Y-83630000D02*
X216810000Y-86370000D01*
X216810000Y-86370000D02*
X223350000Y-86370000D01*
X223350000Y-83630000D02*
X216810000Y-83630000D01*
X223350000Y-86370000D02*
X223350000Y-83630000D01*
X224120000Y-85000000D02*
X223350000Y-85000000D01*
X216040000Y-105000000D02*
X216810000Y-105000000D01*
X216810000Y-103630000D02*
X216810000Y-106370000D01*
X216810000Y-106370000D02*
X223350000Y-106370000D01*
X223350000Y-103630000D02*
X216810000Y-103630000D01*
X223350000Y-106370000D02*
X223350000Y-103630000D01*
X224120000Y-105000000D02*
X223350000Y-105000000D01*
%TO.C,INN*%
X78396400Y-108184400D02*
X78396400Y-115604400D01*
X78396400Y-108184400D02*
X87516400Y-108184400D01*
X78396400Y-115604400D02*
X87516400Y-115604400D01*
X81580400Y-113018400D02*
X81393400Y-113205400D01*
X81788400Y-113313400D02*
X81644400Y-113457400D01*
X84268400Y-110331400D02*
X84124400Y-110475400D01*
X84519400Y-110583400D02*
X84332400Y-110769400D01*
X87516400Y-108184400D02*
X87516400Y-115604400D01*
X85016400Y-111894400D02*
G75*
G03*
X85016400Y-111894400I-2060000J0D01*
G01*
%TO.C,RV1*%
X214880000Y-44430000D02*
X220120000Y-44430000D01*
X220120000Y-51430000D02*
X220120000Y-44430000D01*
X214880000Y-51430000D02*
X214880000Y-44430000D01*
X213880000Y-51430000D02*
X221120000Y-51430000D01*
X221120000Y-56430000D02*
X221120000Y-51430000D01*
X213880000Y-56430000D02*
X213880000Y-51430000D01*
X212630000Y-56430000D02*
X222370000Y-56430000D01*
X222370000Y-62071000D02*
X222370000Y-56430000D01*
X212630000Y-62071000D02*
X212630000Y-56430000D01*
X212630000Y-62071000D02*
X222370000Y-62071000D01*
%TO.C,100*%
X165657400Y-74701400D02*
X166427400Y-74701400D01*
X166427400Y-73331400D02*
X166427400Y-76071400D01*
X166427400Y-76071400D02*
X172967400Y-76071400D01*
X172967400Y-73331400D02*
X166427400Y-73331400D01*
X172967400Y-76071400D02*
X172967400Y-73331400D01*
X173737400Y-74701400D02*
X172967400Y-74701400D01*
%TD*%
M02*
