%TF.GenerationSoftware,KiCad,Pcbnew,7.0.1*%
%TF.CreationDate,2024-11-27T13:58:02-05:00*%
%TF.ProjectId,tfg53,74666735-332e-46b6-9963-61645f706362,rev?*%
%TF.SameCoordinates,Original*%
%TF.FileFunction,Soldermask,Top*%
%TF.FilePolarity,Negative*%
%FSLAX46Y46*%
G04 Gerber Fmt 4.6, Leading zero omitted, Abs format (unit mm)*
G04 Created by KiCad (PCBNEW 7.0.1) date 2024-11-27 13:58:02*
%MOMM*%
%LPD*%
G01*
G04 APERTURE LIST*
G04 Aperture macros list*
%AMRoundRect*
0 Rectangle with rounded corners*
0 $1 Rounding radius*
0 $2 $3 $4 $5 $6 $7 $8 $9 X,Y pos of 4 corners*
0 Add a 4 corners polygon primitive as box body*
4,1,4,$2,$3,$4,$5,$6,$7,$8,$9,$2,$3,0*
0 Add four circle primitives for the rounded corners*
1,1,$1+$1,$2,$3*
1,1,$1+$1,$4,$5*
1,1,$1+$1,$6,$7*
1,1,$1+$1,$8,$9*
0 Add four rect primitives between the rounded corners*
20,1,$1+$1,$2,$3,$4,$5,0*
20,1,$1+$1,$4,$5,$6,$7,0*
20,1,$1+$1,$6,$7,$8,$9,0*
20,1,$1+$1,$8,$9,$2,$3,0*%
G04 Aperture macros list end*
%ADD10C,3.000000*%
%ADD11C,0.800000*%
%ADD12C,6.000000*%
%ADD13R,2.600000X2.600000*%
%ADD14C,2.600000*%
%ADD15C,1.800000*%
%ADD16RoundRect,0.102000X-1.000000X-1.000000X1.000000X-1.000000X1.000000X1.000000X-1.000000X1.000000X0*%
%ADD17C,2.204000*%
%ADD18C,1.600000*%
%ADD19O,1.600000X1.600000*%
%ADD20R,1.850000X1.850000*%
%ADD21C,1.850000*%
%ADD22R,2.300000X2.000000*%
%ADD23C,2.300000*%
%ADD24C,2.500000*%
%ADD25R,1.600000X1.600000*%
%ADD26O,1.400000X1.750000*%
%ADD27R,1.700000X1.700000*%
%ADD28O,1.700000X1.700000*%
%ADD29R,1.905000X2.000000*%
%ADD30O,1.905000X2.000000*%
%ADD31R,3.000000X3.000000*%
%ADD32R,1.800000X1.800000*%
G04 APERTURE END LIST*
D10*
%TO.C,F1*%
X60000000Y-91741800D03*
X60000000Y-69141800D03*
%TD*%
D11*
%TO.C,H4*%
X57750000Y-60000000D03*
X58409010Y-58409010D03*
X58409010Y-61590990D03*
X60000000Y-57750000D03*
D12*
X60000000Y-60000000D03*
D11*
X60000000Y-62250000D03*
X61590990Y-58409010D03*
X61590990Y-61590990D03*
X62250000Y-60000000D03*
%TD*%
%TO.C,H1*%
X57750000Y-130000000D03*
X58409010Y-128409010D03*
X58409010Y-131590990D03*
X60000000Y-127750000D03*
D12*
X60000000Y-130000000D03*
D11*
X60000000Y-132250000D03*
X61590990Y-128409010D03*
X61590990Y-131590990D03*
X62250000Y-130000000D03*
%TD*%
D13*
%TO.C,KBPC610*%
X121697200Y-96653200D03*
D14*
X121697200Y-107053200D03*
X132097200Y-107053200D03*
X132097200Y-96653200D03*
%TD*%
D10*
%TO.C,INTEPT*%
X82956400Y-77894400D03*
%TD*%
D15*
%TO.C,OLED*%
X151810000Y-60000000D03*
X149270000Y-60000000D03*
X146730000Y-60000000D03*
X144190000Y-60000000D03*
%TD*%
D10*
%TO.C,U1*%
X182030000Y-52288800D03*
X182030000Y-99238800D03*
X206540000Y-52288800D03*
X206540000Y-99238800D03*
D16*
X181610000Y-60248800D03*
D17*
X181610000Y-62788800D03*
X181610000Y-65328800D03*
X181610000Y-67868800D03*
X181610000Y-70408800D03*
X181610000Y-72948800D03*
X181610000Y-75488800D03*
X181610000Y-78028800D03*
X181610000Y-80568800D03*
X181610000Y-83108800D03*
X181610000Y-85648800D03*
X181610000Y-88188800D03*
X181610000Y-90728800D03*
X181610000Y-93268800D03*
X181610000Y-95808800D03*
X207010000Y-95808800D03*
X207010000Y-93268800D03*
X207010000Y-90728800D03*
X207010000Y-88188800D03*
X207010000Y-85648800D03*
X207010000Y-83108800D03*
X207010000Y-80568800D03*
X207010000Y-78028800D03*
X207010000Y-75488800D03*
X207010000Y-72948800D03*
X207010000Y-70408800D03*
X207010000Y-67868800D03*
X207010000Y-65328800D03*
X207010000Y-62788800D03*
X207010000Y-60248800D03*
%TD*%
D18*
%TO.C,47K*%
X101168200Y-88519000D03*
D19*
X111328200Y-88519000D03*
%TD*%
D10*
%TO.C,INL*%
X82956400Y-94894400D03*
%TD*%
D20*
%TO.C,BZ1*%
X219710000Y-92500000D03*
D21*
X219710000Y-97500000D03*
%TD*%
D22*
%TO.C,HLK-PM01*%
X178829200Y-113200800D03*
D23*
X178829200Y-118200800D03*
X208229200Y-108000800D03*
X208229200Y-123400800D03*
%TD*%
D24*
%TO.C,KEY2*%
X230250000Y-72500000D03*
X217750000Y-72500000D03*
X217750000Y-77500000D03*
X230250000Y-77500000D03*
%TD*%
D10*
%TO.C,VIN*%
X60000000Y-116001800D03*
%TD*%
D24*
%TO.C,KEY1*%
X230250000Y-112500000D03*
X217750000Y-112500000D03*
X217750000Y-117500000D03*
X230250000Y-117500000D03*
%TD*%
D25*
%TO.C,PC817*%
X139913200Y-101798200D03*
D19*
X139913200Y-104338200D03*
X147533200Y-104338200D03*
X147533200Y-101798200D03*
%TD*%
D26*
%TO.C,MOC3010*%
X145567400Y-87264400D03*
X148107400Y-87264400D03*
X150647400Y-87264400D03*
X150647400Y-79664400D03*
X148107400Y-79664400D03*
X145567400Y-79664400D03*
%TD*%
D10*
%TO.C,F3*%
X130000000Y-130000000D03*
X152600000Y-130000000D03*
%TD*%
D18*
%TO.C,47K*%
X112115600Y-117246400D03*
D19*
X101955600Y-117246400D03*
%TD*%
D11*
%TO.C,H3*%
X227750000Y-60000000D03*
X228409010Y-58409010D03*
X228409010Y-61590990D03*
X230000000Y-57750000D03*
D12*
X230000000Y-60000000D03*
D11*
X230000000Y-62250000D03*
X231590990Y-58409010D03*
X231590990Y-61590990D03*
X232250000Y-60000000D03*
%TD*%
D18*
%TO.C,220*%
X123088400Y-77724000D03*
D19*
X133248400Y-77724000D03*
%TD*%
D27*
%TO.C,TK*%
X175000000Y-60000000D03*
D28*
X172460000Y-60000000D03*
X169920000Y-60000000D03*
X167380000Y-60000000D03*
X164840000Y-60000000D03*
%TD*%
D29*
%TO.C,BTA*%
X125000000Y-60000000D03*
D30*
X127540000Y-60000000D03*
X130080000Y-60000000D03*
%TD*%
D18*
%TO.C,1K*%
X164592000Y-90220800D03*
D19*
X174752000Y-90220800D03*
%TD*%
D11*
%TO.C,H2*%
X227750000Y-130000000D03*
X228409010Y-128409010D03*
X228409010Y-131590990D03*
X230000000Y-127750000D03*
D12*
X230000000Y-130000000D03*
D11*
X230000000Y-132250000D03*
X231590990Y-128409010D03*
X231590990Y-131590990D03*
X232250000Y-130000000D03*
%TD*%
D31*
%TO.C,Heater*%
X106883200Y-59944000D03*
D10*
X101803200Y-59944000D03*
%TD*%
%TO.C,VIL*%
X60000000Y-101650800D03*
%TD*%
D18*
%TO.C,1K*%
X215000000Y-85000000D03*
D19*
X225160000Y-85000000D03*
%TD*%
D18*
%TO.C,1K*%
X215000000Y-105000000D03*
D19*
X225160000Y-105000000D03*
%TD*%
D10*
%TO.C,INN*%
X82956400Y-111894400D03*
%TD*%
D32*
%TO.C,RV1*%
X220000000Y-60000000D03*
D15*
X217500000Y-60000000D03*
X215000000Y-60000000D03*
%TD*%
D18*
%TO.C,100*%
X164617400Y-74701400D03*
D19*
X174777400Y-74701400D03*
%TD*%
M02*
