%TF.GenerationSoftware,KiCad,Pcbnew,7.0.1*%
%TF.CreationDate,2024-11-26T18:11:55-05:00*%
%TF.ProjectId,tfg53,74666735-332e-46b6-9963-61645f706362,rev?*%
%TF.SameCoordinates,Original*%
%TF.FileFunction,Copper,L2,Bot*%
%TF.FilePolarity,Positive*%
%FSLAX46Y46*%
G04 Gerber Fmt 4.6, Leading zero omitted, Abs format (unit mm)*
G04 Created by KiCad (PCBNEW 7.0.1) date 2024-11-26 18:11:55*
%MOMM*%
%LPD*%
G01*
G04 APERTURE LIST*
%TA.AperFunction,ComponentPad*%
%ADD10C,3.000000*%
%TD*%
%TA.AperFunction,ComponentPad*%
%ADD11C,0.800000*%
%TD*%
%TA.AperFunction,ComponentPad*%
%ADD12C,6.000000*%
%TD*%
%TA.AperFunction,ComponentPad*%
%ADD13R,2.600000X2.600000*%
%TD*%
%TA.AperFunction,ComponentPad*%
%ADD14C,2.600000*%
%TD*%
%TA.AperFunction,ComponentPad*%
%ADD15C,1.800000*%
%TD*%
%TA.AperFunction,ComponentPad*%
%ADD16R,2.000000X2.000000*%
%TD*%
%TA.AperFunction,ComponentPad*%
%ADD17C,2.000000*%
%TD*%
%TA.AperFunction,ComponentPad*%
%ADD18C,1.600000*%
%TD*%
%TA.AperFunction,ComponentPad*%
%ADD19O,1.600000X1.600000*%
%TD*%
%TA.AperFunction,ComponentPad*%
%ADD20R,1.850000X1.850000*%
%TD*%
%TA.AperFunction,ComponentPad*%
%ADD21C,1.850000*%
%TD*%
%TA.AperFunction,ComponentPad*%
%ADD22R,2.300000X2.000000*%
%TD*%
%TA.AperFunction,ComponentPad*%
%ADD23C,2.300000*%
%TD*%
%TA.AperFunction,ComponentPad*%
%ADD24C,2.500000*%
%TD*%
%TA.AperFunction,ComponentPad*%
%ADD25R,1.600000X1.600000*%
%TD*%
%TA.AperFunction,ComponentPad*%
%ADD26O,1.400000X1.750000*%
%TD*%
%TA.AperFunction,ComponentPad*%
%ADD27R,1.700000X1.700000*%
%TD*%
%TA.AperFunction,ComponentPad*%
%ADD28O,1.700000X1.700000*%
%TD*%
%TA.AperFunction,ComponentPad*%
%ADD29R,1.905000X2.000000*%
%TD*%
%TA.AperFunction,ComponentPad*%
%ADD30O,1.905000X2.000000*%
%TD*%
%TA.AperFunction,ComponentPad*%
%ADD31R,3.000000X3.000000*%
%TD*%
%TA.AperFunction,ComponentPad*%
%ADD32R,1.800000X1.800000*%
%TD*%
%TA.AperFunction,ViaPad*%
%ADD33C,0.800000*%
%TD*%
%TA.AperFunction,Conductor*%
%ADD34C,0.508000*%
%TD*%
%TA.AperFunction,Conductor*%
%ADD35C,1.000000*%
%TD*%
%TA.AperFunction,Conductor*%
%ADD36C,3.000000*%
%TD*%
G04 APERTURE END LIST*
D10*
%TO.P,F1,1*%
%TO.N,Net-(J5-Pin_1)*%
X60000000Y-91741800D03*
%TO.P,F1,2*%
%TO.N,Net-(J6-Pin_1)*%
X60000000Y-69141800D03*
%TD*%
D11*
%TO.P,H4,1*%
%TO.N,N/C*%
X57750000Y-60000000D03*
X58409010Y-58409010D03*
X58409010Y-61590990D03*
X60000000Y-57750000D03*
D12*
X60000000Y-60000000D03*
D11*
X60000000Y-62250000D03*
X61590990Y-58409010D03*
X61590990Y-61590990D03*
X62250000Y-60000000D03*
%TD*%
%TO.P,H1,1*%
%TO.N,N/C*%
X57750000Y-130000000D03*
X58409010Y-128409010D03*
X58409010Y-131590990D03*
X60000000Y-127750000D03*
D12*
X60000000Y-130000000D03*
D11*
X60000000Y-132250000D03*
X61590990Y-128409010D03*
X61590990Y-131590990D03*
X62250000Y-130000000D03*
%TD*%
D13*
%TO.P,KBPC610,1,+*%
%TO.N,Net-(D1-+)*%
X121697200Y-96653200D03*
D14*
%TO.P,KBPC610,2*%
%TO.N,Net-(D1-Pad2)*%
X121697200Y-107053200D03*
%TO.P,KBPC610,3,-*%
%TO.N,Net-(D1--)*%
X132097200Y-107053200D03*
%TO.P,KBPC610,4*%
%TO.N,Net-(D1-Pad4)*%
X132097200Y-96653200D03*
%TD*%
D10*
%TO.P,INTEPT,1,Pin_1*%
%TO.N,Net-(J6-Pin_1)*%
X82956400Y-77894400D03*
%TD*%
D15*
%TO.P,OLED,1,GND*%
%TO.N,GND*%
X151810000Y-60000000D03*
%TO.P,OLED,2,VCC*%
%TO.N,3v3*%
X149270000Y-60000000D03*
%TO.P,OLED,3,SCL*%
%TO.N,SLC*%
X146730000Y-60000000D03*
%TO.P,OLED,4,SDA*%
%TO.N,SDA*%
X144190000Y-60000000D03*
%TD*%
D16*
%TO.P,U1,1,3V3*%
%TO.N,3v3*%
X181610000Y-60248800D03*
D17*
%TO.P,U1,2,GND*%
%TO.N,GND*%
X181610000Y-62788800D03*
%TO.P,U1,3,D15*%
%TO.N,unconnected-(U1-D15-Pad3)*%
X181610000Y-65328800D03*
%TO.P,U1,4,D2*%
%TO.N,unconnected-(U1-D2-Pad4)*%
X181610000Y-67868800D03*
%TO.P,U1,5,D4*%
%TO.N,GPIO 4*%
X181610000Y-70408800D03*
%TO.P,U1,6,RX2*%
%TO.N,unconnected-(U1-RX2-Pad6)*%
X181610000Y-72948800D03*
%TO.P,U1,7,TX2*%
%TO.N,unconnected-(U1-TX2-Pad7)*%
X181610000Y-75488800D03*
%TO.P,U1,8,D5*%
%TO.N,CS*%
X181610000Y-78028800D03*
%TO.P,U1,9,D18*%
%TO.N,SCK*%
X181610000Y-80568800D03*
%TO.P,U1,10,D19*%
%TO.N,GPIO 19*%
X181610000Y-83108800D03*
%TO.P,U1,11,D21*%
%TO.N,SDA*%
X181610000Y-85648800D03*
%TO.P,U1,12,RX0*%
%TO.N,unconnected-(U1-RX0-Pad12)*%
X181610000Y-88188800D03*
%TO.P,U1,13,TX0*%
%TO.N,unconnected-(U1-TX0-Pad13)*%
X181610000Y-90728800D03*
%TO.P,U1,14,D22*%
%TO.N,SLC*%
X181610000Y-93268800D03*
%TO.P,U1,15,D23*%
%TO.N,SO*%
X181610000Y-95808800D03*
%TO.P,U1,16,EN*%
%TO.N,unconnected-(U1-EN-Pad16)*%
X207010000Y-95808800D03*
%TO.P,U1,17,VP*%
%TO.N,unconnected-(U1-VP-Pad17)*%
X207010000Y-93268800D03*
%TO.P,U1,18,VN*%
%TO.N,unconnected-(U1-VN-Pad18)*%
X207010000Y-90728800D03*
%TO.P,U1,19,D34*%
%TO.N,unconnected-(U1-D34-Pad19)*%
X207010000Y-88188800D03*
%TO.P,U1,20,D35*%
%TO.N,SOUND*%
X207010000Y-85648800D03*
%TO.P,U1,21,D32*%
%TO.N,GPIO 32*%
X207010000Y-83108800D03*
%TO.P,U1,22,D33*%
%TO.N,GPIO 33*%
X207010000Y-80568800D03*
%TO.P,U1,23,D25*%
%TO.N,unconnected-(U1-D25-Pad23)*%
X207010000Y-78028800D03*
%TO.P,U1,24,D26*%
%TO.N,unconnected-(U1-D26-Pad24)*%
X207010000Y-75488800D03*
%TO.P,U1,25,D27*%
%TO.N,GPIO 27*%
X207010000Y-72948800D03*
%TO.P,U1,26,D14*%
%TO.N,unconnected-(U1-D14-Pad26)*%
X207010000Y-70408800D03*
%TO.P,U1,27,D12*%
%TO.N,unconnected-(U1-D12-Pad27)*%
X207010000Y-67868800D03*
%TO.P,U1,28,D13*%
%TO.N,unconnected-(U1-D13-Pad28)*%
X207010000Y-65328800D03*
%TO.P,U1,29,GND*%
%TO.N,GND*%
X207010000Y-62788800D03*
%TO.P,U1,30,VIN*%
%TO.N,+5V*%
X207010000Y-60248800D03*
%TD*%
D18*
%TO.P,47K,1*%
%TO.N,L*%
X101168200Y-88519000D03*
D19*
%TO.P,47K,2*%
%TO.N,Net-(D1-Pad4)*%
X111328200Y-88519000D03*
%TD*%
D10*
%TO.P,INL,1,Pin_1*%
%TO.N,L*%
X82956400Y-94894400D03*
%TD*%
D20*
%TO.P,BZ1,1*%
%TO.N,SOUND*%
X219710000Y-92500000D03*
D21*
%TO.P,BZ1,2*%
%TO.N,GND*%
X219710000Y-97500000D03*
%TD*%
D22*
%TO.P,HLK-PM01,1,AC/L*%
%TO.N,Net-(PS1-AC{slash}L)*%
X178829200Y-113200800D03*
D23*
%TO.P,HLK-PM01,2,AC/N*%
%TO.N,N*%
X178829200Y-118200800D03*
%TO.P,HLK-PM01,3,-Vout*%
%TO.N,GND*%
X208229200Y-108000800D03*
%TO.P,HLK-PM01,4,+Vout*%
%TO.N,+5V*%
X208229200Y-123400800D03*
%TD*%
D24*
%TO.P,KEY2,1,1*%
%TO.N,unconnected-(KEY2-Pad1)*%
X230250000Y-72500000D03*
%TO.P,KEY2,2,2*%
%TO.N,GPIO 33*%
X217750000Y-72500000D03*
%TO.P,KEY2,3,3*%
%TO.N,unconnected-(KEY2-Pad3)*%
X217750000Y-77500000D03*
%TO.P,KEY2,4,4*%
%TO.N,3v3*%
X230250000Y-77500000D03*
%TD*%
D10*
%TO.P,VIN,1,Pin_1*%
%TO.N,N*%
X60000000Y-116001800D03*
%TD*%
D24*
%TO.P,KEY1,1,1*%
%TO.N,unconnected-(KEY1-Pad1)*%
X230250000Y-112500000D03*
%TO.P,KEY1,2,2*%
%TO.N,GPIO 32*%
X217750000Y-112500000D03*
%TO.P,KEY1,3,3*%
%TO.N,unconnected-(KEY1-Pad3)*%
X217750000Y-117500000D03*
%TO.P,KEY1,4,4*%
%TO.N,3v3*%
X230250000Y-117500000D03*
%TD*%
D25*
%TO.P,PC817,1*%
%TO.N,Net-(D1-+)*%
X139913200Y-101798200D03*
D19*
%TO.P,PC817,2*%
%TO.N,Net-(D1--)*%
X139913200Y-104338200D03*
%TO.P,PC817,3*%
%TO.N,GPIO 19*%
X147533200Y-104338200D03*
%TO.P,PC817,4*%
%TO.N,3v3*%
X147533200Y-101798200D03*
%TD*%
D26*
%TO.P,MOC3010,1,1*%
%TO.N,Net-(R7-Pad1)*%
X145567400Y-87264400D03*
%TO.P,MOC3010,2,2*%
%TO.N,GND*%
X148107400Y-87264400D03*
%TO.P,MOC3010,3,NC*%
%TO.N,unconnected-(U4-NC-Pad3)*%
X150647400Y-87264400D03*
%TO.P,MOC3010,4,4*%
%TO.N,Net-(Q1-G)*%
X150647400Y-79664400D03*
%TO.P,MOC3010,5,DNC*%
%TO.N,unconnected-(U4-DNC-Pad5)*%
X148107400Y-79664400D03*
%TO.P,MOC3010,6,6*%
%TO.N,Net-(R6-Pad2)*%
X145567400Y-79664400D03*
%TD*%
D10*
%TO.P,F3,1*%
%TO.N,L*%
X130000000Y-130000000D03*
%TO.P,F3,2*%
%TO.N,Net-(PS1-AC{slash}L)*%
X152600000Y-130000000D03*
%TD*%
D18*
%TO.P,47K,1*%
%TO.N,Net-(D1-Pad2)*%
X112115600Y-117246400D03*
D19*
%TO.P,47K,2*%
%TO.N,N*%
X101955600Y-117246400D03*
%TD*%
D11*
%TO.P,H3,1*%
%TO.N,N/C*%
X227750000Y-60000000D03*
X228409010Y-58409010D03*
X228409010Y-61590990D03*
X230000000Y-57750000D03*
D12*
X230000000Y-60000000D03*
D11*
X230000000Y-62250000D03*
X231590990Y-58409010D03*
X231590990Y-61590990D03*
X232250000Y-60000000D03*
%TD*%
D18*
%TO.P,220,1*%
%TO.N,L*%
X123088400Y-77724000D03*
D19*
%TO.P,220,2*%
%TO.N,Net-(R6-Pad2)*%
X133248400Y-77724000D03*
%TD*%
D27*
%TO.P,TK,1,Pin_1*%
%TO.N,SO*%
X175000000Y-60000000D03*
D28*
%TO.P,TK,2,Pin_2*%
%TO.N,CS*%
X172460000Y-60000000D03*
%TO.P,TK,3,Pin_3*%
%TO.N,SCK*%
X169920000Y-60000000D03*
%TO.P,TK,4,Pin_4*%
%TO.N,3v3*%
X167380000Y-60000000D03*
%TO.P,TK,5,Pin_5*%
%TO.N,GND*%
X164840000Y-60000000D03*
%TD*%
D29*
%TO.P,BTA,1,A1*%
%TO.N,Net-(Q1-A1)*%
X125000000Y-60000000D03*
D30*
%TO.P,BTA,2,A2*%
%TO.N,L*%
X127540000Y-60000000D03*
%TO.P,BTA,3,G*%
%TO.N,Net-(Q1-G)*%
X130080000Y-60000000D03*
%TD*%
D18*
%TO.P,1K,1*%
%TO.N,GND*%
X164592000Y-90220800D03*
D19*
%TO.P,1K,2*%
%TO.N,GPIO 19*%
X174752000Y-90220800D03*
%TD*%
D11*
%TO.P,H2,1*%
%TO.N,N/C*%
X227750000Y-130000000D03*
X228409010Y-128409010D03*
X228409010Y-131590990D03*
X230000000Y-127750000D03*
D12*
X230000000Y-130000000D03*
D11*
X230000000Y-132250000D03*
X231590990Y-128409010D03*
X231590990Y-131590990D03*
X232250000Y-130000000D03*
%TD*%
D31*
%TO.P,Heater,1*%
%TO.N,Net-(Q1-A1)*%
X106883200Y-59944000D03*
D10*
%TO.P,Heater,2*%
%TO.N,N*%
X101803200Y-59944000D03*
%TD*%
%TO.P,VIL,1,Pin_1*%
%TO.N,Net-(J5-Pin_1)*%
X60000000Y-101650800D03*
%TD*%
D18*
%TO.P,1K,1*%
%TO.N,GPIO 33*%
X215000000Y-85000000D03*
D19*
%TO.P,1K,2*%
%TO.N,GND*%
X225160000Y-85000000D03*
%TD*%
D18*
%TO.P,1K,1*%
%TO.N,GPIO 32*%
X215000000Y-105000000D03*
D19*
%TO.P,1K,2*%
%TO.N,GND*%
X225160000Y-105000000D03*
%TD*%
D10*
%TO.P,INN,1,Pin_1*%
%TO.N,N*%
X82956400Y-111894400D03*
%TD*%
D32*
%TO.P,RV1,1,1*%
%TO.N,GND*%
X220000000Y-60000000D03*
D15*
%TO.P,RV1,2,2*%
%TO.N,GPIO 27*%
X217500000Y-60000000D03*
%TO.P,RV1,3,3*%
%TO.N,3v3*%
X215000000Y-60000000D03*
%TD*%
D18*
%TO.P,100,1*%
%TO.N,Net-(R7-Pad1)*%
X164617400Y-74701400D03*
D19*
%TO.P,100,2*%
%TO.N,GPIO 4*%
X174777400Y-74701400D03*
%TD*%
D33*
%TO.N,SDA*%
X160553400Y-70104000D03*
%TO.N,SO*%
X189788800Y-67335400D03*
%TD*%
D34*
%TO.N,SO*%
X189788800Y-60782200D02*
X189788800Y-67335400D01*
X185191400Y-56184800D02*
X178815200Y-56184800D01*
X189788800Y-60782200D02*
X185191400Y-56184800D01*
X178815200Y-56184800D02*
X175000000Y-60000000D01*
D35*
%TO.N,Net-(D1-Pad2)*%
X116484400Y-117246400D02*
X121697200Y-112033600D01*
X112115600Y-117246400D02*
X116484400Y-117246400D01*
X121697200Y-112033600D02*
X121697200Y-107053200D01*
D34*
%TO.N,SDA*%
X174879000Y-85648800D02*
X181610000Y-85648800D01*
X169214800Y-79984600D02*
X174879000Y-85648800D01*
X166573200Y-70104000D02*
X169214800Y-72745600D01*
X160553400Y-70104000D02*
X166573200Y-70104000D01*
X169214800Y-72745600D02*
X169214800Y-79984600D01*
D35*
%TO.N,N*%
X132243200Y-118200800D02*
X178829200Y-118200800D01*
D36*
X92430600Y-102420200D02*
X92430600Y-69316600D01*
D35*
X101955600Y-121208800D02*
X107924600Y-127177800D01*
X123266200Y-127177800D02*
X132243200Y-118200800D01*
X101955600Y-117246400D02*
X101955600Y-121208800D01*
X107924600Y-127177800D02*
X123266200Y-127177800D01*
D36*
X82956400Y-111894400D02*
X92430600Y-102420200D01*
X92430600Y-69316600D02*
X101803200Y-59944000D01*
D34*
%TO.N,GPIO 32*%
X215000000Y-91098800D02*
X207010000Y-83108800D01*
X215000000Y-105000000D02*
X215000000Y-91098800D01*
%TO.N,SLC*%
X158775400Y-74599800D02*
X150241000Y-74599800D01*
X171881800Y-93268800D02*
X169951400Y-91338400D01*
X169951400Y-91338400D02*
X169951400Y-85775800D01*
X181610000Y-93268800D02*
X171881800Y-93268800D01*
X169951400Y-85775800D02*
X158775400Y-74599800D01*
X146730000Y-71088800D02*
X146730000Y-60000000D01*
X150241000Y-74599800D02*
X146730000Y-71088800D01*
%TD*%
%TA.AperFunction,Conductor*%
%TO.N,3v3*%
G36*
X233643675Y-55871148D02*
G01*
X233689045Y-55916377D01*
X233705786Y-55978213D01*
X233716832Y-59514420D01*
X233701960Y-59573691D01*
X233660585Y-59618661D01*
X233602755Y-59638409D01*
X233542515Y-59628139D01*
X233494496Y-59590344D01*
X233470360Y-59534205D01*
X233428706Y-59271211D01*
X233416168Y-59224417D01*
X233333742Y-58916801D01*
X233202255Y-58574264D01*
X233035682Y-58247348D01*
X233035679Y-58247343D01*
X232835853Y-57939636D01*
X232758883Y-57844587D01*
X232604949Y-57654494D01*
X232345506Y-57395051D01*
X232202936Y-57279600D01*
X232060363Y-57164146D01*
X231752656Y-56964320D01*
X231425735Y-56797744D01*
X231083200Y-56666258D01*
X230728788Y-56571293D01*
X230366406Y-56513897D01*
X230000000Y-56494696D01*
X229633593Y-56513897D01*
X229271211Y-56571293D01*
X228916799Y-56666258D01*
X228574264Y-56797744D01*
X228247343Y-56964320D01*
X227939636Y-57164146D01*
X227654490Y-57395054D01*
X227395054Y-57654490D01*
X227164146Y-57939636D01*
X226964320Y-58247343D01*
X226797744Y-58574264D01*
X226666258Y-58916799D01*
X226571293Y-59271211D01*
X226513897Y-59633593D01*
X226494696Y-59999999D01*
X226513897Y-60366406D01*
X226571293Y-60728788D01*
X226666258Y-61083200D01*
X226797744Y-61425735D01*
X226964320Y-61752656D01*
X227164146Y-62060363D01*
X227279600Y-62202936D01*
X227395051Y-62345506D01*
X227654494Y-62604949D01*
X227844587Y-62758883D01*
X227939636Y-62835853D01*
X228247343Y-63035679D01*
X228247348Y-63035682D01*
X228574264Y-63202255D01*
X228916801Y-63333742D01*
X229271206Y-63428705D01*
X229271209Y-63428705D01*
X229271211Y-63428706D01*
X229633593Y-63486102D01*
X229683373Y-63488710D01*
X230000000Y-63505304D01*
X230331645Y-63487923D01*
X230366406Y-63486102D01*
X230728788Y-63428706D01*
X230728788Y-63428705D01*
X230728794Y-63428705D01*
X231083199Y-63333742D01*
X231425736Y-63202255D01*
X231752652Y-63035682D01*
X232060366Y-62835851D01*
X232345506Y-62604949D01*
X232604949Y-62345506D01*
X232835851Y-62060366D01*
X233035682Y-61752652D01*
X233202255Y-61425736D01*
X233333742Y-61083199D01*
X233428705Y-60728794D01*
X233444576Y-60628588D01*
X233473333Y-60447026D01*
X233497391Y-60390989D01*
X233545253Y-60353197D01*
X233605342Y-60342791D01*
X233663124Y-60362288D01*
X233704625Y-60406973D01*
X233719805Y-60466037D01*
X233908197Y-120775171D01*
X233890984Y-120838587D01*
X233843784Y-120884303D01*
X233779850Y-120899482D01*
X232922462Y-120869398D01*
X232460800Y-120853200D01*
X232460793Y-120853200D01*
X211198588Y-120853200D01*
X211136419Y-120836489D01*
X211091006Y-120790861D01*
X211074589Y-120728614D01*
X211081578Y-119250500D01*
X211089855Y-117499999D01*
X215994591Y-117499999D01*
X216014197Y-117761627D01*
X216072580Y-118017418D01*
X216084785Y-118048515D01*
X216168432Y-118261643D01*
X216299614Y-118488857D01*
X216463195Y-118693981D01*
X216463197Y-118693983D01*
X216463198Y-118693984D01*
X216655514Y-118872428D01*
X216655520Y-118872432D01*
X216655521Y-118872433D01*
X216872296Y-119020228D01*
X217108677Y-119134063D01*
X217359385Y-119211396D01*
X217618818Y-119250500D01*
X217881182Y-119250500D01*
X218140615Y-119211396D01*
X218391323Y-119134063D01*
X218627704Y-119020228D01*
X218844479Y-118872433D01*
X218844482Y-118872429D01*
X218844485Y-118872428D01*
X219016943Y-118712410D01*
X219036805Y-118693981D01*
X219200386Y-118488857D01*
X219331568Y-118261643D01*
X219427420Y-118017416D01*
X219485802Y-117761630D01*
X219505408Y-117500000D01*
X219485802Y-117238370D01*
X219427420Y-116982584D01*
X219331568Y-116738357D01*
X219200386Y-116511143D01*
X219036805Y-116306019D01*
X219036801Y-116306015D01*
X218844485Y-116127571D01*
X218827170Y-116115766D01*
X218627704Y-115979772D01*
X218391323Y-115865937D01*
X218140615Y-115788604D01*
X217881182Y-115749500D01*
X217618818Y-115749500D01*
X217359385Y-115788604D01*
X217108677Y-115865937D01*
X216872296Y-115979772D01*
X216802922Y-116027070D01*
X216655514Y-116127571D01*
X216463198Y-116306015D01*
X216299613Y-116511143D01*
X216168431Y-116738358D01*
X216072580Y-116982581D01*
X216014197Y-117238372D01*
X215994591Y-117499999D01*
X211089855Y-117499999D01*
X211113495Y-112499999D01*
X215994591Y-112499999D01*
X216014197Y-112761627D01*
X216072580Y-113017418D01*
X216168431Y-113261641D01*
X216168432Y-113261643D01*
X216299614Y-113488857D01*
X216463195Y-113693981D01*
X216463197Y-113693983D01*
X216463198Y-113693984D01*
X216655514Y-113872428D01*
X216655520Y-113872432D01*
X216655521Y-113872433D01*
X216872296Y-114020228D01*
X217108677Y-114134063D01*
X217359385Y-114211396D01*
X217618818Y-114250500D01*
X217881182Y-114250500D01*
X218140615Y-114211396D01*
X218391323Y-114134063D01*
X218627704Y-114020228D01*
X218844479Y-113872433D01*
X218844482Y-113872429D01*
X218844485Y-113872428D01*
X218929792Y-113793273D01*
X219036805Y-113693981D01*
X219200386Y-113488857D01*
X219331568Y-113261643D01*
X219427420Y-113017416D01*
X219485802Y-112761630D01*
X219505408Y-112500000D01*
X219505408Y-112499999D01*
X228494591Y-112499999D01*
X228514197Y-112761627D01*
X228572580Y-113017418D01*
X228668431Y-113261641D01*
X228668432Y-113261643D01*
X228799614Y-113488857D01*
X228963195Y-113693981D01*
X228963197Y-113693983D01*
X228963198Y-113693984D01*
X229155514Y-113872428D01*
X229155520Y-113872432D01*
X229155521Y-113872433D01*
X229372296Y-114020228D01*
X229608677Y-114134063D01*
X229859385Y-114211396D01*
X230118818Y-114250500D01*
X230381182Y-114250500D01*
X230640615Y-114211396D01*
X230891323Y-114134063D01*
X231127704Y-114020228D01*
X231344479Y-113872433D01*
X231344482Y-113872429D01*
X231344485Y-113872428D01*
X231429792Y-113793273D01*
X231536805Y-113693981D01*
X231700386Y-113488857D01*
X231831568Y-113261643D01*
X231927420Y-113017416D01*
X231985802Y-112761630D01*
X232005408Y-112500000D01*
X231985802Y-112238370D01*
X231927420Y-111982584D01*
X231831568Y-111738357D01*
X231700386Y-111511143D01*
X231536805Y-111306019D01*
X231536801Y-111306015D01*
X231344485Y-111127571D01*
X231327170Y-111115766D01*
X231127704Y-110979772D01*
X230891323Y-110865937D01*
X230640615Y-110788604D01*
X230381182Y-110749500D01*
X230118818Y-110749500D01*
X229859385Y-110788604D01*
X229608677Y-110865937D01*
X229372296Y-110979772D01*
X229302922Y-111027070D01*
X229155514Y-111127571D01*
X228963198Y-111306015D01*
X228799613Y-111511143D01*
X228668431Y-111738358D01*
X228572580Y-111982581D01*
X228514197Y-112238372D01*
X228494591Y-112499999D01*
X219505408Y-112499999D01*
X219485802Y-112238370D01*
X219427420Y-111982584D01*
X219331568Y-111738357D01*
X219200386Y-111511143D01*
X219036805Y-111306019D01*
X219036801Y-111306015D01*
X218844485Y-111127571D01*
X218827170Y-111115766D01*
X218627704Y-110979772D01*
X218391323Y-110865937D01*
X218140615Y-110788604D01*
X217881182Y-110749500D01*
X217618818Y-110749500D01*
X217359385Y-110788604D01*
X217108677Y-110865937D01*
X216872296Y-110979772D01*
X216802922Y-111027070D01*
X216655514Y-111127571D01*
X216463198Y-111306015D01*
X216299613Y-111511143D01*
X216168431Y-111738358D01*
X216072580Y-111982581D01*
X216014197Y-112238372D01*
X215994591Y-112499999D01*
X211113495Y-112499999D01*
X211124800Y-110109000D01*
X211124798Y-110109000D01*
X142490859Y-110159708D01*
X142428887Y-110143164D01*
X142383473Y-110097869D01*
X142366767Y-110035943D01*
X142362950Y-108000799D01*
X206573596Y-108000799D01*
X206593979Y-108259795D01*
X206654626Y-108512410D01*
X206714630Y-108657270D01*
X206754046Y-108752428D01*
X206889788Y-108973940D01*
X206889790Y-108973943D01*
X206956767Y-109052363D01*
X207058511Y-109171489D01*
X207256060Y-109340212D01*
X207477572Y-109475954D01*
X207657585Y-109550518D01*
X207717589Y-109575373D01*
X207797397Y-109594533D01*
X207970206Y-109636021D01*
X208229200Y-109656404D01*
X208488194Y-109636021D01*
X208740810Y-109575373D01*
X208980828Y-109475954D01*
X209202340Y-109340212D01*
X209399889Y-109171489D01*
X209568612Y-108973940D01*
X209704354Y-108752428D01*
X209803773Y-108512410D01*
X209864421Y-108259794D01*
X209884804Y-108000800D01*
X209864421Y-107741806D01*
X209803773Y-107489190D01*
X209704354Y-107249172D01*
X209568612Y-107027660D01*
X209399889Y-106830111D01*
X209280763Y-106728367D01*
X209202343Y-106661390D01*
X209202340Y-106661388D01*
X208980828Y-106525646D01*
X208885670Y-106486230D01*
X208740810Y-106426226D01*
X208488195Y-106365579D01*
X208229200Y-106345196D01*
X207970204Y-106365579D01*
X207717589Y-106426226D01*
X207512724Y-106511085D01*
X207477572Y-106525646D01*
X207333559Y-106613896D01*
X207256056Y-106661390D01*
X207058511Y-106830111D01*
X206889790Y-107027656D01*
X206889788Y-107027660D01*
X206754046Y-107249172D01*
X206754045Y-107249175D01*
X206654626Y-107489189D01*
X206593979Y-107741804D01*
X206573596Y-108000799D01*
X142362950Y-108000799D01*
X142356082Y-104338199D01*
X146227731Y-104338199D01*
X146247564Y-104564889D01*
X146306461Y-104784697D01*
X146402632Y-104990935D01*
X146533153Y-105177340D01*
X146694059Y-105338246D01*
X146880464Y-105468767D01*
X146880465Y-105468767D01*
X146880466Y-105468768D01*
X147086704Y-105564939D01*
X147306508Y-105623835D01*
X147533200Y-105643668D01*
X147759892Y-105623835D01*
X147979696Y-105564939D01*
X148185934Y-105468768D01*
X148372339Y-105338247D01*
X148533247Y-105177339D01*
X148663768Y-104990934D01*
X148759939Y-104784696D01*
X148818835Y-104564892D01*
X148838668Y-104338200D01*
X148818835Y-104111508D01*
X148759939Y-103891704D01*
X148663768Y-103685466D01*
X148533247Y-103499061D01*
X148533246Y-103499059D01*
X148372340Y-103338153D01*
X148185935Y-103207632D01*
X147979697Y-103111461D01*
X147759889Y-103052564D01*
X147533200Y-103032731D01*
X147306510Y-103052564D01*
X147086702Y-103111461D01*
X146880464Y-103207632D01*
X146694059Y-103338153D01*
X146533153Y-103499059D01*
X146402632Y-103685464D01*
X146306461Y-103891702D01*
X146247564Y-104111510D01*
X146227731Y-104338199D01*
X142356082Y-104338199D01*
X142329608Y-90220799D01*
X163286531Y-90220799D01*
X163306364Y-90447489D01*
X163365261Y-90667297D01*
X163461432Y-90873535D01*
X163591953Y-91059940D01*
X163752859Y-91220846D01*
X163939264Y-91351367D01*
X163939265Y-91351367D01*
X163939266Y-91351368D01*
X164145504Y-91447539D01*
X164365308Y-91506435D01*
X164516435Y-91519656D01*
X164591999Y-91526268D01*
X164591999Y-91526267D01*
X164592000Y-91526268D01*
X164818692Y-91506435D01*
X165038496Y-91447539D01*
X165244734Y-91351368D01*
X165431139Y-91220847D01*
X165592047Y-91059939D01*
X165722568Y-90873534D01*
X165818739Y-90667296D01*
X165877635Y-90447492D01*
X165897468Y-90220800D01*
X165877635Y-89994108D01*
X165818739Y-89774304D01*
X165722568Y-89568066D01*
X165592047Y-89381661D01*
X165592046Y-89381659D01*
X165431140Y-89220753D01*
X165244735Y-89090232D01*
X165038497Y-88994061D01*
X164818689Y-88935164D01*
X164592000Y-88915331D01*
X164365310Y-88935164D01*
X164145502Y-88994061D01*
X163939264Y-89090232D01*
X163752859Y-89220753D01*
X163591953Y-89381659D01*
X163461432Y-89568064D01*
X163365261Y-89774302D01*
X163306364Y-89994110D01*
X163286531Y-90220799D01*
X142329608Y-90220799D01*
X142324496Y-87494904D01*
X144366900Y-87494904D01*
X144382284Y-87660937D01*
X144443169Y-87874926D01*
X144542341Y-88074088D01*
X144676419Y-88251637D01*
X144840837Y-88401524D01*
X145029995Y-88518645D01*
X145029997Y-88518645D01*
X145029999Y-88518647D01*
X145237460Y-88599018D01*
X145456157Y-88639900D01*
X145678641Y-88639900D01*
X145678643Y-88639900D01*
X145897340Y-88599018D01*
X146104801Y-88518647D01*
X146293962Y-88401524D01*
X146458381Y-88251636D01*
X146592458Y-88074089D01*
X146691629Y-87874928D01*
X146718134Y-87781774D01*
X146750533Y-87727220D01*
X146805675Y-87695835D01*
X146869125Y-87695835D01*
X146924267Y-87727220D01*
X146956666Y-87781774D01*
X146983169Y-87874926D01*
X147082341Y-88074088D01*
X147216419Y-88251637D01*
X147380837Y-88401524D01*
X147569995Y-88518645D01*
X147569997Y-88518645D01*
X147569999Y-88518647D01*
X147777460Y-88599018D01*
X147996157Y-88639900D01*
X148218641Y-88639900D01*
X148218643Y-88639900D01*
X148437340Y-88599018D01*
X148644801Y-88518647D01*
X148833962Y-88401524D01*
X148998381Y-88251636D01*
X149132458Y-88074089D01*
X149231629Y-87874928D01*
X149258134Y-87781774D01*
X149290533Y-87727220D01*
X149345675Y-87695835D01*
X149409125Y-87695835D01*
X149464267Y-87727220D01*
X149496666Y-87781774D01*
X149523169Y-87874926D01*
X149622341Y-88074088D01*
X149756419Y-88251637D01*
X149920837Y-88401524D01*
X150109995Y-88518645D01*
X150109997Y-88518645D01*
X150109999Y-88518647D01*
X150317460Y-88599018D01*
X150536157Y-88639900D01*
X150758641Y-88639900D01*
X150758643Y-88639900D01*
X150977340Y-88599018D01*
X151184801Y-88518647D01*
X151373962Y-88401524D01*
X151538381Y-88251636D01*
X151672458Y-88074089D01*
X151771629Y-87874928D01*
X151821424Y-87699919D01*
X151832515Y-87660937D01*
X151847900Y-87494904D01*
X151847900Y-87033896D01*
X151832515Y-86867862D01*
X151771630Y-86653873D01*
X151672458Y-86454711D01*
X151538380Y-86277162D01*
X151373962Y-86127275D01*
X151184804Y-86010154D01*
X151123574Y-85986433D01*
X150977340Y-85929782D01*
X150758643Y-85888900D01*
X150536157Y-85888900D01*
X150369195Y-85920111D01*
X150317460Y-85929782D01*
X150109995Y-86010154D01*
X149920837Y-86127275D01*
X149756419Y-86277162D01*
X149622341Y-86454711D01*
X149523169Y-86653873D01*
X149496666Y-86747025D01*
X149464267Y-86801579D01*
X149409124Y-86832964D01*
X149345676Y-86832964D01*
X149290533Y-86801579D01*
X149258134Y-86747025D01*
X149231630Y-86653873D01*
X149132458Y-86454711D01*
X148998380Y-86277162D01*
X148833962Y-86127275D01*
X148644804Y-86010154D01*
X148583574Y-85986433D01*
X148437340Y-85929782D01*
X148218643Y-85888900D01*
X147996157Y-85888900D01*
X147829195Y-85920111D01*
X147777460Y-85929782D01*
X147569995Y-86010154D01*
X147380837Y-86127275D01*
X147216419Y-86277162D01*
X147082341Y-86454711D01*
X146983169Y-86653873D01*
X146956666Y-86747025D01*
X146924267Y-86801579D01*
X146869124Y-86832964D01*
X146805676Y-86832964D01*
X146750533Y-86801579D01*
X146718134Y-86747025D01*
X146691630Y-86653873D01*
X146592458Y-86454711D01*
X146458380Y-86277162D01*
X146293962Y-86127275D01*
X146104804Y-86010154D01*
X146043574Y-85986433D01*
X145897340Y-85929782D01*
X145678643Y-85888900D01*
X145456157Y-85888900D01*
X145289195Y-85920111D01*
X145237460Y-85929782D01*
X145029995Y-86010154D01*
X144840837Y-86127275D01*
X144676419Y-86277162D01*
X144542341Y-86454711D01*
X144443169Y-86653873D01*
X144382284Y-86867862D01*
X144366900Y-87033896D01*
X144366900Y-87494904D01*
X142324496Y-87494904D01*
X142310244Y-79894904D01*
X144366900Y-79894904D01*
X144382284Y-80060937D01*
X144443169Y-80274926D01*
X144542341Y-80474088D01*
X144676419Y-80651637D01*
X144840837Y-80801524D01*
X145029995Y-80918645D01*
X145029997Y-80918645D01*
X145029999Y-80918647D01*
X145237460Y-80999018D01*
X145456157Y-81039900D01*
X145678641Y-81039900D01*
X145678643Y-81039900D01*
X145897340Y-80999018D01*
X146104801Y-80918647D01*
X146293962Y-80801524D01*
X146458381Y-80651636D01*
X146592458Y-80474089D01*
X146691629Y-80274928D01*
X146703268Y-80234024D01*
X146718134Y-80181774D01*
X146750533Y-80127220D01*
X146805675Y-80095835D01*
X146869125Y-80095835D01*
X146924267Y-80127220D01*
X146956666Y-80181774D01*
X146983169Y-80274926D01*
X147082341Y-80474088D01*
X147216419Y-80651637D01*
X147380837Y-80801524D01*
X147569995Y-80918645D01*
X147569997Y-80918645D01*
X147569999Y-80918647D01*
X147777460Y-80999018D01*
X147996157Y-81039900D01*
X148218641Y-81039900D01*
X148218643Y-81039900D01*
X148437340Y-80999018D01*
X148644801Y-80918647D01*
X148833962Y-80801524D01*
X148998381Y-80651636D01*
X149132458Y-80474089D01*
X149231629Y-80274928D01*
X149243268Y-80234024D01*
X149258134Y-80181774D01*
X149290533Y-80127220D01*
X149345675Y-80095835D01*
X149409125Y-80095835D01*
X149464267Y-80127220D01*
X149496666Y-80181774D01*
X149523169Y-80274926D01*
X149622341Y-80474088D01*
X149756419Y-80651637D01*
X149920837Y-80801524D01*
X150109995Y-80918645D01*
X150109997Y-80918645D01*
X150109999Y-80918647D01*
X150317460Y-80999018D01*
X150536157Y-81039900D01*
X150758641Y-81039900D01*
X150758643Y-81039900D01*
X150977340Y-80999018D01*
X151184801Y-80918647D01*
X151373962Y-80801524D01*
X151538381Y-80651636D01*
X151672458Y-80474089D01*
X151771629Y-80274928D01*
X151783268Y-80234024D01*
X151832515Y-80060937D01*
X151847900Y-79894904D01*
X151847900Y-79433896D01*
X151832515Y-79267862D01*
X151771630Y-79053873D01*
X151672458Y-78854711D01*
X151538380Y-78677162D01*
X151373962Y-78527275D01*
X151184804Y-78410154D01*
X151123574Y-78386433D01*
X150977340Y-78329782D01*
X150758643Y-78288900D01*
X150536157Y-78288900D01*
X150317459Y-78329782D01*
X150317460Y-78329782D01*
X150109995Y-78410154D01*
X149920837Y-78527275D01*
X149756419Y-78677162D01*
X149622341Y-78854711D01*
X149523169Y-79053873D01*
X149496666Y-79147025D01*
X149464267Y-79201579D01*
X149409124Y-79232964D01*
X149345676Y-79232964D01*
X149290533Y-79201579D01*
X149258134Y-79147025D01*
X149231630Y-79053873D01*
X149132458Y-78854711D01*
X148998380Y-78677162D01*
X148833962Y-78527275D01*
X148644804Y-78410154D01*
X148583574Y-78386433D01*
X148437340Y-78329782D01*
X148218643Y-78288900D01*
X147996157Y-78288900D01*
X147777459Y-78329782D01*
X147777460Y-78329782D01*
X147569995Y-78410154D01*
X147380837Y-78527275D01*
X147216419Y-78677162D01*
X147082341Y-78854711D01*
X146983169Y-79053873D01*
X146956666Y-79147025D01*
X146924267Y-79201579D01*
X146869124Y-79232964D01*
X146805676Y-79232964D01*
X146750533Y-79201579D01*
X146718134Y-79147025D01*
X146691630Y-79053873D01*
X146592458Y-78854711D01*
X146458380Y-78677162D01*
X146293962Y-78527275D01*
X146104804Y-78410154D01*
X146043574Y-78386433D01*
X145897340Y-78329782D01*
X145678643Y-78288900D01*
X145456157Y-78288900D01*
X145237459Y-78329782D01*
X145237460Y-78329782D01*
X145029995Y-78410154D01*
X144840837Y-78527275D01*
X144676419Y-78677162D01*
X144542341Y-78854711D01*
X144443169Y-79053873D01*
X144382284Y-79267862D01*
X144366900Y-79433896D01*
X144366900Y-79894904D01*
X142310244Y-79894904D01*
X142272935Y-60000000D01*
X142784699Y-60000000D01*
X142803865Y-60231299D01*
X142803865Y-60231301D01*
X142803866Y-60231305D01*
X142860843Y-60456300D01*
X142860844Y-60456303D01*
X142935883Y-60627374D01*
X142954076Y-60668849D01*
X143081021Y-60863153D01*
X143238216Y-61033913D01*
X143421374Y-61176470D01*
X143625497Y-61286936D01*
X143735258Y-61324617D01*
X143845015Y-61362297D01*
X143845017Y-61362297D01*
X143845019Y-61362298D01*
X144073951Y-61400500D01*
X144306048Y-61400500D01*
X144306049Y-61400500D01*
X144534981Y-61362298D01*
X144754503Y-61286936D01*
X144958626Y-61176470D01*
X145141784Y-61033913D01*
X145298979Y-60863153D01*
X145356191Y-60775582D01*
X145400982Y-60734349D01*
X145460000Y-60719404D01*
X145519018Y-60734349D01*
X145563808Y-60775582D01*
X145621021Y-60863153D01*
X145762930Y-61017308D01*
X145778219Y-61033916D01*
X145927662Y-61150232D01*
X145962900Y-61193625D01*
X145975500Y-61248085D01*
X145975500Y-71024800D01*
X145974191Y-71042770D01*
X145970685Y-71066706D01*
X145975028Y-71116348D01*
X145975500Y-71127155D01*
X145975500Y-71132740D01*
X145979116Y-71163685D01*
X145979482Y-71167269D01*
X145986162Y-71243619D01*
X145990423Y-71262839D01*
X146016621Y-71334820D01*
X146017804Y-71338224D01*
X146041916Y-71410987D01*
X146050496Y-71428708D01*
X146092613Y-71492746D01*
X146094550Y-71495786D01*
X146134130Y-71559954D01*
X146134131Y-71559955D01*
X146134772Y-71560994D01*
X146147202Y-71576253D01*
X146202937Y-71628835D01*
X146205525Y-71631349D01*
X149662234Y-75088058D01*
X149674015Y-75101690D01*
X149688461Y-75121094D01*
X149726634Y-75153125D01*
X149734609Y-75160433D01*
X149738559Y-75164383D01*
X149758967Y-75180520D01*
X149763011Y-75183717D01*
X149765805Y-75185993D01*
X149823573Y-75234467D01*
X149823575Y-75234468D01*
X149824507Y-75235250D01*
X149841101Y-75245822D01*
X149842207Y-75246338D01*
X149842209Y-75246339D01*
X149910584Y-75278222D01*
X149913775Y-75279768D01*
X149982282Y-75314173D01*
X150000873Y-75320634D01*
X150002060Y-75320879D01*
X150075938Y-75336133D01*
X150079411Y-75336903D01*
X150152812Y-75354300D01*
X150152814Y-75354300D01*
X150153995Y-75354580D01*
X150173574Y-75356581D01*
X150174791Y-75356545D01*
X150174794Y-75356546D01*
X150245669Y-75354483D01*
X150250196Y-75354352D01*
X150253802Y-75354300D01*
X158411514Y-75354300D01*
X158458967Y-75363739D01*
X158499195Y-75390619D01*
X169160581Y-86052005D01*
X169187461Y-86092233D01*
X169196900Y-86139686D01*
X169196900Y-91274400D01*
X169195591Y-91292370D01*
X169192085Y-91316306D01*
X169196428Y-91365948D01*
X169196900Y-91376755D01*
X169196900Y-91382340D01*
X169200516Y-91413285D01*
X169200882Y-91416869D01*
X169207562Y-91493219D01*
X169211823Y-91512439D01*
X169238021Y-91584420D01*
X169239204Y-91587824D01*
X169263316Y-91660587D01*
X169271896Y-91678308D01*
X169314013Y-91742346D01*
X169315950Y-91745386D01*
X169355530Y-91809554D01*
X169355531Y-91809555D01*
X169356172Y-91810594D01*
X169368602Y-91825853D01*
X169424337Y-91878435D01*
X169426925Y-91880949D01*
X171303034Y-93757058D01*
X171314815Y-93770690D01*
X171329260Y-93790093D01*
X171367434Y-93822125D01*
X171375408Y-93829432D01*
X171379359Y-93833383D01*
X171399767Y-93849520D01*
X171403811Y-93852717D01*
X171406605Y-93854993D01*
X171464373Y-93903467D01*
X171464375Y-93903468D01*
X171465307Y-93904250D01*
X171481901Y-93914822D01*
X171483007Y-93915338D01*
X171483009Y-93915339D01*
X171551384Y-93947222D01*
X171554575Y-93948768D01*
X171623082Y-93983173D01*
X171641673Y-93989634D01*
X171642860Y-93989879D01*
X171716738Y-94005133D01*
X171720211Y-94005903D01*
X171793612Y-94023300D01*
X171793614Y-94023300D01*
X171794795Y-94023580D01*
X171814374Y-94025581D01*
X171815591Y-94025545D01*
X171815594Y-94025546D01*
X171886469Y-94023483D01*
X171890996Y-94023352D01*
X171894602Y-94023300D01*
X180243478Y-94023300D01*
X180302496Y-94038245D01*
X180347287Y-94079479D01*
X180421836Y-94193585D01*
X180590256Y-94376538D01*
X180673008Y-94440947D01*
X180708245Y-94484338D01*
X180720845Y-94538798D01*
X180708246Y-94593258D01*
X180673009Y-94636651D01*
X180590257Y-94701060D01*
X180421837Y-94884014D01*
X180285825Y-95092195D01*
X180185938Y-95319917D01*
X180124891Y-95560983D01*
X180104356Y-95808800D01*
X180124891Y-96056616D01*
X180124891Y-96056619D01*
X180124892Y-96056621D01*
X180185937Y-96297681D01*
X180230960Y-96400323D01*
X180285825Y-96525404D01*
X180285827Y-96525407D01*
X180421836Y-96733585D01*
X180590256Y-96916538D01*
X180590259Y-96916540D01*
X180786485Y-97069270D01*
X180786487Y-97069271D01*
X180786491Y-97069274D01*
X181005190Y-97187628D01*
X181240386Y-97268371D01*
X181485665Y-97309300D01*
X181516489Y-97309300D01*
X181574430Y-97323670D01*
X181618943Y-97363448D01*
X181639709Y-97419416D01*
X181631917Y-97478602D01*
X181597373Y-97527288D01*
X181544082Y-97554190D01*
X181535024Y-97556258D01*
X181512581Y-97561380D01*
X181268358Y-97657231D01*
X181041143Y-97788413D01*
X180836015Y-97951998D01*
X180657571Y-98144314D01*
X180632704Y-98180788D01*
X180509772Y-98361096D01*
X180395937Y-98597477D01*
X180318604Y-98848185D01*
X180279500Y-99107618D01*
X180279500Y-99369982D01*
X180318604Y-99629415D01*
X180395937Y-99880123D01*
X180509772Y-100116504D01*
X180645766Y-100315970D01*
X180657571Y-100333285D01*
X180836015Y-100525601D01*
X180836019Y-100525605D01*
X181041143Y-100689186D01*
X181268357Y-100820368D01*
X181512584Y-100916220D01*
X181768370Y-100974602D01*
X181824408Y-100978801D01*
X181964501Y-100989300D01*
X181964506Y-100989300D01*
X182095494Y-100989300D01*
X182095499Y-100989300D01*
X182218078Y-100980113D01*
X182291630Y-100974602D01*
X182547416Y-100916220D01*
X182791643Y-100820368D01*
X183018857Y-100689186D01*
X183223981Y-100525605D01*
X183323273Y-100418592D01*
X183402428Y-100333285D01*
X183402429Y-100333282D01*
X183402433Y-100333279D01*
X183550228Y-100116504D01*
X183664063Y-99880123D01*
X183741396Y-99629415D01*
X183780500Y-99369982D01*
X183780500Y-99107618D01*
X183741396Y-98848185D01*
X183664063Y-98597477D01*
X183550228Y-98361096D01*
X183402433Y-98144321D01*
X183402432Y-98144320D01*
X183402428Y-98144314D01*
X183223984Y-97951998D01*
X183223983Y-97951997D01*
X183223981Y-97951995D01*
X183018857Y-97788414D01*
X183018856Y-97788413D01*
X182791641Y-97657231D01*
X182547418Y-97561380D01*
X182291627Y-97502997D01*
X182095499Y-97488300D01*
X182095494Y-97488300D01*
X182082074Y-97488300D01*
X182015978Y-97469216D01*
X181970227Y-97417838D01*
X181958904Y-97349980D01*
X181985493Y-97286530D01*
X182041811Y-97247019D01*
X182091222Y-97230055D01*
X182214810Y-97187628D01*
X182433509Y-97069274D01*
X182629744Y-96916538D01*
X182798164Y-96733585D01*
X182934173Y-96525407D01*
X183034063Y-96297681D01*
X183095108Y-96056621D01*
X183115643Y-95808800D01*
X183095108Y-95560979D01*
X183034063Y-95319919D01*
X182934173Y-95092193D01*
X182798164Y-94884015D01*
X182673690Y-94748800D01*
X185400000Y-94748800D01*
X185400000Y-101238800D01*
X203090000Y-101238800D01*
X203090000Y-99369982D01*
X204789500Y-99369982D01*
X204828604Y-99629415D01*
X204905937Y-99880123D01*
X205019772Y-100116504D01*
X205155766Y-100315970D01*
X205167571Y-100333285D01*
X205346015Y-100525601D01*
X205346019Y-100525605D01*
X205551143Y-100689186D01*
X205778357Y-100820368D01*
X206022584Y-100916220D01*
X206278370Y-100974602D01*
X206334408Y-100978801D01*
X206474501Y-100989300D01*
X206474506Y-100989300D01*
X206605494Y-100989300D01*
X206605499Y-100989300D01*
X206728078Y-100980113D01*
X206801630Y-100974602D01*
X207057416Y-100916220D01*
X207301643Y-100820368D01*
X207528857Y-100689186D01*
X207733981Y-100525605D01*
X207833273Y-100418592D01*
X207912428Y-100333285D01*
X207912429Y-100333282D01*
X207912433Y-100333279D01*
X208060228Y-100116504D01*
X208174063Y-99880123D01*
X208251396Y-99629415D01*
X208290500Y-99369982D01*
X208290500Y-99107618D01*
X208251396Y-98848185D01*
X208174063Y-98597477D01*
X208060228Y-98361096D01*
X207912433Y-98144321D01*
X207912432Y-98144320D01*
X207912428Y-98144314D01*
X207733984Y-97951998D01*
X207733983Y-97951997D01*
X207733981Y-97951995D01*
X207528857Y-97788414D01*
X207528856Y-97788413D01*
X207301641Y-97657231D01*
X207057418Y-97561380D01*
X207037795Y-97556901D01*
X207025917Y-97554190D01*
X206972627Y-97527288D01*
X206938083Y-97478602D01*
X206930291Y-97419416D01*
X206951057Y-97363448D01*
X206995570Y-97323670D01*
X207053511Y-97309300D01*
X207134335Y-97309300D01*
X207379614Y-97268371D01*
X207614810Y-97187628D01*
X207833509Y-97069274D01*
X208029744Y-96916538D01*
X208198164Y-96733585D01*
X208334173Y-96525407D01*
X208434063Y-96297681D01*
X208495108Y-96056621D01*
X208515643Y-95808800D01*
X208495108Y-95560979D01*
X208434063Y-95319919D01*
X208334173Y-95092193D01*
X208198164Y-94884015D01*
X208029744Y-94701062D01*
X208013437Y-94688370D01*
X207946992Y-94636653D01*
X207911754Y-94593260D01*
X207899154Y-94538800D01*
X207911754Y-94484340D01*
X207946992Y-94440947D01*
X207971256Y-94422060D01*
X208029744Y-94376538D01*
X208198164Y-94193585D01*
X208334173Y-93985407D01*
X208434063Y-93757681D01*
X208495108Y-93516621D01*
X208515643Y-93268800D01*
X208495108Y-93020979D01*
X208434063Y-92779919D01*
X208334173Y-92552193D01*
X208198164Y-92344015D01*
X208029744Y-92161062D01*
X208013437Y-92148370D01*
X207946992Y-92096653D01*
X207911754Y-92053260D01*
X207899154Y-91998800D01*
X207911754Y-91944340D01*
X207946992Y-91900947D01*
X207975915Y-91878435D01*
X208029744Y-91836538D01*
X208198164Y-91653585D01*
X208334173Y-91445407D01*
X208434063Y-91217681D01*
X208495108Y-90976621D01*
X208515643Y-90728800D01*
X208495108Y-90480979D01*
X208434063Y-90239919D01*
X208334173Y-90012193D01*
X208198164Y-89804015D01*
X208029744Y-89621062D01*
X207961655Y-89568066D01*
X207946992Y-89556653D01*
X207911754Y-89513260D01*
X207899154Y-89458800D01*
X207911754Y-89404340D01*
X207946992Y-89360947D01*
X207971256Y-89342060D01*
X208029744Y-89296538D01*
X208198164Y-89113585D01*
X208334173Y-88905407D01*
X208434063Y-88677681D01*
X208495108Y-88436621D01*
X208515643Y-88188800D01*
X208495108Y-87940979D01*
X208434063Y-87699919D01*
X208334173Y-87472193D01*
X208198164Y-87264015D01*
X208029744Y-87081062D01*
X208013437Y-87068370D01*
X207946992Y-87016653D01*
X207911754Y-86973260D01*
X207899154Y-86918800D01*
X207911754Y-86864340D01*
X207946992Y-86820947D01*
X207971875Y-86801579D01*
X208029744Y-86756538D01*
X208198164Y-86573585D01*
X208334173Y-86365407D01*
X208434063Y-86137681D01*
X208489159Y-85920109D01*
X208520782Y-85863780D01*
X208576447Y-85831000D01*
X208641046Y-85830666D01*
X208697046Y-85862870D01*
X214209181Y-91375005D01*
X214236061Y-91415233D01*
X214245500Y-91462686D01*
X214245500Y-103876138D01*
X214231489Y-103933395D01*
X214192622Y-103977714D01*
X214160858Y-103999954D01*
X213999953Y-104160859D01*
X213869432Y-104347264D01*
X213773261Y-104553502D01*
X213714364Y-104773310D01*
X213694531Y-105000000D01*
X213714364Y-105226689D01*
X213773261Y-105446497D01*
X213869432Y-105652735D01*
X213999953Y-105839140D01*
X214160859Y-106000046D01*
X214347264Y-106130567D01*
X214347265Y-106130567D01*
X214347266Y-106130568D01*
X214553504Y-106226739D01*
X214773308Y-106285635D01*
X215000000Y-106305468D01*
X215226692Y-106285635D01*
X215446496Y-106226739D01*
X215652734Y-106130568D01*
X215839139Y-106000047D01*
X216000047Y-105839139D01*
X216130568Y-105652734D01*
X216226739Y-105446496D01*
X216285635Y-105226692D01*
X216305468Y-105000000D01*
X223854531Y-105000000D01*
X223874364Y-105226689D01*
X223933261Y-105446497D01*
X224029432Y-105652735D01*
X224159953Y-105839140D01*
X224320859Y-106000046D01*
X224507264Y-106130567D01*
X224507265Y-106130567D01*
X224507266Y-106130568D01*
X224713504Y-106226739D01*
X224933308Y-106285635D01*
X225160000Y-106305468D01*
X225386692Y-106285635D01*
X225606496Y-106226739D01*
X225812734Y-106130568D01*
X225999139Y-106000047D01*
X226160047Y-105839139D01*
X226290568Y-105652734D01*
X226386739Y-105446496D01*
X226445635Y-105226692D01*
X226465468Y-105000000D01*
X226445635Y-104773308D01*
X226386739Y-104553504D01*
X226290568Y-104347266D01*
X226284219Y-104338199D01*
X226160046Y-104160859D01*
X225999140Y-103999953D01*
X225812735Y-103869432D01*
X225606497Y-103773261D01*
X225386689Y-103714364D01*
X225160000Y-103694531D01*
X224933310Y-103714364D01*
X224713502Y-103773261D01*
X224507264Y-103869432D01*
X224320859Y-103999953D01*
X224159953Y-104160859D01*
X224029432Y-104347264D01*
X223933261Y-104553502D01*
X223874364Y-104773310D01*
X223854531Y-105000000D01*
X216305468Y-105000000D01*
X216285635Y-104773308D01*
X216226739Y-104553504D01*
X216130568Y-104347266D01*
X216124219Y-104338199D01*
X216000046Y-104160859D01*
X215839141Y-103999954D01*
X215807378Y-103977714D01*
X215768511Y-103933395D01*
X215754500Y-103876138D01*
X215754500Y-97500000D01*
X218279614Y-97500000D01*
X218299123Y-97735429D01*
X218299123Y-97735432D01*
X218299124Y-97735434D01*
X218353964Y-97951995D01*
X218357118Y-97964447D01*
X218452013Y-98180788D01*
X218581226Y-98378563D01*
X218741223Y-98552365D01*
X218741227Y-98552368D01*
X218927654Y-98697470D01*
X219135421Y-98809908D01*
X219246917Y-98848185D01*
X219358857Y-98886615D01*
X219358859Y-98886615D01*
X219358861Y-98886616D01*
X219591880Y-98925500D01*
X219828119Y-98925500D01*
X219828120Y-98925500D01*
X220061139Y-98886616D01*
X220284579Y-98809908D01*
X220492346Y-98697470D01*
X220678773Y-98552368D01*
X220838775Y-98378561D01*
X220967986Y-98180788D01*
X221062883Y-97964445D01*
X221120876Y-97735434D01*
X221140385Y-97500000D01*
X221120876Y-97264566D01*
X221062883Y-97035555D01*
X220967986Y-96819212D01*
X220967986Y-96819211D01*
X220838773Y-96621436D01*
X220678776Y-96447634D01*
X220492347Y-96302531D01*
X220492346Y-96302530D01*
X220284579Y-96190092D01*
X220284575Y-96190090D01*
X220284574Y-96190090D01*
X220061142Y-96113384D01*
X219886374Y-96084220D01*
X219828120Y-96074500D01*
X219591880Y-96074500D01*
X219545276Y-96082276D01*
X219358857Y-96113384D01*
X219135425Y-96190090D01*
X218927652Y-96302531D01*
X218741223Y-96447634D01*
X218581226Y-96621436D01*
X218452013Y-96819211D01*
X218357118Y-97035552D01*
X218299123Y-97264570D01*
X218279614Y-97500000D01*
X215754500Y-97500000D01*
X215754500Y-93472869D01*
X218284500Y-93472869D01*
X218289203Y-93516616D01*
X218290909Y-93532483D01*
X218341204Y-93667331D01*
X218427454Y-93782546D01*
X218542669Y-93868796D01*
X218677517Y-93919091D01*
X218737127Y-93925500D01*
X220682872Y-93925499D01*
X220742483Y-93919091D01*
X220877331Y-93868796D01*
X220992546Y-93782546D01*
X221078796Y-93667331D01*
X221129091Y-93532483D01*
X221135500Y-93472873D01*
X221135499Y-91527128D01*
X221129091Y-91467517D01*
X221078796Y-91332669D01*
X220992546Y-91217454D01*
X220877331Y-91131204D01*
X220742483Y-91080909D01*
X220682873Y-91074500D01*
X220682869Y-91074500D01*
X218737130Y-91074500D01*
X218677515Y-91080909D01*
X218542669Y-91131204D01*
X218427454Y-91217454D01*
X218341204Y-91332668D01*
X218290909Y-91467515D01*
X218290909Y-91467517D01*
X218284593Y-91526268D01*
X218284500Y-91527130D01*
X218284500Y-93472869D01*
X215754500Y-93472869D01*
X215754500Y-91162793D01*
X215755809Y-91144823D01*
X215756121Y-91142688D01*
X215759314Y-91120893D01*
X215754972Y-91071259D01*
X215754500Y-91060453D01*
X215754500Y-91054857D01*
X215750882Y-91023909D01*
X215750515Y-91020316D01*
X215743837Y-90943975D01*
X215739580Y-90924772D01*
X215739160Y-90923619D01*
X215739160Y-90923616D01*
X215713347Y-90852696D01*
X215712199Y-90849393D01*
X215688464Y-90777764D01*
X215688462Y-90777761D01*
X215688078Y-90776601D01*
X215679504Y-90758891D01*
X215637376Y-90694838D01*
X215635461Y-90691833D01*
X215595870Y-90627646D01*
X215595229Y-90626606D01*
X215582802Y-90611351D01*
X215527061Y-90558763D01*
X215524473Y-90556249D01*
X209968223Y-84999999D01*
X213694531Y-84999999D01*
X213714364Y-85226689D01*
X213773261Y-85446497D01*
X213869432Y-85652735D01*
X213999953Y-85839140D01*
X214160859Y-86000046D01*
X214347264Y-86130567D01*
X214347265Y-86130567D01*
X214347266Y-86130568D01*
X214553504Y-86226739D01*
X214773308Y-86285635D01*
X215000000Y-86305468D01*
X215226692Y-86285635D01*
X215446496Y-86226739D01*
X215652734Y-86130568D01*
X215839139Y-86000047D01*
X216000047Y-85839139D01*
X216130568Y-85652734D01*
X216226739Y-85446496D01*
X216285635Y-85226692D01*
X216305468Y-85000000D01*
X216305468Y-84999999D01*
X223854531Y-84999999D01*
X223874364Y-85226689D01*
X223933261Y-85446497D01*
X224029432Y-85652735D01*
X224159953Y-85839140D01*
X224320859Y-86000046D01*
X224507264Y-86130567D01*
X224507265Y-86130567D01*
X224507266Y-86130568D01*
X224713504Y-86226739D01*
X224933308Y-86285635D01*
X225160000Y-86305468D01*
X225386692Y-86285635D01*
X225606496Y-86226739D01*
X225812734Y-86130568D01*
X225999139Y-86000047D01*
X226160047Y-85839139D01*
X226290568Y-85652734D01*
X226386739Y-85446496D01*
X226445635Y-85226692D01*
X226465468Y-85000000D01*
X226445635Y-84773308D01*
X226386739Y-84553504D01*
X226290568Y-84347266D01*
X226274515Y-84324340D01*
X226160046Y-84160859D01*
X225999140Y-83999953D01*
X225812735Y-83869432D01*
X225606497Y-83773261D01*
X225386689Y-83714364D01*
X225160000Y-83694531D01*
X224933310Y-83714364D01*
X224713502Y-83773261D01*
X224507264Y-83869432D01*
X224320859Y-83999953D01*
X224159953Y-84160859D01*
X224029432Y-84347264D01*
X223933261Y-84553502D01*
X223874364Y-84773310D01*
X223854531Y-84999999D01*
X216305468Y-84999999D01*
X216285635Y-84773308D01*
X216226739Y-84553504D01*
X216130568Y-84347266D01*
X216114515Y-84324340D01*
X216000046Y-84160859D01*
X215839140Y-83999953D01*
X215652735Y-83869432D01*
X215446497Y-83773261D01*
X215226689Y-83714364D01*
X215000000Y-83694531D01*
X214773310Y-83714364D01*
X214553502Y-83773261D01*
X214347264Y-83869432D01*
X214160859Y-83999953D01*
X213999953Y-84160859D01*
X213869432Y-84347264D01*
X213773261Y-84553502D01*
X213714364Y-84773310D01*
X213694531Y-84999999D01*
X209968223Y-84999999D01*
X208510523Y-83542299D01*
X208478653Y-83487535D01*
X208477999Y-83424180D01*
X208495108Y-83356621D01*
X208515643Y-83108800D01*
X208495108Y-82860979D01*
X208434063Y-82619919D01*
X208334173Y-82392193D01*
X208198164Y-82184015D01*
X208029744Y-82001062D01*
X208013437Y-81988370D01*
X207946992Y-81936653D01*
X207911754Y-81893260D01*
X207899154Y-81838800D01*
X207911754Y-81784340D01*
X207946992Y-81740947D01*
X207971256Y-81722060D01*
X208029744Y-81676538D01*
X208198164Y-81493585D01*
X208334173Y-81285407D01*
X208434063Y-81057681D01*
X208495108Y-80816621D01*
X208515643Y-80568800D01*
X208495108Y-80320979D01*
X208434063Y-80079919D01*
X208334173Y-79852193D01*
X208198164Y-79644015D01*
X208029744Y-79461062D01*
X208013437Y-79448370D01*
X207946992Y-79396653D01*
X207911754Y-79353260D01*
X207899154Y-79298800D01*
X207911754Y-79244340D01*
X207946992Y-79200947D01*
X207971256Y-79182060D01*
X208029744Y-79136538D01*
X208198164Y-78953585D01*
X208334173Y-78745407D01*
X208434063Y-78517681D01*
X208495108Y-78276621D01*
X208515643Y-78028800D01*
X208495108Y-77780979D01*
X208434063Y-77539919D01*
X208416552Y-77499999D01*
X215994591Y-77499999D01*
X216014197Y-77761627D01*
X216072580Y-78017418D01*
X216168431Y-78261641D01*
X216168432Y-78261643D01*
X216299614Y-78488857D01*
X216463195Y-78693981D01*
X216463197Y-78693983D01*
X216463198Y-78693984D01*
X216655514Y-78872428D01*
X216655520Y-78872432D01*
X216655521Y-78872433D01*
X216872296Y-79020228D01*
X217108677Y-79134063D01*
X217359385Y-79211396D01*
X217618818Y-79250500D01*
X217881182Y-79250500D01*
X218140615Y-79211396D01*
X218391323Y-79134063D01*
X218627704Y-79020228D01*
X218844479Y-78872433D01*
X218844482Y-78872429D01*
X218844485Y-78872428D01*
X218929792Y-78793273D01*
X219036805Y-78693981D01*
X219200386Y-78488857D01*
X219331568Y-78261643D01*
X219427420Y-78017416D01*
X219485802Y-77761630D01*
X219505408Y-77500000D01*
X219485802Y-77238370D01*
X219427420Y-76982584D01*
X219331568Y-76738357D01*
X219200386Y-76511143D01*
X219036805Y-76306019D01*
X219036801Y-76306015D01*
X218844485Y-76127571D01*
X218827170Y-76115766D01*
X218627704Y-75979772D01*
X218391323Y-75865937D01*
X218140615Y-75788604D01*
X217881182Y-75749500D01*
X217618818Y-75749500D01*
X217359385Y-75788604D01*
X217108677Y-75865937D01*
X216872296Y-75979772D01*
X216832554Y-76006868D01*
X216655514Y-76127571D01*
X216463198Y-76306015D01*
X216299613Y-76511143D01*
X216168431Y-76738358D01*
X216072580Y-76982581D01*
X216014197Y-77238372D01*
X215994591Y-77499999D01*
X208416552Y-77499999D01*
X208334173Y-77312193D01*
X208198164Y-77104015D01*
X208029744Y-76921062D01*
X208013437Y-76908370D01*
X207946992Y-76856653D01*
X207911754Y-76813260D01*
X207899154Y-76758800D01*
X207911754Y-76704340D01*
X207946992Y-76660947D01*
X207971256Y-76642060D01*
X208029744Y-76596538D01*
X208198164Y-76413585D01*
X208334173Y-76205407D01*
X208434063Y-75977681D01*
X208495108Y-75736621D01*
X208515643Y-75488800D01*
X208495108Y-75240979D01*
X208434063Y-74999919D01*
X208334173Y-74772193D01*
X208198164Y-74564015D01*
X208029744Y-74381062D01*
X208013437Y-74368370D01*
X207946992Y-74316653D01*
X207911754Y-74273260D01*
X207899154Y-74218800D01*
X207911754Y-74164340D01*
X207946992Y-74120947D01*
X207976592Y-74097908D01*
X208029744Y-74056538D01*
X208198164Y-73873585D01*
X208334173Y-73665407D01*
X208434063Y-73437681D01*
X208495108Y-73196621D01*
X208515643Y-72948800D01*
X208495108Y-72700979D01*
X208444213Y-72499999D01*
X215994591Y-72499999D01*
X216014197Y-72761627D01*
X216072580Y-73017418D01*
X216168431Y-73261641D01*
X216270067Y-73437681D01*
X216299614Y-73488857D01*
X216463195Y-73693981D01*
X216463197Y-73693983D01*
X216463198Y-73693984D01*
X216655514Y-73872428D01*
X216655520Y-73872432D01*
X216655521Y-73872433D01*
X216872296Y-74020228D01*
X217108677Y-74134063D01*
X217359385Y-74211396D01*
X217618818Y-74250500D01*
X217881182Y-74250500D01*
X218140615Y-74211396D01*
X218391323Y-74134063D01*
X218627704Y-74020228D01*
X218844479Y-73872433D01*
X218844482Y-73872429D01*
X218844485Y-73872428D01*
X218929792Y-73793273D01*
X219036805Y-73693981D01*
X219200386Y-73488857D01*
X219331568Y-73261643D01*
X219427420Y-73017416D01*
X219485802Y-72761630D01*
X219505408Y-72500000D01*
X219505408Y-72499999D01*
X228494591Y-72499999D01*
X228514197Y-72761627D01*
X228572580Y-73017418D01*
X228668431Y-73261641D01*
X228770067Y-73437681D01*
X228799614Y-73488857D01*
X228963195Y-73693981D01*
X228963197Y-73693983D01*
X228963198Y-73693984D01*
X229155514Y-73872428D01*
X229155520Y-73872432D01*
X229155521Y-73872433D01*
X229372296Y-74020228D01*
X229608677Y-74134063D01*
X229859385Y-74211396D01*
X230118818Y-74250500D01*
X230381182Y-74250500D01*
X230640615Y-74211396D01*
X230891323Y-74134063D01*
X231127704Y-74020228D01*
X231344479Y-73872433D01*
X231344482Y-73872429D01*
X231344485Y-73872428D01*
X231429792Y-73793273D01*
X231536805Y-73693981D01*
X231700386Y-73488857D01*
X231831568Y-73261643D01*
X231927420Y-73017416D01*
X231985802Y-72761630D01*
X232005408Y-72500000D01*
X231985802Y-72238370D01*
X231927420Y-71982584D01*
X231831568Y-71738357D01*
X231700386Y-71511143D01*
X231536805Y-71306019D01*
X231536801Y-71306015D01*
X231344485Y-71127571D01*
X231255212Y-71066706D01*
X231127704Y-70979772D01*
X230891323Y-70865937D01*
X230640615Y-70788604D01*
X230381182Y-70749500D01*
X230118818Y-70749500D01*
X229859385Y-70788604D01*
X229608677Y-70865937D01*
X229372296Y-70979772D01*
X229336027Y-71004500D01*
X229155514Y-71127571D01*
X228963198Y-71306015D01*
X228799613Y-71511143D01*
X228668431Y-71738358D01*
X228572580Y-71982581D01*
X228514197Y-72238372D01*
X228494591Y-72499999D01*
X219505408Y-72499999D01*
X219485802Y-72238370D01*
X219427420Y-71982584D01*
X219331568Y-71738357D01*
X219200386Y-71511143D01*
X219036805Y-71306019D01*
X219036801Y-71306015D01*
X218844485Y-71127571D01*
X218755212Y-71066706D01*
X218627704Y-70979772D01*
X218391323Y-70865937D01*
X218140615Y-70788604D01*
X217881182Y-70749500D01*
X217618818Y-70749500D01*
X217359385Y-70788604D01*
X217108677Y-70865937D01*
X216872296Y-70979772D01*
X216836027Y-71004500D01*
X216655514Y-71127571D01*
X216463198Y-71306015D01*
X216299613Y-71511143D01*
X216168431Y-71738358D01*
X216072580Y-71982581D01*
X216014197Y-72238372D01*
X215994591Y-72499999D01*
X208444213Y-72499999D01*
X208434063Y-72459919D01*
X208336883Y-72238372D01*
X208334174Y-72232195D01*
X208334173Y-72232193D01*
X208198164Y-72024015D01*
X208029744Y-71841062D01*
X208013437Y-71828370D01*
X207946992Y-71776653D01*
X207911754Y-71733260D01*
X207899154Y-71678800D01*
X207911754Y-71624340D01*
X207946992Y-71580947D01*
X207973963Y-71559954D01*
X208029744Y-71516538D01*
X208198164Y-71333585D01*
X208334173Y-71125407D01*
X208434063Y-70897681D01*
X208495108Y-70656621D01*
X208515643Y-70408800D01*
X208495108Y-70160979D01*
X208434063Y-69919919D01*
X208334173Y-69692193D01*
X208198164Y-69484015D01*
X208029744Y-69301062D01*
X208013437Y-69288370D01*
X207946992Y-69236653D01*
X207911754Y-69193260D01*
X207899154Y-69138800D01*
X207911754Y-69084340D01*
X207946992Y-69040947D01*
X207971256Y-69022060D01*
X208029744Y-68976538D01*
X208198164Y-68793585D01*
X208334173Y-68585407D01*
X208434063Y-68357681D01*
X208495108Y-68116621D01*
X208515643Y-67868800D01*
X208495108Y-67620979D01*
X208434063Y-67379919D01*
X208334173Y-67152193D01*
X208198164Y-66944015D01*
X208029744Y-66761062D01*
X208013437Y-66748370D01*
X207946992Y-66696653D01*
X207911754Y-66653260D01*
X207899154Y-66598800D01*
X207911754Y-66544340D01*
X207946992Y-66500947D01*
X207971256Y-66482060D01*
X208029744Y-66436538D01*
X208198164Y-66253585D01*
X208334173Y-66045407D01*
X208434063Y-65817681D01*
X208495108Y-65576621D01*
X208515643Y-65328800D01*
X208495108Y-65080979D01*
X208434063Y-64839919D01*
X208334173Y-64612193D01*
X208198164Y-64404015D01*
X208029744Y-64221062D01*
X208013437Y-64208370D01*
X207946992Y-64156653D01*
X207911754Y-64113260D01*
X207899154Y-64058800D01*
X207911754Y-64004340D01*
X207946992Y-63960947D01*
X207971256Y-63942060D01*
X208029744Y-63896538D01*
X208198164Y-63713585D01*
X208334173Y-63505407D01*
X208434063Y-63277681D01*
X208495108Y-63036621D01*
X208515643Y-62788800D01*
X208495108Y-62540979D01*
X208434063Y-62299919D01*
X208334173Y-62072193D01*
X208198164Y-61864015D01*
X208029744Y-61681062D01*
X208013437Y-61668370D01*
X207946992Y-61616653D01*
X207911754Y-61573260D01*
X207899154Y-61518800D01*
X207911754Y-61464340D01*
X207946992Y-61420947D01*
X207981497Y-61394090D01*
X208029744Y-61356538D01*
X208198164Y-61173585D01*
X208334173Y-60965407D01*
X208434063Y-60737681D01*
X208495108Y-60496621D01*
X208515643Y-60248800D01*
X208495108Y-60000979D01*
X208494860Y-60000000D01*
X216094699Y-60000000D01*
X216113865Y-60231299D01*
X216113865Y-60231301D01*
X216113866Y-60231305D01*
X216170843Y-60456300D01*
X216170844Y-60456303D01*
X216245883Y-60627374D01*
X216264076Y-60668849D01*
X216391021Y-60863153D01*
X216548216Y-61033913D01*
X216731374Y-61176470D01*
X216935497Y-61286936D01*
X217045258Y-61324617D01*
X217155015Y-61362297D01*
X217155017Y-61362297D01*
X217155019Y-61362298D01*
X217383951Y-61400500D01*
X217616048Y-61400500D01*
X217616049Y-61400500D01*
X217844981Y-61362298D01*
X218064503Y-61286936D01*
X218268626Y-61176470D01*
X218445566Y-61038752D01*
X218497991Y-61014901D01*
X218555540Y-61017308D01*
X218605793Y-61045457D01*
X218637906Y-61093273D01*
X218656204Y-61142331D01*
X218742454Y-61257546D01*
X218857669Y-61343796D01*
X218992517Y-61394091D01*
X219052127Y-61400500D01*
X220947872Y-61400499D01*
X221007483Y-61394091D01*
X221142331Y-61343796D01*
X221257546Y-61257546D01*
X221343796Y-61142331D01*
X221394091Y-61007483D01*
X221400500Y-60947873D01*
X221400499Y-59052128D01*
X221394091Y-58992517D01*
X221343796Y-58857669D01*
X221257546Y-58742454D01*
X221142331Y-58656204D01*
X221007483Y-58605909D01*
X220947873Y-58599500D01*
X220947869Y-58599500D01*
X219052130Y-58599500D01*
X218992515Y-58605909D01*
X218858460Y-58655909D01*
X218857669Y-58656204D01*
X218742454Y-58742454D01*
X218679939Y-58825964D01*
X218656203Y-58857671D01*
X218637906Y-58906726D01*
X218605793Y-58954542D01*
X218555540Y-58982691D01*
X218497991Y-58985098D01*
X218445563Y-58961245D01*
X218388461Y-58916801D01*
X218268626Y-58823530D01*
X218064503Y-58713064D01*
X218064499Y-58713062D01*
X218064498Y-58713062D01*
X217844984Y-58637702D01*
X217654456Y-58605909D01*
X217616049Y-58599500D01*
X217383951Y-58599500D01*
X217345544Y-58605909D01*
X217155015Y-58637702D01*
X216935501Y-58713062D01*
X216731372Y-58823531D01*
X216548215Y-58966087D01*
X216391020Y-59136848D01*
X216264076Y-59331150D01*
X216170844Y-59543696D01*
X216170842Y-59543700D01*
X216170843Y-59543700D01*
X216116089Y-59759919D01*
X216113865Y-59768700D01*
X216094699Y-60000000D01*
X208494860Y-60000000D01*
X208434063Y-59759919D01*
X208344016Y-59554633D01*
X208334174Y-59532195D01*
X208322561Y-59514420D01*
X208198164Y-59324015D01*
X208029744Y-59141062D01*
X207995908Y-59114726D01*
X207833514Y-58988329D01*
X207833510Y-58988326D01*
X207833509Y-58988326D01*
X207614810Y-58869972D01*
X207614806Y-58869970D01*
X207614805Y-58869970D01*
X207379615Y-58789229D01*
X207134335Y-58748300D01*
X206885665Y-58748300D01*
X206640384Y-58789229D01*
X206405194Y-58869970D01*
X206186485Y-58988329D01*
X205990259Y-59141059D01*
X205990256Y-59141061D01*
X205990256Y-59141062D01*
X205821836Y-59324015D01*
X205817174Y-59331151D01*
X205685825Y-59532195D01*
X205641347Y-59633596D01*
X205585937Y-59759919D01*
X205525140Y-59999999D01*
X205524891Y-60000983D01*
X205504356Y-60248800D01*
X205524891Y-60496616D01*
X205524891Y-60496619D01*
X205524892Y-60496621D01*
X205585937Y-60737681D01*
X205629572Y-60837159D01*
X205685825Y-60965404D01*
X205685827Y-60965407D01*
X205821836Y-61173585D01*
X205926183Y-61286936D01*
X205990256Y-61356538D01*
X206073008Y-61420947D01*
X206108246Y-61464340D01*
X206120845Y-61518800D01*
X206108246Y-61573260D01*
X206073008Y-61616653D01*
X205990256Y-61681061D01*
X205821837Y-61864014D01*
X205685825Y-62072195D01*
X205585938Y-62299917D01*
X205524891Y-62540983D01*
X205504356Y-62788800D01*
X205524891Y-63036616D01*
X205524891Y-63036619D01*
X205524892Y-63036621D01*
X205585937Y-63277681D01*
X205610527Y-63333741D01*
X205685825Y-63505404D01*
X205685827Y-63505407D01*
X205821836Y-63713585D01*
X205990256Y-63896538D01*
X206073008Y-63960947D01*
X206108245Y-64004338D01*
X206120845Y-64058798D01*
X206108246Y-64113258D01*
X206073009Y-64156651D01*
X205990257Y-64221060D01*
X205821837Y-64404014D01*
X205685825Y-64612195D01*
X205585938Y-64839917D01*
X205524891Y-65080983D01*
X205504356Y-65328799D01*
X205524891Y-65576616D01*
X205524891Y-65576619D01*
X205524892Y-65576621D01*
X205585937Y-65817681D01*
X205630960Y-65920323D01*
X205685825Y-66045404D01*
X205685827Y-66045407D01*
X205821836Y-66253585D01*
X205990255Y-66436537D01*
X205990256Y-66436538D01*
X206073008Y-66500947D01*
X206108246Y-66544340D01*
X206120845Y-66598800D01*
X206108246Y-66653260D01*
X206073008Y-66696653D01*
X205990256Y-66761061D01*
X205916454Y-66841232D01*
X205821836Y-66944015D01*
X205776499Y-67013407D01*
X205685825Y-67152195D01*
X205605465Y-67335399D01*
X205585937Y-67379919D01*
X205524892Y-67620979D01*
X205524891Y-67620983D01*
X205504356Y-67868800D01*
X205524891Y-68116616D01*
X205524891Y-68116619D01*
X205524892Y-68116621D01*
X205585937Y-68357681D01*
X205630960Y-68460323D01*
X205685825Y-68585404D01*
X205685827Y-68585407D01*
X205821836Y-68793585D01*
X205990256Y-68976538D01*
X206073008Y-69040947D01*
X206108246Y-69084340D01*
X206120845Y-69138800D01*
X206108246Y-69193260D01*
X206073008Y-69236653D01*
X205990256Y-69301061D01*
X205821837Y-69484014D01*
X205685825Y-69692195D01*
X205585938Y-69919917D01*
X205524891Y-70160983D01*
X205504356Y-70408799D01*
X205524891Y-70656616D01*
X205524891Y-70656619D01*
X205524892Y-70656621D01*
X205585937Y-70897681D01*
X205630960Y-71000323D01*
X205685825Y-71125404D01*
X205685827Y-71125407D01*
X205821836Y-71333585D01*
X205990256Y-71516538D01*
X206073008Y-71580947D01*
X206108245Y-71624338D01*
X206120845Y-71678798D01*
X206108246Y-71733258D01*
X206073009Y-71776651D01*
X205990257Y-71841060D01*
X205821837Y-72024014D01*
X205685825Y-72232195D01*
X205610169Y-72404676D01*
X205585937Y-72459919D01*
X205533469Y-72667109D01*
X205524891Y-72700983D01*
X205504356Y-72948799D01*
X205524891Y-73196616D01*
X205524891Y-73196619D01*
X205524892Y-73196621D01*
X205585937Y-73437681D01*
X205608385Y-73488857D01*
X205685825Y-73665404D01*
X205685827Y-73665407D01*
X205821836Y-73873585D01*
X205990256Y-74056538D01*
X206073008Y-74120947D01*
X206108245Y-74164338D01*
X206120845Y-74218798D01*
X206108246Y-74273258D01*
X206073009Y-74316651D01*
X205990257Y-74381060D01*
X205821837Y-74564014D01*
X205685825Y-74772195D01*
X205617443Y-74928092D01*
X205585937Y-74999919D01*
X205555251Y-75121094D01*
X205524891Y-75240983D01*
X205504356Y-75488800D01*
X205524891Y-75736616D01*
X205524891Y-75736619D01*
X205524892Y-75736621D01*
X205585937Y-75977681D01*
X205598740Y-76006868D01*
X205685825Y-76205404D01*
X205685827Y-76205407D01*
X205821836Y-76413585D01*
X205990255Y-76596537D01*
X205990256Y-76596538D01*
X206073008Y-76660947D01*
X206108246Y-76704340D01*
X206120845Y-76758800D01*
X206108246Y-76813260D01*
X206073008Y-76856653D01*
X205990256Y-76921061D01*
X205821837Y-77104014D01*
X205685825Y-77312195D01*
X205585938Y-77539917D01*
X205524891Y-77780983D01*
X205504356Y-78028799D01*
X205524891Y-78276616D01*
X205524891Y-78276619D01*
X205524892Y-78276621D01*
X205585937Y-78517681D01*
X205590146Y-78527276D01*
X205685825Y-78745404D01*
X205685827Y-78745407D01*
X205821836Y-78953585D01*
X205914157Y-79053872D01*
X205990256Y-79136538D01*
X206073008Y-79200947D01*
X206108246Y-79244340D01*
X206120845Y-79298800D01*
X206108246Y-79353260D01*
X206073008Y-79396653D01*
X205990256Y-79461061D01*
X205821837Y-79644014D01*
X205685825Y-79852195D01*
X205595780Y-80057478D01*
X205585937Y-80079919D01*
X205560144Y-80181774D01*
X205524891Y-80320983D01*
X205504356Y-80568800D01*
X205524891Y-80816616D01*
X205524891Y-80816619D01*
X205524892Y-80816621D01*
X205585937Y-81057681D01*
X205630960Y-81160323D01*
X205685825Y-81285404D01*
X205685827Y-81285407D01*
X205821836Y-81493585D01*
X205990255Y-81676537D01*
X205990256Y-81676538D01*
X206073008Y-81740947D01*
X206108246Y-81784340D01*
X206120845Y-81838800D01*
X206108246Y-81893260D01*
X206073008Y-81936653D01*
X205990256Y-82001061D01*
X205821837Y-82184014D01*
X205685825Y-82392195D01*
X205585938Y-82619917D01*
X205524891Y-82860983D01*
X205504356Y-83108800D01*
X205524891Y-83356616D01*
X205524891Y-83356619D01*
X205524892Y-83356621D01*
X205585937Y-83597681D01*
X205628419Y-83694531D01*
X205685825Y-83825404D01*
X205685827Y-83825407D01*
X205821836Y-84033585D01*
X205939000Y-84160859D01*
X205990256Y-84216538D01*
X206073008Y-84280947D01*
X206108246Y-84324340D01*
X206120845Y-84378800D01*
X206108246Y-84433260D01*
X206073008Y-84476653D01*
X205990256Y-84541061D01*
X205835215Y-84709480D01*
X205821836Y-84724015D01*
X205789631Y-84773308D01*
X205685825Y-84932195D01*
X205595780Y-85137478D01*
X205585937Y-85159919D01*
X205549550Y-85303608D01*
X205524891Y-85400983D01*
X205504356Y-85648799D01*
X205524891Y-85896616D01*
X205524891Y-85896619D01*
X205524892Y-85896621D01*
X205585937Y-86137681D01*
X205600155Y-86170094D01*
X205685825Y-86365404D01*
X205685827Y-86365407D01*
X205821836Y-86573585D01*
X205990256Y-86756538D01*
X206073008Y-86820947D01*
X206108245Y-86864338D01*
X206120845Y-86918798D01*
X206108246Y-86973258D01*
X206073009Y-87016651D01*
X205990257Y-87081060D01*
X205821837Y-87264014D01*
X205685825Y-87472195D01*
X205603036Y-87660937D01*
X205585937Y-87699919D01*
X205524892Y-87940979D01*
X205524891Y-87940983D01*
X205504356Y-88188800D01*
X205524891Y-88436616D01*
X205524891Y-88436619D01*
X205524892Y-88436621D01*
X205585937Y-88677681D01*
X205630960Y-88780323D01*
X205685825Y-88905404D01*
X205685827Y-88905407D01*
X205821836Y-89113585D01*
X205920491Y-89220753D01*
X205990256Y-89296538D01*
X206073008Y-89360947D01*
X206108246Y-89404340D01*
X206120845Y-89458800D01*
X206108246Y-89513260D01*
X206073008Y-89556653D01*
X205990256Y-89621061D01*
X205821837Y-89804014D01*
X205685825Y-90012195D01*
X205585938Y-90239917D01*
X205524891Y-90480983D01*
X205504356Y-90728799D01*
X205524891Y-90976616D01*
X205524891Y-90976619D01*
X205524892Y-90976621D01*
X205585937Y-91217681D01*
X205618699Y-91292370D01*
X205685825Y-91445404D01*
X205685827Y-91445407D01*
X205821836Y-91653585D01*
X205966373Y-91810594D01*
X205990256Y-91836538D01*
X206073008Y-91900947D01*
X206108246Y-91944340D01*
X206120845Y-91998800D01*
X206108246Y-92053260D01*
X206073008Y-92096653D01*
X205990256Y-92161061D01*
X205835215Y-92329480D01*
X205821836Y-92344015D01*
X205776499Y-92413407D01*
X205685825Y-92552195D01*
X205585938Y-92779917D01*
X205524891Y-93020983D01*
X205504356Y-93268799D01*
X205524891Y-93516616D01*
X205524891Y-93516619D01*
X205524892Y-93516621D01*
X205585937Y-93757681D01*
X205619142Y-93833380D01*
X205685825Y-93985404D01*
X205685827Y-93985407D01*
X205821836Y-94193585D01*
X205990256Y-94376538D01*
X206073008Y-94440947D01*
X206108245Y-94484338D01*
X206120845Y-94538798D01*
X206108246Y-94593258D01*
X206073009Y-94636651D01*
X205990257Y-94701060D01*
X205821837Y-94884014D01*
X205685825Y-95092195D01*
X205585938Y-95319917D01*
X205524891Y-95560983D01*
X205504356Y-95808800D01*
X205524891Y-96056616D01*
X205524891Y-96056619D01*
X205524892Y-96056621D01*
X205585937Y-96297681D01*
X205630960Y-96400323D01*
X205685825Y-96525404D01*
X205685827Y-96525407D01*
X205821836Y-96733585D01*
X205990256Y-96916538D01*
X205990259Y-96916540D01*
X206186485Y-97069270D01*
X206186487Y-97069271D01*
X206186491Y-97069274D01*
X206405190Y-97187628D01*
X206503062Y-97221227D01*
X206578189Y-97247019D01*
X206634507Y-97286530D01*
X206661096Y-97349980D01*
X206649773Y-97417838D01*
X206604022Y-97469216D01*
X206537926Y-97488300D01*
X206474501Y-97488300D01*
X206278372Y-97502997D01*
X206022581Y-97561380D01*
X205778358Y-97657231D01*
X205551143Y-97788413D01*
X205346015Y-97951998D01*
X205167571Y-98144314D01*
X205142704Y-98180788D01*
X205019772Y-98361096D01*
X204905937Y-98597477D01*
X204828604Y-98848185D01*
X204789500Y-99107618D01*
X204789500Y-99369982D01*
X203090000Y-99369982D01*
X203090000Y-94748800D01*
X185400000Y-94748800D01*
X182673690Y-94748800D01*
X182629744Y-94701062D01*
X182613437Y-94688370D01*
X182546992Y-94636653D01*
X182511754Y-94593260D01*
X182499154Y-94538800D01*
X182511754Y-94484340D01*
X182546992Y-94440947D01*
X182571256Y-94422060D01*
X182629744Y-94376538D01*
X182798164Y-94193585D01*
X182934173Y-93985407D01*
X183034063Y-93757681D01*
X183095108Y-93516621D01*
X183115643Y-93268800D01*
X183095108Y-93020979D01*
X183034063Y-92779919D01*
X182934173Y-92552193D01*
X182798164Y-92344015D01*
X182629744Y-92161062D01*
X182613437Y-92148370D01*
X182546992Y-92096653D01*
X182511754Y-92053260D01*
X182499154Y-91998800D01*
X182511754Y-91944340D01*
X182546992Y-91900947D01*
X182575915Y-91878435D01*
X182629744Y-91836538D01*
X182798164Y-91653585D01*
X182934173Y-91445407D01*
X183034063Y-91217681D01*
X183095108Y-90976621D01*
X183115643Y-90728800D01*
X183095108Y-90480979D01*
X183034063Y-90239919D01*
X182934173Y-90012193D01*
X182798164Y-89804015D01*
X182629744Y-89621062D01*
X182561655Y-89568066D01*
X182546992Y-89556653D01*
X182511754Y-89513260D01*
X182499154Y-89458800D01*
X182511754Y-89404340D01*
X182546992Y-89360947D01*
X182571256Y-89342060D01*
X182629744Y-89296538D01*
X182798164Y-89113585D01*
X182934173Y-88905407D01*
X183034063Y-88677681D01*
X183095108Y-88436621D01*
X183115643Y-88188800D01*
X183095108Y-87940979D01*
X183034063Y-87699919D01*
X182934173Y-87472193D01*
X182798164Y-87264015D01*
X182629744Y-87081062D01*
X182613437Y-87068370D01*
X182546992Y-87016653D01*
X182511754Y-86973260D01*
X182499154Y-86918800D01*
X182511754Y-86864340D01*
X182546992Y-86820947D01*
X182571875Y-86801579D01*
X182629744Y-86756538D01*
X182798164Y-86573585D01*
X182934173Y-86365407D01*
X183034063Y-86137681D01*
X183095108Y-85896621D01*
X183115643Y-85648800D01*
X183095108Y-85400979D01*
X183034063Y-85159919D01*
X182934173Y-84932193D01*
X182798164Y-84724015D01*
X182629744Y-84541062D01*
X182629743Y-84541061D01*
X182546991Y-84476652D01*
X182511753Y-84433259D01*
X182499154Y-84378798D01*
X182511754Y-84324338D01*
X182546988Y-84280949D01*
X182629744Y-84216538D01*
X182798164Y-84033585D01*
X182934173Y-83825407D01*
X183034063Y-83597681D01*
X183095108Y-83356621D01*
X183115643Y-83108800D01*
X183095108Y-82860979D01*
X183034063Y-82619919D01*
X182934173Y-82392193D01*
X182798164Y-82184015D01*
X182629744Y-82001062D01*
X182613437Y-81988370D01*
X182546992Y-81936653D01*
X182511754Y-81893260D01*
X182499154Y-81838800D01*
X182511754Y-81784340D01*
X182546992Y-81740947D01*
X182571256Y-81722060D01*
X182629744Y-81676538D01*
X182798164Y-81493585D01*
X182934173Y-81285407D01*
X183034063Y-81057681D01*
X183095108Y-80816621D01*
X183115643Y-80568800D01*
X183095108Y-80320979D01*
X183034063Y-80079919D01*
X182934173Y-79852193D01*
X182798164Y-79644015D01*
X182629744Y-79461062D01*
X182613437Y-79448370D01*
X182546992Y-79396653D01*
X182511754Y-79353260D01*
X182499154Y-79298800D01*
X182511754Y-79244340D01*
X182546992Y-79200947D01*
X182571256Y-79182060D01*
X182629744Y-79136538D01*
X182798164Y-78953585D01*
X182934173Y-78745407D01*
X183034063Y-78517681D01*
X183095108Y-78276621D01*
X183115643Y-78028800D01*
X183095108Y-77780979D01*
X183034063Y-77539919D01*
X182934173Y-77312193D01*
X182798164Y-77104015D01*
X182629744Y-76921062D01*
X182613437Y-76908370D01*
X182546992Y-76856653D01*
X182511754Y-76813260D01*
X182499154Y-76758800D01*
X182511754Y-76704340D01*
X182546992Y-76660947D01*
X182571256Y-76642060D01*
X182629744Y-76596538D01*
X182798164Y-76413585D01*
X182934173Y-76205407D01*
X183034063Y-75977681D01*
X183095108Y-75736621D01*
X183115643Y-75488800D01*
X183095108Y-75240979D01*
X183034063Y-74999919D01*
X182934173Y-74772193D01*
X182798164Y-74564015D01*
X182629744Y-74381062D01*
X182613437Y-74368370D01*
X182546992Y-74316653D01*
X182511754Y-74273260D01*
X182499154Y-74218800D01*
X182511754Y-74164340D01*
X182546992Y-74120947D01*
X182576592Y-74097908D01*
X182629744Y-74056538D01*
X182798164Y-73873585D01*
X182934173Y-73665407D01*
X183034063Y-73437681D01*
X183095108Y-73196621D01*
X183115643Y-72948800D01*
X183095108Y-72700979D01*
X183034063Y-72459919D01*
X182936883Y-72238372D01*
X182934174Y-72232195D01*
X182934173Y-72232193D01*
X182798164Y-72024015D01*
X182629744Y-71841062D01*
X182613437Y-71828370D01*
X182546992Y-71776653D01*
X182511754Y-71733260D01*
X182499154Y-71678800D01*
X182511754Y-71624340D01*
X182546992Y-71580947D01*
X182573963Y-71559954D01*
X182629744Y-71516538D01*
X182798164Y-71333585D01*
X182934173Y-71125407D01*
X183034063Y-70897681D01*
X183095108Y-70656621D01*
X183115643Y-70408800D01*
X183095108Y-70160979D01*
X183034063Y-69919919D01*
X182934173Y-69692193D01*
X182798164Y-69484015D01*
X182629744Y-69301062D01*
X182613437Y-69288370D01*
X182546992Y-69236653D01*
X182511754Y-69193260D01*
X182499154Y-69138800D01*
X182511754Y-69084340D01*
X182546992Y-69040947D01*
X182571256Y-69022060D01*
X182629744Y-68976538D01*
X182798164Y-68793585D01*
X182934173Y-68585407D01*
X183034063Y-68357681D01*
X183095108Y-68116621D01*
X183115643Y-67868800D01*
X183095108Y-67620979D01*
X183034063Y-67379919D01*
X182934173Y-67152193D01*
X182798164Y-66944015D01*
X182629744Y-66761062D01*
X182613437Y-66748370D01*
X182546992Y-66696653D01*
X182511754Y-66653260D01*
X182499154Y-66598800D01*
X182511754Y-66544340D01*
X182546992Y-66500947D01*
X182571256Y-66482060D01*
X182629744Y-66436538D01*
X182798164Y-66253585D01*
X182934173Y-66045407D01*
X183034063Y-65817681D01*
X183095108Y-65576621D01*
X183115643Y-65328800D01*
X183095108Y-65080979D01*
X183034063Y-64839919D01*
X182934173Y-64612193D01*
X182798164Y-64404015D01*
X182629744Y-64221062D01*
X182613437Y-64208370D01*
X182546992Y-64156653D01*
X182511754Y-64113260D01*
X182499154Y-64058800D01*
X182511754Y-64004340D01*
X182546992Y-63960947D01*
X182571256Y-63942060D01*
X182629744Y-63896538D01*
X182798164Y-63713585D01*
X182934173Y-63505407D01*
X183034063Y-63277681D01*
X183095108Y-63036621D01*
X183115643Y-62788800D01*
X183095108Y-62540979D01*
X183034063Y-62299919D01*
X182934173Y-62072193D01*
X182798164Y-61864015D01*
X182629744Y-61681062D01*
X182607612Y-61663836D01*
X182433514Y-61528329D01*
X182433510Y-61528326D01*
X182433509Y-61528326D01*
X182214810Y-61409972D01*
X182214806Y-61409970D01*
X182214805Y-61409970D01*
X181979615Y-61329229D01*
X181734335Y-61288300D01*
X181485665Y-61288300D01*
X181240384Y-61329229D01*
X181005194Y-61409970D01*
X180786485Y-61528329D01*
X180590259Y-61681059D01*
X180421837Y-61864014D01*
X180285825Y-62072195D01*
X180185938Y-62299917D01*
X180124891Y-62540983D01*
X180104356Y-62788800D01*
X180124891Y-63036616D01*
X180124891Y-63036619D01*
X180124892Y-63036621D01*
X180185937Y-63277681D01*
X180210527Y-63333741D01*
X180285825Y-63505404D01*
X180285827Y-63505407D01*
X180421836Y-63713585D01*
X180590256Y-63896538D01*
X180673008Y-63960947D01*
X180708245Y-64004338D01*
X180720845Y-64058798D01*
X180708246Y-64113258D01*
X180673009Y-64156651D01*
X180590257Y-64221060D01*
X180421837Y-64404014D01*
X180285825Y-64612195D01*
X180185938Y-64839917D01*
X180124891Y-65080983D01*
X180104356Y-65328799D01*
X180124891Y-65576616D01*
X180124891Y-65576619D01*
X180124892Y-65576621D01*
X180185937Y-65817681D01*
X180230960Y-65920323D01*
X180285825Y-66045404D01*
X180285827Y-66045407D01*
X180421836Y-66253585D01*
X180590255Y-66436537D01*
X180590256Y-66436538D01*
X180673008Y-66500947D01*
X180708246Y-66544340D01*
X180720845Y-66598800D01*
X180708246Y-66653260D01*
X180673008Y-66696653D01*
X180590256Y-66761061D01*
X180516454Y-66841232D01*
X180421836Y-66944015D01*
X180376499Y-67013407D01*
X180285825Y-67152195D01*
X180205465Y-67335399D01*
X180185937Y-67379919D01*
X180124892Y-67620979D01*
X180124891Y-67620983D01*
X180104356Y-67868800D01*
X180124891Y-68116616D01*
X180124891Y-68116619D01*
X180124892Y-68116621D01*
X180185937Y-68357681D01*
X180230960Y-68460323D01*
X180285825Y-68585404D01*
X180285827Y-68585407D01*
X180421836Y-68793585D01*
X180590256Y-68976538D01*
X180673008Y-69040947D01*
X180708246Y-69084340D01*
X180720845Y-69138800D01*
X180708246Y-69193260D01*
X180673008Y-69236653D01*
X180590256Y-69301061D01*
X180421837Y-69484014D01*
X180285825Y-69692195D01*
X180185938Y-69919917D01*
X180124891Y-70160983D01*
X180104356Y-70408799D01*
X180124891Y-70656616D01*
X180124891Y-70656619D01*
X180124892Y-70656621D01*
X180185937Y-70897681D01*
X180230960Y-71000323D01*
X180285825Y-71125404D01*
X180285827Y-71125407D01*
X180421836Y-71333585D01*
X180590256Y-71516538D01*
X180673008Y-71580947D01*
X180708245Y-71624338D01*
X180720845Y-71678798D01*
X180708246Y-71733258D01*
X180673009Y-71776651D01*
X180590257Y-71841060D01*
X180421837Y-72024014D01*
X180285825Y-72232195D01*
X180210169Y-72404676D01*
X180185937Y-72459919D01*
X180133469Y-72667109D01*
X180124891Y-72700983D01*
X180104356Y-72948799D01*
X180124891Y-73196616D01*
X180124891Y-73196619D01*
X180124892Y-73196621D01*
X180185937Y-73437681D01*
X180208385Y-73488857D01*
X180285825Y-73665404D01*
X180285827Y-73665407D01*
X180421836Y-73873585D01*
X180590256Y-74056538D01*
X180673008Y-74120947D01*
X180708245Y-74164338D01*
X180720845Y-74218798D01*
X180708246Y-74273258D01*
X180673009Y-74316651D01*
X180590257Y-74381060D01*
X180421837Y-74564014D01*
X180285825Y-74772195D01*
X180217443Y-74928092D01*
X180185937Y-74999919D01*
X180155251Y-75121094D01*
X180124891Y-75240983D01*
X180104356Y-75488800D01*
X180124891Y-75736616D01*
X180124891Y-75736619D01*
X180124892Y-75736621D01*
X180185937Y-75977681D01*
X180198740Y-76006868D01*
X180285825Y-76205404D01*
X180285827Y-76205407D01*
X180421836Y-76413585D01*
X180590255Y-76596537D01*
X180590256Y-76596538D01*
X180673008Y-76660947D01*
X180708246Y-76704340D01*
X180720845Y-76758800D01*
X180708246Y-76813260D01*
X180673008Y-76856653D01*
X180590256Y-76921061D01*
X180421837Y-77104014D01*
X180285825Y-77312195D01*
X180185938Y-77539917D01*
X180124891Y-77780983D01*
X180104356Y-78028799D01*
X180124891Y-78276616D01*
X180124891Y-78276619D01*
X180124892Y-78276621D01*
X180185937Y-78517681D01*
X180190146Y-78527276D01*
X180285825Y-78745404D01*
X180285827Y-78745407D01*
X180421836Y-78953585D01*
X180514157Y-79053872D01*
X180590256Y-79136538D01*
X180673008Y-79200947D01*
X180708246Y-79244340D01*
X180720845Y-79298800D01*
X180708246Y-79353260D01*
X180673008Y-79396653D01*
X180590256Y-79461061D01*
X180421837Y-79644014D01*
X180285825Y-79852195D01*
X180195780Y-80057478D01*
X180185937Y-80079919D01*
X180160144Y-80181774D01*
X180124891Y-80320983D01*
X180104356Y-80568800D01*
X180124891Y-80816616D01*
X180124891Y-80816619D01*
X180124892Y-80816621D01*
X180185937Y-81057681D01*
X180230960Y-81160323D01*
X180285825Y-81285404D01*
X180285827Y-81285407D01*
X180421836Y-81493585D01*
X180590255Y-81676537D01*
X180590256Y-81676538D01*
X180673008Y-81740947D01*
X180708246Y-81784340D01*
X180720845Y-81838800D01*
X180708246Y-81893260D01*
X180673008Y-81936653D01*
X180590256Y-82001061D01*
X180421837Y-82184014D01*
X180285825Y-82392195D01*
X180185938Y-82619917D01*
X180124891Y-82860983D01*
X180104356Y-83108800D01*
X180124891Y-83356616D01*
X180124891Y-83356619D01*
X180124892Y-83356621D01*
X180185937Y-83597681D01*
X180228419Y-83694531D01*
X180285825Y-83825404D01*
X180285827Y-83825407D01*
X180421836Y-84033585D01*
X180539000Y-84160859D01*
X180590256Y-84216538D01*
X180673008Y-84280947D01*
X180708246Y-84324340D01*
X180720845Y-84378800D01*
X180708246Y-84433260D01*
X180673008Y-84476653D01*
X180590256Y-84541061D01*
X180421835Y-84724016D01*
X180347287Y-84838121D01*
X180302496Y-84879355D01*
X180243478Y-84894300D01*
X175242886Y-84894300D01*
X175195433Y-84884861D01*
X175155205Y-84857981D01*
X170005619Y-79708395D01*
X169978739Y-79668167D01*
X169969300Y-79620714D01*
X169969300Y-74701400D01*
X173471931Y-74701400D01*
X173491764Y-74928089D01*
X173550661Y-75147897D01*
X173646832Y-75354135D01*
X173777353Y-75540540D01*
X173938259Y-75701446D01*
X174124664Y-75831967D01*
X174124665Y-75831967D01*
X174124666Y-75831968D01*
X174330904Y-75928139D01*
X174550708Y-75987035D01*
X174777400Y-76006868D01*
X175004092Y-75987035D01*
X175223896Y-75928139D01*
X175430134Y-75831968D01*
X175616539Y-75701447D01*
X175777447Y-75540539D01*
X175907968Y-75354134D01*
X176004139Y-75147896D01*
X176063035Y-74928092D01*
X176082868Y-74701400D01*
X176063035Y-74474708D01*
X176004139Y-74254904D01*
X175907968Y-74048666D01*
X175906433Y-74046474D01*
X175777446Y-73862259D01*
X175616540Y-73701353D01*
X175430135Y-73570832D01*
X175223897Y-73474661D01*
X175004089Y-73415764D01*
X174777399Y-73395931D01*
X174550710Y-73415764D01*
X174330902Y-73474661D01*
X174124664Y-73570832D01*
X173938259Y-73701353D01*
X173777353Y-73862259D01*
X173646832Y-74048664D01*
X173550661Y-74254902D01*
X173491764Y-74474710D01*
X173471931Y-74701400D01*
X169969300Y-74701400D01*
X169969300Y-72809600D01*
X169970609Y-72791630D01*
X169971098Y-72788288D01*
X169974115Y-72767694D01*
X169969772Y-72718052D01*
X169969300Y-72707245D01*
X169969300Y-72701662D01*
X169969220Y-72700979D01*
X169965679Y-72670682D01*
X169965315Y-72667109D01*
X169958637Y-72590773D01*
X169954379Y-72571567D01*
X169928160Y-72499532D01*
X169926975Y-72496122D01*
X169902880Y-72423404D01*
X169894304Y-72405693D01*
X169893637Y-72404679D01*
X169893636Y-72404676D01*
X169852152Y-72341603D01*
X169850281Y-72338665D01*
X169810671Y-72274447D01*
X169810670Y-72274446D01*
X169810030Y-72273408D01*
X169797600Y-72258149D01*
X169741861Y-72205563D01*
X169739273Y-72203049D01*
X167151966Y-69615742D01*
X167140183Y-69602108D01*
X167125738Y-69582705D01*
X167087565Y-69550674D01*
X167079589Y-69543365D01*
X167075639Y-69539415D01*
X167051186Y-69520079D01*
X167048392Y-69517804D01*
X167008123Y-69484014D01*
X166990627Y-69469333D01*
X166990625Y-69469332D01*
X166989692Y-69468549D01*
X166973098Y-69457976D01*
X166903642Y-69425589D01*
X166900397Y-69424018D01*
X166831922Y-69389629D01*
X166813325Y-69383165D01*
X166738286Y-69367670D01*
X166734769Y-69366890D01*
X166660205Y-69349219D01*
X166640625Y-69347218D01*
X166564004Y-69349448D01*
X166560398Y-69349500D01*
X161087231Y-69349500D01*
X161048913Y-69343431D01*
X161014349Y-69325820D01*
X161006130Y-69319849D01*
X161006129Y-69319848D01*
X161006127Y-69319847D01*
X160833202Y-69242855D01*
X160648048Y-69203500D01*
X160648046Y-69203500D01*
X160458754Y-69203500D01*
X160458752Y-69203500D01*
X160273597Y-69242855D01*
X160100669Y-69319848D01*
X159947529Y-69431110D01*
X159820866Y-69571783D01*
X159726220Y-69735715D01*
X159667726Y-69915742D01*
X159647940Y-70104000D01*
X159667726Y-70292257D01*
X159726220Y-70472284D01*
X159820866Y-70636216D01*
X159947529Y-70776889D01*
X160100669Y-70888151D01*
X160273597Y-70965144D01*
X160458752Y-71004500D01*
X160458754Y-71004500D01*
X160648046Y-71004500D01*
X160648048Y-71004500D01*
X160771483Y-70978262D01*
X160833203Y-70965144D01*
X161006130Y-70888151D01*
X161014349Y-70882179D01*
X161048913Y-70864569D01*
X161087231Y-70858500D01*
X166209314Y-70858500D01*
X166256767Y-70867939D01*
X166296995Y-70894819D01*
X168423981Y-73021805D01*
X168450861Y-73062033D01*
X168460300Y-73109486D01*
X168460300Y-79920600D01*
X168458991Y-79938570D01*
X168455485Y-79962506D01*
X168459828Y-80012148D01*
X168460300Y-80022955D01*
X168460300Y-80028540D01*
X168463916Y-80059485D01*
X168464282Y-80063069D01*
X168470962Y-80139419D01*
X168475223Y-80158639D01*
X168501421Y-80230620D01*
X168502604Y-80234024D01*
X168526716Y-80306787D01*
X168535296Y-80324508D01*
X168577413Y-80388546D01*
X168579350Y-80391586D01*
X168618930Y-80455754D01*
X168618931Y-80455755D01*
X168619572Y-80456794D01*
X168632002Y-80472053D01*
X168687737Y-80524635D01*
X168690325Y-80527149D01*
X174300234Y-86137058D01*
X174312015Y-86150690D01*
X174326460Y-86170093D01*
X174364632Y-86202123D01*
X174372612Y-86209436D01*
X174376561Y-86213386D01*
X174401008Y-86232717D01*
X174403800Y-86234991D01*
X174443966Y-86268693D01*
X174461573Y-86283467D01*
X174461574Y-86283467D01*
X174462508Y-86284251D01*
X174479102Y-86294823D01*
X174480207Y-86295338D01*
X174480208Y-86295339D01*
X174548626Y-86327242D01*
X174551752Y-86328756D01*
X174619189Y-86362624D01*
X174619192Y-86362624D01*
X174620284Y-86363173D01*
X174638866Y-86369631D01*
X174640054Y-86369876D01*
X174640060Y-86369879D01*
X174714007Y-86385147D01*
X174717354Y-86385889D01*
X174790812Y-86403300D01*
X174790817Y-86403300D01*
X174791994Y-86403579D01*
X174811571Y-86405580D01*
X174812790Y-86405544D01*
X174812793Y-86405545D01*
X174884051Y-86403471D01*
X174888161Y-86403352D01*
X174891767Y-86403300D01*
X180243478Y-86403300D01*
X180302496Y-86418245D01*
X180347287Y-86459479D01*
X180421836Y-86573585D01*
X180590256Y-86756538D01*
X180673008Y-86820947D01*
X180708245Y-86864338D01*
X180720845Y-86918798D01*
X180708246Y-86973258D01*
X180673009Y-87016651D01*
X180590257Y-87081060D01*
X180421837Y-87264014D01*
X180285825Y-87472195D01*
X180203036Y-87660937D01*
X180185937Y-87699919D01*
X180124892Y-87940979D01*
X180124891Y-87940983D01*
X180104356Y-88188800D01*
X180124891Y-88436616D01*
X180124891Y-88436619D01*
X180124892Y-88436621D01*
X180185937Y-88677681D01*
X180230960Y-88780323D01*
X180285825Y-88905404D01*
X180285827Y-88905407D01*
X180421836Y-89113585D01*
X180520491Y-89220753D01*
X180590256Y-89296538D01*
X180673008Y-89360947D01*
X180708246Y-89404340D01*
X180720845Y-89458800D01*
X180708246Y-89513260D01*
X180673008Y-89556653D01*
X180590256Y-89621061D01*
X180421837Y-89804014D01*
X180285825Y-90012195D01*
X180185938Y-90239917D01*
X180124891Y-90480983D01*
X180104356Y-90728799D01*
X180124891Y-90976616D01*
X180124891Y-90976619D01*
X180124892Y-90976621D01*
X180185937Y-91217681D01*
X180218699Y-91292370D01*
X180285825Y-91445404D01*
X180285827Y-91445407D01*
X180421836Y-91653585D01*
X180566373Y-91810594D01*
X180590256Y-91836538D01*
X180673008Y-91900947D01*
X180708246Y-91944340D01*
X180720845Y-91998800D01*
X180708246Y-92053260D01*
X180673008Y-92096653D01*
X180590256Y-92161061D01*
X180421835Y-92344016D01*
X180347287Y-92458121D01*
X180302496Y-92499355D01*
X180243478Y-92514300D01*
X172245686Y-92514300D01*
X172198233Y-92504861D01*
X172158005Y-92477981D01*
X170742219Y-91062195D01*
X170715339Y-91021967D01*
X170705900Y-90974514D01*
X170705900Y-90220799D01*
X173446531Y-90220799D01*
X173466364Y-90447489D01*
X173525261Y-90667297D01*
X173621432Y-90873535D01*
X173751953Y-91059940D01*
X173912859Y-91220846D01*
X174099264Y-91351367D01*
X174099265Y-91351367D01*
X174099266Y-91351368D01*
X174305504Y-91447539D01*
X174525308Y-91506435D01*
X174676435Y-91519656D01*
X174751999Y-91526268D01*
X174751999Y-91526267D01*
X174752000Y-91526268D01*
X174978692Y-91506435D01*
X175198496Y-91447539D01*
X175404734Y-91351368D01*
X175591139Y-91220847D01*
X175752047Y-91059939D01*
X175882568Y-90873534D01*
X175978739Y-90667296D01*
X176037635Y-90447492D01*
X176057468Y-90220800D01*
X176037635Y-89994108D01*
X175978739Y-89774304D01*
X175882568Y-89568066D01*
X175752047Y-89381661D01*
X175752046Y-89381659D01*
X175591140Y-89220753D01*
X175404735Y-89090232D01*
X175198497Y-88994061D01*
X174978689Y-88935164D01*
X174752000Y-88915331D01*
X174525310Y-88935164D01*
X174305502Y-88994061D01*
X174099264Y-89090232D01*
X173912859Y-89220753D01*
X173751953Y-89381659D01*
X173621432Y-89568064D01*
X173525261Y-89774302D01*
X173466364Y-89994110D01*
X173446531Y-90220799D01*
X170705900Y-90220799D01*
X170705900Y-85839800D01*
X170707209Y-85821830D01*
X170707698Y-85818488D01*
X170710715Y-85797894D01*
X170706372Y-85748252D01*
X170705900Y-85737445D01*
X170705900Y-85731862D01*
X170702281Y-85700898D01*
X170701915Y-85697309D01*
X170695237Y-85620974D01*
X170690980Y-85601772D01*
X170690560Y-85600619D01*
X170690560Y-85600616D01*
X170664747Y-85529696D01*
X170663599Y-85526393D01*
X170639864Y-85454764D01*
X170639862Y-85454761D01*
X170639478Y-85453601D01*
X170630906Y-85435894D01*
X170607944Y-85400983D01*
X170588773Y-85371836D01*
X170586901Y-85368898D01*
X170547271Y-85304646D01*
X170547268Y-85304643D01*
X170546630Y-85303608D01*
X170534204Y-85288353D01*
X170478478Y-85235779D01*
X170475891Y-85233266D01*
X164951020Y-79708395D01*
X159944024Y-74701400D01*
X163311931Y-74701400D01*
X163331764Y-74928089D01*
X163390661Y-75147897D01*
X163486832Y-75354135D01*
X163617353Y-75540540D01*
X163778259Y-75701446D01*
X163964664Y-75831967D01*
X163964665Y-75831967D01*
X163964666Y-75831968D01*
X164170904Y-75928139D01*
X164390708Y-75987035D01*
X164617400Y-76006868D01*
X164844092Y-75987035D01*
X165063896Y-75928139D01*
X165270134Y-75831968D01*
X165456539Y-75701447D01*
X165617447Y-75540539D01*
X165747968Y-75354134D01*
X165844139Y-75147896D01*
X165903035Y-74928092D01*
X165922868Y-74701400D01*
X165903035Y-74474708D01*
X165844139Y-74254904D01*
X165747968Y-74048666D01*
X165746433Y-74046474D01*
X165617446Y-73862259D01*
X165456540Y-73701353D01*
X165270135Y-73570832D01*
X165063897Y-73474661D01*
X164844089Y-73415764D01*
X164617399Y-73395931D01*
X164390710Y-73415764D01*
X164170902Y-73474661D01*
X163964664Y-73570832D01*
X163778259Y-73701353D01*
X163617353Y-73862259D01*
X163486832Y-74048664D01*
X163390661Y-74254902D01*
X163331764Y-74474710D01*
X163311931Y-74701400D01*
X159944024Y-74701400D01*
X159354165Y-74111541D01*
X159342383Y-74097908D01*
X159327938Y-74078505D01*
X159289765Y-74046474D01*
X159281789Y-74039165D01*
X159277839Y-74035215D01*
X159253386Y-74015879D01*
X159250592Y-74013604D01*
X159192827Y-73965133D01*
X159192825Y-73965132D01*
X159191892Y-73964349D01*
X159175298Y-73953776D01*
X159105842Y-73921389D01*
X159102597Y-73919818D01*
X159034122Y-73885429D01*
X159015525Y-73878965D01*
X158940486Y-73863470D01*
X158936969Y-73862690D01*
X158862405Y-73845019D01*
X158842825Y-73843018D01*
X158766204Y-73845248D01*
X158762598Y-73845300D01*
X150604887Y-73845300D01*
X150557434Y-73835861D01*
X150517206Y-73808981D01*
X147520819Y-70812595D01*
X147493939Y-70772367D01*
X147484500Y-70724914D01*
X147484500Y-61248085D01*
X147497100Y-61193625D01*
X147532338Y-61150232D01*
X147681780Y-61033916D01*
X147681779Y-61033916D01*
X147681784Y-61033913D01*
X147838979Y-60863153D01*
X147965924Y-60668849D01*
X148059157Y-60456300D01*
X148116134Y-60231305D01*
X148135300Y-60000000D01*
X150404699Y-60000000D01*
X150423865Y-60231299D01*
X150423865Y-60231301D01*
X150423866Y-60231305D01*
X150480843Y-60456300D01*
X150480844Y-60456303D01*
X150555883Y-60627374D01*
X150574076Y-60668849D01*
X150701021Y-60863153D01*
X150858216Y-61033913D01*
X151041374Y-61176470D01*
X151245497Y-61286936D01*
X151355258Y-61324617D01*
X151465015Y-61362297D01*
X151465017Y-61362297D01*
X151465019Y-61362298D01*
X151693951Y-61400500D01*
X151926048Y-61400500D01*
X151926049Y-61400500D01*
X152154981Y-61362298D01*
X152374503Y-61286936D01*
X152578626Y-61176470D01*
X152761784Y-61033913D01*
X152918979Y-60863153D01*
X153045924Y-60668849D01*
X153139157Y-60456300D01*
X153196134Y-60231305D01*
X153215300Y-60000000D01*
X163484340Y-60000000D01*
X163504936Y-60235407D01*
X163533710Y-60342791D01*
X163566097Y-60463663D01*
X163665965Y-60677830D01*
X163801505Y-60871401D01*
X163968599Y-61038495D01*
X164162170Y-61174035D01*
X164376337Y-61273903D01*
X164604592Y-61335063D01*
X164840000Y-61355659D01*
X165075408Y-61335063D01*
X165303663Y-61273903D01*
X165517830Y-61174035D01*
X165711401Y-61038495D01*
X165878495Y-60871401D01*
X166014035Y-60677830D01*
X166113903Y-60463663D01*
X166175063Y-60235408D01*
X166195659Y-60000000D01*
X166175063Y-59764592D01*
X166113903Y-59536337D01*
X166014035Y-59322171D01*
X165878495Y-59128599D01*
X165711401Y-58961505D01*
X165517830Y-58825965D01*
X165303663Y-58726097D01*
X165242501Y-58709709D01*
X165075407Y-58664936D01*
X164840000Y-58644340D01*
X164604592Y-58664936D01*
X164376336Y-58726097D01*
X164162170Y-58825965D01*
X163968598Y-58961505D01*
X163801505Y-59128598D01*
X163665965Y-59322170D01*
X163566097Y-59536336D01*
X163504936Y-59764592D01*
X163484340Y-60000000D01*
X153215300Y-60000000D01*
X153196134Y-59768695D01*
X153139157Y-59543700D01*
X153045924Y-59331151D01*
X152918979Y-59136847D01*
X152761784Y-58966087D01*
X152578626Y-58823530D01*
X152374503Y-58713064D01*
X152374499Y-58713062D01*
X152374498Y-58713062D01*
X152154984Y-58637702D01*
X151964456Y-58605909D01*
X151926049Y-58599500D01*
X151693951Y-58599500D01*
X151655544Y-58605909D01*
X151465015Y-58637702D01*
X151245501Y-58713062D01*
X151041372Y-58823531D01*
X150858215Y-58966087D01*
X150701020Y-59136848D01*
X150574076Y-59331150D01*
X150480844Y-59543696D01*
X150480842Y-59543700D01*
X150480843Y-59543700D01*
X150426089Y-59759919D01*
X150423865Y-59768700D01*
X150404699Y-60000000D01*
X148135300Y-60000000D01*
X148116134Y-59768695D01*
X148059157Y-59543700D01*
X147965924Y-59331151D01*
X147838979Y-59136847D01*
X147681784Y-58966087D01*
X147498626Y-58823530D01*
X147294503Y-58713064D01*
X147294499Y-58713062D01*
X147294498Y-58713062D01*
X147074984Y-58637702D01*
X146884456Y-58605909D01*
X146846049Y-58599500D01*
X146613951Y-58599500D01*
X146575544Y-58605909D01*
X146385015Y-58637702D01*
X146165501Y-58713062D01*
X145961372Y-58823531D01*
X145778215Y-58966087D01*
X145621018Y-59136849D01*
X145563808Y-59224417D01*
X145519017Y-59265650D01*
X145460000Y-59280595D01*
X145400983Y-59265650D01*
X145356192Y-59224417D01*
X145298981Y-59136849D01*
X145141784Y-58966087D01*
X145078461Y-58916801D01*
X144958626Y-58823530D01*
X144754503Y-58713064D01*
X144754499Y-58713062D01*
X144754498Y-58713062D01*
X144534984Y-58637702D01*
X144344456Y-58605909D01*
X144306049Y-58599500D01*
X144073951Y-58599500D01*
X144035544Y-58605909D01*
X143845015Y-58637702D01*
X143625501Y-58713062D01*
X143421372Y-58823531D01*
X143238215Y-58966087D01*
X143081020Y-59136848D01*
X142954076Y-59331150D01*
X142860844Y-59543696D01*
X142860842Y-59543700D01*
X142860843Y-59543700D01*
X142806089Y-59759919D01*
X142803865Y-59768700D01*
X142784699Y-60000000D01*
X142272935Y-60000000D01*
X142265632Y-56105657D01*
X142282139Y-56043611D01*
X142327465Y-55998136D01*
X142389457Y-55981427D01*
X177701154Y-55932287D01*
X177757496Y-55945740D01*
X177801581Y-55983318D01*
X177823787Y-56036821D01*
X177819266Y-56094572D01*
X177789005Y-56143968D01*
X175319793Y-58613181D01*
X175279565Y-58640061D01*
X175232112Y-58649500D01*
X174102130Y-58649500D01*
X174042515Y-58655909D01*
X173907669Y-58706204D01*
X173792454Y-58792454D01*
X173706204Y-58907669D01*
X173657189Y-59039083D01*
X173622209Y-59089462D01*
X173567365Y-59116915D01*
X173506072Y-59114726D01*
X173453326Y-59083430D01*
X173331404Y-58961508D01*
X173331401Y-58961505D01*
X173137830Y-58825965D01*
X172923663Y-58726097D01*
X172862501Y-58709709D01*
X172695407Y-58664936D01*
X172460000Y-58644340D01*
X172224592Y-58664936D01*
X171996336Y-58726097D01*
X171782170Y-58825965D01*
X171588598Y-58961505D01*
X171421505Y-59128598D01*
X171291575Y-59314159D01*
X171247257Y-59353025D01*
X171190000Y-59367036D01*
X171132743Y-59353025D01*
X171088425Y-59314159D01*
X171025587Y-59224417D01*
X170958495Y-59128599D01*
X170791401Y-58961505D01*
X170597830Y-58825965D01*
X170383663Y-58726097D01*
X170322501Y-58709709D01*
X170155407Y-58664936D01*
X169920000Y-58644340D01*
X169684592Y-58664936D01*
X169456336Y-58726097D01*
X169242170Y-58825965D01*
X169048598Y-58961505D01*
X168881505Y-59128598D01*
X168745965Y-59322170D01*
X168646097Y-59536336D01*
X168584936Y-59764592D01*
X168564340Y-60000000D01*
X168584936Y-60235407D01*
X168613710Y-60342791D01*
X168646097Y-60463663D01*
X168745965Y-60677830D01*
X168881505Y-60871401D01*
X169048599Y-61038495D01*
X169242170Y-61174035D01*
X169456337Y-61273903D01*
X169684592Y-61335063D01*
X169920000Y-61355659D01*
X170155408Y-61335063D01*
X170383663Y-61273903D01*
X170597830Y-61174035D01*
X170791401Y-61038495D01*
X170958495Y-60871401D01*
X171088426Y-60685839D01*
X171132743Y-60646975D01*
X171190000Y-60632964D01*
X171247257Y-60646975D01*
X171291573Y-60685839D01*
X171421505Y-60871401D01*
X171588599Y-61038495D01*
X171782170Y-61174035D01*
X171996337Y-61273903D01*
X172224592Y-61335063D01*
X172460000Y-61355659D01*
X172695408Y-61335063D01*
X172923663Y-61273903D01*
X173137830Y-61174035D01*
X173331401Y-61038495D01*
X173453329Y-60916566D01*
X173506072Y-60885273D01*
X173567365Y-60883084D01*
X173622209Y-60910537D01*
X173657189Y-60960916D01*
X173678222Y-61017308D01*
X173706204Y-61092331D01*
X173792454Y-61207546D01*
X173907669Y-61293796D01*
X174042517Y-61344091D01*
X174102127Y-61350500D01*
X175897872Y-61350499D01*
X175957483Y-61344091D01*
X176092331Y-61293796D01*
X176207546Y-61207546D01*
X176293796Y-61092331D01*
X176344091Y-60957483D01*
X176350500Y-60897873D01*
X176350499Y-59767884D01*
X176359938Y-59720432D01*
X176386815Y-59680207D01*
X179091404Y-56975619D01*
X179131633Y-56948739D01*
X179179086Y-56939300D01*
X184827514Y-56939300D01*
X184874967Y-56948739D01*
X184915195Y-56975619D01*
X188997981Y-61058405D01*
X189024861Y-61098633D01*
X189034300Y-61146086D01*
X189034300Y-66808006D01*
X189017687Y-66870006D01*
X188961620Y-66967115D01*
X188903126Y-67147142D01*
X188883340Y-67335399D01*
X188903126Y-67523657D01*
X188961620Y-67703684D01*
X189056266Y-67867616D01*
X189182929Y-68008289D01*
X189336069Y-68119551D01*
X189508997Y-68196544D01*
X189694152Y-68235900D01*
X189694154Y-68235900D01*
X189883446Y-68235900D01*
X189883448Y-68235900D01*
X190006883Y-68209662D01*
X190068603Y-68196544D01*
X190241530Y-68119551D01*
X190394671Y-68008288D01*
X190521333Y-67867616D01*
X190615979Y-67703684D01*
X190674474Y-67523656D01*
X190694260Y-67335400D01*
X190674474Y-67147144D01*
X190615979Y-66967116D01*
X190615979Y-66967115D01*
X190559913Y-66870006D01*
X190543300Y-66808006D01*
X190543300Y-60846193D01*
X190544609Y-60828223D01*
X190544921Y-60826088D01*
X190548114Y-60804293D01*
X190543772Y-60754663D01*
X190543300Y-60743856D01*
X190543300Y-60738257D01*
X190539677Y-60707263D01*
X190539314Y-60703717D01*
X190532742Y-60628588D01*
X190532636Y-60627374D01*
X190528378Y-60608166D01*
X190527960Y-60607018D01*
X190527960Y-60607016D01*
X190502164Y-60536143D01*
X190500981Y-60532738D01*
X190489013Y-60496621D01*
X190477264Y-60461164D01*
X190477262Y-60461161D01*
X190476878Y-60460001D01*
X190468304Y-60442291D01*
X190426176Y-60378238D01*
X190424261Y-60375233D01*
X190384670Y-60311046D01*
X190384029Y-60310006D01*
X190371602Y-60294751D01*
X190315861Y-60242163D01*
X190313273Y-60239649D01*
X186205635Y-56132011D01*
X186175396Y-56082681D01*
X186170832Y-56025000D01*
X186192937Y-55971528D01*
X186236898Y-55933908D01*
X186293137Y-55920331D01*
X233527600Y-55854600D01*
X233581787Y-55854600D01*
X233643675Y-55871148D01*
G37*
%TD.AperFunction*%
%TD*%
M02*
