%TF.GenerationSoftware,KiCad,Pcbnew,7.0.1*%
%TF.CreationDate,2024-11-27T13:58:02-05:00*%
%TF.ProjectId,tfg53,74666735-332e-46b6-9963-61645f706362,rev?*%
%TF.SameCoordinates,Original*%
%TF.FileFunction,Copper,L2,Bot*%
%TF.FilePolarity,Positive*%
%FSLAX46Y46*%
G04 Gerber Fmt 4.6, Leading zero omitted, Abs format (unit mm)*
G04 Created by KiCad (PCBNEW 7.0.1) date 2024-11-27 13:58:02*
%MOMM*%
%LPD*%
G01*
G04 APERTURE LIST*
%TA.AperFunction,ComponentPad*%
%ADD10C,3.000000*%
%TD*%
%TA.AperFunction,ComponentPad*%
%ADD11C,0.800000*%
%TD*%
%TA.AperFunction,ComponentPad*%
%ADD12C,6.000000*%
%TD*%
%TA.AperFunction,ComponentPad*%
%ADD13R,2.600000X2.600000*%
%TD*%
%TA.AperFunction,ComponentPad*%
%ADD14C,2.600000*%
%TD*%
%TA.AperFunction,ComponentPad*%
%ADD15C,1.800000*%
%TD*%
%TA.AperFunction,ComponentPad*%
%ADD16R,2.000000X2.000000*%
%TD*%
%TA.AperFunction,ComponentPad*%
%ADD17C,2.000000*%
%TD*%
%TA.AperFunction,ComponentPad*%
%ADD18C,1.600000*%
%TD*%
%TA.AperFunction,ComponentPad*%
%ADD19O,1.600000X1.600000*%
%TD*%
%TA.AperFunction,ComponentPad*%
%ADD20R,1.850000X1.850000*%
%TD*%
%TA.AperFunction,ComponentPad*%
%ADD21C,1.850000*%
%TD*%
%TA.AperFunction,ComponentPad*%
%ADD22R,2.300000X2.000000*%
%TD*%
%TA.AperFunction,ComponentPad*%
%ADD23C,2.300000*%
%TD*%
%TA.AperFunction,ComponentPad*%
%ADD24C,2.500000*%
%TD*%
%TA.AperFunction,ComponentPad*%
%ADD25R,1.600000X1.600000*%
%TD*%
%TA.AperFunction,ComponentPad*%
%ADD26O,1.400000X1.750000*%
%TD*%
%TA.AperFunction,ComponentPad*%
%ADD27R,1.700000X1.700000*%
%TD*%
%TA.AperFunction,ComponentPad*%
%ADD28O,1.700000X1.700000*%
%TD*%
%TA.AperFunction,ComponentPad*%
%ADD29R,1.905000X2.000000*%
%TD*%
%TA.AperFunction,ComponentPad*%
%ADD30O,1.905000X2.000000*%
%TD*%
%TA.AperFunction,ComponentPad*%
%ADD31R,3.000000X3.000000*%
%TD*%
%TA.AperFunction,ComponentPad*%
%ADD32R,1.800000X1.800000*%
%TD*%
%TA.AperFunction,ViaPad*%
%ADD33C,0.800000*%
%TD*%
%TA.AperFunction,Conductor*%
%ADD34C,1.000000*%
%TD*%
%TA.AperFunction,Conductor*%
%ADD35C,3.000000*%
%TD*%
%TA.AperFunction,Conductor*%
%ADD36C,0.508000*%
%TD*%
G04 APERTURE END LIST*
D10*
%TO.P,F1,1*%
%TO.N,Net-(J5-Pin_1)*%
X60000000Y-91741800D03*
%TO.P,F1,2*%
%TO.N,Net-(J6-Pin_1)*%
X60000000Y-69141800D03*
%TD*%
D11*
%TO.P,H4,1*%
%TO.N,N/C*%
X57750000Y-60000000D03*
X58409010Y-58409010D03*
X58409010Y-61590990D03*
X60000000Y-57750000D03*
D12*
X60000000Y-60000000D03*
D11*
X60000000Y-62250000D03*
X61590990Y-58409010D03*
X61590990Y-61590990D03*
X62250000Y-60000000D03*
%TD*%
%TO.P,H1,1*%
%TO.N,N/C*%
X57750000Y-130000000D03*
X58409010Y-128409010D03*
X58409010Y-131590990D03*
X60000000Y-127750000D03*
D12*
X60000000Y-130000000D03*
D11*
X60000000Y-132250000D03*
X61590990Y-128409010D03*
X61590990Y-131590990D03*
X62250000Y-130000000D03*
%TD*%
D13*
%TO.P,KBPC610,1,+*%
%TO.N,Net-(D1-+)*%
X121697200Y-96653200D03*
D14*
%TO.P,KBPC610,2*%
%TO.N,Net-(D1-Pad2)*%
X121697200Y-107053200D03*
%TO.P,KBPC610,3,-*%
%TO.N,Net-(D1--)*%
X132097200Y-107053200D03*
%TO.P,KBPC610,4*%
%TO.N,Net-(D1-Pad4)*%
X132097200Y-96653200D03*
%TD*%
D10*
%TO.P,INTEPT,1,Pin_1*%
%TO.N,Net-(J6-Pin_1)*%
X82956400Y-77894400D03*
%TD*%
D15*
%TO.P,OLED,1,GND*%
%TO.N,GND*%
X151810000Y-60000000D03*
%TO.P,OLED,2,VCC*%
%TO.N,3v3*%
X149270000Y-60000000D03*
%TO.P,OLED,3,SCL*%
%TO.N,SLC*%
X146730000Y-60000000D03*
%TO.P,OLED,4,SDA*%
%TO.N,SDA*%
X144190000Y-60000000D03*
%TD*%
D16*
%TO.P,U1,1,3V3*%
%TO.N,3v3*%
X181610000Y-60248800D03*
D17*
%TO.P,U1,2,GND*%
%TO.N,GND*%
X181610000Y-62788800D03*
%TO.P,U1,3,D15*%
%TO.N,unconnected-(U1-D15-Pad3)*%
X181610000Y-65328800D03*
%TO.P,U1,4,D2*%
%TO.N,unconnected-(U1-D2-Pad4)*%
X181610000Y-67868800D03*
%TO.P,U1,5,D4*%
%TO.N,GPIO 4*%
X181610000Y-70408800D03*
%TO.P,U1,6,RX2*%
%TO.N,unconnected-(U1-RX2-Pad6)*%
X181610000Y-72948800D03*
%TO.P,U1,7,TX2*%
%TO.N,unconnected-(U1-TX2-Pad7)*%
X181610000Y-75488800D03*
%TO.P,U1,8,D5*%
%TO.N,CS*%
X181610000Y-78028800D03*
%TO.P,U1,9,D18*%
%TO.N,SCK*%
X181610000Y-80568800D03*
%TO.P,U1,10,D19*%
%TO.N,GPIO 19*%
X181610000Y-83108800D03*
%TO.P,U1,11,D21*%
%TO.N,SDA*%
X181610000Y-85648800D03*
%TO.P,U1,12,RX0*%
%TO.N,unconnected-(U1-RX0-Pad12)*%
X181610000Y-88188800D03*
%TO.P,U1,13,TX0*%
%TO.N,unconnected-(U1-TX0-Pad13)*%
X181610000Y-90728800D03*
%TO.P,U1,14,D22*%
%TO.N,SLC*%
X181610000Y-93268800D03*
%TO.P,U1,15,D23*%
%TO.N,SO*%
X181610000Y-95808800D03*
%TO.P,U1,16,EN*%
%TO.N,unconnected-(U1-EN-Pad16)*%
X207010000Y-95808800D03*
%TO.P,U1,17,VP*%
%TO.N,unconnected-(U1-VP-Pad17)*%
X207010000Y-93268800D03*
%TO.P,U1,18,VN*%
%TO.N,unconnected-(U1-VN-Pad18)*%
X207010000Y-90728800D03*
%TO.P,U1,19,D34*%
%TO.N,unconnected-(U1-D34-Pad19)*%
X207010000Y-88188800D03*
%TO.P,U1,20,D35*%
%TO.N,SOUND*%
X207010000Y-85648800D03*
%TO.P,U1,21,D32*%
%TO.N,GPIO 32*%
X207010000Y-83108800D03*
%TO.P,U1,22,D33*%
%TO.N,GPIO 33*%
X207010000Y-80568800D03*
%TO.P,U1,23,D25*%
%TO.N,unconnected-(U1-D25-Pad23)*%
X207010000Y-78028800D03*
%TO.P,U1,24,D26*%
%TO.N,unconnected-(U1-D26-Pad24)*%
X207010000Y-75488800D03*
%TO.P,U1,25,D27*%
%TO.N,GPIO 27*%
X207010000Y-72948800D03*
%TO.P,U1,26,D14*%
%TO.N,unconnected-(U1-D14-Pad26)*%
X207010000Y-70408800D03*
%TO.P,U1,27,D12*%
%TO.N,unconnected-(U1-D12-Pad27)*%
X207010000Y-67868800D03*
%TO.P,U1,28,D13*%
%TO.N,unconnected-(U1-D13-Pad28)*%
X207010000Y-65328800D03*
%TO.P,U1,29,GND*%
%TO.N,GND*%
X207010000Y-62788800D03*
%TO.P,U1,30,VIN*%
%TO.N,+5V*%
X207010000Y-60248800D03*
%TD*%
D18*
%TO.P,47K,1*%
%TO.N,L*%
X101168200Y-88519000D03*
D19*
%TO.P,47K,2*%
%TO.N,Net-(D1-Pad4)*%
X111328200Y-88519000D03*
%TD*%
D10*
%TO.P,INL,1,Pin_1*%
%TO.N,L*%
X82956400Y-94894400D03*
%TD*%
D20*
%TO.P,BZ1,1*%
%TO.N,SOUND*%
X219710000Y-92500000D03*
D21*
%TO.P,BZ1,2*%
%TO.N,GND*%
X219710000Y-97500000D03*
%TD*%
D22*
%TO.P,HLK-PM01,1,AC/L*%
%TO.N,Net-(PS1-AC{slash}L)*%
X178829200Y-113200800D03*
D23*
%TO.P,HLK-PM01,2,AC/N*%
%TO.N,N*%
X178829200Y-118200800D03*
%TO.P,HLK-PM01,3,-Vout*%
%TO.N,GND*%
X208229200Y-108000800D03*
%TO.P,HLK-PM01,4,+Vout*%
%TO.N,+5V*%
X208229200Y-123400800D03*
%TD*%
D24*
%TO.P,KEY2,1,1*%
%TO.N,unconnected-(KEY2-Pad1)*%
X230250000Y-72500000D03*
%TO.P,KEY2,2,2*%
%TO.N,GPIO 33*%
X217750000Y-72500000D03*
%TO.P,KEY2,3,3*%
%TO.N,unconnected-(KEY2-Pad3)*%
X217750000Y-77500000D03*
%TO.P,KEY2,4,4*%
%TO.N,3v3*%
X230250000Y-77500000D03*
%TD*%
D10*
%TO.P,VIN,1,Pin_1*%
%TO.N,N*%
X60000000Y-116001800D03*
%TD*%
D24*
%TO.P,KEY1,1,1*%
%TO.N,unconnected-(KEY1-Pad1)*%
X230250000Y-112500000D03*
%TO.P,KEY1,2,2*%
%TO.N,GPIO 32*%
X217750000Y-112500000D03*
%TO.P,KEY1,3,3*%
%TO.N,unconnected-(KEY1-Pad3)*%
X217750000Y-117500000D03*
%TO.P,KEY1,4,4*%
%TO.N,3v3*%
X230250000Y-117500000D03*
%TD*%
D25*
%TO.P,PC817,1*%
%TO.N,Net-(D1-+)*%
X139913200Y-101798200D03*
D19*
%TO.P,PC817,2*%
%TO.N,Net-(D1--)*%
X139913200Y-104338200D03*
%TO.P,PC817,3*%
%TO.N,GPIO 19*%
X147533200Y-104338200D03*
%TO.P,PC817,4*%
%TO.N,3v3*%
X147533200Y-101798200D03*
%TD*%
D26*
%TO.P,MOC3010,1,1*%
%TO.N,Net-(R7-Pad1)*%
X145567400Y-87264400D03*
%TO.P,MOC3010,2,2*%
%TO.N,GND*%
X148107400Y-87264400D03*
%TO.P,MOC3010,3,NC*%
%TO.N,unconnected-(U4-NC-Pad3)*%
X150647400Y-87264400D03*
%TO.P,MOC3010,4,4*%
%TO.N,Net-(Q1-G)*%
X150647400Y-79664400D03*
%TO.P,MOC3010,5,DNC*%
%TO.N,unconnected-(U4-DNC-Pad5)*%
X148107400Y-79664400D03*
%TO.P,MOC3010,6,6*%
%TO.N,Net-(R6-Pad2)*%
X145567400Y-79664400D03*
%TD*%
D10*
%TO.P,F3,1*%
%TO.N,L*%
X130000000Y-130000000D03*
%TO.P,F3,2*%
%TO.N,Net-(PS1-AC{slash}L)*%
X152600000Y-130000000D03*
%TD*%
D18*
%TO.P,47K,1*%
%TO.N,Net-(D1-Pad2)*%
X112115600Y-117246400D03*
D19*
%TO.P,47K,2*%
%TO.N,N*%
X101955600Y-117246400D03*
%TD*%
D11*
%TO.P,H3,1*%
%TO.N,N/C*%
X227750000Y-60000000D03*
X228409010Y-58409010D03*
X228409010Y-61590990D03*
X230000000Y-57750000D03*
D12*
X230000000Y-60000000D03*
D11*
X230000000Y-62250000D03*
X231590990Y-58409010D03*
X231590990Y-61590990D03*
X232250000Y-60000000D03*
%TD*%
D18*
%TO.P,220,1*%
%TO.N,L*%
X123088400Y-77724000D03*
D19*
%TO.P,220,2*%
%TO.N,Net-(R6-Pad2)*%
X133248400Y-77724000D03*
%TD*%
D27*
%TO.P,TK,1,Pin_1*%
%TO.N,SO*%
X175000000Y-60000000D03*
D28*
%TO.P,TK,2,Pin_2*%
%TO.N,CS*%
X172460000Y-60000000D03*
%TO.P,TK,3,Pin_3*%
%TO.N,SCK*%
X169920000Y-60000000D03*
%TO.P,TK,4,Pin_4*%
%TO.N,3v3*%
X167380000Y-60000000D03*
%TO.P,TK,5,Pin_5*%
%TO.N,GND*%
X164840000Y-60000000D03*
%TD*%
D29*
%TO.P,BTA,1,A1*%
%TO.N,Net-(Q1-A1)*%
X125000000Y-60000000D03*
D30*
%TO.P,BTA,2,A2*%
%TO.N,L*%
X127540000Y-60000000D03*
%TO.P,BTA,3,G*%
%TO.N,Net-(Q1-G)*%
X130080000Y-60000000D03*
%TD*%
D18*
%TO.P,1K,1*%
%TO.N,GND*%
X164592000Y-90220800D03*
D19*
%TO.P,1K,2*%
%TO.N,GPIO 19*%
X174752000Y-90220800D03*
%TD*%
D11*
%TO.P,H2,1*%
%TO.N,N/C*%
X227750000Y-130000000D03*
X228409010Y-128409010D03*
X228409010Y-131590990D03*
X230000000Y-127750000D03*
D12*
X230000000Y-130000000D03*
D11*
X230000000Y-132250000D03*
X231590990Y-128409010D03*
X231590990Y-131590990D03*
X232250000Y-130000000D03*
%TD*%
D31*
%TO.P,Heater,1*%
%TO.N,Net-(Q1-A1)*%
X106883200Y-59944000D03*
D10*
%TO.P,Heater,2*%
%TO.N,N*%
X101803200Y-59944000D03*
%TD*%
%TO.P,VIL,1,Pin_1*%
%TO.N,Net-(J5-Pin_1)*%
X60000000Y-101650800D03*
%TD*%
D18*
%TO.P,1K,1*%
%TO.N,GPIO 33*%
X215000000Y-85000000D03*
D19*
%TO.P,1K,2*%
%TO.N,GND*%
X225160000Y-85000000D03*
%TD*%
D18*
%TO.P,1K,1*%
%TO.N,GPIO 32*%
X215000000Y-105000000D03*
D19*
%TO.P,1K,2*%
%TO.N,GND*%
X225160000Y-105000000D03*
%TD*%
D10*
%TO.P,INN,1,Pin_1*%
%TO.N,N*%
X82956400Y-111894400D03*
%TD*%
D32*
%TO.P,RV1,1,1*%
%TO.N,GND*%
X220000000Y-60000000D03*
D15*
%TO.P,RV1,2,2*%
%TO.N,GPIO 27*%
X217500000Y-60000000D03*
%TO.P,RV1,3,3*%
%TO.N,3v3*%
X215000000Y-60000000D03*
%TD*%
D18*
%TO.P,100,1*%
%TO.N,Net-(R7-Pad1)*%
X164617400Y-74701400D03*
D19*
%TO.P,100,2*%
%TO.N,GPIO 4*%
X174777400Y-74701400D03*
%TD*%
D33*
%TO.N,SO*%
X189788800Y-67335400D03*
%TO.N,SDA*%
X160553400Y-70104000D03*
%TD*%
D34*
%TO.N,Net-(D1-Pad2)*%
X112115600Y-117246400D02*
X116484400Y-117246400D01*
X121697200Y-112033600D02*
X121697200Y-107053200D01*
X116484400Y-117246400D02*
X121697200Y-112033600D01*
%TO.N,N*%
X132243200Y-118200800D02*
X178829200Y-118200800D01*
D35*
X92430600Y-102420200D02*
X92430600Y-69316600D01*
D34*
X101955600Y-121208800D02*
X107924600Y-127177800D01*
X123266200Y-127177800D02*
X132243200Y-118200800D01*
X101955600Y-117246400D02*
X101955600Y-121208800D01*
X107924600Y-127177800D02*
X123266200Y-127177800D01*
D35*
X82956400Y-111894400D02*
X92430600Y-102420200D01*
X92430600Y-69316600D02*
X101803200Y-59944000D01*
D36*
%TO.N,SO*%
X189788800Y-60782200D02*
X185191400Y-56184800D01*
X178815200Y-56184800D02*
X175000000Y-60000000D01*
X185191400Y-56184800D02*
X178815200Y-56184800D01*
X189788800Y-60782200D02*
X189788800Y-67335400D01*
%TO.N,GPIO 32*%
X215000000Y-91098800D02*
X207010000Y-83108800D01*
X215000000Y-105000000D02*
X215000000Y-91098800D01*
%TO.N,SDA*%
X160553400Y-70104000D02*
X166573200Y-70104000D01*
X169214800Y-72745600D02*
X169214800Y-79984600D01*
X169214800Y-79984600D02*
X174879000Y-85648800D01*
X174879000Y-85648800D02*
X181610000Y-85648800D01*
X166573200Y-70104000D02*
X169214800Y-72745600D01*
%TO.N,SLC*%
X158775400Y-74599800D02*
X150241000Y-74599800D01*
X171881800Y-93268800D02*
X169951400Y-91338400D01*
X169951400Y-91338400D02*
X169951400Y-85775800D01*
X181610000Y-93268800D02*
X171881800Y-93268800D01*
X169951400Y-85775800D02*
X158775400Y-74599800D01*
X146730000Y-71088800D02*
X146730000Y-60000000D01*
X150241000Y-74599800D02*
X146730000Y-71088800D01*
%TD*%
%TA.AperFunction,Conductor*%
%TO.N,3v3*%
G36*
X228448218Y-55880599D02*
G01*
X228494034Y-55931550D01*
X228505796Y-55999054D01*
X228479913Y-56062498D01*
X228424288Y-56102510D01*
X228390600Y-56114564D01*
X228017504Y-56291024D01*
X227663517Y-56503196D01*
X227332012Y-56749057D01*
X227026215Y-57026215D01*
X226749057Y-57332012D01*
X226503196Y-57663517D01*
X226291024Y-58017504D01*
X226114561Y-58390605D01*
X225975524Y-58779186D01*
X225875243Y-59179533D01*
X225814685Y-59587780D01*
X225794433Y-60000000D01*
X225814685Y-60412219D01*
X225875243Y-60820466D01*
X225975524Y-61220813D01*
X226114561Y-61609394D01*
X226291024Y-61982495D01*
X226503196Y-62336482D01*
X226749057Y-62667987D01*
X227026215Y-62973784D01*
X227332012Y-63250942D01*
X227663517Y-63496803D01*
X228017504Y-63708975D01*
X228017508Y-63708977D01*
X228017510Y-63708978D01*
X228390600Y-63885436D01*
X228390603Y-63885437D01*
X228390605Y-63885438D01*
X228682578Y-63989908D01*
X228779189Y-64024476D01*
X229179535Y-64124757D01*
X229587782Y-64185315D01*
X230000000Y-64205566D01*
X230412218Y-64185315D01*
X230820465Y-64124757D01*
X231220811Y-64024476D01*
X231609400Y-63885436D01*
X231982490Y-63708978D01*
X232336487Y-63496800D01*
X232667983Y-63250946D01*
X232973784Y-62973784D01*
X233250946Y-62667983D01*
X233477085Y-62363069D01*
X233500429Y-62331594D01*
X233501761Y-62332582D01*
X233541178Y-62294272D01*
X233602899Y-62278417D01*
X233664345Y-62295311D01*
X233709285Y-62340491D01*
X233725852Y-62402026D01*
X233908197Y-120775171D01*
X233890984Y-120838587D01*
X233843784Y-120884303D01*
X233779850Y-120899482D01*
X232922462Y-120869398D01*
X232460800Y-120853200D01*
X232460793Y-120853200D01*
X211198588Y-120853200D01*
X211136419Y-120836489D01*
X211091006Y-120790861D01*
X211074589Y-120728614D01*
X211081907Y-119180797D01*
X211089854Y-117500000D01*
X215294654Y-117500000D01*
X215314015Y-117807731D01*
X215371794Y-118110622D01*
X215467078Y-118403875D01*
X215598363Y-118682868D01*
X215763585Y-118943218D01*
X215960129Y-119180797D01*
X216184905Y-119391877D01*
X216434359Y-119573116D01*
X216546497Y-119634764D01*
X216704565Y-119721663D01*
X216847910Y-119778417D01*
X216991256Y-119835172D01*
X217093568Y-119861441D01*
X217289914Y-119911854D01*
X217544115Y-119943967D01*
X217595827Y-119950500D01*
X217595828Y-119950500D01*
X217904172Y-119950500D01*
X217904173Y-119950500D01*
X217948407Y-119944911D01*
X218210086Y-119911854D01*
X218508743Y-119835172D01*
X218795435Y-119721663D01*
X219065640Y-119573116D01*
X219315096Y-119391876D01*
X219539869Y-119180799D01*
X219736416Y-118943216D01*
X219901635Y-118682871D01*
X220032922Y-118403873D01*
X220128206Y-118110619D01*
X220185984Y-117807736D01*
X220205345Y-117500000D01*
X220185984Y-117192264D01*
X220128206Y-116889381D01*
X220032922Y-116596127D01*
X220022876Y-116574779D01*
X219901636Y-116317131D01*
X219802451Y-116160840D01*
X219736416Y-116056784D01*
X219709759Y-116024562D01*
X219539870Y-115819202D01*
X219315094Y-115608122D01*
X219065640Y-115426883D01*
X218795433Y-115278336D01*
X218508743Y-115164827D01*
X218334554Y-115120104D01*
X218278263Y-115088231D01*
X218245684Y-115032344D01*
X218245684Y-114967656D01*
X218278263Y-114911769D01*
X218334554Y-114879896D01*
X218508743Y-114835172D01*
X218629222Y-114787471D01*
X218795435Y-114721663D01*
X219065640Y-114573116D01*
X219315096Y-114391876D01*
X219539869Y-114180799D01*
X219736416Y-113943216D01*
X219901635Y-113682871D01*
X220032922Y-113403873D01*
X220128206Y-113110619D01*
X220185984Y-112807736D01*
X220205345Y-112500000D01*
X227794654Y-112500000D01*
X227814015Y-112807731D01*
X227871794Y-113110622D01*
X227967078Y-113403875D01*
X228098363Y-113682868D01*
X228263585Y-113943218D01*
X228460129Y-114180797D01*
X228684905Y-114391877D01*
X228934359Y-114573116D01*
X229069462Y-114647389D01*
X229204565Y-114721663D01*
X229347910Y-114778417D01*
X229491256Y-114835172D01*
X229648878Y-114875642D01*
X229789914Y-114911854D01*
X230044115Y-114943967D01*
X230095827Y-114950500D01*
X230095828Y-114950500D01*
X230404172Y-114950500D01*
X230404173Y-114950500D01*
X230448407Y-114944911D01*
X230710086Y-114911854D01*
X231008743Y-114835172D01*
X231295435Y-114721663D01*
X231565640Y-114573116D01*
X231815096Y-114391876D01*
X232039869Y-114180799D01*
X232236416Y-113943216D01*
X232401635Y-113682871D01*
X232532922Y-113403873D01*
X232628206Y-113110619D01*
X232685984Y-112807736D01*
X232705345Y-112500000D01*
X232685984Y-112192264D01*
X232628206Y-111889381D01*
X232604901Y-111817657D01*
X232532921Y-111596124D01*
X232401636Y-111317131D01*
X232236414Y-111056781D01*
X232039870Y-110819202D01*
X231815094Y-110608122D01*
X231565640Y-110426883D01*
X231295433Y-110278336D01*
X231008743Y-110164827D01*
X230710088Y-110088146D01*
X230404173Y-110049500D01*
X230404172Y-110049500D01*
X230095828Y-110049500D01*
X230095827Y-110049500D01*
X229789911Y-110088146D01*
X229491256Y-110164827D01*
X229204566Y-110278336D01*
X228934359Y-110426883D01*
X228684905Y-110608122D01*
X228460129Y-110819202D01*
X228263585Y-111056781D01*
X228098363Y-111317131D01*
X227967078Y-111596124D01*
X227871794Y-111889377D01*
X227814015Y-112192268D01*
X227794654Y-112500000D01*
X220205345Y-112500000D01*
X220185984Y-112192264D01*
X220128206Y-111889381D01*
X220104901Y-111817657D01*
X220032921Y-111596124D01*
X219901636Y-111317131D01*
X219736414Y-111056781D01*
X219539870Y-110819202D01*
X219315094Y-110608122D01*
X219065640Y-110426883D01*
X218795433Y-110278336D01*
X218508743Y-110164827D01*
X218210088Y-110088146D01*
X217904173Y-110049500D01*
X217904172Y-110049500D01*
X217595828Y-110049500D01*
X217595827Y-110049500D01*
X217289911Y-110088146D01*
X216991256Y-110164827D01*
X216704566Y-110278336D01*
X216434359Y-110426883D01*
X216184905Y-110608122D01*
X215960129Y-110819202D01*
X215763585Y-111056781D01*
X215598363Y-111317131D01*
X215467078Y-111596124D01*
X215371794Y-111889377D01*
X215314015Y-112192268D01*
X215294654Y-112500000D01*
X215314015Y-112807731D01*
X215371794Y-113110622D01*
X215467078Y-113403875D01*
X215598363Y-113682868D01*
X215763585Y-113943218D01*
X215960129Y-114180797D01*
X216184905Y-114391877D01*
X216434359Y-114573116D01*
X216569462Y-114647389D01*
X216704565Y-114721663D01*
X216847910Y-114778417D01*
X216991256Y-114835172D01*
X217165445Y-114879896D01*
X217221737Y-114911770D01*
X217254315Y-114967656D01*
X217254315Y-115032344D01*
X217221737Y-115088230D01*
X217165445Y-115120104D01*
X216991256Y-115164827D01*
X216704566Y-115278336D01*
X216434359Y-115426883D01*
X216184905Y-115608122D01*
X215960129Y-115819202D01*
X215763585Y-116056781D01*
X215598363Y-116317131D01*
X215467078Y-116596124D01*
X215371794Y-116889377D01*
X215314015Y-117192268D01*
X215294654Y-117500000D01*
X211089854Y-117500000D01*
X211124800Y-110109000D01*
X211124798Y-110109000D01*
X209712148Y-110110043D01*
X209651531Y-110094268D01*
X209606357Y-110050879D01*
X209588153Y-109990947D01*
X209601563Y-109929763D01*
X209643167Y-109882940D01*
X209663163Y-109869579D01*
X209677412Y-109857082D01*
X209894820Y-109666420D01*
X210097978Y-109434764D01*
X210269160Y-109178572D01*
X210405438Y-108902227D01*
X210504480Y-108610459D01*
X210564591Y-108308260D01*
X210584743Y-108000800D01*
X210564591Y-107693340D01*
X210504480Y-107391141D01*
X210405438Y-107099373D01*
X210269160Y-106823029D01*
X210097978Y-106566836D01*
X209894820Y-106335180D01*
X209786582Y-106240258D01*
X209663164Y-106132021D01*
X209406971Y-105960839D01*
X209130625Y-105824560D01*
X208838859Y-105725519D01*
X208536666Y-105665409D01*
X208229200Y-105645257D01*
X207921733Y-105665409D01*
X207619540Y-105725519D01*
X207327775Y-105824560D01*
X207051429Y-105960839D01*
X206795236Y-106132021D01*
X206563580Y-106335180D01*
X206360421Y-106566836D01*
X206189239Y-106823029D01*
X206052960Y-107099375D01*
X205953919Y-107391140D01*
X205893809Y-107693333D01*
X205873657Y-108000800D01*
X205893809Y-108308266D01*
X205953919Y-108610459D01*
X206052960Y-108902225D01*
X206189239Y-109178571D01*
X206360421Y-109434764D01*
X206468658Y-109558182D01*
X206563580Y-109666420D01*
X206686998Y-109774656D01*
X206795235Y-109869578D01*
X206818509Y-109885129D01*
X206860094Y-109931920D01*
X206873524Y-109993062D01*
X206855374Y-110052974D01*
X206810271Y-110096385D01*
X206749710Y-110112231D01*
X142490859Y-110159708D01*
X142428887Y-110143164D01*
X142383473Y-110097869D01*
X142366767Y-110035943D01*
X142356082Y-104338200D01*
X145527589Y-104338200D01*
X145548004Y-104623629D01*
X145608829Y-104903241D01*
X145708834Y-105171363D01*
X145845972Y-105422513D01*
X145931717Y-105537055D01*
X146017461Y-105651595D01*
X146219805Y-105853939D01*
X146362607Y-105960839D01*
X146448886Y-106025427D01*
X146556728Y-106084313D01*
X146700039Y-106162567D01*
X146968154Y-106262569D01*
X146968157Y-106262569D01*
X146968158Y-106262570D01*
X147020417Y-106273938D01*
X147247772Y-106323396D01*
X147533200Y-106343810D01*
X147818628Y-106323396D01*
X148098246Y-106262569D01*
X148366361Y-106162567D01*
X148617515Y-106025426D01*
X148846595Y-105853939D01*
X149048939Y-105651595D01*
X149220426Y-105422515D01*
X149357567Y-105171361D01*
X149457569Y-104903246D01*
X149518396Y-104623628D01*
X149538810Y-104338200D01*
X149518396Y-104052772D01*
X149457569Y-103773154D01*
X149357567Y-103505039D01*
X149220426Y-103253885D01*
X149048939Y-103024805D01*
X148846595Y-102822461D01*
X148732054Y-102736717D01*
X148617513Y-102650972D01*
X148366363Y-102513834D01*
X148366362Y-102513833D01*
X148366361Y-102513833D01*
X148098246Y-102413831D01*
X148098241Y-102413829D01*
X147818629Y-102353004D01*
X147533200Y-102332589D01*
X147247770Y-102353004D01*
X146968158Y-102413829D01*
X146700036Y-102513834D01*
X146448886Y-102650972D01*
X146219802Y-102822463D01*
X146017463Y-103024802D01*
X145845972Y-103253886D01*
X145708834Y-103505036D01*
X145608829Y-103773158D01*
X145548004Y-104052770D01*
X145527589Y-104338200D01*
X142356082Y-104338200D01*
X142329608Y-90220800D01*
X162586389Y-90220800D01*
X162606804Y-90506229D01*
X162667629Y-90785841D01*
X162674693Y-90804779D01*
X162750731Y-91008646D01*
X162767634Y-91053963D01*
X162904772Y-91305113D01*
X162952198Y-91368466D01*
X163076261Y-91534195D01*
X163278605Y-91736539D01*
X163450415Y-91865154D01*
X163507686Y-91908027D01*
X163629620Y-91974608D01*
X163758839Y-92045167D01*
X164026954Y-92145169D01*
X164026957Y-92145169D01*
X164026958Y-92145170D01*
X164079217Y-92156538D01*
X164306572Y-92205996D01*
X164592000Y-92226410D01*
X164877428Y-92205996D01*
X165157046Y-92145169D01*
X165425161Y-92045167D01*
X165676315Y-91908026D01*
X165905395Y-91736539D01*
X166107739Y-91534195D01*
X166279226Y-91305115D01*
X166416367Y-91053961D01*
X166516369Y-90785846D01*
X166577196Y-90506228D01*
X166597610Y-90220800D01*
X166577196Y-89935372D01*
X166516369Y-89655754D01*
X166416367Y-89387639D01*
X166279226Y-89136485D01*
X166107739Y-88907405D01*
X165905395Y-88705061D01*
X165770451Y-88604043D01*
X165676313Y-88533572D01*
X165425163Y-88396434D01*
X165425162Y-88396433D01*
X165425161Y-88396433D01*
X165157046Y-88296431D01*
X165157041Y-88296429D01*
X164877429Y-88235604D01*
X164592000Y-88215189D01*
X164306570Y-88235604D01*
X164026958Y-88296429D01*
X163758836Y-88396434D01*
X163507686Y-88533572D01*
X163278602Y-88705063D01*
X163076263Y-88907402D01*
X162904772Y-89136486D01*
X162767634Y-89387636D01*
X162667629Y-89655758D01*
X162606804Y-89935370D01*
X162586389Y-90220800D01*
X142329608Y-90220800D01*
X142324522Y-87508867D01*
X143666900Y-87508867D01*
X143682122Y-87716855D01*
X143742611Y-87988396D01*
X143792996Y-88120133D01*
X143841992Y-88248238D01*
X143978147Y-88490840D01*
X144063160Y-88600935D01*
X144148174Y-88711033D01*
X144348448Y-88904122D01*
X144574705Y-89065994D01*
X144822111Y-89193194D01*
X144822117Y-89193197D01*
X145085414Y-89283021D01*
X145085416Y-89283021D01*
X145085418Y-89283022D01*
X145358983Y-89333552D01*
X145636995Y-89343713D01*
X145636995Y-89343712D01*
X145636996Y-89343713D01*
X145913524Y-89313286D01*
X146182676Y-89242920D01*
X146438714Y-89134116D01*
X146676181Y-88989192D01*
X146755678Y-88923033D01*
X146803632Y-88898379D01*
X146857519Y-88896410D01*
X146907146Y-88917499D01*
X147114705Y-89065994D01*
X147362111Y-89193194D01*
X147362117Y-89193197D01*
X147625414Y-89283021D01*
X147625416Y-89283021D01*
X147625418Y-89283022D01*
X147898983Y-89333552D01*
X148176995Y-89343713D01*
X148176995Y-89343712D01*
X148176996Y-89343713D01*
X148453524Y-89313286D01*
X148722676Y-89242920D01*
X148978714Y-89134116D01*
X149216181Y-88989192D01*
X149295678Y-88923033D01*
X149343632Y-88898379D01*
X149397519Y-88896410D01*
X149447146Y-88917499D01*
X149654705Y-89065994D01*
X149902111Y-89193194D01*
X149902117Y-89193197D01*
X150165414Y-89283021D01*
X150165416Y-89283021D01*
X150165418Y-89283022D01*
X150438983Y-89333552D01*
X150716995Y-89343713D01*
X150716995Y-89343712D01*
X150716996Y-89343713D01*
X150993524Y-89313286D01*
X151262676Y-89242920D01*
X151518714Y-89134116D01*
X151756181Y-88989192D01*
X151970017Y-88811237D01*
X152155663Y-88604043D01*
X152309163Y-88372027D01*
X152427246Y-88120133D01*
X152507395Y-87853731D01*
X152547900Y-87578499D01*
X152547900Y-87019937D01*
X152546851Y-87005610D01*
X152532677Y-86811944D01*
X152472188Y-86540403D01*
X152421804Y-86408668D01*
X152372808Y-86280562D01*
X152236653Y-86037960D01*
X152103949Y-85866103D01*
X152066625Y-85817766D01*
X151866351Y-85624677D01*
X151640094Y-85462805D01*
X151392688Y-85335605D01*
X151392684Y-85335603D01*
X151392683Y-85335603D01*
X151245607Y-85285428D01*
X151129381Y-85245777D01*
X150855816Y-85195247D01*
X150577804Y-85185086D01*
X150328687Y-85212497D01*
X150301276Y-85215514D01*
X150033853Y-85285428D01*
X150032124Y-85285880D01*
X149855460Y-85360954D01*
X149776086Y-85394684D01*
X149538619Y-85539608D01*
X149538617Y-85539609D01*
X149538613Y-85539612D01*
X149459120Y-85605765D01*
X149411165Y-85630420D01*
X149357278Y-85632389D01*
X149307652Y-85611300D01*
X149100094Y-85462805D01*
X148852688Y-85335605D01*
X148852684Y-85335603D01*
X148852683Y-85335603D01*
X148705607Y-85285428D01*
X148589381Y-85245777D01*
X148315816Y-85195247D01*
X148037804Y-85185086D01*
X147788687Y-85212497D01*
X147761276Y-85215514D01*
X147493853Y-85285428D01*
X147492124Y-85285880D01*
X147315460Y-85360954D01*
X147236086Y-85394684D01*
X146998619Y-85539608D01*
X146998617Y-85539609D01*
X146998613Y-85539612D01*
X146919120Y-85605765D01*
X146871165Y-85630420D01*
X146817278Y-85632389D01*
X146767652Y-85611300D01*
X146560094Y-85462805D01*
X146312688Y-85335605D01*
X146312684Y-85335603D01*
X146312683Y-85335603D01*
X146165607Y-85285428D01*
X146049381Y-85245777D01*
X145775816Y-85195247D01*
X145497804Y-85185086D01*
X145248687Y-85212497D01*
X145221276Y-85215514D01*
X144953853Y-85285428D01*
X144952124Y-85285880D01*
X144775460Y-85360954D01*
X144696086Y-85394684D01*
X144458619Y-85539608D01*
X144458617Y-85539609D01*
X144458613Y-85539612D01*
X144244784Y-85717561D01*
X144059138Y-85924755D01*
X143905635Y-86156775D01*
X143787552Y-86408668D01*
X143707406Y-86675063D01*
X143707405Y-86675068D01*
X143707405Y-86675069D01*
X143667977Y-86942989D01*
X143666900Y-86950304D01*
X143666900Y-87508867D01*
X142324522Y-87508867D01*
X142310270Y-79908867D01*
X143666900Y-79908867D01*
X143682122Y-80116855D01*
X143742611Y-80388396D01*
X143841991Y-80648236D01*
X143841992Y-80648238D01*
X143978147Y-80890840D01*
X144039695Y-80970547D01*
X144148174Y-81111033D01*
X144348448Y-81304122D01*
X144574705Y-81465994D01*
X144822111Y-81593194D01*
X144822117Y-81593197D01*
X145085414Y-81683021D01*
X145085416Y-81683021D01*
X145085418Y-81683022D01*
X145358983Y-81733552D01*
X145636995Y-81743713D01*
X145636995Y-81743712D01*
X145636996Y-81743713D01*
X145913524Y-81713286D01*
X146182676Y-81642920D01*
X146438714Y-81534116D01*
X146676181Y-81389192D01*
X146755678Y-81323033D01*
X146803632Y-81298379D01*
X146857519Y-81296410D01*
X146907146Y-81317499D01*
X147114705Y-81465994D01*
X147362111Y-81593194D01*
X147362117Y-81593197D01*
X147625414Y-81683021D01*
X147625416Y-81683021D01*
X147625418Y-81683022D01*
X147898983Y-81733552D01*
X148176995Y-81743713D01*
X148176995Y-81743712D01*
X148176996Y-81743713D01*
X148453524Y-81713286D01*
X148722676Y-81642920D01*
X148978714Y-81534116D01*
X149216181Y-81389192D01*
X149295678Y-81323033D01*
X149343632Y-81298379D01*
X149397519Y-81296410D01*
X149447146Y-81317499D01*
X149654705Y-81465994D01*
X149902111Y-81593194D01*
X149902117Y-81593197D01*
X150165414Y-81683021D01*
X150165416Y-81683021D01*
X150165418Y-81683022D01*
X150438983Y-81733552D01*
X150716995Y-81743713D01*
X150716995Y-81743712D01*
X150716996Y-81743713D01*
X150993524Y-81713286D01*
X151262676Y-81642920D01*
X151518714Y-81534116D01*
X151756181Y-81389192D01*
X151970017Y-81211237D01*
X152155663Y-81004043D01*
X152309163Y-80772027D01*
X152427246Y-80520133D01*
X152507395Y-80253731D01*
X152547900Y-79978499D01*
X152547900Y-79419937D01*
X152545846Y-79391877D01*
X152532677Y-79211944D01*
X152472188Y-78940403D01*
X152421804Y-78808668D01*
X152372808Y-78680562D01*
X152236653Y-78437960D01*
X152126556Y-78295379D01*
X152066625Y-78217766D01*
X151866351Y-78024677D01*
X151640094Y-77862805D01*
X151392688Y-77735605D01*
X151392684Y-77735603D01*
X151392683Y-77735603D01*
X151246932Y-77685880D01*
X151129381Y-77645777D01*
X150855816Y-77595247D01*
X150577804Y-77585086D01*
X150328687Y-77612497D01*
X150301276Y-77615514D01*
X150032123Y-77685880D01*
X150032124Y-77685880D01*
X149902524Y-77740954D01*
X149776086Y-77794684D01*
X149538619Y-77939608D01*
X149538617Y-77939609D01*
X149538613Y-77939612D01*
X149459120Y-78005765D01*
X149411165Y-78030420D01*
X149357278Y-78032389D01*
X149307652Y-78011300D01*
X149100094Y-77862805D01*
X148852688Y-77735605D01*
X148852684Y-77735603D01*
X148852683Y-77735603D01*
X148706932Y-77685880D01*
X148589381Y-77645777D01*
X148315816Y-77595247D01*
X148037804Y-77585086D01*
X147788687Y-77612497D01*
X147761276Y-77615514D01*
X147492123Y-77685880D01*
X147492124Y-77685880D01*
X147362524Y-77740954D01*
X147236086Y-77794684D01*
X146998619Y-77939608D01*
X146998617Y-77939609D01*
X146998613Y-77939612D01*
X146919120Y-78005765D01*
X146871165Y-78030420D01*
X146817278Y-78032389D01*
X146767652Y-78011300D01*
X146560094Y-77862805D01*
X146312688Y-77735605D01*
X146312684Y-77735603D01*
X146312683Y-77735603D01*
X146166932Y-77685880D01*
X146049381Y-77645777D01*
X145775816Y-77595247D01*
X145497804Y-77585086D01*
X145248687Y-77612497D01*
X145221276Y-77615514D01*
X144952123Y-77685880D01*
X144952124Y-77685880D01*
X144822524Y-77740954D01*
X144696086Y-77794684D01*
X144458619Y-77939608D01*
X144458617Y-77939609D01*
X144458613Y-77939612D01*
X144244784Y-78117561D01*
X144059138Y-78324755D01*
X143905635Y-78556775D01*
X143787552Y-78808668D01*
X143707406Y-79075063D01*
X143707405Y-79075068D01*
X143707405Y-79075069D01*
X143669776Y-79330764D01*
X143666900Y-79350304D01*
X143666900Y-79908867D01*
X142310270Y-79908867D01*
X142275412Y-61320967D01*
X142290824Y-61260867D01*
X142333424Y-61215754D01*
X142392548Y-61196928D01*
X142453390Y-61209103D01*
X142500716Y-61249230D01*
X142556806Y-61328692D01*
X142556809Y-61328695D01*
X142556811Y-61328698D01*
X142718740Y-61502081D01*
X142752950Y-61538711D01*
X142886690Y-61647516D01*
X142975853Y-61720055D01*
X143221375Y-61869361D01*
X143484942Y-61983844D01*
X143761642Y-62061371D01*
X144046322Y-62100500D01*
X144333678Y-62100500D01*
X144618358Y-62061371D01*
X144895058Y-61983844D01*
X145102098Y-61893913D01*
X145162073Y-61884100D01*
X145219508Y-61903961D01*
X145260608Y-61948729D01*
X145275500Y-62007648D01*
X145275500Y-70990798D01*
X145274548Y-71006136D01*
X145271761Y-71028488D01*
X145275394Y-71116302D01*
X145275500Y-71121427D01*
X145275500Y-71148960D01*
X145277774Y-71176414D01*
X145278091Y-71181525D01*
X145281723Y-71269328D01*
X145286345Y-71291374D01*
X145288559Y-71306574D01*
X145290419Y-71329020D01*
X145311996Y-71414228D01*
X145313151Y-71419219D01*
X145331190Y-71505248D01*
X145339377Y-71526231D01*
X145344062Y-71540856D01*
X145349592Y-71562690D01*
X145384902Y-71643189D01*
X145386863Y-71647923D01*
X145410870Y-71709449D01*
X145418812Y-71729801D01*
X145430346Y-71749158D01*
X145437369Y-71762803D01*
X145446421Y-71783438D01*
X145494495Y-71857022D01*
X145497207Y-71861367D01*
X145542200Y-71936873D01*
X145556760Y-71954065D01*
X145565941Y-71966377D01*
X145578261Y-71985234D01*
X145636410Y-72048400D01*
X145637793Y-72049903D01*
X145641187Y-72053747D01*
X145658973Y-72074748D01*
X145678433Y-72094207D01*
X145681984Y-72097907D01*
X145741520Y-72162580D01*
X145759291Y-72176412D01*
X145770811Y-72186585D01*
X149143211Y-75558984D01*
X149153382Y-75570501D01*
X149167223Y-75588283D01*
X149231905Y-75647828D01*
X149235603Y-75651376D01*
X149255054Y-75670827D01*
X149276055Y-75688614D01*
X149279888Y-75691998D01*
X149344566Y-75751539D01*
X149363424Y-75763859D01*
X149375739Y-75773043D01*
X149392924Y-75787598D01*
X149392926Y-75787599D01*
X149392927Y-75787600D01*
X149468451Y-75832603D01*
X149472728Y-75835272D01*
X149546362Y-75883379D01*
X149566990Y-75892427D01*
X149580644Y-75899455D01*
X149599999Y-75910988D01*
X149681905Y-75942947D01*
X149686601Y-75944893D01*
X149767106Y-75980206D01*
X149788947Y-75985736D01*
X149803564Y-75990419D01*
X149824556Y-75998611D01*
X149910617Y-76016655D01*
X149915546Y-76017796D01*
X150000777Y-76039380D01*
X150023231Y-76041240D01*
X150038427Y-76043454D01*
X150060472Y-76048077D01*
X150148283Y-76051708D01*
X150153399Y-76052025D01*
X150168754Y-76053298D01*
X150180838Y-76054300D01*
X150180839Y-76054300D01*
X150208374Y-76054300D01*
X150213496Y-76054405D01*
X150233953Y-76055252D01*
X150301312Y-76058038D01*
X150301312Y-76058037D01*
X150301314Y-76058038D01*
X150323665Y-76055251D01*
X150339003Y-76054300D01*
X158121564Y-76054300D01*
X158169017Y-76063739D01*
X158209245Y-76090619D01*
X168460581Y-86341954D01*
X168487461Y-86382182D01*
X168496900Y-86429635D01*
X168496900Y-91240398D01*
X168495948Y-91255736D01*
X168493161Y-91278088D01*
X168496794Y-91365902D01*
X168496900Y-91371027D01*
X168496900Y-91398560D01*
X168499174Y-91426014D01*
X168499491Y-91431125D01*
X168503123Y-91518928D01*
X168507745Y-91540974D01*
X168509959Y-91556174D01*
X168511819Y-91578620D01*
X168533396Y-91663828D01*
X168534551Y-91668819D01*
X168552590Y-91754848D01*
X168560777Y-91775831D01*
X168565462Y-91790456D01*
X168570992Y-91812290D01*
X168606302Y-91892789D01*
X168608258Y-91897513D01*
X168640212Y-91979401D01*
X168651746Y-91998758D01*
X168658769Y-92012403D01*
X168667821Y-92033038D01*
X168715895Y-92106622D01*
X168718607Y-92110967D01*
X168763600Y-92186473D01*
X168778160Y-92203665D01*
X168787341Y-92215977D01*
X168799661Y-92234834D01*
X168857810Y-92298000D01*
X168859193Y-92299503D01*
X168862587Y-92303347D01*
X168880373Y-92324348D01*
X168899833Y-92343807D01*
X168903384Y-92347507D01*
X168962920Y-92412180D01*
X168980691Y-92426012D01*
X168992211Y-92436185D01*
X170784011Y-94227984D01*
X170794182Y-94239501D01*
X170808023Y-94257283D01*
X170872704Y-94316827D01*
X170876402Y-94320375D01*
X170895854Y-94339827D01*
X170916855Y-94357614D01*
X170920688Y-94360998D01*
X170985366Y-94420539D01*
X171004224Y-94432859D01*
X171016539Y-94442043D01*
X171033724Y-94456598D01*
X171033726Y-94456599D01*
X171033727Y-94456600D01*
X171109251Y-94501603D01*
X171113528Y-94504272D01*
X171187162Y-94552379D01*
X171207790Y-94561427D01*
X171221444Y-94568455D01*
X171240799Y-94579988D01*
X171322705Y-94611947D01*
X171327401Y-94613893D01*
X171353862Y-94625500D01*
X171407906Y-94649206D01*
X171429747Y-94654736D01*
X171444364Y-94659419D01*
X171465356Y-94667611D01*
X171551417Y-94685655D01*
X171556346Y-94686796D01*
X171641577Y-94708380D01*
X171664031Y-94710240D01*
X171679227Y-94712454D01*
X171701272Y-94717077D01*
X171789083Y-94720708D01*
X171794199Y-94721025D01*
X171809554Y-94722298D01*
X171821638Y-94723300D01*
X171821639Y-94723300D01*
X171849173Y-94723300D01*
X171854295Y-94723405D01*
X171874752Y-94724252D01*
X171942111Y-94727038D01*
X171942111Y-94727037D01*
X171942113Y-94727038D01*
X171964464Y-94724251D01*
X171979802Y-94723300D01*
X179492376Y-94723300D01*
X179552611Y-94738913D01*
X179597677Y-94781820D01*
X179616227Y-94841216D01*
X179603588Y-94902142D01*
X179586620Y-94936550D01*
X179572639Y-94964901D01*
X179479918Y-95238049D01*
X179423644Y-95520954D01*
X179404778Y-95808799D01*
X179423644Y-96096645D01*
X179479918Y-96379550D01*
X179572640Y-96652702D01*
X179700221Y-96911410D01*
X179700222Y-96911411D01*
X179860480Y-97151254D01*
X180050673Y-97368127D01*
X180201044Y-97499999D01*
X180267546Y-97558320D01*
X180507392Y-97718580D01*
X180732219Y-97829452D01*
X180776279Y-97865869D01*
X180799321Y-97918180D01*
X180796449Y-97975270D01*
X180768275Y-98025005D01*
X180657568Y-98144318D01*
X180547910Y-98305157D01*
X180509772Y-98361096D01*
X180395937Y-98597477D01*
X180318604Y-98848185D01*
X180279500Y-99107618D01*
X180279500Y-99369982D01*
X180318604Y-99629415D01*
X180395937Y-99880123D01*
X180509772Y-100116504D01*
X180645766Y-100315970D01*
X180657571Y-100333285D01*
X180836015Y-100525601D01*
X180836019Y-100525605D01*
X181041143Y-100689186D01*
X181268357Y-100820368D01*
X181512584Y-100916220D01*
X181768370Y-100974602D01*
X181824408Y-100978801D01*
X181964501Y-100989300D01*
X181964506Y-100989300D01*
X182095494Y-100989300D01*
X182095499Y-100989300D01*
X182218078Y-100980113D01*
X182291630Y-100974602D01*
X182547416Y-100916220D01*
X182791643Y-100820368D01*
X183018857Y-100689186D01*
X183223981Y-100525605D01*
X183323273Y-100418592D01*
X183402428Y-100333285D01*
X183402429Y-100333282D01*
X183402433Y-100333279D01*
X183550228Y-100116504D01*
X183664063Y-99880123D01*
X183741396Y-99629415D01*
X183780500Y-99369982D01*
X183780500Y-99107618D01*
X183741396Y-98848185D01*
X183664063Y-98597477D01*
X183550228Y-98361096D01*
X183402433Y-98144321D01*
X183402432Y-98144320D01*
X183402428Y-98144314D01*
X183223984Y-97951998D01*
X183223983Y-97951997D01*
X183223981Y-97951995D01*
X183135282Y-97881260D01*
X183018858Y-97788414D01*
X182970459Y-97760471D01*
X182928244Y-97720278D01*
X182909057Y-97665238D01*
X182917138Y-97607512D01*
X182950701Y-97559856D01*
X182952447Y-97558324D01*
X182952454Y-97558320D01*
X183169327Y-97368127D01*
X183359520Y-97151254D01*
X183519778Y-96911411D01*
X183647359Y-96652702D01*
X183740081Y-96379553D01*
X183796356Y-96096639D01*
X183815222Y-95808800D01*
X183796356Y-95520961D01*
X183740081Y-95238047D01*
X183647359Y-94964898D01*
X183540791Y-94748800D01*
X185400000Y-94748800D01*
X185400000Y-101238800D01*
X203090000Y-101238800D01*
X203090000Y-99369982D01*
X204789500Y-99369982D01*
X204828604Y-99629415D01*
X204905937Y-99880123D01*
X205019772Y-100116504D01*
X205155766Y-100315970D01*
X205167571Y-100333285D01*
X205346015Y-100525601D01*
X205346019Y-100525605D01*
X205551143Y-100689186D01*
X205778357Y-100820368D01*
X206022584Y-100916220D01*
X206278370Y-100974602D01*
X206334408Y-100978801D01*
X206474501Y-100989300D01*
X206474506Y-100989300D01*
X206605494Y-100989300D01*
X206605499Y-100989300D01*
X206728078Y-100980113D01*
X206801630Y-100974602D01*
X207057416Y-100916220D01*
X207301643Y-100820368D01*
X207528857Y-100689186D01*
X207733981Y-100525605D01*
X207833273Y-100418592D01*
X207912428Y-100333285D01*
X207912429Y-100333282D01*
X207912433Y-100333279D01*
X208060228Y-100116504D01*
X208174063Y-99880123D01*
X208251396Y-99629415D01*
X208290500Y-99369982D01*
X208290500Y-99107618D01*
X208251396Y-98848185D01*
X208174063Y-98597477D01*
X208060228Y-98361096D01*
X207912433Y-98144321D01*
X207912431Y-98144318D01*
X207864817Y-98093003D01*
X207817419Y-98041920D01*
X207789246Y-97992187D01*
X207786374Y-97935098D01*
X207809416Y-97882786D01*
X207853476Y-97846369D01*
X208112607Y-97718580D01*
X208112607Y-97718579D01*
X208112611Y-97718578D01*
X208352454Y-97558320D01*
X208569327Y-97368127D01*
X208759520Y-97151254D01*
X208919778Y-96911411D01*
X209047359Y-96652702D01*
X209140081Y-96379553D01*
X209196356Y-96096639D01*
X209215222Y-95808800D01*
X209196356Y-95520961D01*
X209140081Y-95238047D01*
X209047359Y-94964898D01*
X208928268Y-94723406D01*
X208919778Y-94706189D01*
X208881703Y-94649206D01*
X208853962Y-94607688D01*
X208835448Y-94562990D01*
X208835448Y-94514607D01*
X208853961Y-94469911D01*
X208919778Y-94371411D01*
X209047359Y-94112702D01*
X209140081Y-93839553D01*
X209196356Y-93556639D01*
X209215222Y-93268800D01*
X209196356Y-92980961D01*
X209140081Y-92698047D01*
X209078266Y-92515947D01*
X209047359Y-92424897D01*
X208919778Y-92166189D01*
X208853963Y-92067690D01*
X208835448Y-92022990D01*
X208835448Y-91974607D01*
X208853962Y-91929910D01*
X208919778Y-91831411D01*
X209047359Y-91572702D01*
X209140081Y-91299553D01*
X209196356Y-91016639D01*
X209215222Y-90728800D01*
X209196356Y-90440961D01*
X209194541Y-90431838D01*
X209152563Y-90220800D01*
X209140081Y-90158047D01*
X209047359Y-89884898D01*
X208919778Y-89626189D01*
X208853960Y-89527687D01*
X208835448Y-89482992D01*
X208835448Y-89434608D01*
X208853960Y-89389912D01*
X208919778Y-89291411D01*
X209047359Y-89032702D01*
X209140081Y-88759553D01*
X209193531Y-88490840D01*
X209196355Y-88476645D01*
X209196355Y-88476643D01*
X209196356Y-88476639D01*
X209215222Y-88188800D01*
X209196356Y-87900961D01*
X209186962Y-87853736D01*
X209139827Y-87616771D01*
X209143513Y-87554262D01*
X209177273Y-87501524D01*
X209232497Y-87472006D01*
X209295103Y-87473236D01*
X209349125Y-87504899D01*
X213509181Y-91664955D01*
X213536061Y-91705183D01*
X213545500Y-91752636D01*
X213545500Y-103574004D01*
X213536061Y-103621457D01*
X213509181Y-103661685D01*
X213484263Y-103686602D01*
X213312772Y-103915686D01*
X213175634Y-104166836D01*
X213075629Y-104434958D01*
X213014804Y-104714570D01*
X212994389Y-105000000D01*
X213014804Y-105285429D01*
X213075629Y-105565041D01*
X213075631Y-105565046D01*
X213135484Y-105725519D01*
X213175634Y-105833163D01*
X213312772Y-106084313D01*
X213348486Y-106132021D01*
X213484261Y-106313395D01*
X213686605Y-106515739D01*
X213754863Y-106566836D01*
X213915686Y-106687227D01*
X214055435Y-106763535D01*
X214166839Y-106824367D01*
X214434954Y-106924369D01*
X214434957Y-106924369D01*
X214434958Y-106924370D01*
X214487217Y-106935738D01*
X214714572Y-106985196D01*
X215000000Y-107005610D01*
X215285428Y-106985196D01*
X215565046Y-106924369D01*
X215833161Y-106824367D01*
X216084315Y-106687226D01*
X216313395Y-106515739D01*
X216515739Y-106313395D01*
X216687226Y-106084315D01*
X216824367Y-105833161D01*
X216924369Y-105565046D01*
X216985196Y-105285428D01*
X217005610Y-105000000D01*
X223154389Y-105000000D01*
X223174804Y-105285429D01*
X223235629Y-105565041D01*
X223235631Y-105565046D01*
X223295484Y-105725519D01*
X223335634Y-105833163D01*
X223472772Y-106084313D01*
X223508486Y-106132021D01*
X223644261Y-106313395D01*
X223846605Y-106515739D01*
X223914863Y-106566836D01*
X224075686Y-106687227D01*
X224215435Y-106763535D01*
X224326839Y-106824367D01*
X224594954Y-106924369D01*
X224594957Y-106924369D01*
X224594958Y-106924370D01*
X224647217Y-106935738D01*
X224874572Y-106985196D01*
X225160000Y-107005610D01*
X225445428Y-106985196D01*
X225725046Y-106924369D01*
X225993161Y-106824367D01*
X226244315Y-106687226D01*
X226473395Y-106515739D01*
X226675739Y-106313395D01*
X226847226Y-106084315D01*
X226984367Y-105833161D01*
X227084369Y-105565046D01*
X227145196Y-105285428D01*
X227165610Y-105000000D01*
X227145196Y-104714572D01*
X227084369Y-104434954D01*
X226984367Y-104166839D01*
X226847226Y-103915685D01*
X226675739Y-103686605D01*
X226473395Y-103484261D01*
X226358855Y-103398517D01*
X226244313Y-103312772D01*
X225993163Y-103175634D01*
X225993162Y-103175633D01*
X225993161Y-103175633D01*
X225725046Y-103075631D01*
X225725041Y-103075629D01*
X225445429Y-103014804D01*
X225160000Y-102994389D01*
X224874570Y-103014804D01*
X224594958Y-103075629D01*
X224326836Y-103175634D01*
X224075686Y-103312772D01*
X223846602Y-103484263D01*
X223644263Y-103686602D01*
X223472772Y-103915686D01*
X223335634Y-104166836D01*
X223235629Y-104434958D01*
X223174804Y-104714570D01*
X223154389Y-105000000D01*
X217005610Y-105000000D01*
X216985196Y-104714572D01*
X216924369Y-104434954D01*
X216824367Y-104166839D01*
X216687226Y-103915685D01*
X216515739Y-103686605D01*
X216490819Y-103661684D01*
X216463939Y-103621457D01*
X216454500Y-103574004D01*
X216454500Y-97499999D01*
X217579532Y-97499999D01*
X217599376Y-97790103D01*
X217658534Y-98074789D01*
X217755911Y-98348778D01*
X217889689Y-98606959D01*
X218057368Y-98844506D01*
X218057371Y-98844509D01*
X218057373Y-98844512D01*
X218255843Y-99057022D01*
X218481402Y-99240527D01*
X218729847Y-99391610D01*
X218996550Y-99507456D01*
X219276544Y-99585906D01*
X219564612Y-99625500D01*
X219855388Y-99625500D01*
X220143456Y-99585906D01*
X220423450Y-99507456D01*
X220690153Y-99391610D01*
X220938598Y-99240527D01*
X221164157Y-99057022D01*
X221362627Y-98844512D01*
X221530312Y-98606956D01*
X221664088Y-98348780D01*
X221761464Y-98074793D01*
X221768295Y-98041923D01*
X221791044Y-97932445D01*
X221820624Y-97790099D01*
X221840467Y-97500000D01*
X221820624Y-97209901D01*
X221761464Y-96925207D01*
X221664088Y-96651220D01*
X221530312Y-96393044D01*
X221530310Y-96393040D01*
X221362631Y-96155493D01*
X221362629Y-96155490D01*
X221362627Y-96155488D01*
X221164157Y-95942978D01*
X220938598Y-95759473D01*
X220690153Y-95608390D01*
X220423450Y-95492544D01*
X220217975Y-95434973D01*
X220143453Y-95414093D01*
X219855388Y-95374500D01*
X219564612Y-95374500D01*
X219276546Y-95414093D01*
X219071069Y-95471664D01*
X218996550Y-95492544D01*
X218996548Y-95492544D01*
X218996547Y-95492545D01*
X218729846Y-95608390D01*
X218481403Y-95759472D01*
X218255846Y-95942975D01*
X218057368Y-96155493D01*
X217889689Y-96393040D01*
X217755911Y-96651221D01*
X217658534Y-96925210D01*
X217599376Y-97209896D01*
X217579532Y-97499999D01*
X216454500Y-97499999D01*
X216454500Y-93499097D01*
X217584500Y-93499097D01*
X217590918Y-93591567D01*
X217641856Y-93808144D01*
X217720403Y-93986034D01*
X217731723Y-94011671D01*
X217857458Y-94195221D01*
X218014779Y-94352542D01*
X218198329Y-94478277D01*
X218280609Y-94514607D01*
X218401855Y-94568143D01*
X218618432Y-94619081D01*
X218710903Y-94625500D01*
X218710908Y-94625500D01*
X220709092Y-94625500D01*
X220709097Y-94625500D01*
X220801567Y-94619081D01*
X221018144Y-94568143D01*
X221084601Y-94538799D01*
X221221671Y-94478277D01*
X221405221Y-94352542D01*
X221562542Y-94195221D01*
X221688277Y-94011671D01*
X221778143Y-93808143D01*
X221829081Y-93591567D01*
X221831505Y-93556645D01*
X221835500Y-93499097D01*
X221835500Y-91500903D01*
X221829081Y-91408432D01*
X221778143Y-91191855D01*
X221710490Y-91038638D01*
X221688277Y-90988329D01*
X221562542Y-90804779D01*
X221405221Y-90647458D01*
X221221671Y-90521723D01*
X221186578Y-90506228D01*
X221018144Y-90431856D01*
X220801567Y-90380918D01*
X220709097Y-90374500D01*
X220709092Y-90374500D01*
X218710908Y-90374500D01*
X218710903Y-90374500D01*
X218618432Y-90380918D01*
X218401855Y-90431856D01*
X218198333Y-90521721D01*
X218198332Y-90521721D01*
X218198329Y-90521723D01*
X218165215Y-90544407D01*
X218014776Y-90647460D01*
X217857460Y-90804776D01*
X217857457Y-90804779D01*
X217857458Y-90804779D01*
X217731723Y-90988329D01*
X217731721Y-90988332D01*
X217731721Y-90988333D01*
X217641856Y-91191855D01*
X217590918Y-91408432D01*
X217584500Y-91500903D01*
X217584500Y-93499097D01*
X216454500Y-93499097D01*
X216454500Y-91196802D01*
X216455452Y-91181464D01*
X216458238Y-91159111D01*
X216454606Y-91071298D01*
X216454500Y-91066173D01*
X216454500Y-91038638D01*
X216452677Y-91016645D01*
X216452225Y-91011199D01*
X216451908Y-91006083D01*
X216448277Y-90918275D01*
X216448277Y-90918272D01*
X216443654Y-90896229D01*
X216441439Y-90881024D01*
X216439580Y-90858577D01*
X216417996Y-90773349D01*
X216416844Y-90768369D01*
X216398810Y-90682356D01*
X216390621Y-90661371D01*
X216385933Y-90646735D01*
X216380406Y-90624906D01*
X216345084Y-90544381D01*
X216343144Y-90539697D01*
X216311188Y-90457799D01*
X216299656Y-90438445D01*
X216292632Y-90424802D01*
X216283579Y-90404162D01*
X216235499Y-90330570D01*
X216232797Y-90326241D01*
X216187800Y-90250726D01*
X216173242Y-90233538D01*
X216164053Y-90221215D01*
X216151739Y-90202366D01*
X216110942Y-90158049D01*
X216092209Y-90137699D01*
X216088825Y-90133867D01*
X216071027Y-90112853D01*
X216051564Y-90093390D01*
X216048016Y-90089692D01*
X215988484Y-90025024D01*
X215988483Y-90025023D01*
X215988482Y-90025022D01*
X215970707Y-90011187D01*
X215959189Y-90001015D01*
X210958173Y-84999999D01*
X212994389Y-84999999D01*
X213014804Y-85285429D01*
X213075629Y-85565041D01*
X213075631Y-85565046D01*
X213142069Y-85743174D01*
X213175634Y-85833163D01*
X213312772Y-86084313D01*
X213367015Y-86156773D01*
X213484261Y-86313395D01*
X213686605Y-86515739D01*
X213809837Y-86607989D01*
X213915686Y-86687227D01*
X214055435Y-86763535D01*
X214166839Y-86824367D01*
X214434954Y-86924369D01*
X214434957Y-86924369D01*
X214434958Y-86924370D01*
X214471766Y-86932377D01*
X214714572Y-86985196D01*
X215000000Y-87005610D01*
X215285428Y-86985196D01*
X215565046Y-86924369D01*
X215833161Y-86824367D01*
X216084315Y-86687226D01*
X216313395Y-86515739D01*
X216515739Y-86313395D01*
X216687226Y-86084315D01*
X216824367Y-85833161D01*
X216924369Y-85565046D01*
X216985196Y-85285428D01*
X217005610Y-85000000D01*
X217005610Y-84999999D01*
X223154389Y-84999999D01*
X223174804Y-85285429D01*
X223235629Y-85565041D01*
X223235631Y-85565046D01*
X223302069Y-85743174D01*
X223335634Y-85833163D01*
X223472772Y-86084313D01*
X223527015Y-86156773D01*
X223644261Y-86313395D01*
X223846605Y-86515739D01*
X223969837Y-86607989D01*
X224075686Y-86687227D01*
X224215435Y-86763535D01*
X224326839Y-86824367D01*
X224594954Y-86924369D01*
X224594957Y-86924369D01*
X224594958Y-86924370D01*
X224631766Y-86932377D01*
X224874572Y-86985196D01*
X225160000Y-87005610D01*
X225445428Y-86985196D01*
X225725046Y-86924369D01*
X225993161Y-86824367D01*
X226244315Y-86687226D01*
X226473395Y-86515739D01*
X226675739Y-86313395D01*
X226847226Y-86084315D01*
X226984367Y-85833161D01*
X227084369Y-85565046D01*
X227145196Y-85285428D01*
X227165610Y-85000000D01*
X227145196Y-84714572D01*
X227084369Y-84434954D01*
X226984367Y-84166839D01*
X226847226Y-83915685D01*
X226675739Y-83686605D01*
X226473395Y-83484261D01*
X226356346Y-83396639D01*
X226244313Y-83312772D01*
X225993163Y-83175634D01*
X225993162Y-83175633D01*
X225993161Y-83175633D01*
X225725046Y-83075631D01*
X225725041Y-83075629D01*
X225445429Y-83014804D01*
X225160000Y-82994389D01*
X224874570Y-83014804D01*
X224594958Y-83075629D01*
X224326836Y-83175634D01*
X224075686Y-83312772D01*
X223846602Y-83484263D01*
X223644263Y-83686602D01*
X223472772Y-83915686D01*
X223335634Y-84166836D01*
X223235629Y-84434958D01*
X223174804Y-84714570D01*
X223154389Y-84999999D01*
X217005610Y-84999999D01*
X216985196Y-84714572D01*
X216924369Y-84434954D01*
X216824367Y-84166839D01*
X216687226Y-83915685D01*
X216515739Y-83686605D01*
X216313395Y-83484261D01*
X216196346Y-83396639D01*
X216084313Y-83312772D01*
X215833163Y-83175634D01*
X215833162Y-83175633D01*
X215833161Y-83175633D01*
X215565046Y-83075631D01*
X215565041Y-83075629D01*
X215285429Y-83014804D01*
X215000000Y-82994389D01*
X214714570Y-83014804D01*
X214434958Y-83075629D01*
X214166836Y-83175634D01*
X213915686Y-83312772D01*
X213686602Y-83484263D01*
X213484263Y-83686602D01*
X213312772Y-83915686D01*
X213175634Y-84166836D01*
X213075629Y-84434958D01*
X213014804Y-84714570D01*
X212994389Y-84999999D01*
X210958173Y-84999999D01*
X209245830Y-83287656D01*
X209217458Y-83243653D01*
X209209777Y-83191864D01*
X209210841Y-83175633D01*
X209215222Y-83108800D01*
X209196356Y-82820961D01*
X209140081Y-82538047D01*
X209047359Y-82264898D01*
X208919778Y-82006189D01*
X208853960Y-81907687D01*
X208835448Y-81862992D01*
X208835448Y-81814608D01*
X208853960Y-81769912D01*
X208919778Y-81671411D01*
X209047359Y-81412702D01*
X209140081Y-81139553D01*
X209196356Y-80856639D01*
X209215222Y-80568800D01*
X209196356Y-80280961D01*
X209185189Y-80224823D01*
X209143896Y-80017227D01*
X209140081Y-79998047D01*
X209047359Y-79724898D01*
X208972508Y-79573116D01*
X208919780Y-79466193D01*
X208919779Y-79466192D01*
X208919778Y-79466189D01*
X208853960Y-79367687D01*
X208835448Y-79322992D01*
X208835448Y-79274608D01*
X208853960Y-79229912D01*
X208919778Y-79131411D01*
X209047359Y-78872702D01*
X209140081Y-78599553D01*
X209196356Y-78316639D01*
X209215222Y-78028800D01*
X209196356Y-77740961D01*
X209195290Y-77735603D01*
X209148426Y-77500000D01*
X215294654Y-77500000D01*
X215314015Y-77807731D01*
X215371794Y-78110622D01*
X215467078Y-78403875D01*
X215598363Y-78682868D01*
X215763585Y-78943218D01*
X215960129Y-79180797D01*
X216184905Y-79391877D01*
X216434359Y-79573116D01*
X216569462Y-79647389D01*
X216704565Y-79721663D01*
X216847911Y-79778417D01*
X216991256Y-79835172D01*
X217148878Y-79875642D01*
X217289914Y-79911854D01*
X217544115Y-79943967D01*
X217595827Y-79950500D01*
X217595828Y-79950500D01*
X217904172Y-79950500D01*
X217904173Y-79950500D01*
X217948407Y-79944911D01*
X218210086Y-79911854D01*
X218508743Y-79835172D01*
X218795435Y-79721663D01*
X219065640Y-79573116D01*
X219315096Y-79391876D01*
X219539869Y-79180799D01*
X219736416Y-78943216D01*
X219901635Y-78682871D01*
X220032922Y-78403873D01*
X220128206Y-78110619D01*
X220185984Y-77807736D01*
X220205345Y-77500000D01*
X220185984Y-77192264D01*
X220128206Y-76889381D01*
X220108161Y-76827690D01*
X220032921Y-76596124D01*
X219901636Y-76317131D01*
X219736414Y-76056781D01*
X219539870Y-75819202D01*
X219506217Y-75787600D01*
X219381863Y-75670823D01*
X219315094Y-75608122D01*
X219065640Y-75426883D01*
X218795433Y-75278336D01*
X218508743Y-75164827D01*
X218334554Y-75120104D01*
X218278263Y-75088231D01*
X218245684Y-75032344D01*
X218245684Y-74967656D01*
X218278263Y-74911769D01*
X218334554Y-74879896D01*
X218508743Y-74835172D01*
X218508742Y-74835172D01*
X218795435Y-74721663D01*
X219065640Y-74573116D01*
X219315096Y-74391876D01*
X219539869Y-74180799D01*
X219736416Y-73943216D01*
X219901635Y-73682871D01*
X220032922Y-73403873D01*
X220128206Y-73110619D01*
X220185984Y-72807736D01*
X220205345Y-72500000D01*
X220205345Y-72499999D01*
X227794654Y-72499999D01*
X227814015Y-72807731D01*
X227871794Y-73110622D01*
X227967078Y-73403875D01*
X228098363Y-73682868D01*
X228263585Y-73943218D01*
X228460129Y-74180797D01*
X228460131Y-74180799D01*
X228573957Y-74287689D01*
X228684905Y-74391877D01*
X228934359Y-74573116D01*
X229064929Y-74644897D01*
X229204565Y-74721663D01*
X229347910Y-74778417D01*
X229491256Y-74835172D01*
X229648878Y-74875642D01*
X229789914Y-74911854D01*
X230044115Y-74943967D01*
X230095827Y-74950500D01*
X230095828Y-74950500D01*
X230404172Y-74950500D01*
X230404173Y-74950500D01*
X230448407Y-74944911D01*
X230710086Y-74911854D01*
X231008743Y-74835172D01*
X231295435Y-74721663D01*
X231565640Y-74573116D01*
X231815096Y-74391876D01*
X232039869Y-74180799D01*
X232236416Y-73943216D01*
X232401635Y-73682871D01*
X232532922Y-73403873D01*
X232628206Y-73110619D01*
X232685984Y-72807736D01*
X232705345Y-72500000D01*
X232685984Y-72192264D01*
X232628206Y-71889381D01*
X232621264Y-71868017D01*
X232532921Y-71596124D01*
X232401636Y-71317131D01*
X232394936Y-71306574D01*
X232236416Y-71056784D01*
X232228867Y-71047659D01*
X232039870Y-70819202D01*
X231815094Y-70608122D01*
X231565640Y-70426883D01*
X231295433Y-70278336D01*
X231008743Y-70164827D01*
X230710088Y-70088146D01*
X230404173Y-70049500D01*
X230404172Y-70049500D01*
X230095828Y-70049500D01*
X230095827Y-70049500D01*
X229789911Y-70088146D01*
X229491256Y-70164827D01*
X229204566Y-70278336D01*
X228934359Y-70426883D01*
X228684905Y-70608122D01*
X228460129Y-70819202D01*
X228263585Y-71056781D01*
X228098363Y-71317131D01*
X227967078Y-71596124D01*
X227871794Y-71889377D01*
X227814015Y-72192268D01*
X227794654Y-72499999D01*
X220205345Y-72499999D01*
X220185984Y-72192264D01*
X220128206Y-71889381D01*
X220121264Y-71868017D01*
X220032921Y-71596124D01*
X219901636Y-71317131D01*
X219894936Y-71306574D01*
X219736416Y-71056784D01*
X219728867Y-71047659D01*
X219539870Y-70819202D01*
X219315094Y-70608122D01*
X219065640Y-70426883D01*
X218795433Y-70278336D01*
X218508743Y-70164827D01*
X218210088Y-70088146D01*
X217904173Y-70049500D01*
X217904172Y-70049500D01*
X217595828Y-70049500D01*
X217595827Y-70049500D01*
X217289911Y-70088146D01*
X216991256Y-70164827D01*
X216704566Y-70278336D01*
X216434359Y-70426883D01*
X216184905Y-70608122D01*
X215960129Y-70819202D01*
X215763585Y-71056781D01*
X215598363Y-71317131D01*
X215467078Y-71596124D01*
X215371794Y-71889377D01*
X215314015Y-72192268D01*
X215294654Y-72499999D01*
X215314015Y-72807731D01*
X215371794Y-73110622D01*
X215467078Y-73403875D01*
X215598363Y-73682868D01*
X215763585Y-73943218D01*
X215960129Y-74180797D01*
X215960131Y-74180799D01*
X216073957Y-74287689D01*
X216184905Y-74391877D01*
X216434359Y-74573116D01*
X216564929Y-74644897D01*
X216704565Y-74721663D01*
X216847910Y-74778417D01*
X216991256Y-74835172D01*
X217165445Y-74879896D01*
X217221737Y-74911770D01*
X217254315Y-74967656D01*
X217254315Y-75032344D01*
X217221737Y-75088230D01*
X217165445Y-75120104D01*
X216991256Y-75164827D01*
X216704566Y-75278336D01*
X216434359Y-75426883D01*
X216184905Y-75608122D01*
X215960129Y-75819202D01*
X215763585Y-76056781D01*
X215598363Y-76317131D01*
X215467078Y-76596124D01*
X215371794Y-76889377D01*
X215314015Y-77192268D01*
X215294654Y-77500000D01*
X209148426Y-77500000D01*
X209140081Y-77458049D01*
X209140081Y-77458047D01*
X209049861Y-77192268D01*
X209047359Y-77184897D01*
X208919778Y-76926189D01*
X208853963Y-76827690D01*
X208835448Y-76782990D01*
X208835448Y-76734607D01*
X208853962Y-76689910D01*
X208919778Y-76591411D01*
X209047359Y-76332702D01*
X209140081Y-76059553D01*
X209196356Y-75776639D01*
X209215222Y-75488800D01*
X209196356Y-75200961D01*
X209173932Y-75088230D01*
X209162816Y-75032344D01*
X209140081Y-74918047D01*
X209047359Y-74644898D01*
X208919778Y-74386189D01*
X208853962Y-74287688D01*
X208835448Y-74242990D01*
X208835448Y-74194607D01*
X208853961Y-74149911D01*
X208919778Y-74051411D01*
X209047359Y-73792702D01*
X209140081Y-73519553D01*
X209196356Y-73236639D01*
X209215222Y-72948800D01*
X209196356Y-72660961D01*
X209194749Y-72652883D01*
X209164339Y-72499999D01*
X209140081Y-72378047D01*
X209071635Y-72176412D01*
X209047359Y-72104897D01*
X208919780Y-71846193D01*
X208919779Y-71846192D01*
X208919778Y-71846189D01*
X208853960Y-71747687D01*
X208835448Y-71702992D01*
X208835448Y-71654608D01*
X208853960Y-71609912D01*
X208919778Y-71511411D01*
X209047359Y-71252702D01*
X209140081Y-70979553D01*
X209196356Y-70696639D01*
X209215222Y-70408800D01*
X209196356Y-70120961D01*
X209192982Y-70104000D01*
X209140081Y-69838049D01*
X209140081Y-69838047D01*
X209047359Y-69564898D01*
X208919778Y-69306189D01*
X208853960Y-69207687D01*
X208835448Y-69162992D01*
X208835448Y-69114608D01*
X208853960Y-69069912D01*
X208919778Y-68971411D01*
X209047359Y-68712702D01*
X209140081Y-68439553D01*
X209196356Y-68156639D01*
X209215222Y-67868800D01*
X209196356Y-67580961D01*
X209140081Y-67298047D01*
X209047359Y-67024898D01*
X208919778Y-66766189D01*
X208853960Y-66667687D01*
X208835448Y-66622992D01*
X208835448Y-66574608D01*
X208853960Y-66529912D01*
X208919778Y-66431411D01*
X209047359Y-66172702D01*
X209140081Y-65899553D01*
X209196356Y-65616639D01*
X209215222Y-65328800D01*
X209196356Y-65040961D01*
X209140081Y-64758047D01*
X209047359Y-64484898D01*
X208919778Y-64226189D01*
X208853962Y-64127688D01*
X208835448Y-64082990D01*
X208835448Y-64034607D01*
X208853961Y-63989911D01*
X208919778Y-63891411D01*
X209047359Y-63632702D01*
X209140081Y-63359553D01*
X209196356Y-63076639D01*
X209215222Y-62788800D01*
X209196356Y-62500961D01*
X209140081Y-62218047D01*
X209063736Y-61993143D01*
X209047359Y-61944897D01*
X208919780Y-61686193D01*
X208919779Y-61686192D01*
X208919778Y-61686189D01*
X208853960Y-61587687D01*
X208835448Y-61542992D01*
X208835448Y-61494608D01*
X208853960Y-61449912D01*
X208919778Y-61351411D01*
X209047359Y-61092702D01*
X209140081Y-60819553D01*
X209196356Y-60536639D01*
X209215222Y-60248800D01*
X209198915Y-60000000D01*
X215394591Y-60000000D01*
X215414202Y-60286690D01*
X215472665Y-60568031D01*
X215568894Y-60838793D01*
X215568895Y-60838796D01*
X215568896Y-60838797D01*
X215582403Y-60864864D01*
X215701100Y-61093939D01*
X215866806Y-61328692D01*
X215866809Y-61328695D01*
X215866811Y-61328698D01*
X216028740Y-61502081D01*
X216062950Y-61538711D01*
X216196690Y-61647516D01*
X216285853Y-61720055D01*
X216531375Y-61869361D01*
X216794942Y-61983844D01*
X217071642Y-62061371D01*
X217356322Y-62100500D01*
X217643678Y-62100500D01*
X217928358Y-62061371D01*
X218205058Y-61983844D01*
X218358114Y-61917361D01*
X218419328Y-61907660D01*
X218477592Y-61928797D01*
X218513328Y-61953277D01*
X218716855Y-62043143D01*
X218933432Y-62094081D01*
X219025903Y-62100500D01*
X219025908Y-62100500D01*
X220974092Y-62100500D01*
X220974097Y-62100500D01*
X221066567Y-62094081D01*
X221283144Y-62043143D01*
X221352989Y-62012303D01*
X221486671Y-61953277D01*
X221670221Y-61827542D01*
X221827542Y-61670221D01*
X221953277Y-61486671D01*
X222036994Y-61297069D01*
X222043143Y-61283144D01*
X222094081Y-61066567D01*
X222100500Y-60974097D01*
X222100500Y-59025903D01*
X222094081Y-58933432D01*
X222043143Y-58716855D01*
X221995025Y-58607880D01*
X221953277Y-58513329D01*
X221827542Y-58329779D01*
X221670221Y-58172458D01*
X221486671Y-58046723D01*
X221420510Y-58017510D01*
X221283144Y-57956856D01*
X221066567Y-57905918D01*
X220974097Y-57899500D01*
X220974092Y-57899500D01*
X219025908Y-57899500D01*
X219025903Y-57899500D01*
X218933432Y-57905918D01*
X218716855Y-57956856D01*
X218513330Y-58046722D01*
X218477590Y-58071204D01*
X218419327Y-58092339D01*
X218358114Y-58082637D01*
X218205063Y-58016158D01*
X218205061Y-58016157D01*
X218205058Y-58016156D01*
X217986520Y-57954925D01*
X217928355Y-57938628D01*
X217643678Y-57899500D01*
X217356322Y-57899500D01*
X217071644Y-57938628D01*
X216896518Y-57987696D01*
X216794942Y-58016156D01*
X216794940Y-58016156D01*
X216794939Y-58016157D01*
X216531377Y-58130637D01*
X216285851Y-58279946D01*
X216062950Y-58461288D01*
X215866806Y-58671307D01*
X215701100Y-58906060D01*
X215568894Y-59161206D01*
X215472665Y-59431968D01*
X215414202Y-59713309D01*
X215394591Y-60000000D01*
X209198915Y-60000000D01*
X209196356Y-59960961D01*
X209191018Y-59934127D01*
X209159360Y-59774968D01*
X209140081Y-59678047D01*
X209047359Y-59404898D01*
X208919778Y-59146189D01*
X208759520Y-58906346D01*
X208569327Y-58689473D01*
X208352454Y-58499280D01*
X208350417Y-58497919D01*
X208112610Y-58339021D01*
X207853902Y-58211440D01*
X207580750Y-58118718D01*
X207297845Y-58062444D01*
X207051119Y-58046273D01*
X207010000Y-58043578D01*
X207009999Y-58043578D01*
X206722154Y-58062444D01*
X206439249Y-58118718D01*
X206166097Y-58211440D01*
X205907389Y-58339021D01*
X205667546Y-58499279D01*
X205450673Y-58689473D01*
X205260479Y-58906346D01*
X205100221Y-59146189D01*
X204972640Y-59404897D01*
X204879918Y-59678049D01*
X204823644Y-59960954D01*
X204804778Y-60248799D01*
X204823644Y-60536645D01*
X204879918Y-60819550D01*
X204972640Y-61092702D01*
X205100221Y-61351410D01*
X205166036Y-61449909D01*
X205184551Y-61494609D01*
X205184551Y-61542991D01*
X205166036Y-61587691D01*
X205100221Y-61686189D01*
X204972640Y-61944897D01*
X204879918Y-62218049D01*
X204823644Y-62500954D01*
X204804778Y-62788800D01*
X204823644Y-63076645D01*
X204879918Y-63359550D01*
X204972640Y-63632702D01*
X205100221Y-63891410D01*
X205166035Y-63989908D01*
X205184550Y-64034607D01*
X205184551Y-64082989D01*
X205166036Y-64127689D01*
X205100220Y-64226190D01*
X204972640Y-64484897D01*
X204879918Y-64758049D01*
X204823644Y-65040954D01*
X204804778Y-65328800D01*
X204823644Y-65616645D01*
X204879918Y-65899550D01*
X204972640Y-66172702D01*
X205100221Y-66431410D01*
X205166036Y-66529909D01*
X205184551Y-66574609D01*
X205184551Y-66622991D01*
X205166036Y-66667691D01*
X205100221Y-66766189D01*
X204972640Y-67024897D01*
X204879918Y-67298049D01*
X204823644Y-67580954D01*
X204804778Y-67868800D01*
X204823644Y-68156645D01*
X204879918Y-68439550D01*
X204972640Y-68712702D01*
X205100221Y-68971410D01*
X205100222Y-68971411D01*
X205156731Y-69055984D01*
X205166036Y-69069909D01*
X205184551Y-69114609D01*
X205184551Y-69162991D01*
X205166036Y-69207691D01*
X205100221Y-69306189D01*
X204972640Y-69564897D01*
X204879918Y-69838049D01*
X204823644Y-70120954D01*
X204804778Y-70408799D01*
X204823644Y-70696645D01*
X204879918Y-70979550D01*
X204972640Y-71252702D01*
X205100221Y-71511410D01*
X205166036Y-71609909D01*
X205184551Y-71654609D01*
X205184551Y-71702991D01*
X205166036Y-71747691D01*
X205100221Y-71846189D01*
X204972640Y-72104897D01*
X204879918Y-72378049D01*
X204823644Y-72660954D01*
X204804778Y-72948799D01*
X204823644Y-73236645D01*
X204879918Y-73519550D01*
X204972640Y-73792702D01*
X205100221Y-74051410D01*
X205166035Y-74149908D01*
X205184550Y-74194607D01*
X205184551Y-74242989D01*
X205166036Y-74287689D01*
X205100220Y-74386190D01*
X204972640Y-74644897D01*
X204879918Y-74918049D01*
X204823644Y-75200954D01*
X204804778Y-75488800D01*
X204823644Y-75776645D01*
X204879918Y-76059550D01*
X204972640Y-76332702D01*
X205100221Y-76591410D01*
X205100222Y-76591411D01*
X205166036Y-76689909D01*
X205184551Y-76734607D01*
X205184551Y-76782990D01*
X205166036Y-76827689D01*
X205100223Y-76926185D01*
X204972640Y-77184897D01*
X204879918Y-77458049D01*
X204823644Y-77740954D01*
X204804778Y-78028800D01*
X204823644Y-78316645D01*
X204879918Y-78599550D01*
X204972640Y-78872702D01*
X205100221Y-79131410D01*
X205166036Y-79229909D01*
X205184551Y-79274609D01*
X205184551Y-79322991D01*
X205166036Y-79367691D01*
X205100221Y-79466189D01*
X204972640Y-79724897D01*
X204879918Y-79998049D01*
X204823644Y-80280954D01*
X204804778Y-80568799D01*
X204823644Y-80856645D01*
X204879918Y-81139550D01*
X204972640Y-81412702D01*
X205100221Y-81671410D01*
X205166036Y-81769909D01*
X205184551Y-81814609D01*
X205184551Y-81862991D01*
X205166036Y-81907691D01*
X205100221Y-82006189D01*
X204972640Y-82264897D01*
X204879918Y-82538049D01*
X204823644Y-82820954D01*
X204804778Y-83108799D01*
X204823644Y-83396645D01*
X204879918Y-83679550D01*
X204972640Y-83952702D01*
X205100221Y-84211410D01*
X205100222Y-84211411D01*
X205166034Y-84309907D01*
X205166036Y-84309909D01*
X205184551Y-84354609D01*
X205184551Y-84402991D01*
X205166036Y-84447691D01*
X205100221Y-84546189D01*
X204972640Y-84804897D01*
X204879918Y-85078049D01*
X204823644Y-85360954D01*
X204804778Y-85648800D01*
X204823644Y-85936645D01*
X204879918Y-86219550D01*
X204972640Y-86492702D01*
X205100221Y-86751410D01*
X205166035Y-86849908D01*
X205184550Y-86894607D01*
X205184551Y-86942989D01*
X205166036Y-86987689D01*
X205100220Y-87086190D01*
X204972640Y-87344897D01*
X204879918Y-87618049D01*
X204823644Y-87900954D01*
X204804778Y-88188800D01*
X204823644Y-88476645D01*
X204879918Y-88759550D01*
X204972640Y-89032702D01*
X205100221Y-89291410D01*
X205166036Y-89389909D01*
X205184551Y-89434609D01*
X205184551Y-89482991D01*
X205166036Y-89527691D01*
X205100221Y-89626189D01*
X204972640Y-89884897D01*
X204879918Y-90158049D01*
X204823644Y-90440954D01*
X204804778Y-90728800D01*
X204823644Y-91016645D01*
X204879918Y-91299550D01*
X204972640Y-91572702D01*
X205100221Y-91831410D01*
X205100222Y-91831411D01*
X205166034Y-91929907D01*
X205166036Y-91929909D01*
X205184551Y-91974609D01*
X205184551Y-92022991D01*
X205166036Y-92067691D01*
X205100221Y-92166189D01*
X204972640Y-92424897D01*
X204879918Y-92698049D01*
X204823644Y-92980954D01*
X204804778Y-93268799D01*
X204823644Y-93556645D01*
X204879918Y-93839550D01*
X204972640Y-94112702D01*
X205100221Y-94371410D01*
X205166035Y-94469908D01*
X205184550Y-94514607D01*
X205184551Y-94562989D01*
X205166036Y-94607689D01*
X205100220Y-94706190D01*
X204972640Y-94964897D01*
X204879918Y-95238049D01*
X204823644Y-95520954D01*
X204804778Y-95808799D01*
X204823644Y-96096645D01*
X204879918Y-96379550D01*
X204972640Y-96652702D01*
X205100221Y-96911410D01*
X205100222Y-96911411D01*
X205260480Y-97151254D01*
X205450673Y-97368127D01*
X205649449Y-97542449D01*
X205683012Y-97590105D01*
X205691093Y-97647831D01*
X205671906Y-97702871D01*
X205629690Y-97743064D01*
X205551143Y-97788412D01*
X205346015Y-97951998D01*
X205167571Y-98144314D01*
X205067070Y-98291722D01*
X205019772Y-98361096D01*
X204905937Y-98597477D01*
X204828604Y-98848185D01*
X204789500Y-99107618D01*
X204789500Y-99369982D01*
X203090000Y-99369982D01*
X203090000Y-94748800D01*
X185400000Y-94748800D01*
X183540791Y-94748800D01*
X183528268Y-94723406D01*
X183519778Y-94706189D01*
X183481703Y-94649206D01*
X183453962Y-94607688D01*
X183435448Y-94562990D01*
X183435448Y-94514607D01*
X183453961Y-94469911D01*
X183519778Y-94371411D01*
X183647359Y-94112702D01*
X183740081Y-93839553D01*
X183796356Y-93556639D01*
X183815222Y-93268800D01*
X183796356Y-92980961D01*
X183740081Y-92698047D01*
X183678266Y-92515947D01*
X183647359Y-92424897D01*
X183519780Y-92166193D01*
X183519779Y-92166192D01*
X183519778Y-92166189D01*
X183453960Y-92067687D01*
X183435448Y-92022992D01*
X183435448Y-91974608D01*
X183453960Y-91929912D01*
X183519778Y-91831411D01*
X183647359Y-91572702D01*
X183740081Y-91299553D01*
X183796356Y-91016639D01*
X183815222Y-90728800D01*
X183796356Y-90440961D01*
X183794541Y-90431838D01*
X183752563Y-90220800D01*
X183740081Y-90158047D01*
X183647359Y-89884898D01*
X183519778Y-89626189D01*
X183453960Y-89527687D01*
X183435448Y-89482992D01*
X183435448Y-89434608D01*
X183453960Y-89389912D01*
X183519778Y-89291411D01*
X183647359Y-89032702D01*
X183740081Y-88759553D01*
X183793531Y-88490840D01*
X183796355Y-88476645D01*
X183796355Y-88476643D01*
X183796356Y-88476639D01*
X183815222Y-88188800D01*
X183796356Y-87900961D01*
X183786962Y-87853736D01*
X183740081Y-87618049D01*
X183740081Y-87618047D01*
X183647359Y-87344898D01*
X183528268Y-87103406D01*
X183519778Y-87086189D01*
X183488531Y-87039425D01*
X183453962Y-86987688D01*
X183435448Y-86942990D01*
X183435448Y-86894607D01*
X183453961Y-86849911D01*
X183519778Y-86751411D01*
X183647359Y-86492702D01*
X183740081Y-86219553D01*
X183796356Y-85936639D01*
X183815222Y-85648800D01*
X183796356Y-85360961D01*
X183791312Y-85335605D01*
X183763393Y-85195247D01*
X183740081Y-85078047D01*
X183647359Y-84804898D01*
X183639940Y-84789854D01*
X183519778Y-84546189D01*
X183453963Y-84447690D01*
X183435448Y-84402990D01*
X183435448Y-84354607D01*
X183453962Y-84309910D01*
X183519778Y-84211411D01*
X183647359Y-83952702D01*
X183740081Y-83679553D01*
X183796356Y-83396639D01*
X183815222Y-83108800D01*
X183796356Y-82820961D01*
X183740081Y-82538047D01*
X183647359Y-82264898D01*
X183519778Y-82006189D01*
X183453960Y-81907687D01*
X183435448Y-81862992D01*
X183435448Y-81814608D01*
X183453960Y-81769912D01*
X183519778Y-81671411D01*
X183647359Y-81412702D01*
X183740081Y-81139553D01*
X183796356Y-80856639D01*
X183815222Y-80568800D01*
X183796356Y-80280961D01*
X183785189Y-80224823D01*
X183743896Y-80017227D01*
X183740081Y-79998047D01*
X183647359Y-79724898D01*
X183572508Y-79573116D01*
X183519780Y-79466193D01*
X183519779Y-79466192D01*
X183519778Y-79466189D01*
X183453960Y-79367687D01*
X183435448Y-79322992D01*
X183435448Y-79274608D01*
X183453960Y-79229912D01*
X183519778Y-79131411D01*
X183647359Y-78872702D01*
X183740081Y-78599553D01*
X183796356Y-78316639D01*
X183815222Y-78028800D01*
X183796356Y-77740961D01*
X183795290Y-77735603D01*
X183740081Y-77458049D01*
X183740081Y-77458047D01*
X183649861Y-77192268D01*
X183647359Y-77184897D01*
X183519780Y-76926193D01*
X183519779Y-76926192D01*
X183519778Y-76926189D01*
X183453960Y-76827687D01*
X183435448Y-76782992D01*
X183435448Y-76734608D01*
X183453960Y-76689912D01*
X183519778Y-76591411D01*
X183647359Y-76332702D01*
X183740081Y-76059553D01*
X183796356Y-75776639D01*
X183815222Y-75488800D01*
X183796356Y-75200961D01*
X183773932Y-75088230D01*
X183762816Y-75032344D01*
X183740081Y-74918047D01*
X183647359Y-74644898D01*
X183519778Y-74386189D01*
X183453960Y-74287687D01*
X183435448Y-74242992D01*
X183435448Y-74194608D01*
X183453960Y-74149912D01*
X183519778Y-74051411D01*
X183647359Y-73792702D01*
X183740081Y-73519553D01*
X183796356Y-73236639D01*
X183815222Y-72948800D01*
X183796356Y-72660961D01*
X183794749Y-72652883D01*
X183764339Y-72499999D01*
X183740081Y-72378047D01*
X183671635Y-72176412D01*
X183647359Y-72104897D01*
X183519780Y-71846193D01*
X183519779Y-71846192D01*
X183519778Y-71846189D01*
X183453960Y-71747687D01*
X183435448Y-71702992D01*
X183435448Y-71654608D01*
X183453960Y-71609912D01*
X183519778Y-71511411D01*
X183647359Y-71252702D01*
X183740081Y-70979553D01*
X183796356Y-70696639D01*
X183815222Y-70408800D01*
X183796356Y-70120961D01*
X183792982Y-70104000D01*
X183740081Y-69838049D01*
X183740081Y-69838047D01*
X183647359Y-69564898D01*
X183519778Y-69306189D01*
X183453960Y-69207687D01*
X183435448Y-69162992D01*
X183435448Y-69114608D01*
X183453960Y-69069912D01*
X183519778Y-68971411D01*
X183647359Y-68712702D01*
X183740081Y-68439553D01*
X183796356Y-68156639D01*
X183815222Y-67868800D01*
X183796356Y-67580961D01*
X183740081Y-67298047D01*
X183647359Y-67024898D01*
X183519778Y-66766189D01*
X183453960Y-66667687D01*
X183435448Y-66622992D01*
X183435448Y-66574608D01*
X183453960Y-66529912D01*
X183519778Y-66431411D01*
X183647359Y-66172702D01*
X183740081Y-65899553D01*
X183796356Y-65616639D01*
X183815222Y-65328800D01*
X183796356Y-65040961D01*
X183740081Y-64758047D01*
X183647359Y-64484898D01*
X183519778Y-64226189D01*
X183453962Y-64127688D01*
X183435448Y-64082990D01*
X183435448Y-64034607D01*
X183453961Y-63989911D01*
X183519778Y-63891411D01*
X183647359Y-63632702D01*
X183740081Y-63359553D01*
X183796356Y-63076639D01*
X183815222Y-62788800D01*
X183796356Y-62500961D01*
X183740081Y-62218047D01*
X183663736Y-61993143D01*
X183647359Y-61944897D01*
X183519778Y-61686189D01*
X183359520Y-61446346D01*
X183276263Y-61351410D01*
X183169327Y-61229473D01*
X182952454Y-61039280D01*
X182854893Y-60974092D01*
X182712610Y-60879021D01*
X182453902Y-60751440D01*
X182180750Y-60658718D01*
X181897845Y-60602444D01*
X181610000Y-60583578D01*
X181322154Y-60602444D01*
X181039249Y-60658718D01*
X180766097Y-60751440D01*
X180507389Y-60879021D01*
X180267546Y-61039279D01*
X180050673Y-61229473D01*
X179860479Y-61446346D01*
X179700221Y-61686189D01*
X179572640Y-61944897D01*
X179479918Y-62218049D01*
X179423644Y-62500954D01*
X179404778Y-62788800D01*
X179423644Y-63076645D01*
X179479918Y-63359550D01*
X179572640Y-63632702D01*
X179700221Y-63891410D01*
X179766035Y-63989908D01*
X179784550Y-64034607D01*
X179784551Y-64082989D01*
X179766036Y-64127689D01*
X179700220Y-64226190D01*
X179572640Y-64484897D01*
X179479918Y-64758049D01*
X179423644Y-65040954D01*
X179404778Y-65328800D01*
X179423644Y-65616645D01*
X179479918Y-65899550D01*
X179572640Y-66172702D01*
X179700221Y-66431410D01*
X179766036Y-66529909D01*
X179784551Y-66574609D01*
X179784551Y-66622991D01*
X179766036Y-66667691D01*
X179700221Y-66766189D01*
X179572640Y-67024897D01*
X179479918Y-67298049D01*
X179423644Y-67580954D01*
X179404778Y-67868800D01*
X179423644Y-68156645D01*
X179479918Y-68439550D01*
X179572640Y-68712702D01*
X179700221Y-68971410D01*
X179700222Y-68971411D01*
X179756731Y-69055984D01*
X179766036Y-69069909D01*
X179784551Y-69114609D01*
X179784551Y-69162991D01*
X179766036Y-69207691D01*
X179700221Y-69306189D01*
X179572640Y-69564897D01*
X179479918Y-69838049D01*
X179423644Y-70120954D01*
X179404778Y-70408799D01*
X179423644Y-70696645D01*
X179479918Y-70979550D01*
X179572640Y-71252702D01*
X179700221Y-71511410D01*
X179766036Y-71609909D01*
X179784551Y-71654609D01*
X179784551Y-71702991D01*
X179766036Y-71747691D01*
X179700221Y-71846189D01*
X179572640Y-72104897D01*
X179479918Y-72378049D01*
X179423644Y-72660954D01*
X179404778Y-72948799D01*
X179423644Y-73236645D01*
X179479918Y-73519550D01*
X179572640Y-73792702D01*
X179700221Y-74051410D01*
X179766035Y-74149908D01*
X179784550Y-74194607D01*
X179784551Y-74242989D01*
X179766036Y-74287689D01*
X179700220Y-74386190D01*
X179572640Y-74644897D01*
X179479918Y-74918049D01*
X179423644Y-75200954D01*
X179404778Y-75488800D01*
X179423644Y-75776645D01*
X179479918Y-76059550D01*
X179572640Y-76332702D01*
X179700221Y-76591410D01*
X179700222Y-76591411D01*
X179766034Y-76689907D01*
X179766036Y-76689909D01*
X179784551Y-76734609D01*
X179784551Y-76782991D01*
X179766036Y-76827691D01*
X179700221Y-76926189D01*
X179572640Y-77184897D01*
X179479918Y-77458049D01*
X179423644Y-77740954D01*
X179404778Y-78028800D01*
X179423644Y-78316645D01*
X179479918Y-78599550D01*
X179572640Y-78872702D01*
X179700221Y-79131410D01*
X179766036Y-79229909D01*
X179784551Y-79274609D01*
X179784551Y-79322991D01*
X179766036Y-79367691D01*
X179700221Y-79466189D01*
X179572640Y-79724897D01*
X179479918Y-79998049D01*
X179423644Y-80280954D01*
X179404778Y-80568799D01*
X179423644Y-80856645D01*
X179479918Y-81139550D01*
X179572640Y-81412702D01*
X179700221Y-81671410D01*
X179766036Y-81769909D01*
X179784551Y-81814609D01*
X179784551Y-81862991D01*
X179766036Y-81907691D01*
X179700221Y-82006189D01*
X179572640Y-82264897D01*
X179479918Y-82538049D01*
X179423644Y-82820954D01*
X179404778Y-83108799D01*
X179423644Y-83396645D01*
X179479918Y-83679550D01*
X179572639Y-83952698D01*
X179572641Y-83952702D01*
X179603588Y-84015457D01*
X179616227Y-84076384D01*
X179597677Y-84135780D01*
X179552611Y-84178687D01*
X179492376Y-84194300D01*
X175532836Y-84194300D01*
X175485383Y-84184861D01*
X175445155Y-84157981D01*
X170705619Y-79418445D01*
X170678739Y-79378217D01*
X170669300Y-79330764D01*
X170669300Y-74701400D01*
X172771789Y-74701400D01*
X172792204Y-74986829D01*
X172853029Y-75266441D01*
X172853031Y-75266446D01*
X172912871Y-75426884D01*
X172953034Y-75534563D01*
X173090172Y-75785713D01*
X173163284Y-75883379D01*
X173261661Y-76014795D01*
X173464005Y-76217139D01*
X173597576Y-76317129D01*
X173693086Y-76388627D01*
X173832835Y-76464935D01*
X173944239Y-76525767D01*
X174212354Y-76625769D01*
X174212357Y-76625769D01*
X174212358Y-76625770D01*
X174264617Y-76637138D01*
X174491972Y-76686596D01*
X174777400Y-76707010D01*
X175062828Y-76686596D01*
X175342446Y-76625769D01*
X175610561Y-76525767D01*
X175861715Y-76388626D01*
X176090795Y-76217139D01*
X176293139Y-76014795D01*
X176464626Y-75785715D01*
X176601767Y-75534561D01*
X176701769Y-75266446D01*
X176762596Y-74986828D01*
X176783010Y-74701400D01*
X176762596Y-74415972D01*
X176711437Y-74180797D01*
X176701770Y-74136358D01*
X176701769Y-74136354D01*
X176601767Y-73868239D01*
X176500548Y-73682871D01*
X176464627Y-73617086D01*
X176415742Y-73551784D01*
X176293139Y-73388005D01*
X176090795Y-73185661D01*
X175976255Y-73099917D01*
X175861713Y-73014172D01*
X175610563Y-72877034D01*
X175610562Y-72877033D01*
X175610561Y-72877033D01*
X175342446Y-72777031D01*
X175342441Y-72777029D01*
X175062829Y-72716204D01*
X174777399Y-72695789D01*
X174491970Y-72716204D01*
X174212358Y-72777029D01*
X173944236Y-72877034D01*
X173693086Y-73014172D01*
X173464002Y-73185663D01*
X173261663Y-73388002D01*
X173090172Y-73617086D01*
X172953034Y-73868236D01*
X172853029Y-74136358D01*
X172792204Y-74415970D01*
X172771789Y-74701400D01*
X170669300Y-74701400D01*
X170669300Y-72843603D01*
X170670252Y-72828265D01*
X170672811Y-72807736D01*
X170673038Y-72805914D01*
X170669405Y-72718096D01*
X170669300Y-72712974D01*
X170669300Y-72685438D01*
X170667271Y-72660961D01*
X170667025Y-72657999D01*
X170666708Y-72652883D01*
X170663077Y-72565075D01*
X170663077Y-72565072D01*
X170658454Y-72543027D01*
X170656239Y-72527824D01*
X170654380Y-72505377D01*
X170632796Y-72420146D01*
X170631655Y-72415217D01*
X170613611Y-72329156D01*
X170605419Y-72308164D01*
X170600736Y-72293547D01*
X170595206Y-72271706D01*
X170559871Y-72191152D01*
X170557957Y-72186530D01*
X170525988Y-72104600D01*
X170514463Y-72085259D01*
X170507431Y-72071600D01*
X170498379Y-72050962D01*
X170450274Y-71977333D01*
X170447611Y-71973066D01*
X170402600Y-71897527D01*
X170402599Y-71897526D01*
X170402597Y-71897522D01*
X170388043Y-71880339D01*
X170378859Y-71868024D01*
X170366539Y-71849166D01*
X170306998Y-71784488D01*
X170303614Y-71780655D01*
X170285827Y-71759654D01*
X170266374Y-71740201D01*
X170262827Y-71736504D01*
X170203283Y-71671823D01*
X170185501Y-71657982D01*
X170173984Y-71647811D01*
X167670985Y-69144811D01*
X167660812Y-69133291D01*
X167646980Y-69115520D01*
X167645990Y-69114609D01*
X167582306Y-69055983D01*
X167578607Y-69052433D01*
X167559148Y-69032973D01*
X167538147Y-69015187D01*
X167534303Y-69011793D01*
X167490435Y-68971410D01*
X167469634Y-68952261D01*
X167450777Y-68939941D01*
X167438465Y-68930760D01*
X167421273Y-68916200D01*
X167345767Y-68871207D01*
X167341422Y-68868495D01*
X167331898Y-68862273D01*
X167267838Y-68820421D01*
X167247203Y-68811369D01*
X167233558Y-68804346D01*
X167214201Y-68792812D01*
X167214200Y-68792811D01*
X167214199Y-68792811D01*
X167145140Y-68765864D01*
X167132313Y-68760858D01*
X167127589Y-68758902D01*
X167047090Y-68723592D01*
X167025256Y-68718062D01*
X167010631Y-68713377D01*
X166989648Y-68705190D01*
X166989644Y-68705189D01*
X166959323Y-68698831D01*
X166903619Y-68687151D01*
X166898628Y-68685996D01*
X166813420Y-68664419D01*
X166790974Y-68662559D01*
X166775774Y-68660345D01*
X166753728Y-68655723D01*
X166665925Y-68652091D01*
X166660814Y-68651774D01*
X166636550Y-68649764D01*
X166633361Y-68649500D01*
X166633360Y-68649500D01*
X166605827Y-68649500D01*
X166600704Y-68649394D01*
X166597072Y-68649243D01*
X166512888Y-68645761D01*
X166490536Y-68648548D01*
X166475198Y-68649500D01*
X161248900Y-68649500D01*
X161201449Y-68640061D01*
X161135250Y-68612641D01*
X161049510Y-68577126D01*
X160804549Y-68518317D01*
X160553400Y-68498551D01*
X160302250Y-68518317D01*
X160057289Y-68577126D01*
X159824539Y-68673535D01*
X159609742Y-68805163D01*
X159418176Y-68968776D01*
X159254563Y-69160342D01*
X159122935Y-69375139D01*
X159026526Y-69607889D01*
X158967717Y-69852850D01*
X158947951Y-70103999D01*
X158967717Y-70355149D01*
X159026526Y-70600110D01*
X159074730Y-70716485D01*
X159122934Y-70832859D01*
X159254564Y-71047659D01*
X159418176Y-71239224D01*
X159609741Y-71402836D01*
X159824541Y-71534466D01*
X160057289Y-71630873D01*
X160302252Y-71689683D01*
X160553400Y-71709449D01*
X160804548Y-71689683D01*
X161049511Y-71630873D01*
X161201449Y-71567938D01*
X161248900Y-71558500D01*
X165919364Y-71558500D01*
X165966817Y-71567939D01*
X166007045Y-71594819D01*
X167723981Y-73311754D01*
X167750861Y-73351982D01*
X167760300Y-73399435D01*
X167760300Y-79886598D01*
X167759348Y-79901936D01*
X167756561Y-79924288D01*
X167760194Y-80012102D01*
X167760300Y-80017227D01*
X167760300Y-80044760D01*
X167762574Y-80072214D01*
X167762891Y-80077325D01*
X167766523Y-80165128D01*
X167771145Y-80187174D01*
X167773359Y-80202374D01*
X167775219Y-80224820D01*
X167796796Y-80310028D01*
X167797951Y-80315019D01*
X167815990Y-80401048D01*
X167824177Y-80422031D01*
X167828862Y-80436656D01*
X167834392Y-80458490D01*
X167869702Y-80538989D01*
X167871658Y-80543713D01*
X167903612Y-80625601D01*
X167915146Y-80644958D01*
X167922169Y-80658603D01*
X167931221Y-80679238D01*
X167979295Y-80752822D01*
X167982007Y-80757167D01*
X168027000Y-80832673D01*
X168041560Y-80849865D01*
X168050741Y-80862177D01*
X168063061Y-80881034D01*
X168121210Y-80944200D01*
X168122593Y-80945703D01*
X168125987Y-80949547D01*
X168143773Y-80970548D01*
X168163233Y-80990007D01*
X168166784Y-80993707D01*
X168226320Y-81058380D01*
X168244091Y-81072212D01*
X168255611Y-81082385D01*
X173781215Y-86607989D01*
X173791387Y-86619507D01*
X173805224Y-86637284D01*
X173869892Y-86696816D01*
X173873590Y-86700364D01*
X173893053Y-86719827D01*
X173914067Y-86737625D01*
X173917899Y-86741009D01*
X173982566Y-86800539D01*
X174000023Y-86811944D01*
X174001415Y-86812853D01*
X174013738Y-86822042D01*
X174030926Y-86836600D01*
X174106441Y-86881597D01*
X174110770Y-86884299D01*
X174184362Y-86932379D01*
X174205002Y-86941432D01*
X174218645Y-86948456D01*
X174237999Y-86959988D01*
X174238002Y-86959989D01*
X174319874Y-86991936D01*
X174324609Y-86993897D01*
X174383966Y-87019933D01*
X174405106Y-87029206D01*
X174426951Y-87034737D01*
X174441573Y-87039422D01*
X174462555Y-87047610D01*
X174548606Y-87065652D01*
X174553535Y-87066793D01*
X174638777Y-87088380D01*
X174661230Y-87090239D01*
X174676429Y-87092454D01*
X174698472Y-87097077D01*
X174786283Y-87100708D01*
X174791399Y-87101025D01*
X174806754Y-87102298D01*
X174818838Y-87103300D01*
X174818839Y-87103300D01*
X174846373Y-87103300D01*
X174851495Y-87103405D01*
X174871952Y-87104252D01*
X174939311Y-87107038D01*
X174939311Y-87107037D01*
X174939313Y-87107038D01*
X174961664Y-87104251D01*
X174977002Y-87103300D01*
X179492376Y-87103300D01*
X179552611Y-87118913D01*
X179597677Y-87161820D01*
X179616227Y-87221216D01*
X179603588Y-87282142D01*
X179586620Y-87316550D01*
X179572639Y-87344901D01*
X179479918Y-87618049D01*
X179423644Y-87900954D01*
X179404778Y-88188800D01*
X179423644Y-88476645D01*
X179479918Y-88759550D01*
X179572640Y-89032702D01*
X179700221Y-89291410D01*
X179766036Y-89389909D01*
X179784551Y-89434609D01*
X179784551Y-89482991D01*
X179766036Y-89527691D01*
X179700221Y-89626189D01*
X179572640Y-89884897D01*
X179479918Y-90158049D01*
X179423644Y-90440954D01*
X179404778Y-90728800D01*
X179423644Y-91016645D01*
X179479918Y-91299550D01*
X179572639Y-91572698D01*
X179572641Y-91572702D01*
X179603588Y-91635457D01*
X179616227Y-91696384D01*
X179597677Y-91755780D01*
X179552611Y-91798687D01*
X179492376Y-91814300D01*
X176286996Y-91814300D01*
X176230701Y-91800785D01*
X176186678Y-91763185D01*
X176164523Y-91709698D01*
X176169065Y-91651982D01*
X176199315Y-91602619D01*
X176229236Y-91572698D01*
X176267739Y-91534195D01*
X176439226Y-91305115D01*
X176576367Y-91053961D01*
X176676369Y-90785846D01*
X176737196Y-90506228D01*
X176757610Y-90220800D01*
X176737196Y-89935372D01*
X176676369Y-89655754D01*
X176576367Y-89387639D01*
X176439226Y-89136485D01*
X176267739Y-88907405D01*
X176065395Y-88705061D01*
X175930451Y-88604043D01*
X175836313Y-88533572D01*
X175585163Y-88396434D01*
X175585162Y-88396433D01*
X175585161Y-88396433D01*
X175317046Y-88296431D01*
X175317041Y-88296429D01*
X175037429Y-88235604D01*
X174752000Y-88215189D01*
X174466570Y-88235604D01*
X174186958Y-88296429D01*
X173918836Y-88396434D01*
X173667686Y-88533572D01*
X173438602Y-88705063D01*
X173236263Y-88907402D01*
X173064772Y-89136486D01*
X172927634Y-89387636D01*
X172827629Y-89655758D01*
X172766804Y-89935370D01*
X172746389Y-90220800D01*
X172766804Y-90506229D01*
X172827629Y-90785841D01*
X172834693Y-90804779D01*
X172910731Y-91008646D01*
X172927634Y-91053963D01*
X173064772Y-91305113D01*
X173112198Y-91368466D01*
X173236261Y-91534195D01*
X173236263Y-91534197D01*
X173304685Y-91602619D01*
X173334935Y-91651982D01*
X173339477Y-91709698D01*
X173317322Y-91763185D01*
X173273299Y-91800785D01*
X173217004Y-91814300D01*
X172535635Y-91814300D01*
X172488182Y-91804861D01*
X172447954Y-91777981D01*
X171442219Y-90772245D01*
X171415339Y-90732017D01*
X171405900Y-90684564D01*
X171405900Y-85873803D01*
X171406852Y-85858465D01*
X171409638Y-85836112D01*
X171406006Y-85748299D01*
X171405900Y-85743174D01*
X171405900Y-85715638D01*
X171403626Y-85688205D01*
X171403308Y-85683083D01*
X171399677Y-85595275D01*
X171399677Y-85595272D01*
X171395054Y-85573227D01*
X171392839Y-85558024D01*
X171391314Y-85539612D01*
X171390980Y-85535577D01*
X171369396Y-85450346D01*
X171368255Y-85445417D01*
X171350211Y-85359356D01*
X171342019Y-85338364D01*
X171337336Y-85323747D01*
X171331806Y-85301906D01*
X171296493Y-85221401D01*
X171294547Y-85216705D01*
X171262588Y-85134799D01*
X171251055Y-85115444D01*
X171244025Y-85101786D01*
X171234980Y-85081165D01*
X171234979Y-85081162D01*
X171186872Y-85007528D01*
X171184203Y-85003251D01*
X171139200Y-84927727D01*
X171139199Y-84927726D01*
X171139198Y-84927724D01*
X171124643Y-84910539D01*
X171115459Y-84898224D01*
X171103139Y-84879366D01*
X171043598Y-84814688D01*
X171040214Y-84810855D01*
X171022427Y-84789854D01*
X171002975Y-84770402D01*
X170999428Y-84766705D01*
X170939883Y-84702023D01*
X170922101Y-84688182D01*
X170910584Y-84678011D01*
X160933974Y-74701400D01*
X162611789Y-74701400D01*
X162632204Y-74986829D01*
X162693029Y-75266441D01*
X162693031Y-75266446D01*
X162752871Y-75426884D01*
X162793034Y-75534563D01*
X162930172Y-75785713D01*
X163003284Y-75883379D01*
X163101661Y-76014795D01*
X163304005Y-76217139D01*
X163437576Y-76317129D01*
X163533086Y-76388627D01*
X163672835Y-76464935D01*
X163784239Y-76525767D01*
X164052354Y-76625769D01*
X164052357Y-76625769D01*
X164052358Y-76625770D01*
X164104617Y-76637138D01*
X164331972Y-76686596D01*
X164617400Y-76707010D01*
X164902828Y-76686596D01*
X165182446Y-76625769D01*
X165450561Y-76525767D01*
X165701715Y-76388626D01*
X165930795Y-76217139D01*
X166133139Y-76014795D01*
X166304626Y-75785715D01*
X166441767Y-75534561D01*
X166541769Y-75266446D01*
X166602596Y-74986828D01*
X166623010Y-74701400D01*
X166602596Y-74415972D01*
X166551437Y-74180797D01*
X166541770Y-74136358D01*
X166541769Y-74136354D01*
X166441767Y-73868239D01*
X166340548Y-73682871D01*
X166304627Y-73617086D01*
X166255742Y-73551784D01*
X166133139Y-73388005D01*
X165930795Y-73185661D01*
X165816255Y-73099917D01*
X165701713Y-73014172D01*
X165450563Y-72877034D01*
X165450562Y-72877033D01*
X165450561Y-72877033D01*
X165182446Y-72777031D01*
X165182441Y-72777029D01*
X164902829Y-72716204D01*
X164617399Y-72695789D01*
X164331970Y-72716204D01*
X164052358Y-72777029D01*
X163784236Y-72877034D01*
X163533086Y-73014172D01*
X163304002Y-73185663D01*
X163101663Y-73388002D01*
X162930172Y-73617086D01*
X162793034Y-73868236D01*
X162693029Y-74136358D01*
X162632204Y-74415970D01*
X162611789Y-74701400D01*
X160933974Y-74701400D01*
X159873185Y-73640611D01*
X159863012Y-73629091D01*
X159849180Y-73611320D01*
X159784507Y-73551784D01*
X159780807Y-73548233D01*
X159761348Y-73528773D01*
X159740347Y-73510987D01*
X159736503Y-73507593D01*
X159735000Y-73506210D01*
X159671834Y-73448061D01*
X159652977Y-73435741D01*
X159640665Y-73426560D01*
X159623473Y-73412000D01*
X159547967Y-73367007D01*
X159543622Y-73364295D01*
X159518792Y-73348073D01*
X159470038Y-73316221D01*
X159449403Y-73307169D01*
X159435758Y-73300146D01*
X159416401Y-73288612D01*
X159416400Y-73288611D01*
X159416399Y-73288611D01*
X159377147Y-73273294D01*
X159334513Y-73256658D01*
X159329789Y-73254702D01*
X159249290Y-73219392D01*
X159227456Y-73213862D01*
X159212831Y-73209177D01*
X159191848Y-73200990D01*
X159191844Y-73200989D01*
X159161523Y-73194631D01*
X159105819Y-73182951D01*
X159100828Y-73181796D01*
X159015620Y-73160219D01*
X158993174Y-73158359D01*
X158977974Y-73156145D01*
X158955928Y-73151523D01*
X158868125Y-73147891D01*
X158863014Y-73147574D01*
X158838750Y-73145564D01*
X158835561Y-73145300D01*
X158835560Y-73145300D01*
X158808027Y-73145300D01*
X158802904Y-73145194D01*
X158799272Y-73145043D01*
X158715088Y-73141561D01*
X158692736Y-73144348D01*
X158677398Y-73145300D01*
X150894835Y-73145300D01*
X150847382Y-73135861D01*
X150807154Y-73108981D01*
X148220819Y-70522645D01*
X148193939Y-70482417D01*
X148184500Y-70434964D01*
X148184500Y-61568927D01*
X148193145Y-61523437D01*
X148217876Y-61484290D01*
X148363189Y-61328698D01*
X148528901Y-61093936D01*
X148661104Y-60838797D01*
X148757334Y-60568032D01*
X148815798Y-60286686D01*
X148835408Y-60000000D01*
X149704591Y-60000000D01*
X149724202Y-60286690D01*
X149782665Y-60568031D01*
X149878894Y-60838793D01*
X149878895Y-60838796D01*
X149878896Y-60838797D01*
X149892403Y-60864864D01*
X150011100Y-61093939D01*
X150176806Y-61328692D01*
X150176809Y-61328695D01*
X150176811Y-61328698D01*
X150338740Y-61502081D01*
X150372950Y-61538711D01*
X150506690Y-61647516D01*
X150595853Y-61720055D01*
X150841375Y-61869361D01*
X151104942Y-61983844D01*
X151381642Y-62061371D01*
X151666322Y-62100500D01*
X151953678Y-62100500D01*
X152238358Y-62061371D01*
X152515058Y-61983844D01*
X152778625Y-61869361D01*
X153024147Y-61720055D01*
X153247053Y-61538708D01*
X153443189Y-61328698D01*
X153608901Y-61093936D01*
X153741104Y-60838797D01*
X153837334Y-60568032D01*
X153895798Y-60286686D01*
X153915408Y-60000000D01*
X153915408Y-59999999D01*
X162784708Y-59999999D01*
X162803852Y-60279864D01*
X162860924Y-60554511D01*
X162954862Y-60818826D01*
X163083918Y-61067896D01*
X163211919Y-61249230D01*
X163245688Y-61297069D01*
X163437155Y-61502081D01*
X163654754Y-61679111D01*
X163894432Y-61824862D01*
X164151725Y-61936620D01*
X164421839Y-62012303D01*
X164699742Y-62050500D01*
X164980258Y-62050500D01*
X165258161Y-62012303D01*
X165528275Y-61936620D01*
X165785568Y-61824862D01*
X166025246Y-61679111D01*
X166242845Y-61502081D01*
X166434312Y-61297069D01*
X166596081Y-61067896D01*
X166725136Y-60818830D01*
X166819075Y-60554511D01*
X166876148Y-60279862D01*
X166895291Y-60000000D01*
X166876148Y-59720138D01*
X166819075Y-59445489D01*
X166725136Y-59181170D01*
X166644686Y-59025908D01*
X166596081Y-58932103D01*
X166444142Y-58716857D01*
X166434312Y-58702931D01*
X166242845Y-58497919D01*
X166025246Y-58320889D01*
X165785568Y-58175138D01*
X165528275Y-58063380D01*
X165326540Y-58006856D01*
X165258158Y-57987696D01*
X164980258Y-57949500D01*
X164699742Y-57949500D01*
X164421841Y-57987696D01*
X164223611Y-58043238D01*
X164151725Y-58063380D01*
X164151723Y-58063380D01*
X164151722Y-58063381D01*
X163894431Y-58175138D01*
X163654755Y-58320888D01*
X163437158Y-58497916D01*
X163437155Y-58497918D01*
X163437155Y-58497919D01*
X163322274Y-58620926D01*
X163245686Y-58702933D01*
X163083918Y-58932103D01*
X162954862Y-59181173D01*
X162860924Y-59445488D01*
X162803852Y-59720135D01*
X162784708Y-59999999D01*
X153915408Y-59999999D01*
X153895798Y-59713314D01*
X153888469Y-59678047D01*
X153837334Y-59431968D01*
X153741105Y-59161206D01*
X153741104Y-59161203D01*
X153608901Y-58906064D01*
X153608899Y-58906060D01*
X153443193Y-58671307D01*
X153443191Y-58671304D01*
X153443189Y-58671302D01*
X153247053Y-58461292D01*
X153247051Y-58461291D01*
X153247049Y-58461288D01*
X153024148Y-58279946D01*
X153024147Y-58279945D01*
X152778625Y-58130639D01*
X152778626Y-58130639D01*
X152778622Y-58130637D01*
X152518161Y-58017504D01*
X152515058Y-58016156D01*
X152300064Y-57955918D01*
X152238355Y-57938628D01*
X151953678Y-57899500D01*
X151666322Y-57899500D01*
X151381644Y-57938628D01*
X151206518Y-57987696D01*
X151104942Y-58016156D01*
X151104940Y-58016156D01*
X151104939Y-58016157D01*
X150841377Y-58130637D01*
X150595851Y-58279946D01*
X150372950Y-58461288D01*
X150176806Y-58671307D01*
X150011100Y-58906060D01*
X149878894Y-59161206D01*
X149782665Y-59431968D01*
X149724202Y-59713309D01*
X149704591Y-60000000D01*
X148835408Y-60000000D01*
X148815798Y-59713314D01*
X148808469Y-59678047D01*
X148757334Y-59431968D01*
X148661105Y-59161206D01*
X148661104Y-59161203D01*
X148528901Y-58906064D01*
X148528899Y-58906060D01*
X148363193Y-58671307D01*
X148363191Y-58671304D01*
X148363189Y-58671302D01*
X148167053Y-58461292D01*
X148167051Y-58461291D01*
X148167049Y-58461288D01*
X147944148Y-58279946D01*
X147944147Y-58279945D01*
X147698625Y-58130639D01*
X147698626Y-58130639D01*
X147698622Y-58130637D01*
X147438161Y-58017504D01*
X147435058Y-58016156D01*
X147220064Y-57955918D01*
X147158355Y-57938628D01*
X146873678Y-57899500D01*
X146586322Y-57899500D01*
X146301644Y-57938628D01*
X146126518Y-57987696D01*
X146024942Y-58016156D01*
X146024940Y-58016156D01*
X146024939Y-58016157D01*
X145761377Y-58130637D01*
X145524429Y-58274730D01*
X145460000Y-58292782D01*
X145395571Y-58274730D01*
X145291497Y-58211441D01*
X145158625Y-58130639D01*
X145158626Y-58130639D01*
X145158622Y-58130637D01*
X144898161Y-58017504D01*
X144895058Y-58016156D01*
X144680064Y-57955918D01*
X144618355Y-57938628D01*
X144333678Y-57899500D01*
X144046322Y-57899500D01*
X143761644Y-57938628D01*
X143586518Y-57987696D01*
X143484942Y-58016156D01*
X143484940Y-58016156D01*
X143484939Y-58016157D01*
X143221377Y-58130637D01*
X142975851Y-58279946D01*
X142752950Y-58461288D01*
X142556809Y-58671304D01*
X142495775Y-58757770D01*
X142448532Y-58797856D01*
X142387792Y-58810081D01*
X142328720Y-58791393D01*
X142286063Y-58746458D01*
X142270472Y-58686498D01*
X142265632Y-56105656D01*
X142282139Y-56043611D01*
X142327465Y-55998136D01*
X142389457Y-55981427D01*
X176709828Y-55933667D01*
X176766168Y-55947119D01*
X176810253Y-55984697D01*
X176832459Y-56038200D01*
X176827938Y-56095951D01*
X176797677Y-56145347D01*
X175029845Y-57913181D01*
X174989617Y-57940061D01*
X174942164Y-57949500D01*
X174075903Y-57949500D01*
X173983432Y-57955918D01*
X173766855Y-58006856D01*
X173563330Y-58096722D01*
X173488634Y-58147889D01*
X173430372Y-58169024D01*
X173369158Y-58159322D01*
X173148280Y-58063382D01*
X173148278Y-58063381D01*
X173148275Y-58063380D01*
X172934937Y-58003605D01*
X172878158Y-57987696D01*
X172600258Y-57949500D01*
X172319742Y-57949500D01*
X172041841Y-57987696D01*
X171843611Y-58043238D01*
X171771725Y-58063380D01*
X171771723Y-58063380D01*
X171771722Y-58063381D01*
X171514431Y-58175138D01*
X171274751Y-58320890D01*
X171268252Y-58326178D01*
X171217985Y-58350789D01*
X171162015Y-58350789D01*
X171111748Y-58326178D01*
X171105248Y-58320890D01*
X170865568Y-58175138D01*
X170652609Y-58082637D01*
X170608275Y-58063380D01*
X170406540Y-58006856D01*
X170338158Y-57987696D01*
X170060258Y-57949500D01*
X169779742Y-57949500D01*
X169501841Y-57987696D01*
X169303611Y-58043238D01*
X169231725Y-58063380D01*
X169231723Y-58063380D01*
X169231722Y-58063381D01*
X168974431Y-58175138D01*
X168734755Y-58320888D01*
X168517158Y-58497916D01*
X168517155Y-58497918D01*
X168517155Y-58497919D01*
X168402274Y-58620926D01*
X168325686Y-58702933D01*
X168163918Y-58932103D01*
X168034862Y-59181173D01*
X167940924Y-59445488D01*
X167883852Y-59720135D01*
X167864708Y-59999999D01*
X167883852Y-60279864D01*
X167940924Y-60554511D01*
X168034862Y-60818826D01*
X168163918Y-61067896D01*
X168291919Y-61249230D01*
X168325688Y-61297069D01*
X168517155Y-61502081D01*
X168734754Y-61679111D01*
X168974432Y-61824862D01*
X169231725Y-61936620D01*
X169501839Y-62012303D01*
X169779742Y-62050500D01*
X170060258Y-62050500D01*
X170338161Y-62012303D01*
X170608275Y-61936620D01*
X170865568Y-61824862D01*
X171105246Y-61679111D01*
X171105246Y-61679110D01*
X171111744Y-61673825D01*
X171162014Y-61649211D01*
X171217986Y-61649211D01*
X171268256Y-61673825D01*
X171274753Y-61679111D01*
X171420504Y-61767743D01*
X171514432Y-61824862D01*
X171771725Y-61936620D01*
X172041839Y-62012303D01*
X172319742Y-62050500D01*
X172600258Y-62050500D01*
X172878161Y-62012303D01*
X173148275Y-61936620D01*
X173369161Y-61840675D01*
X173430374Y-61830974D01*
X173488635Y-61852109D01*
X173563329Y-61903277D01*
X173563330Y-61903277D01*
X173563331Y-61903278D01*
X173766855Y-61993143D01*
X173983432Y-62044081D01*
X174075903Y-62050500D01*
X174075908Y-62050500D01*
X175924092Y-62050500D01*
X175924097Y-62050500D01*
X176016567Y-62044081D01*
X176233144Y-61993143D01*
X176287631Y-61969084D01*
X176436671Y-61903277D01*
X176620221Y-61777542D01*
X176777542Y-61620221D01*
X176903277Y-61436671D01*
X176969084Y-61287631D01*
X176993143Y-61233144D01*
X177044081Y-61016567D01*
X177050500Y-60924097D01*
X177050500Y-60057836D01*
X177059939Y-60010383D01*
X177086819Y-59970155D01*
X179381354Y-57675619D01*
X179421582Y-57648739D01*
X179469035Y-57639300D01*
X184537564Y-57639300D01*
X184585017Y-57648739D01*
X184625245Y-57675619D01*
X188297981Y-61348355D01*
X188324861Y-61388583D01*
X188334300Y-61436036D01*
X188334300Y-66639900D01*
X188324861Y-66687353D01*
X188261926Y-66839289D01*
X188203117Y-67084250D01*
X188183351Y-67335399D01*
X188203117Y-67586549D01*
X188261926Y-67831510D01*
X188310130Y-67947884D01*
X188358334Y-68064259D01*
X188489964Y-68279059D01*
X188653576Y-68470624D01*
X188845141Y-68634236D01*
X189059941Y-68765866D01*
X189292689Y-68862273D01*
X189537652Y-68921083D01*
X189788800Y-68940849D01*
X190039948Y-68921083D01*
X190284911Y-68862273D01*
X190517659Y-68765866D01*
X190732459Y-68634236D01*
X190924024Y-68470624D01*
X191087636Y-68279059D01*
X191219266Y-68064259D01*
X191315673Y-67831511D01*
X191374483Y-67586548D01*
X191394249Y-67335400D01*
X191374483Y-67084252D01*
X191315673Y-66839289D01*
X191252738Y-66687350D01*
X191243300Y-66639900D01*
X191243300Y-60880202D01*
X191244252Y-60864864D01*
X191247038Y-60842511D01*
X191243406Y-60754698D01*
X191243300Y-60749573D01*
X191243300Y-60722038D01*
X191241026Y-60694605D01*
X191240708Y-60689483D01*
X191237077Y-60601675D01*
X191237077Y-60601672D01*
X191232454Y-60579629D01*
X191230239Y-60564424D01*
X191229418Y-60554511D01*
X191228380Y-60541977D01*
X191206796Y-60456749D01*
X191205644Y-60451769D01*
X191187610Y-60365756D01*
X191179421Y-60344771D01*
X191174733Y-60330135D01*
X191169206Y-60308306D01*
X191133884Y-60227781D01*
X191131944Y-60223097D01*
X191099988Y-60141199D01*
X191088456Y-60121845D01*
X191081432Y-60108202D01*
X191072379Y-60087562D01*
X191024299Y-60013970D01*
X191021597Y-60009641D01*
X190976600Y-59934126D01*
X190962042Y-59916938D01*
X190952853Y-59904615D01*
X190940539Y-59885766D01*
X190881016Y-59821107D01*
X190877625Y-59817267D01*
X190859827Y-59796253D01*
X190840364Y-59776790D01*
X190836816Y-59773092D01*
X190777284Y-59708424D01*
X190777283Y-59708423D01*
X190777282Y-59708422D01*
X190759507Y-59694587D01*
X190747989Y-59684415D01*
X187194210Y-56130636D01*
X187163971Y-56081306D01*
X187159407Y-56023625D01*
X187181512Y-55970153D01*
X187225473Y-55932533D01*
X187281715Y-55918955D01*
X228382341Y-55861760D01*
X228448218Y-55880599D01*
G37*
%TD.AperFunction*%
%TD*%
M02*
