M48
; DRILL file {KiCad 7.0.1} date Wed Nov 27 13:58:05 2024
; FORMAT={-:-/ absolute / inch / decimal}
; #@! TF.CreationDate,2024-11-27T13:58:05-05:00
; #@! TF.GenerationSoftware,Kicad,Pcbnew,7.0.1
; #@! TF.FileFunction,Plated,1,2,PTH
FMAT,2
INCH
; #@! TA.AperFunction,Plated,PTH,ViaDrill
T1C0.0157
; #@! TA.AperFunction,Plated,PTH,ComponentDrill
T2C0.0197
; #@! TA.AperFunction,Plated,PTH,ComponentDrill
T3C0.0315
; #@! TA.AperFunction,Plated,PTH,ComponentDrill
T4C0.0315
; #@! TA.AperFunction,Plated,PTH,ComponentDrill
T5C0.0335
; #@! TA.AperFunction,Plated,PTH,ComponentDrill
T6C0.0394
; #@! TA.AperFunction,Plated,PTH,ComponentDrill
T7C0.0402
; #@! TA.AperFunction,Plated,PTH,ComponentDrill
T8C0.0413
; #@! TA.AperFunction,Plated,PTH,ComponentDrill
T9C0.0433
; #@! TA.AperFunction,Plated,PTH,ComponentDrill
T10C0.0512
; #@! TA.AperFunction,Plated,PTH,ComponentDrill
T11C0.0591
; #@! TA.AperFunction,Plated,PTH,ComponentDrill
T12C0.0591
; #@! TA.AperFunction,Plated,PTH,ComponentDrill
T13C0.0598
; #@! TA.AperFunction,Plated,PTH,ComponentDrill
T14C0.1181
%
G90
G05
T1
X6.321Y-2.76
X7.472Y-2.651
T2
X2.2736Y-2.3622
X2.2736Y-5.1181
X2.2996Y-2.2996
X2.2996Y-2.4248
X2.2996Y-5.0555
X2.2996Y-5.1807
X2.3622Y-2.2736
X2.3622Y-2.4508
X2.3622Y-5.0295
X2.3622Y-5.2067
X2.4248Y-2.2996
X2.4248Y-2.4248
X2.4248Y-5.0555
X2.4248Y-5.1807
X2.4508Y-2.3622
X2.4508Y-5.1181
X8.9665Y-2.3622
X8.9665Y-5.1181
X8.9925Y-2.2996
X8.9925Y-2.4248
X8.9925Y-5.0555
X8.9925Y-5.1807
X9.0551Y-2.2736
X9.0551Y-2.4508
X9.0551Y-5.0295
X9.0551Y-5.2067
X9.1178Y-2.2996
X9.1178Y-2.4248
X9.1178Y-5.0555
X9.1178Y-5.1807
X9.1437Y-2.3622
X9.1437Y-5.1181
T3
X5.731Y-3.1364
X5.731Y-3.4356
X5.831Y-3.1364
X5.831Y-3.4356
X5.931Y-3.1364
X5.931Y-3.4356
T4
X3.983Y-3.485
X4.014Y-4.616
X4.383Y-3.485
X4.414Y-4.616
X4.846Y-3.06
X5.246Y-3.06
X5.5084Y-4.0078
X5.5084Y-4.1078
X5.8084Y-4.0078
X5.8084Y-4.1078
X6.48Y-3.552
X6.481Y-2.941
X6.88Y-3.552
X6.881Y-2.941
X8.4646Y-3.3465
X8.4646Y-4.1339
X8.8646Y-3.3465
X8.8646Y-4.1339
T5
X8.65Y-3.6417
X8.65Y-3.8386
T6
X6.4898Y-2.3622
X6.5898Y-2.3622
X6.6898Y-2.3622
X6.7898Y-2.3622
X6.8898Y-2.3622
X7.0405Y-4.4567
X7.0405Y-4.6536
X8.198Y-4.252
X8.198Y-4.8583
X8.4646Y-2.3622
X8.563Y-2.3622
X8.6614Y-2.3622
T7
X7.15Y-2.372
X7.15Y-2.472
X7.15Y-2.572
X7.15Y-2.672
X7.15Y-2.772
X7.15Y-2.872
X7.15Y-2.972
X7.15Y-3.072
X7.15Y-3.172
X7.15Y-3.272
X7.15Y-3.372
X7.15Y-3.472
X7.15Y-3.572
X7.15Y-3.672
X7.15Y-3.772
X8.15Y-2.372
X8.15Y-2.472
X8.15Y-2.572
X8.15Y-2.672
X8.15Y-2.772
X8.15Y-2.872
X8.15Y-2.972
X8.15Y-3.072
X8.15Y-3.172
X8.15Y-3.272
X8.15Y-3.372
X8.15Y-3.472
X8.15Y-3.572
X8.15Y-3.672
X8.15Y-3.772
T8
X5.6768Y-2.3622
X5.7768Y-2.3622
X5.8768Y-2.3622
X5.9768Y-2.3622
T9
X4.9213Y-2.3622
X5.0213Y-2.3622
X5.1213Y-2.3622
T10
X4.7912Y-3.8052
X4.7912Y-4.2147
X5.2007Y-3.8052
X5.2007Y-4.2147
T11
X2.3622Y-2.7221
X2.3622Y-3.6119
X2.3622Y-4.002
X2.3622Y-4.567
X3.266Y-3.0667
X3.266Y-3.736
X3.266Y-4.4053
X5.1181Y-5.1181
X6.0079Y-5.1181
T12
X8.5728Y-2.8543
X8.5728Y-3.0512
X8.5728Y-4.4291
X8.5728Y-4.626
X9.065Y-2.8543
X9.065Y-3.0512
X9.065Y-4.4291
X9.065Y-4.626
T13
X4.008Y-2.36
X4.208Y-2.36
T14
X2.3622Y-2.3622
X2.3622Y-5.1181
X9.0551Y-2.3622
X9.0551Y-5.1181
T0
M30
